<svg width="22" height="22" enable-background="new" version="1.1" xmlns="http://www.w3.org/2000/svg">
 <defs>
  <style id="current-color-scheme" type="text/css">.ColorScheme-Text { color:#dedede; } .ColorScheme-Highlight { color:#5294e2; } .ColorScheme-ButtonBackground { color:#dedede; }</style>
 </defs>
 <g id="audio-volume-muted" transform="translate(-32.206)">
  <path d="m0 0h22v22h-22v-22z" opacity="0"/>
  <g transform="translate(-262 416)">
   <path class="ColorScheme-Text" transform="translate(160.95 -604.96)" d="m112.04 192.96-4.043 4.0449h-3.002v6h3.0898l3.9551 3.9551zm2 0v1.5c2.32 0.74 4 2.93 4 5.5s-1.68 4.76-4 5.5v1.5c3.15-0.78 5.5-3.6 5.5-7s-2.35-6.22-5.5-7zm0 4v6c1.06-0.58 1.791-1.7 1.791-3s-0.72102-2.42-1.791-3z" fill="currentColor" opacity=".3"/>
  </g>
 </g>
 <g id="audio-volume-high">
  <path d="m0 0h22v22h-22v-22z" opacity="0"/>
  <g transform="translate(-262 416)" enable-background="new">
   <path class="ColorScheme-Text" transform="translate(160.95 -604.96)" d="m112.04 192.96-4.043 4.0449h-3.002v6h3.0898l3.9551 3.9551zm2 0v1.5c2.32 0.74 4 2.93 4 5.5s-1.68 4.76-4 5.5v1.5c3.15-0.78 5.5-3.6 5.5-7s-2.35-6.22-5.5-7zm0 4v6c1.06-0.58 1.791-1.7 1.791-3s-0.72102-2.42-1.791-3z" fill="currentColor"/>
  </g>
 </g>
 <g id="audio-volume-low">
  <path d="m25 0h22v22h-22v-22z" fill="none"/>
  <g class="ColorScheme-Text" transform="translate(-237 416)" fill="currentColor">
   <path transform="translate(101 -605)" d="m172 193-3.9102 3.998h-3.0898v6h3.0879l3.9121 4.002z"/>
   <path d="m275-412v1.5c2.32 0.74 4 2.93 4 5.5s-1.68 4.76-4 5.5v1.5c3.15-0.78 5.5-3.6 5.5-7s-2.35-6.22-5.5-7z" opacity=".35"/>
   <path d="m276.79-405c0-1.3-0.72-2.42-1.79-3v6c1.06-0.58 1.79-1.7 1.79-3z" opacity=".35"/>
  </g>
 </g>
 <g id="audio-volume-medium">
  <path d="m50 0h22v22h-22v-22z" fill="none"/>
  <g class="ColorScheme-Text" transform="translate(-212 416)" fill="currentColor">
   <path transform="translate(121 -605)" d="m152 193-3.9102 3.998h-3.0898v6h3.0879l3.9121 4.002zm2 4v6c1.06-0.58 1.7891-1.7 1.7891-3s-0.71906-2.42-1.7891-3z"/>
   <path d="m275-412v1.5c2.32 0.74 4 2.93 4 5.5s-1.68 4.76-4 5.5v1.5c3.15-0.78 5.5-3.6 5.5-7s-2.35-6.22-5.5-7z" opacity=".35"/>
  </g>
 </g>
 <g id="16-16-audio-volume-high" class="ColorScheme-Text" transform="translate(-262 446.63)" fill="currentColor">
  <rect x="265" y="-413" width="16" height="16" fill="none"/>
  <path transform="translate(160.95 -604.96)" d="m112.04 192.96-4.043 4.0449h-3.002v6h3.0898l3.9551 3.9551zm2 0v1.5c2.32 0.74 4 2.93 4 5.5s-1.68 4.76-4 5.5v1.5c3.15-0.78 5.5-3.6 5.5-7s-2.35-6.22-5.5-7zm0 4v6c1.06-0.58 1.791-1.7 1.791-3s-0.72102-2.42-1.791-3z"/>
 </g>
 <g id="16-16-audio-volume-muted" transform="translate(-294.75 446.09)" enable-background="new">
  <rect x="265" y="-413" width="16" height="16" color="#bebebe" fill="none" opacity=".1"/>
  <path transform="translate(160.95,-604.96)" d="m112.04 192.96-4.043 4.0449h-3.002v6h3.0898l3.9551 3.9551zm2 0v1.5c2.32 0.74 4 2.93 4 5.5s-1.68 4.76-4 5.5v1.5c3.15-0.78 5.5-3.6 5.5-7s-2.35-6.22-5.5-7zm0 4v6c1.06-0.58 1.791-1.7 1.791-3s-0.72102-2.42-1.791-3z" fill="#dedede" opacity=".3"/>
 </g>
 <g id="16-16-audio-volume-low" transform="translate(-234.41 446.93)" enable-background="new">
  <rect x="265" y="-413" width="16" height="16" color="#bebebe" fill="none" opacity=".1"/>
  <path transform="translate(101,-605)" d="m172 193-3.9102 3.998h-3.0898v6h3.0879l3.9121 4.002z" fill="#dedede"/>
  <path d="m275-412v1.5c2.32 0.74 4 2.93 4 5.5s-1.68 4.76-4 5.5v1.5c3.15-0.78 5.5-3.6 5.5-7s-2.35-6.22-5.5-7z" fill="#dedede" opacity=".35"/>
  <path d="m276.79-405c0-1.3-0.72-2.42-1.79-3v6c1.06-0.58 1.79-1.7 1.79-3z" fill="#dedede" opacity=".35"/>
 </g>
 <g id="16-16-audio-volume-medium" transform="translate(-206.68 446.58)" enable-background="new">
  <rect x="265" y="-413" width="16" height="16" color="#bebebe" fill="none" opacity=".1"/>
  <path transform="translate(121,-605)" d="m152 193-3.9102 3.998h-3.0898v6h3.0879l3.9121 4.002zm2 4v6c1.06-0.58 1.7891-1.7 1.7891-3s-0.71906-2.42-1.7891-3z" fill="#dedede"/>
  <path d="m275-412v1.5c2.32 0.74 4 2.93 4 5.5s-1.68 4.76-4 5.5v1.5c3.15-0.78 5.5-3.6 5.5-7s-2.35-6.22-5.5-7z" fill="#dedede" opacity=".35"/>
 </g>
</svg>
