<svg version="1.1" viewBox="0 0 22 22" xmlns="http://www.w3.org/2000/svg">
 <defs>
  <style id="current-color-scheme" type="text/css">.ColorScheme-Text { color:#dedede; } .ColorScheme-Highlight { color:#5294e2; } .ColorScheme-ButtonBackground { color:#dedede; }</style>
 </defs>
 <g id="22-22-configure" transform="matrix(3.7795 0 0 3.7795 -213 -202.52)">
  <rect x="56.356" y="53.583" width="5.8208" height="5.8208" opacity="0"/>
  <path d="m59.267 54.378a2.1166 2.1166 0 0 0-0.29031 0.02251 1.1759 1.1759 0 0 1-0.53284 0.66835 1.1759 1.1759 0 0 1-0.8452 0.1277 2.1166 2.1166 0 0 0-0.29123 0.50115 1.1759 1.1759 0 0 1 0.31328 0.79697 1.1759 1.1759 0 0 1-0.31328 0.79743 2.1166 2.1166 0 0 0 0.28893 0.50115 1.1759 1.1759 0 0 1 0.20395-0.02894 1.1759 1.1759 0 0 1 0.64355 0.15618 1.1759 1.1759 0 0 1 0.53376 0.66835 2.1166 2.1166 0 0 0 0.28939 0.02251 2.1166 2.1166 0 0 0 0.28985-0.02205 1.1759 1.1759 0 0 1 0.5333-0.66881 1.1759 1.1759 0 0 1 0.56041-0.1571 1.1759 1.1759 0 0 1 0.28526 0.0294 2.1166 2.1166 0 0 0 0.29077-0.50115 1.1759 1.1759 0 0 1-0.31328-0.79697 1.1759 1.1759 0 0 1 0.31328-0.79743 2.1166 2.1166 0 0 0-0.28939-0.50115 1.1759 1.1759 0 0 1-0.84704-0.12724 1.1759 1.1759 0 0 1-0.53376-0.66835 2.1166 2.1166 0 0 0-0.28939-0.02251zm0 0.94075a1.1759 1.1759 0 0 1 1.1759 1.1759 1.1759 1.1759 0 0 1-1.1759 1.1759 1.1759 1.1759 0 0 1-1.1759-1.1759 1.1759 1.1759 0 0 1 1.1759-1.1759zm-0.01148 0.47129a0.70556 0.70556 0 0 0-0.69316 0.70556 0.70556 0.70556 0 0 0 0.70556 0.70556 0.70556 0.70556 0 0 0 0.70556-0.70556 0.70556 0.70556 0 0 0-0.70556-0.70556 0.70556 0.70556 0 0 0-0.0124 0z" fill="#dedede"/>
 </g>
 <g id="16-16-configure">
  <rect x="2.7797" y="-19.864" width="16" height="16" fill="none"/>
  <g transform="matrix(3.31 0 0 3.31 -13.742 4.7358)" fill="#dedede">
   <path d="m5.8081-6.4096a2.1166 2.1166 0 0 0-0.39715 0.68876 0.79374 0.79374 45 0 1 0.40997 0.69356 0.79374 0.79374 45 0 1-0.41065 0.69536 2.1166 2.1166 0 0 0 0.16487 0.36308 2.1166 2.1166 0 0 0 0.23245 0.32406 0.79374 0.79374 45 0 1 0.80707-0.0077 0.79374 0.79374 45 0 1 0.39643 0.70317 2.1166 2.1166 0 0 0 0.79518-0.00143 0.79374 0.79374 45 0 1 0.39569-0.70163 0.79374 0.79374 45 0 1 0.80637 0.00763 2.1166 2.1166 0 0 0 0.39715-0.68876 0.79374 0.79374 45 0 1-0.40997-0.69356 0.79374 0.79374 45 0 1 0.36507-0.66785 0.79374 0.79374 45 0 1 0.045837-0.027061 2.1166 2.1166 0 0 0-0.16513-0.36353 2.1166 2.1166 0 0 0-0.23296-0.32496 0.79374 0.79374 45 0 1-0.80655 0.00859 0.79374 0.79374 45 0 1-0.39643-0.70317 2.1166 2.1166 0 0 0-0.79518 0.00143 0.79374 0.79374 45 0 1-0.39569 0.70163 0.79374 0.79374 45 0 1-0.80637-0.00763zm1.071 0.46589a1.0583 1.0583 0 0 1 1.4457 0.38737 1.0583 1.0583 0 0 1-0.38737 1.4457 1.0583 1.0583 0 0 1-1.4457-0.38737 1.0583 1.0583 0 0 1 0.38737-1.4457z"/>
   <circle cx="7.4083" cy="-5.0271" r=".52916"/>
  </g>
 </g>
 <g id="configure">
  <rect x="-39.799" y="-4.0489" width="32" height="32" fill="none"/>
  <g transform="matrix(5.6742 0 0 5.6742 -65.835 40.476)" fill="#dedede">
   <path d="m5.8081-6.4096a2.1166 2.1166 0 0 0-0.39715 0.68876 0.79374 0.79374 45 0 1 0.40997 0.69356 0.79374 0.79374 45 0 1-0.41065 0.69536 2.1166 2.1166 0 0 0 0.16487 0.36308 2.1166 2.1166 0 0 0 0.23245 0.32406 0.79374 0.79374 45 0 1 0.80707-0.0077 0.79374 0.79374 45 0 1 0.39643 0.70317 2.1166 2.1166 0 0 0 0.79518-0.00143 0.79374 0.79374 45 0 1 0.39569-0.70163 0.79374 0.79374 45 0 1 0.80637 0.00763 2.1166 2.1166 0 0 0 0.39715-0.68876 0.79374 0.79374 45 0 1-0.40997-0.69356 0.79374 0.79374 45 0 1 0.36507-0.66785 0.79374 0.79374 45 0 1 0.045837-0.027061 2.1166 2.1166 0 0 0-0.16513-0.36353 2.1166 2.1166 0 0 0-0.23296-0.32496 0.79374 0.79374 45 0 1-0.80655 0.00859 0.79374 0.79374 45 0 1-0.39643-0.70317 2.1166 2.1166 0 0 0-0.79518 0.00143 0.79374 0.79374 45 0 1-0.39569 0.70163 0.79374 0.79374 45 0 1-0.80637-0.00763zm1.071 0.46589a1.0583 1.0583 0 0 1 1.4457 0.38737 1.0583 1.0583 0 0 1-0.38737 1.4457 1.0583 1.0583 0 0 1-1.4457-0.38737 1.0583 1.0583 0 0 1 0.38737-1.4457z"/>
   <circle cx="7.4083" cy="-5.0271" r=".52916"/>
  </g>
 </g>
</svg>
