<?xml version="1.0" encoding="UTF-8"?>
<svg width="22" height="22" enable-background="new" version="1.1" xmlns="http://www.w3.org/2000/svg" xmlns:cc="http://creativecommons.org/ns#" xmlns:dc="http://purl.org/dc/elements/1.1/" xmlns:rdf="http://www.w3.org/1999/02/22-rdf-syntax-ns#">
 <metadata>
  <rdf:RDF>
   <cc:Work rdf:about="">
    <dc:format>image/svg+xml</dc:format>
    <dc:type rdf:resource="http://purl.org/dc/dcmitype/StillImage"/>
    <dc:title/>
   </cc:Work>
  </rdf:RDF>
 </metadata>
 <defs>
  <style id="current-color-scheme" type="text/css">.ColorScheme-Text { color:#dedede; } .ColorScheme-Highlight { color:#5294e2; } .ColorScheme-ButtonBackground { color:#dedede; }</style>
 </defs>
 <g id="22-22-disk-quota">
  <path d="m6 2c-1.108 0-2 0.892-2 2v14c0 1.108 0.892 2 2 2h10c1.108 0 2-0.892 2-2v-14c0-1.108-0.892-2-2-2zm0 2h1v2h-1zm2 0h1v2h-1zm2 0h1v2h-1zm2 0h1v2h-1zm2 1h1v1h-1zm-3 2a5 5 0 0 1 5 5 5 5 0 0 1-5 5 5 5 0 0 1-5-5 5 5 0 0 1 5-5zm5 10a1 1 0 0 1 1 1 1 1 0 0 1-1 1 1 1 0 0 1-1-1 1 1 0 0 1 1-1z" fill="#dedede"/>
  <path d="m11 7a5 5 0 0 0-5 5 5 5 0 0 0 5 5 5 5 0 0 0 5-5h-5z" fill="#dedede" opacity=".3"/>
  <path d="m0 0h22v22h-22z" opacity="0"/>
  <g fill="#dedede">
   <circle cx="11" cy="12" r="2"/>
  </g>
 </g>
 <g id="22-22-disk-quota-low" transform="translate(32)">
  <path d="m6 2c-1.108 0-2 0.892-2 2v14c0 1.108 0.892 2 2 2h10c1.108 0 2-0.892 2-2v-14c0-1.108-0.892-2-2-2zm0 2h1v2h-1zm2 0h1v2h-1zm2 0h1v2h-1zm2 0h1v2h-1zm2 1h1v1h-1zm-3 2a5 5 0 0 1 5 5 5 5 0 0 1-5 5 5 5 0 0 1-5-5 5 5 0 0 1 5-5zm5 10a1 1 0 0 1 1 1 1 1 0 0 1-1 1 1 1 0 0 1-1-1 1 1 0 0 1 1-1z" fill="#dedede"/>
  <path d="m11 7a5 5 0 0 0-5 5 5 5 0 0 0 5 5 5 5 0 0 0 5-5h-5z" fill="#dc6e2e"/>
  <path d="m0 0h22v22h-22z" opacity="0"/>
  <g fill="#dedede">
   <circle cx="11" cy="12" r="2"/>
  </g>
 </g>
 <g id="22-22-disk-quota-high" transform="translate(59)">
  <path d="m6 2c-1.108 0-2 0.892-2 2v14c0 1.108 0.892 2 2 2h10c1.108 0 2-0.892 2-2v-14c0-1.108-0.892-2-2-2zm0 2h1v2h-1zm2 0h1v2h-1zm2 0h1v2h-1zm2 0h1v2h-1zm2 1h1v1h-1zm-3 2a5 5 0 0 1 5 5 5 5 0 0 1-5 5 5 5 0 0 1-5-5 5 5 0 0 1 5-5zm5 10a1 1 0 0 1 1 1 1 1 0 0 1-1 1 1 1 0 0 1-1-1 1 1 0 0 1 1-1z" fill="#dedede"/>
  <path d="m11 7a5 5 0 0 0-5 5 5 5 0 0 0 5 5 5 5 0 0 0 5-5h-5z" fill="#eb5555"/>
  <path d="m0 0h22v22h-22z" opacity="0"/>
  <g fill="#dedede">
   <circle cx="11" cy="12" r="2"/>
  </g>
 </g>
 <g id="22-22-disk-quota-critical" transform="translate(-34)">
  <path d="m126 2c-1.108 0-2 0.892-2 2v14c0 1.108 0.892 2 2 2h10c1.108 0 2-0.892 2-2v-14c0-1.108-0.892-2-2-2zm0 2h1v2h-1zm2 0h1v2h-1zm2 0h1v2h-1zm2 0h1v2h-1zm2 1h1v1h-1zm-3 2a5 5 0 0 1 5 5 5 5 0 0 1-5 5 5 5 0 0 1-5-5 5 5 0 0 1 5-5zm5 10a1 1 0 0 1 1 1 1 1 0 0 1-1 1 1 1 0 0 1-1-1 1 1 0 0 1 1-1z" fill="#dedede"/>
  <path d="m131 7a5 5 0 0 0-5 5 5 5 0 0 0 5 5 5 5 0 0 0 5-5h-5z" fill="#eb5555"/>
  <path d="m120 0h22v22h-22z" opacity="0"/>
  <g transform="translate(120)" fill="#dedede">
   <circle cx="11" cy="12" r="2"/>
  </g>
  <path d="m139 11v5h2v-5zm0 6v2h2v-2z" fill="#dc6e2e"/>
 </g>
 <g id="disk-quota">
  <path d="m0 38h32v32h-32z" opacity="0" stroke-width="1.4546"/>
  <g transform="translate(-32)" fill="#dedede" stroke-linecap="square" stroke-linejoin="round">
   <path d="m48 49a8 8 0 0 0-8 8 8 8 0 0 0 8 8 8 8 0 0 0 8-8h-8z" opacity=".35" stroke-width="2.1333"/>
   <path d="m40 40c-1.662 0-3 1.338-3 3v22c0 1.662 1.338 3 3 3h16c1.662 0 3-1.338 3-3v-22c0-1.662-1.338-3-3-3zm0 3h1v3h-1zm2 0h1v3h-1zm2 0h1v3h-1zm2 0h1v3h-1zm2 0h1v3h-1zm3 1h1v2h-1zm-3 5a8 8 0 0 1 8 8 8 8 0 0 1-8 8 8 8 0 0 1-8-8 8 8 0 0 1 8-8zm8 15a1 1 0 0 1 1 1 1 1 0 0 1-1 1 1 1 0 0 1-1-1 1 1 0 0 1 1-1z" stroke-width="2"/>
   <circle cx="48" cy="57" r="3" stroke-width=".8"/>
  </g>
 </g>
 <g id="disk-quota-low" transform="translate(46)">
  <path d="m0 38h32v32h-32z" opacity="0" stroke-width="1.4546"/>
  <g transform="translate(-32)" stroke-linecap="square" stroke-linejoin="round">
   <path d="m48 49a8 8 0 0 0-8 8 8 8 0 0 0 8 8 8 8 0 0 0 8-8h-8z" fill="#dc6e2e" stroke-width="2.1333"/>
   <path d="m40 40c-1.662 0-3 1.338-3 3v22c0 1.662 1.338 3 3 3h16c1.662 0 3-1.338 3-3v-22c0-1.662-1.338-3-3-3zm0 3h1v3h-1zm2 0h1v3h-1zm2 0h1v3h-1zm2 0h1v3h-1zm2 0h1v3h-1zm3 1h1v2h-1zm-3 5a8 8 0 0 1 8 8 8 8 0 0 1-8 8 8 8 0 0 1-8-8 8 8 0 0 1 8-8zm8 15a1 1 0 0 1 1 1 1 1 0 0 1-1 1 1 1 0 0 1-1-1 1 1 0 0 1 1-1z" fill="#dedede" stroke-width="2"/>
   <circle cx="48" cy="57" r="3" fill="#dedede" stroke-width=".8"/>
  </g>
 </g>
 <g id="disk-quota-high" transform="translate(94)">
  <path d="m0 38h32v32h-32z" opacity="0" stroke-width="1.4546"/>
  <g transform="translate(-32)" stroke-linecap="square" stroke-linejoin="round">
   <path d="m48 49a8 8 0 0 0-8 8 8 8 0 0 0 8 8 8 8 0 0 0 8-8h-8z" fill="#eb5555" stroke-width="2.1333"/>
   <path d="m40 40c-1.662 0-3 1.338-3 3v22c0 1.662 1.338 3 3 3h16c1.662 0 3-1.338 3-3v-22c0-1.662-1.338-3-3-3zm0 3h1v3h-1zm2 0h1v3h-1zm2 0h1v3h-1zm2 0h1v3h-1zm2 0h1v3h-1zm3 1h1v2h-1zm-3 5a8 8 0 0 1 8 8 8 8 0 0 1-8 8 8 8 0 0 1-8-8 8 8 0 0 1 8-8zm8 15a1 1 0 0 1 1 1 1 1 0 0 1-1 1 1 1 0 0 1-1-1 1 1 0 0 1 1-1z" fill="#dedede" stroke-width="2"/>
   <circle cx="48" cy="57" r="3" fill="#dedede" stroke-width=".8"/>
  </g>
 </g>
 <g id="disk-quota-critical">
  <g transform="translate(141)">
   <path d="m0 38h32v32h-32z" opacity="0" stroke-width="1.4546"/>
   <g transform="translate(-32)" stroke-linecap="square" stroke-linejoin="round">
    <path d="m48 49a8 8 0 0 0-8 8 8 8 0 0 0 8 8 8 8 0 0 0 8-8h-8z" fill="#eb5555" stroke-width="2.1333"/>
    <path d="m40 40c-1.662 0-3 1.338-3 3v22c0 1.662 1.338 3 3 3h16c1.662 0 3-1.338 3-3v-22c0-1.662-1.338-3-3-3zm0 3h1v3h-1zm2 0h1v3h-1zm2 0h1v3h-1zm2 0h1v3h-1zm2 0h1v3h-1zm3 1h1v2h-1zm-3 5a8 8 0 0 1 8 8 8 8 0 0 1-8 8 8 8 0 0 1-8-8 8 8 0 0 1 8-8zm8 15a1 1 0 0 1 1 1 1 1 0 0 1-1 1 1 1 0 0 1-1-1 1 1 0 0 1 1-1z" fill="#dedede" stroke-width="2"/>
    <circle cx="48" cy="57" r="3" fill="#dedede" stroke-width=".8"/>
   </g>
  </g>
  <rect x="169" y="55" width="2" height="9" rx="1" ry="1" fill="#eb5555" stroke-linecap="square" stroke-linejoin="round" stroke-width="1.6036"/>
  <circle cx="170" cy="66" r="1" fill="#eb5555" stroke-linecap="square" stroke-linejoin="round" stroke-width="2"/>
 </g>
</svg>
