<svg width="22" height="22" version="1.1">
 <defs>
  <style id="current-color-scheme" type="text/css">.ColorScheme-Text { color:#dedede; } .ColorScheme-Highlight { color:#5294e2; } .ColorScheme-ButtonBackground { color:#dedede; }</style>
 </defs>
 <g id="22-22-keyboard-layout" transform="matrix(3.7795 0 0 3.7795 -119 -203.52)">
  <rect x="31.485" y="53.848" width="5.8208" height="5.8208" opacity="0" stroke-width=".1791"/>
  <path transform="scale(.26458)" d="m123 207.52c-1.108 0-2 0.892-2 2v10c0 1.108 0.892 2 2 2h14c1.108 0 2-0.892 2-2v-10c0-1.108-0.892-2-2-2zm1 2c0.554 0 1 0.446 1 1s-0.446 1-1 1-1-0.446-1-1 0.446-1 1-1zm3 0c0.554 0 1 0.446 1 1s-0.446 1-1 1-1-0.446-1-1 0.446-1 1-1zm3 0c0.554 0 1 0.446 1 1s-0.446 1-1 1-1-0.446-1-1 0.446-1 1-1zm3 0c0.554 0 1 0.446 1 1s-0.446 1-1 1-1-0.446-1-1 0.446-1 1-1zm3 0c0.554 0 1 0.446 1 1s-0.446 1-1 1-1-0.446-1-1 0.446-1 1-1zm-12 3c0.554 0 1 0.446 1 1s-0.446 1-1 1-1-0.446-1-1 0.446-1 1-1zm3 0c0.554 0 1 0.446 1 1s-0.446 1-1 1-1-0.446-1-1 0.446-1 1-1zm3 0c0.554 0 1 0.446 1 1s-0.446 1-1 1-1-0.446-1-1 0.446-1 1-1zm3 0c0.554 0 1 0.446 1 1s-0.446 1-1 1-1-0.446-1-1 0.446-1 1-1zm3 0c0.554 0 1 0.446 1 1s-0.446 1-1 1-1-0.446-1-1 0.446-1 1-1zm-10 4h8c0.554 0 1 0.446 1 1s-0.446 1-1 1h-8c-0.554 0-1-0.446-1-1s0.446-1 1-1z" fill="#dedede"/>
 </g>
 <g id="keyboard-layout" stroke-linecap="round" stroke-linejoin="round">
  <rect x="30" y="-5" width="32" height="32" fill="none" stroke-width="1.8286"/>
  <path d="m34 3c-1.108 0-2 0.892-2 2v12c0 1.108 0.892 2 2 2h24c1.108 0 2-0.892 2-2v-12c0-1.108-0.892-2-2-2h-24zm1.4785 3h1.043c0.2649 0 0.47852 0.21361 0.47852 0.47852v1.043c0 0.2649-0.21361 0.47852-0.47852 0.47852h-1.043c-0.2649 0-0.47852-0.21361-0.47852-0.47852v-1.043c0-0.2649 0.21361-0.47852 0.47852-0.47852zm4 0h1.043c0.2649 0 0.47852 0.21361 0.47852 0.47852v1.043c0 0.2649-0.21361 0.47852-0.47852 0.47852h-1.043c-0.2649 0-0.47852-0.21361-0.47852-0.47852v-1.043c0-0.2649 0.21361-0.47852 0.47852-0.47852zm4 0h1.043c0.2649 0 0.47852 0.21361 0.47852 0.47852v1.043c0 0.2649-0.21361 0.47852-0.47852 0.47852h-1.043c-0.2649 0-0.47852-0.21361-0.47852-0.47852v-1.043c0-0.2649 0.21361-0.47852 0.47852-0.47852zm4 0h1.043c0.2649 0 0.47852 0.21361 0.47852 0.47852v1.043c0 0.2649-0.21361 0.47852-0.47852 0.47852h-1.043c-0.2649 0-0.47852-0.21361-0.47852-0.47852v-1.043c0-0.2649 0.21361-0.47852 0.47852-0.47852zm4 0h1.043c0.2649 0 0.47852 0.21361 0.47852 0.47852v1.043c0 0.2649-0.21361 0.47852-0.47852 0.47852h-1.043c-0.2649 0-0.47852-0.21361-0.47852-0.47852v-1.043c0-0.2649 0.21361-0.47852 0.47852-0.47852zm4 0h1.043c0.2649 0 0.47852 0.21361 0.47852 0.47852v1.043c0 0.2649-0.21361 0.47852-0.47852 0.47852h-1.043c-0.2649 0-0.47852-0.21361-0.47852-0.47852v-1.043c0-0.2649 0.21361-0.47852 0.47852-0.47852zm-20 4h1.043c0.2649 0 0.47852 0.21361 0.47852 0.47852v1.043c0 0.2649-0.21361 0.47852-0.47852 0.47852h-1.043c-0.2649 0-0.47852-0.21361-0.47852-0.47852v-1.043c0-0.2649 0.21361-0.47852 0.47852-0.47852zm4 0h1.043c0.2649 0 0.47852 0.21361 0.47852 0.47852v1.043c0 0.2649-0.21361 0.47852-0.47852 0.47852h-1.043c-0.2649 0-0.47852-0.21361-0.47852-0.47852v-1.043c0-0.2649 0.21361-0.47852 0.47852-0.47852zm4 0h1.043c0.2649 0 0.47852 0.21361 0.47852 0.47852v1.043c0 0.2649-0.21361 0.47852-0.47852 0.47852h-1.043c-0.2649 0-0.47852-0.21361-0.47852-0.47852v-1.043c0-0.2649 0.21361-0.47852 0.47852-0.47852zm4 0h1.043c0.2649 0 0.47852 0.21361 0.47852 0.47852v1.043c0 0.2649-0.21361 0.47852-0.47852 0.47852h-1.043c-0.2649 0-0.47852-0.21361-0.47852-0.47852v-1.043c0-0.2649 0.21361-0.47852 0.47852-0.47852zm4 0h1.043c0.2649 0 0.47852 0.21361 0.47852 0.47852v1.043c0 0.2649-0.21361 0.47852-0.47852 0.47852h-1.043c-0.2649 0-0.47852-0.21361-0.47852-0.47852v-1.043c0-0.2649 0.21361-0.47852 0.47852-0.47852zm4 0h1.043c0.2649 0 0.47852 0.21361 0.47852 0.47852v1.043c0 0.2649-0.21361 0.47852-0.47852 0.47852h-1.043c-0.2649 0-0.47852-0.21361-0.47852-0.47852v-1.043c0-0.2649 0.21361-0.47852 0.47852-0.47852zm-17.861 4h16.766c0.34208 0 0.61719 0.27511 0.61719 0.61719v0.76562c0 0.34208-0.27511 0.61719-0.61719 0.61719h-16.766c-0.34208 0-0.61719-0.27511-0.61719-0.61719v-0.76562c0-0.34208 0.27511-0.61719 0.61719-0.61719z" fill="#dedede" stroke-width="2.1112"/>
 </g>
</svg>
