<?xml version="1.0" encoding="UTF-8" standalone="no"?>
<svg
   xmlns:dc="http://purl.org/dc/elements/1.1/"
   xmlns:cc="http://creativecommons.org/ns#"
   xmlns:rdf="http://www.w3.org/1999/02/22-rdf-syntax-ns#"
   xmlns:svg="http://www.w3.org/2000/svg"
   xmlns="http://www.w3.org/2000/svg"
   xmlns:sodipodi="http://sodipodi.sourceforge.net/DTD/sodipodi-0.dtd"
   xmlns:inkscape="http://www.inkscape.org/namespaces/inkscape"
   id="svg"
   width="100%"
   height="100%"
   version="1.1"
   viewBox="0 0 22 22"
   sodipodi:docname="klipper.svg"
   inkscape:version="0.92.4 (5da689c313, 2019-01-14)">
  <metadata
     id="metadata11">
    <rdf:RDF>
      <cc:Work
         rdf:about="">
        <dc:format>image/svg+xml</dc:format>
        <dc:type
           rdf:resource="http://purl.org/dc/dcmitype/StillImage" />
      </cc:Work>
    </rdf:RDF>
  </metadata>
  <sodipodi:namedview
     pagecolor="#ffffff"
     bordercolor="#666666"
     borderopacity="1"
     objecttolerance="10"
     gridtolerance="10"
     guidetolerance="10"
     inkscape:pageopacity="0"
     inkscape:pageshadow="2"
     inkscape:window-width="1366"
     inkscape:window-height="708"
     id="namedview9"
     showgrid="false"
     inkscape:zoom="10.727273"
     inkscape:cx="6.0771757"
     inkscape:cy="10.872713"
     inkscape:window-x="0"
     inkscape:window-y="0"
     inkscape:window-maximized="1"
     inkscape:current-layer="svg" />
  <defs
     id="defs81">
    <style
       id="current-color-scheme"
       type="text/css">
   .ColorScheme-Text { color:#dedede; } .ColorScheme-Highlight { color:#5294e2; } .ColorScheme-ButtonBackground { color:#dedede; }
  </style>
  </defs>
  <g
     id="klipper">
    <rect
       id="rect3009"
       class="ColorScheme-Text"
       width="22"
       height="22"
       x="0"
       y="0"
       style="color:#dedede;fill:currentColor;fill-opacity:0;stroke:none" />
    <g
       transform="translate(-298.00021,-26)"
       inkscape:label="edit-paste"
       id="g5947"
       style="display:inline;enable-background:new">
      <rect
         transform="scale(1,-1)"
         style="color:#bebebe;display:inline;overflow:visible;visibility:visible;fill:none;stroke:none;stroke-width:1;marker:none;enable-background:new"
         id="rect5983"
         y="-45"
         x="301.00021"
         height="16"
         width="16" />
      <path
         inkscape:connector-curvature="0"
         id="path3810"
         transform="translate(237,-444.99664)"
         d="m 72,474 c -1.10457,0 -2,0.89543 -2,2 h -3 c -1,0 -1,1 -1,1 v 11 c 0,1 1,1 1,1 h 10 c 0,0 1,0 1,-1 v -11 c 0,-1 -1,-1 -1,-1 h -3 c 0,-0.13807 -0.0046,-0.27605 -0.03125,-0.40625 C 73.78226,474.68238 72.9665,474 72,474 Z m 0,1 c 0.41421,0 0.75444,0.26608 0.90625,0.625 C 72.95685,475.74464 73,475.86193 73,476 c 0,0.55228 -0.44771,1 -1,1 -0.55229,0 -1,-0.44772 -1,-1 0,-0.55228 0.44771,-1 1,-1 z m -4,3 h 1 v 1 h 6 v -1 h 1 v 9 h -8 z"
         style="color:#000000;display:inline;overflow:visible;visibility:visible;fill:#eaeaea;fill-opacity:1;fill-rule:nonzero;stroke:none;stroke-width:4;marker:none;enable-background:accumulate" />
    </g>
  </g>
</svg>
