<svg id="svg" version="1.1" viewBox="0 0 22 22">
 <defs>
  <style id="current-color-scheme" type="text/css">.ColorScheme-Text { color:#dedede; } .ColorScheme-Highlight { color:#5294e2; } .ColorScheme-ButtonBackground { color:#333333; }</style>
 </defs>
 <g id="22-22-klipper">
  <rect class="ColorScheme-Text" width="22" height="22" color="#dedede" fill-opacity="0"/>
  <g transform="translate(-298 -26)" enable-background="new">
   <rect transform="scale(1,-1)" x="301" y="-45" width="16" height="16" color="#bebebe" enable-background="new" fill="none"/>
   <path transform="translate(237 -445)" d="m72 474c-1.1046 0-2 0.89543-2 2h-3c-1 0-1 1-1 1v11c0 1 1 1 1 1h10s1 0 1-1v-11c0-1-1-1-1-1h-3c0-0.13807-0.0046-0.27605-0.03125-0.40625-0.18649-0.91137-1.0022-1.5938-1.9688-1.5938zm0 1c0.41421 0 0.75444 0.26608 0.90625 0.625 0.0506 0.11964 0.09375 0.23693 0.09375 0.375 0 0.55228-0.44771 1-1 1s-1-0.44772-1-1 0.44771-1 1-1zm-4 3h1v1h6v-1h1v9h-8z" color="#000000" enable-background="accumulate" fill="#dedede"/>
  </g>
 </g>
 <g id="klipper" transform="translate(-49 -2)" stroke-linecap="round" stroke-linejoin="round">
  <rect x="79" y="-2" width="32" height="32" fill="none" stroke-width="1.6"/>
  <path d="m94.949 1a3 3 0 0 0-2.9492 3h-5c-1.108 0-2 0.892-2 2v18c0 1.108 0.892 2 2 2h16c1.108 0 2-0.892 2-2v-18c0-1.108-0.892-2-2-2h-5a3 3 0 0 0-3-3 3 3 0 0 0-0.05078 0zm2e-3 1a2 2 0 0 1 0.04883 0 2 2 0 0 1 2 2 2 2 0 0 1-2 2 2 2 0 0 1-2-2 2 2 0 0 1 1.9512-2zm-7.9512 4h4v1c0 0.554 0.446 1 1 1h6c0.554 0 1-0.446 1-1v-1h4v18h-16z" fill="#dedede" stroke-width="2.2685"/>
 </g>
</svg>
