<svg version="1.1" viewBox="0 0 22 22" xmlns="http://www.w3.org/2000/svg">
 <defs>
  <style id="current-color-scheme" type="text/css">.ColorScheme-Text {
        color:#dedede;
      }</style>
 </defs>
 <g id="kup">
  <path d="m6 2c-1.108 0-2 0.892-2 2v14c0 1.108 0.892 2 2 2h10c1.108 0 2-0.892 2-2v-14c0-1.108-0.892-2-2-2h-10zm0 2h1v2h-1v-2zm2 0h1v2h-1v-2zm2 0h1v2h-1v-2zm2 0h1v2h-1v-2zm2 1h1v1h-1v-1zm-3 2a5 5 0 0 1 5 5 5 5 0 0 1-5 5 5 5 0 0 1-5-5 5 5 0 0 1 5-5zm-0.5 1c-0.277 0-0.5 0.223-0.5 0.5v4c0 0.277 0.223 0.5 0.5 0.5h3c0.277 0 0.5-0.223 0.5-0.5s-0.223-0.5-0.5-0.5h-2.5v-3.5c0-0.277-0.223-0.5-0.5-0.5zm5.5 9a1 1 0 0 1 1 1 1 1 0 0 1-1 1 1 1 0 0 1-1-1 1 1 0 0 1 1-1z" fill="#dedede"/>
  <path d="m0 0h22v22h-22z" opacity="0"/>
 </g>
</svg>
