<svg version="1.1" viewBox="0 0 32 16" xmlns="http://www.w3.org/2000/svg">
 <defs>
  <style id="current-color-scheme" type="text/css">.ColorScheme-Text { color:#dedede; }</style>
 </defs>
 <path id="mobile-task-switcher" d="m4.0851 2c-1.1542 0-2.0831 0.92887-2.0831 2.0831v7.834c0 1.1542 0.92887 2.0831 2.0831 2.0831h7.834c1.1542 0 2.0831-0.92887 2.0831-2.0831v-7.834c0-1.1542-0.92888-2.0831-2.0831-2.0831zm0.24414 1.2471h7.3577c0.59385 0 1.0713 0.47842 1.0713 1.0723v7.3695c0 0.59385-0.47744 1.0723-1.0713 1.0723h-7.3577c-0.59385 0-1.0723-0.47842-1.0723-1.0723v-7.3695c0-0.59385 0.47842-1.0723 1.0723-1.0723z" class="ColorScheme-Text" fill="currentColor"/>
 <path id="mobile-close-app" d="m18.619 1.851a0.75 0.75 0 0 0-0.55273 0.21373 0.75 0.75 0 0 0 0 1.0613l4.8715 4.8715-4.8715 4.8715a0.75 0.75 0 0 0 0 1.0613 0.75 0.75 0 0 0 1.0613 0l4.8715-4.8715 4.8715 4.8715a0.75 0.75 0 0 0 1.0613 0 0.75 0.75 0 0 0 0-1.0613l-4.8715-4.8715 4.8715-4.8715a0.75 0.75 0 0 0 0-1.0613 0.75 0.75 0 0 0-1.0613 0l-4.8715 4.8715-4.8715-4.8715a0.75 0.75 0 0 0-0.50854-0.21373z" class="ColorScheme-Text" fill="currentColor"/>
</svg>
