<?xml version="1.0" encoding="UTF-8" standalone="no"?>
<svg
   xmlns:dc="http://purl.org/dc/elements/1.1/"
   xmlns:cc="http://creativecommons.org/ns#"
   xmlns:rdf="http://www.w3.org/1999/02/22-rdf-syntax-ns#"
   xmlns:svg="http://www.w3.org/2000/svg"
   xmlns="http://www.w3.org/2000/svg"
   xmlns:sodipodi="http://sodipodi.sourceforge.net/DTD/sodipodi-0.dtd"
   xmlns:inkscape="http://www.inkscape.org/namespaces/inkscape"
   id="svg"
   inkscape:version="0.92.4 5da689c313, 2019-01-14"
   sodipodi:docname="preferences.svg"
   version="1.1"
   viewBox="0 0 22 22">
  <metadata
     id="metadata27">
    <rdf:RDF>
      <cc:Work
         rdf:about="">
        <dc:format>image/svg+xml</dc:format>
        <dc:type
           rdf:resource="http://purl.org/dc/dcmitype/StillImage" />
      </cc:Work>
    </rdf:RDF>
  </metadata>
  <sodipodi:namedview
     id="namedview21"
     bordercolor="#666666"
     borderopacity="1"
     gridtolerance="10"
     guidetolerance="10"
     inkscape:bbox-nodes="true"
     inkscape:current-layer="svg"
     inkscape:cx="-2.3730453"
     inkscape:cy="-50.655056"
     inkscape:object-paths="true"
     inkscape:pageopacity="0"
     inkscape:pageshadow="2"
     inkscape:snap-bbox="true"
     inkscape:snap-bbox-edge-midpoints="true"
     inkscape:snap-intersection-paths="true"
     inkscape:snap-nodes="false"
     inkscape:snap-smooth-nodes="true"
     inkscape:window-height="692"
     inkscape:window-maximized="1"
     inkscape:window-width="1366"
     inkscape:window-x="0"
     inkscape:window-y="0"
     inkscape:zoom="3.7926638"
     objecttolerance="10"
     pagecolor="#383838"
     showgrid="true">
    <inkscape:grid
       id="grid855"
       type="xygrid" />
  </sodipodi:namedview>
  <defs
     id="defs7386">
    <style
       id="current-color-scheme"
       type="text/css">.ColorScheme-Text { color:#dedede; } .ColorScheme-Highlight { color:#5294e2; } .ColorScheme-ButtonBackground { color:#dedede; }</style>
  </defs>
  <g
     id="preferences-desktop-notification"
     transform="translate(25 -39.788)">
    <rect
       id="rect3068"
       y="40"
       width="22"
       height="22"
       opacity="0" />
    <path
       id="path4238"
       class="ColorScheme-Highlight"
       d="m11 41.788c-4.9706 0-9 4.0294-9 9s4.0294 9 9 9 9-4.0294 9-9-4.0294-9-9-9z"
       color="#5294e2"
       fill="currentColor"
       inkscape:connector-curvature="0" />
    <path
       id="path4173-0"
       class="ColorScheme-Text"
       d="m10 46.788v6h2v-6zm1 7c-0.45315 0-1 0.51843-1 0.98047s0.54685 1.0195 1 1.0195 1-0.55749 1-1.0195c0-0.46204-0.54685-0.98047-1-0.98047z"
       color="#dedede"
       fill="#fff"
       inkscape:connector-curvature="0" />
  </g>
  <g
     id="preferences-desktop-display-randr">
    <rect
       id="rect23"
       transform="scale(-1,1)"
       x="-22"
       width="22"
       height="22"
       color="#bebebe"
       opacity="0"
       stroke-width="2" />
    <g
       id="g30"
       fill="#eaeaea">
      <path
         id="rect878"
         d="m3 3c-1.108 0-2 0.892-2 2v11c0 1.108 0.892 2 2 2h16c1.108 0 2-0.892 2-2v-11c0-1.108-0.892-2-2-2zm0 1h16c0.554 0 1 0.446 1 1v11c0 0.554-0.446 1-1 1h-16c-0.554 0-1-0.446-1-1v-11c0-0.554 0.446-1 1-1z"
         inkscape:connector-curvature="0" />
      <rect
         id="rect880"
         x="5"
         y="19"
         width="12"
         height="1"
         rx="0"
         ry=".5" />
      <rect
         id="rect882"
         x="2"
         y="4"
         width="18"
         height="13"
         rx="1"
         ry="0"
         opacity=".35" />
    </g>
  </g>
  <g
     transform="translate(-57,27)"
     id="preferences-system-bluetooth">
    <rect
       width="22"
       height="22"
       x="56"
       y="0"
       style="opacity:0"
       id="rect1413" />
    <path
       inkscape:connector-curvature="0"
       d="M 66.5,3 C 63.453,3 61,5.676 61,9 v 4 c 0,3.324 2.453,6 5.5,6 3.047,0 5.5,-2.676 5.5,-6 V 9 C 72,5.676 69.547,3 66.5,3 Z M 66,5 h 0.5 c 0.20775,0 0.39305,0.13292 0.46875,0.3125 l 2.875,2.84375 L 70.25,8.53125 69.8125,8.875 67.25,11 l 2.5625,2.125 0.4375,0.34375 -0.40625,0.375 -2.875,2.84375 c -0.0252,0.0599 -0.0798,0.11106 -0.125,0.15625 C 66.75335,16.93415 66.6385,17 66.5,17 H 66 v -0.5 -4.4375 l -2.15625,1.78125 C 63.75325,13.93425 63.63807,14 63.5,14 H 63 v -0.5 c 0,-0.15322 0.079,-0.28328 0.1875,-0.375 L 65.75,11 63.3125,8.96875 C 63.2658,8.94905 63.2257,8.90725 63.1875,8.87505 63.07896,8.78335 63,8.65327 63,8.50005 v -0.5 h 0.5 c 0.12292,0 0.22543,0.0514 0.3125,0.125 0.0107,0.009 0.0213,0.0213 0.0312,0.0312 L 65.99995,9.9375 V 5.5 5 Z m 1,1.6875 v 3.25 l 1.78125,-1.46875 z m 0,5.375 v 3.25 l 1.78125,-1.78125 z"
       style="color:#dedede;fill:currentColor"
       class="ColorScheme-Text"
       id="path1415" />
  </g>
  <g
     id="preferences-system-bluetooth-inactive"
     transform="translate(-57,77)"
     style="opacity:0.35">
    <rect
       id="rect843"
       style="opacity:0"
       y="0"
       x="56"
       height="22"
       width="22" />
    <path
       id="path845"
       class="ColorScheme-Text"
       style="color:#dedede;fill:currentColor"
       d="M 66.5,3 C 63.453,3 61,5.676 61,9 v 4 c 0,3.324 2.453,6 5.5,6 3.047,0 5.5,-2.676 5.5,-6 V 9 C 72,5.676 69.547,3 66.5,3 Z M 66,5 h 0.5 c 0.20775,0 0.39305,0.13292 0.46875,0.3125 l 2.875,2.84375 L 70.25,8.53125 69.8125,8.875 67.25,11 l 2.5625,2.125 0.4375,0.34375 -0.40625,0.375 -2.875,2.84375 c -0.0252,0.0599 -0.0798,0.11106 -0.125,0.15625 C 66.75335,16.93415 66.6385,17 66.5,17 H 66 v -0.5 -4.4375 l -2.15625,1.78125 C 63.75325,13.93425 63.63807,14 63.5,14 H 63 v -0.5 c 0,-0.15322 0.079,-0.28328 0.1875,-0.375 L 65.75,11 63.3125,8.96875 C 63.2658,8.94905 63.2257,8.90725 63.1875,8.87505 63.07896,8.78335 63,8.65327 63,8.50005 v -0.5 h 0.5 c 0.12292,0 0.22543,0.0514 0.3125,0.125 0.0107,0.009 0.0213,0.0213 0.0312,0.0312 L 65.99995,9.9375 V 5.5 5 Z m 1,1.6875 v 3.25 l 1.78125,-1.46875 z m 0,5.375 v 3.25 l 1.78125,-1.78125 z"
       inkscape:connector-curvature="0" />
  </g>
  <g
     id="preferences-system-bluetooth-activated"
     transform="translate(5,-13)">
    <rect
       id="rect849"
       style="opacity:0"
       y="65"
       x="-6"
       height="22"
       width="22" />
    <path
       style="color:#dedede;fill:currentColor"
       d="M 4.5,68 C 1.453,68 -1,70.676 -1,74 v 4 c 0,3.324 2.453,6 5.5,6 3.047,0 5.5,-2.676 5.5,-6 V 74 C 10,72.856887 9.7038195,71.79408 9.1992188,70.886719 A 3,3 0 0 1 7.0859375,68.703125 C 6.3154245,68.256109 5.4368601,68 4.5,68 Z M 4,70 h 0.5 c 0.20775,0 0.39305,0.13292 0.46875,0.3125 l 2.875,2.84375 L 8.25,73.53125 7.8125,73.875 5.25,76 l 2.5625,2.125 0.4375,0.34375 -0.40625,0.375 -2.875,2.84375 c -0.0252,0.0599 -0.0798,0.11106 -0.125,0.15625 C 4.75335,81.93415 4.6385,82 4.5,82 H 4 V 81.5 77.0625 L 1.84375,78.84375 C 1.75325,78.93425 1.63807,79 1.5,79 H 1 V 78.5 C 1,78.34678 1.079,78.21672 1.1875,78.125 L 3.75,76 1.3125,73.96875 C 1.2658,73.94905 1.2257,73.9072 1.1875,73.875 1.07896,73.7833 1,73.65322 1,73.5 V 73 h 0.5 c 0.12292,0 0.22543,0.0514 0.3125,0.125 0.0107,0.009 0.02135,0.02135 0.03125,0.03125 L 4,74.9375 V 70.5 Z m 1,1.6875 v 3.25 l 1.78125,-1.46875 z m 0,5.375 v 3.25 l 1.78125,-1.78125 z"
       id="path851"
       inkscape:connector-curvature="0" />
    <circle
       r="2"
       cy="68"
       cx="10"
       id="circle860"
       style="fill:#5294e2" />
  </g>
  <g
     id="16-16-preferences-system-bluetooth"
     transform="translate(-0.50847244,-6.6741257)">
    <path
       id="path835"
       class="ColorScheme-Text"
       style="color:#dedede;fill:currentColor"
       d="m 39.008472,35.674128 c -3.047,0 -5.5,2.676 -5.5,6 v 4 c 0,3.324 2.453,6 5.5,6 3.047,0 5.5,-2.676 5.5,-6 v -4 c 0,-3.324 -2.453,-6 -5.5,-6 z m -0.5,2 h 0.5 c 0.20775,0 0.39305,0.13292 0.46875,0.3125 l 2.875,2.84375 0.40625,0.375 -0.4375,0.34375 -2.5625,2.125 2.5625,2.125 0.4375,0.34375 -0.40625,0.375 -2.875,2.84375 c -0.0252,0.0599 -0.0798,0.11106 -0.125,0.15625 -0.0904,0.0904 -0.20525,0.15625 -0.34375,0.15625 h -0.5 v -0.5 -4.4375 l -2.15625,1.78125 c -0.0905,0.0905 -0.20568,0.15625 -0.34375,0.15625 h -0.5 v -0.5 c 0,-0.15322 0.079,-0.28328 0.1875,-0.375 l 2.5625,-2.125 -2.4375,-2.03125 c -0.0467,-0.0197 -0.0868,-0.0615 -0.125,-0.0937 -0.10854,-0.0917 -0.1875,-0.22178 -0.1875,-0.375 v -0.5 h 0.5 c 0.12292,0 0.22543,0.0514 0.3125,0.125 0.0107,0.009 0.0213,0.0213 0.0312,0.0312 l 2.15625,1.78125 v -4.4375 -0.5 z m 1,1.6875 v 3.25 l 1.78125,-1.46875 z m 0,5.375 v 3.25 l 1.78125,-1.78125 z"
       inkscape:connector-curvature="0" />
    <rect
       ry="0.28211999"
       y="35.674126"
       x="31.508472"
       height="16"
       width="16"
       id="rect841"
       style="opacity:0;fill:#000000;fill-opacity:1;stroke:none;stroke-width:1.43544865;stroke-linecap:round;stroke-linejoin:round;stroke-miterlimit:4;stroke-dasharray:none;stroke-opacity:1;paint-order:stroke fill markers" />
  </g>
  <g
     id="16-16-preferences-system-bluetooth-activated">
    <path
       style="color:#dedede;fill:currentColor"
       d="M 38.5,54 C 35.453,54 33,56.676 33,60 v 4 c 0,3.324 2.453,6 5.5,6 3.047,0 5.5,-2.676 5.5,-6 v -4 c 0,-0.342859 -0.03187,-0.677061 -0.08203,-1.003906 A 3,3 0 0 1 41,56 3,3 0 0 1 41.25,54.804688 C 40.441226,54.295698 39.504487,54 38.5,54 Z M 38,56 h 0.5 c 0.20775,0 0.39305,0.13292 0.46875,0.3125 l 2.875,2.84375 0.40625,0.375 L 41.8125,59.875 39.25,62 l 2.5625,2.125 0.4375,0.34375 -0.40625,0.375 -2.875,2.84375 c -0.0252,0.0599 -0.0798,0.11106 -0.125,0.15625 C 38.75335,67.93415 38.6385,68 38.5,68 H 38 v -0.5 -4.4375 l -2.15625,1.78125 C 35.75325,64.93425 35.63807,65 35.5,65 H 35 v -0.5 c 0,-0.15322 0.079,-0.28328 0.1875,-0.375 L 37.75,62 35.3125,59.96875 C 35.2658,59.94905 35.2257,59.9072 35.1875,59.875 35.07896,59.7833 35,59.65322 35,59.5 V 59 h 0.5 c 0.12292,0 0.22543,0.0514 0.3125,0.125 0.0107,0.009 0.02135,0.02135 0.03125,0.03125 L 38,60.9375 V 56.5 Z m 1,1.6875 v 3.25 l 1.78125,-1.46875 z m 0,5.375 v 3.25 l 1.78125,-1.78125 z"
       id="path858"
       inkscape:connector-curvature="0" />
    <rect
       style="opacity:0;fill:#000000;fill-opacity:1;stroke:none;stroke-width:1.43544865;stroke-linecap:round;stroke-linejoin:round;stroke-miterlimit:4;stroke-dasharray:none;stroke-opacity:1;paint-order:stroke fill markers"
       id="rect860"
       width="16"
       height="16"
       x="31"
       y="54"
       ry="0.28211999" />
    <circle
       style="fill:#5294e2"
       id="circle851"
       cx="44"
       cy="56"
       r="2" />
  </g>
  <g
     transform="translate(-0.50847244,40.325872)"
     id="16-16-preferences-system-bluetooth-inactive"
     style="opacity:0.35">
    <path
       inkscape:connector-curvature="0"
       d="m 39.008472,35.674128 c -3.047,0 -5.5,2.676 -5.5,6 v 4 c 0,3.324 2.453,6 5.5,6 3.047,0 5.5,-2.676 5.5,-6 v -4 c 0,-3.324 -2.453,-6 -5.5,-6 z m -0.5,2 h 0.5 c 0.20775,0 0.39305,0.13292 0.46875,0.3125 l 2.875,2.84375 0.40625,0.375 -0.4375,0.34375 -2.5625,2.125 2.5625,2.125 0.4375,0.34375 -0.40625,0.375 -2.875,2.84375 c -0.0252,0.0599 -0.0798,0.11106 -0.125,0.15625 -0.0904,0.0904 -0.20525,0.15625 -0.34375,0.15625 h -0.5 v -0.5 -4.4375 l -2.15625,1.78125 c -0.0905,0.0905 -0.20568,0.15625 -0.34375,0.15625 h -0.5 v -0.5 c 0,-0.15322 0.079,-0.28328 0.1875,-0.375 l 2.5625,-2.125 -2.4375,-2.03125 c -0.0467,-0.0197 -0.0868,-0.0615 -0.125,-0.0937 -0.10854,-0.0917 -0.1875,-0.22178 -0.1875,-0.375 v -0.5 h 0.5 c 0.12292,0 0.22543,0.0514 0.3125,0.125 0.0107,0.009 0.0213,0.0213 0.0312,0.0312 l 2.15625,1.78125 v -4.4375 -0.5 z m 1,1.6875 v 3.25 l 1.78125,-1.46875 z m 0,5.375 v 3.25 l 1.78125,-1.78125 z"
       style="color:#dedede;fill:currentColor"
       class="ColorScheme-Text"
       id="path874" />
    <rect
       style="opacity:0;fill:#000000;fill-opacity:1;stroke:none;stroke-width:1.43544865;stroke-linecap:round;stroke-linejoin:round;stroke-miterlimit:4;stroke-dasharray:none;stroke-opacity:1;paint-order:stroke fill markers"
       id="rect876"
       width="16"
       height="16"
       x="31.508472"
       y="35.674126"
       ry="0.28211999" />
  </g>
</svg>
