<svg width="32" height="32" version="1.1" viewBox="0 0 32 32" xmlns="http://www.w3.org/2000/svg">
 <defs>
  <style id="current-color-scheme" type="text/css">.ColorScheme-Text { color:#ffffff; } .ColorScheme-Highlight { color:#5294e2; } .ColorScheme-ButtonBackground { color:#dedede; }</style>
  <style type="text/css"/>
  <style type="text/css"/>
 </defs>
 <g id="22-22-system-suspend" transform="translate(-22 -988.36)" fill="currentColor">
  <rect y="1030.4" width="22" height="22" opacity=".001"/>
  <g transform="matrix(1.0009 0 0 .99883 -322.32 1012.4)">
   <path class="ColorScheme-Text" transform="matrix(.99906 0 0 1.0012 325.01 20.984)" d="m8.0449 2c-2.5739-0.019997-4.8837 1.6075-5.7246 4.0352-0.22338 0.64486-0.32174 1.3075-0.32031 1.9648-0.0010009 0.65734 0.096983 1.32 0.32031 1.9648 0.8409 2.4277 3.1507 4.0552 5.7246 4.0352 2.5739-0.019997 4.8553-1.6846 5.6582-4.125 0.20307-0.61722 0.29824-1.2486 0.29688-1.875 0.001001-0.62639-0.093795-1.2578-0.29688-1.875-0.80291-2.4404-3.0843-4.105-5.6582-4.125zm-0.015625 1.998c1.7223 0.013384 3.2342 1.1151 3.7715 2.748 0.13582 0.41281 0.19951 0.83646 0.19922 1.2539 2.9e-4 0.41744-0.063361 0.8411-0.19922 1.2539-0.53724 1.6329-2.0492 2.7347-3.7715 2.748-1.7223 0.013384-3.2557-1.0651-3.8184-2.6895-0.14937-0.43122-0.21534-0.87463-0.21484-1.3125-5.006e-4 -0.43787 0.065464-0.88128 0.21484-1.3125 0.56267-1.6244 2.0961-2.7028 3.8184-2.6895zm-2.1738 3.002c-0.47469 0-0.85547 0.446-0.85547 1s0.38078 1 0.85547 1h4.2871c0.47468 0 0.85742-0.446 0.85742-1s-0.38274-1-0.85742-1h-4.2871z" fill="#eaeaea"/>
  </g>
 </g>
 <g id="22-22-system-switch-user" transform="translate(1e-6 -988.36)">
  <rect y="1030.4" width="22" height="22" fill="currentColor" opacity=".001"/>
  <path class="ColorScheme-Text" d="m10.994 1035.4c-1.87 0-3.3939 1.5345-3.4492 3.4512-0.0459 0.012-0.0915 0.033-0.13476 0.055-0.43005 0.227-0.54034 0.9343-0.2461 1.5899 0.23672 0.5274 0.65753 0.8538 1.0391 0.8437 0.28723 1.7528 1.4304 3.0606 2.791 3.0606h0.0117c1.3606 0 2.5038-1.3078 2.791-3.0606 0.38154 0.01 0.80234-0.3163 1.0391-0.8437 0.29424-0.6556 0.18394-1.3629-0.24609-1.5899-0.0433-0.023-0.0888-0.044-0.13477-0.055-0.0553-1.9167-1.5792-3.4512-3.4492-3.4512h-0.0117zm2.4004 8c-0.28889 0.7005-1.2741 1.2246-2.4492 1.2246-1.1699 0-2.1456-0.5173-2.4394-1.2129-2.4691 0.2581-4.2682 0.8896-4.4844 1.6367-3e-3 0.01 2e-3 0.016 0 0.024-7e-3 0.026-7e-3 0.049-0.01 0.076-1e-3 0.012-0.0117 0.021-0.0117 0.035-9e-5 0 0 0.011 0 0.012v1.8477c0 0.1976 0.15571 0.3574 0.34961 0.3574h13.301c0.1939 0 0.3496-0.1598 0.3496-0.3574v-1.8477c0-0.01 3.5e-4 -0.015 0-0.023-2e-3 -0.043-0.0208-0.081-0.0332-0.123-0.22075-0.7563-2.0584-1.3964-4.5723-1.6484z" fill="#eaeaea"/>
 </g>
 <g id="22-22-system-shutdown" transform="translate(-44 -988.36)">
  <rect y="1030.4" width="22" height="22" fill="currentColor" opacity=".001"/>
  <path class="ColorScheme-Text" d="m11 1034.4c-0.55399 0-0.99995 0.4462-0.99995 1v5.0019c0 0.5538 0.44596 0.9981 0.99995 0.9981 0.55399 0 0.99995-0.4443 0.99995-0.9981v-5.0019c0-0.5538-0.44596-1-0.99995-1zm2.9393 1.9902a1.0002 0.99983 0 0 0-0.54294 1.8086c1.378 1.0304 1.941 2.8148 1.4042 4.4492-0.53678 1.6344-2.0505 2.7386-3.7713 2.752-1.7208 0.013-3.2501-1.0675-3.8123-2.6934-0.56218-1.6258-0.02587-3.419 1.3359-4.4707a1.0002 0.99983 0 1 0-1.2226-1.582c-2.0351 1.5718-2.842 4.2772-2.0019 6.707 0.84017 2.4298 3.1448 4.0591 5.7165 4.0391 2.5717-0.02 4.8537-1.6863 5.656-4.1289 0.80223-2.4426-0.04794-5.1339-2.1073-6.6739a1.0002 0.99983 0 0 0-0.65426-0.207z" fill="#eaeaea"/>
 </g>
 <g id="22-22-system-log-out" transform="matrix(0 -1 1 0 -1096.4 64)" fill="currentColor">
  <rect y="1030.4" width="22" height="22" opacity=".001"/>
  <g transform="matrix(1.0009 0 0 .99883 -322.32 1012.4)">
   <path class="ColorScheme-Text" transform="matrix(.99906 0 0 1.0012 325.01 20.984)" d="m8.0449 2c-2.5739-0.02-4.8837 1.6075-5.7246 4.0352-0.22337 0.64486-0.32175 1.3075-0.32031 1.9648-0.001434 0.65734 0.096941 1.32 0.32031 1.9648 0.8409 2.4277 3.1507 4.0552 5.7246 4.0352 2.5739-0.019997 4.8553-1.6846 5.6582-4.125 0.20307-0.61722 0.29823-1.2486 0.29688-1.875 0.001356-0.62639-0.093803-1.2578-0.29688-1.875-0.80291-2.4404-3.0843-4.105-5.6582-4.125zm-0.015625 1.998c1.7223 0.013381 3.2342 1.1151 3.7715 2.748 0.13582 0.41281 0.19951 0.83646 0.19922 1.2539 2.9e-4 0.41744-0.063401 0.8411-0.19922 1.2539-0.53724 1.6329-2.0492 2.7347-3.7715 2.748-1.7223 0.013384-3.2557-1.0651-3.8184-2.6895-0.14937-0.43122-0.21534-0.87463-0.21484-1.3125-4.968e-4 -0.43787 0.065474-0.88128 0.21484-1.3125 0.56267-1.6244 2.0961-2.7028 3.8184-2.6895zm-1.5547 2.002a0.47364 0.52746 0 0 0-0.41211 0.78906l1.5273 2.9453a0.47364 0.52746 0 0 0 0.38477 0.26562 0.47364 0.52746 0 0 0 0.048828 0 0.47364 0.52746 0 0 0 0.38672-0.26562l1.5273-2.9453a0.47364 0.52746 0 0 0-0.41016-0.78906h-3.0527z" fill="#eaeaea"/>
  </g>
 </g>
 <g id="22-22-system-reboot" transform="matrix(-1 0 0 1 -66 -988.36)">
  <rect y="1030.4" width="22" height="22" fill="currentColor" opacity=".001"/>
  <path class="ColorScheme-Text" d="m11.475 1035.4a0.47364 0.52746 0 0 0-0.41211 0.7891l1.5273 2.9453a0.47364 0.52746 0 0 0 0.38477 0.2656 0.47364 0.52746 0 0 0 0.04883 0 0.47364 0.52746 0 0 0 0.38672-0.2656l0.32617-0.6289c1.1217 1.0534 1.5536 2.6586 1.0645 4.1465-0.53678 1.6327-2.0507 2.7366-3.7715 2.75-1.7208 0.013-3.2503-1.0672-3.8125-2.6915-0.56218-1.6242-0.02584-3.4141 1.3359-4.4648a1.0006 0.99921 0 1 0-1.2227-1.582c-2.0351 1.5702-2.8421 4.2737-2.002 6.7011 0.84017 2.4275 3.1451 4.0552 5.7168 4.0352 2.5717-0.02 4.854-1.6848 5.6562-4.125 0.78998-2.4029-0.02804-5.0426-2.0195-6.5918l0.25586-0.4941a0.47364 0.52746 0 0 0-0.41016-0.7891h-3.0527z" fill="#eaeaea"/>
 </g>
 <g id="22-22-system-suspend-hibernate" transform="translate(-110 -988.36)" fill="currentColor">
  <rect y="1030.4" width="22" height="22" opacity=".001"/>
  <g transform="matrix(1.0009 0 0 .99883 -322.32 1012.4)">
   <path class="ColorScheme-Text" transform="matrix(.99906 0 0 1.0012 253.08 20.984)" d="m80.045 2c-2.5739-0.019997-4.8837 1.6075-5.7246 4.0352-0.22338 0.64486-0.32174 1.3075-0.32031 1.9648-1e-3 0.65734 0.09698 1.32 0.32031 1.9648 0.8409 2.4277 3.1507 4.0552 5.7246 4.0352 2.5739-0.02 4.8553-1.6846 5.6582-4.125 0.20307-0.61722 0.29824-1.2486 0.29688-1.875 0.001001-0.62639-0.093795-1.2578-0.29688-1.875-0.80291-2.4404-3.0843-4.105-5.6582-4.125zm-0.01563 1.998c1.7223 0.013384 3.2342 1.1151 3.7715 2.748 0.13582 0.41281 0.19951 0.83646 0.19922 1.2539 2.9e-4 0.41744-0.063361 0.8411-0.19922 1.2539-0.53724 1.6329-2.0492 2.7347-3.7715 2.748-1.7223 0.013384-3.2557-1.0651-3.8184-2.6895-0.14937-0.43122-0.21534-0.87463-0.21484-1.3125-5.01e-4 -0.43787 0.065462-0.88128 0.21484-1.3125 0.56267-1.6244 2.0961-2.7028 3.8184-2.6895zm-0.029292 2.002a2 2 0 0 0-2 2 2 2 0 0 0 2 2 2 2 0 0 0 2-2 2 2 0 0 0-2-2z" fill="#eaeaea"/>
  </g>
 </g>
 <g id="22-22-system-lock-screen" transform="translate(22 -988.36)">
  <rect y="1030.4" width="22" height="22" fill="currentColor" opacity=".001"/>
  <path class="ColorScheme-Text" d="m11 1034.4c-2.216 0-4 1.8216-4 4.0625v1.9375h-1c-0.554 0-1 0.446-1 1v6c0 0.554 0.446 1 1 1h10c0.554 0 1-0.446 1-1v-6c0-0.554-0.446-1-1-1h-1v-1.9375c0-2.24-1.784-4.0625-4-4.0625zm0 2c1.108 0 2 0.892 2 2v2h-4v-2c0-1.108 0.892-2 2-2z" fill="#eaeaea"/>
 </g>
 <g id="system-suspend" class="ColorScheme-Text" fill="currentColor" opacity=".8" >
  <rect x="-80" y="-1.8859e-7" width="32" height="32" rx="0" ry="0" opacity="0"/>
  <path d="m-64 7c4.9706 0 9 4.0294 9 9s-4.0294 9-9 9-9-4.0294-9-9 4.0294-9 9-9zm0 1c-4.4183 0-8 3.5817-8 8 0.0032 0.33452 0.02729 0.6685 0.07227 1h15.857c0.04432-0.33154 0.0678-0.66552 0.07031-1 0-4.4183-3.5817-8-8-8zm-7.7402 10c0.91146 3.5301 4.0944 5.9974 7.7402 6 3.6437-0.0053 6.8235-2.472 7.7344-6z"/>
  <path d="m-64 1a15 15 0 0 0-15 15 15 15 0 0 0 15 15 15 15 0 0 0 15-15 15 15 0 0 0-15-15zm0 1a14 14 0 0 1 14 14 14 14 0 0 1-14 14 14 14 0 0 1-14-14 14 14 0 0 1 14-14z"/>
 </g>
 <g id="system-log-out" class="ColorScheme-Text" fill="currentColor" opacity=".8" >
  <circle cx="96" cy="16" r="16" opacity="0"/>
  <path d="m90 7h10c1.0907 0 2 0.9093 2 2v2c0 0.27614-0.22386 0.5-0.5 0.5s-0.5-0.22386-0.5-0.5v-2c0-0.554-0.446-1-1-1h-10c-0.554 0-1 0.446-1 1v14c0 0.554 0.446 1 1 1h10c0.554 0 1-0.446 1-1v-3c0-0.27614 0.22386-0.5 0.5-0.5s0.5 0.22386 0.5 0.5v3c0 1.0907-0.9093 2-2 2h-10c-1.0907 0-2-0.9093-2-2v-14c0-1.0907 0.9093-2 2-2zm13.379 5.877c0.12781 0 0.25558 0.0505 0.35351 0.14844l2.1211 2.1211c0.047 0.04701 0.0841 0.10324 0.10937 0.16602 0.049 0.12034 0.049 0.25466 0 0.375-0.0253 0.06278-0.0624 0.119-0.10937 0.16602l-2.1211 2.1211c-0.19587 0.19587-0.51116 0.19587-0.70703 0-0.19587-0.19587-0.19587-0.51116 0-0.70703l1.2676-1.2676h-8.793c-0.277 0-0.5-0.223-0.5-0.5s0.223-0.5 0.5-0.5h8.793l-1.2676-1.2676c-0.19587-0.19587-0.19587-0.51116 0-0.70703 0.0979-0.09794 0.22571-0.14844 0.35352-0.14844z"/>
  <path d="m96 1a15 15 0 0 0-15 15 15 15 0 0 0 15 15 15 15 0 0 0 15-15 15 15 0 0 0-15-15zm0 1a14 14 0 0 1 14 14 14 14 0 0 1-14 14 14 14 0 0 1-14-14 14 14 0 0 1 14-14z"/>
 </g>
 <g id="system-reboot" class="ColorScheme-Text" fill="currentColor" opacity=".8" >
  <rect x="-40" width="32" height="32" rx="0" ry="0" opacity="0"/>
  <path d="m-20.266 5.0625c0.2113 1.011e-4 0.39972 0.13301 0.4707 0.33203h0.0039l1.0371 3.8652-0.9668 0.25781-2.8379 0.76172c-0.05165 0.01712-0.10574 0.0257-0.16016 0.02539-0.27614 0-0.5-0.22386-0.5-0.5-1.28e-4 -0.21529 0.13757-0.40649 0.3418-0.47461v-0.00195l2.1973-0.58789c-1.0409-0.48193-2.1733-0.73438-3.3203-0.74024-4.4183 0-8 3.5817-8 8s3.5817 8 8 8 8-3.5817 8-8c-0.0023-0.9323-0.16755-1.857-0.48828-2.7324-0.02986-0.06561-0.04519-0.1369-0.04492-0.20898 0-0.27614 0.22386-0.5 0.5-0.5 0.23283 5.22e-4 0.43449 0.16168 0.48633 0.38867 0.35756 0.97827 0.5426 2.0112 0.54687 3.0527 0 4.9706-4.0294 9-9 9s-9-4.0294-9-9 4.0294-9 9-9c1.3276 0.00246 2.6382 0.2986 3.8379 0.86719l-0.57422-2.1426c-0.0082-0.022931-0.01474-0.046431-0.01953-0.070312-0.0061-0.030232-0.0093-0.060962-0.0098-0.091797 0-0.27614 0.22386-0.5 0.5-0.5z"/>
  <path d="m-24 1a15 15 0 0 0-15 15 15 15 0 0 0 15 15 15 15 0 0 0 15-15 15 15 0 0 0-15-15zm0 1a14 14 0 0 1 14 14 14 14 0 0 1-14 14 14 14 0 0 1-14-14 14 14 0 0 1 14-14z"/>
 </g>
 <g id="system-switch-user" class="ColorScheme-Text" fill="currentColor" opacity=".8" >
  <rect x="163" y="-1" width="32" height="32" rx="0" ry="0" opacity="0"/>
  <path d="m182.55 7.0488c0.12828 0 0.25558 0.04855 0.35352 0.14648l4.9492 4.9512c0.047 0.04701 0.0841 0.10324 0.10937 0.16602 0.0245 0.06017 0.0371 0.12359 0.0371 0.1875 0 0.06645-0.0138 0.1296-0.0371 0.1875-0.0253 0.06278-0.0624 0.11901-0.10937 0.16602-0.047 0.04702-0.10322 0.08407-0.16602 0.10938-0.06017 0.02448-0.1236 0.037109-0.1875 0.037109h-17c-0.277 0-0.5-0.223-0.5-0.5s0.223-0.5 0.5-0.5h15.793l-4.0977-4.0957c-0.19587-0.19587-0.19587-0.51312 0-0.70898 0.0979-0.097934 0.22719-0.14648 0.35547-0.14648zm-12.051 9.9512h17c0.277 0 0.5 0.223 0.5 0.5s-0.223 0.5-0.5 0.5h-15.793l4.0977 4.0957c0.19587 0.19587 0.19587 0.51312 0 0.70898-0.19587 0.19587-0.51312 0.19587-0.70899 0l-4.9492-4.9512c-0.047-0.04701-0.0841-0.10324-0.10937-0.16602-0.0245-0.06017-0.03711-0.1236-0.03711-0.1875 0-0.06645 0.0138-0.1296 0.0371-0.1875 0.0253-0.06278 0.0624-0.11901 0.10937-0.16602 0.047-0.04702 0.10322-0.08408 0.16602-0.10938 0.06018-0.02448 0.12361-0.037109 0.18751-0.037109z"/>
  <path d="m179 0a15 15 0 0 0-15 15 15 15 0 0 0 15 15 15 15 0 0 0 15-15 15 15 0 0 0-15-15zm0 1a14 14 0 0 1 14 14 14 14 0 0 1-14 14 14 14 0 0 1-14-14 14 14 0 0 1 14-14z"/>
 </g>
 <g id="system-shutdown" class="ColorScheme-Text" fill="currentColor" opacity=".8" >
  <rect x="7.4506e-7" y="-4.3213e-7" width="32" height="32" rx="0" ry="0" opacity="0"/>
  <path d="m16 5c0.554 0 1 0.446 1 1v8c0 0.554-0.446 1-1 1s-1-0.446-1-1v-8c0-0.554 0.446-1 1-1zm-5.2363 3.7832c2e-3 -1.14e-5 0.0039-1.14e-5 0.0059 0 0.01171-4.121e-4 0.02344-4.121e-4 0.03516 0 0.27614 0 0.5 0.22386 0.5 0.5-4.89e-4 0.17814-0.09572 0.34257-0.25 0.43164-1.9279 1.5161-3.0537 3.8326-3.0547 6.2852 0 4.4183 3.5817 8 8 8s8-3.5817 8-8c-0.0032-2.4674-1.1448-4.7954-3.0938-6.3086l2e-3 -0.00195c-0.12908-0.094256-0.2053-0.24451-0.20512-0.4043 0-0.27614 0.22386-0.5 0.5-0.5 0.11629 2.202e-4 0.22887 0.040969 0.31836 0.11523l2e-3 -0.00195c2.1923 1.7041 3.4752 4.3248 3.4765 7.1016 0 4.9706-4.0294 9-9 9s-9-4.0294-9-9c0.00467-2.7624 1.2777-5.3697 3.4531-7.0723 0.08327-0.083238 0.19324-0.13442 0.31055-0.14453z"/>
  <path d="m16 1a15 15 0 0 0-15 15 15 15 0 0 0 15 15 15 15 0 0 0 15-15 15 15 0 0 0-15-15zm0 1a14 14 0 0 1 14 14 14 14 0 0 1-14 14 14 14 0 0 1-14-14 14 14 0 0 1 14-14z"/>
 </g>
 <g id="system-suspend-hibernate" class="ColorScheme-Text" fill="currentColor" opacity=".8" >
  <rect x="42" width="32" height="32" rx="0" ry="0" opacity="0"/>
  <path d="m56.369 7.1738c0.86477-0.0016321 1.3239 1.0208 0.74805 1.666-2.0169 2.2543-2.3583 5.5386-0.84961 8.1602 1.5139 2.6174 4.5262 3.964 7.4863 3.3477 0.94428-0.1975 1.5932 0.92451 0.95117 1.6445-0.6339 0.71356-1.3762 1.3208-2.2012 1.8008-0.0013 6.54e-4 -0.0026 0.0013-0.0039 2e-3 -4.2944 2.4793-9.8156 0.99941-12.295-3.295s-0.99945-9.8156 3.2949-12.295h2e-3c0.83028-0.47674 1.7301-0.8189 2.668-1.0117 0.06559-0.013157 0.13233-0.0197 0.19922-0.019531zm0.0039 1c-0.83377 0.17133-1.6349 0.47462-2.373 0.89844-3.8259 2.2093-5.1366 7.1016-2.9277 10.928 2.2093 3.8259 7.1016 5.1366 10.928 2.9277 0.73313-0.42672 1.3937-0.96733 1.957-1.6016-3.3783 0.70306-6.8267-0.83928-8.5547-3.8262-1.7231-2.9924-1.3317-6.7527 0.9707-9.3262zm4.127 0.82617h5c0.06645 0 0.1296 0.013774 0.1875 0.037109 0.06278 0.0253 0.119 0.062363 0.16602 0.10938 0.04701 0.047012 0.08407 0.10324 0.10938 0.16602 0.04897 0.12034 0.04897 0.25466 0 0.375-0.0253 0.062778-0.06236 0.119-0.10938 0.16602l-4.1465 4.1465h3.793c0.277 0 0.5 0.223 0.5 0.5s-0.223 0.5-0.5 0.5h-5c-0.06616 0-0.13135-0.01282-0.19336-0.03906h-2e-3c-0.05986-0.02524-0.11302-0.06224-0.1582-0.10742-0.04684-0.04685-0.08298-0.10096-0.10742-0.1582v-2e-3c-0.05248-0.12403-0.05248-0.26269 0-0.38672 0.02524-0.05986 0.06224-0.11497 0.10742-0.16016l4.1465-4.1464h-3.793c-0.277 0-0.5-0.223-0.5-0.5s0.223-0.5 0.5-0.5z"/>
  <path d="m58.076 1a15 15 0 0 0-0.42969 0.0039062 15 15 0 0 0-7.1465 2.0059 15 15 0 0 0-5.4902 20.49 15 15 0 0 0 20.49 5.4902 15 15 0 0 0 5.4902-20.49 15 15 0 0 0-12.914-7.5zm-0.076172 1a14 14 0 0 1 14 14 14 14 0 0 1-14 14 14 14 0 0 1-14-14 14 14 0 0 1 14-14z"/>
 </g>
 <g id="system-lock-screen" class="ColorScheme-Text" fill="currentColor" opacity=".8" >
  <rect x="122" y="-1" width="32" height="32" rx="0" ry="0" opacity="0"/>
  <path d="m138 5c2.77 0 5 2.23 5 5v3h1.7773c1.2311 0 2.2227 0.99154 2.2227 2.2227v5.5547c0 1.2311-0.99155 2.2227-2.2227 2.2227h-13.555c-1.2311 0-2.2227-0.99154-2.2227-2.2227v-5.5547c0-1.2311 0.99155-2.2227 2.2227-2.2227h1.7773v-3c0-2.77 2.23-5 5-5zm0 1c-2.216 0-4 1.9831-4 4.4453v2.5547h8v-2.5547c0-2.4622-1.784-4.4453-4-4.4453zm-7 8c-0.554 0-1 0.446-1 1v6c0 0.554 0.446 1 1 1h14c0.554 0 1-0.446 1-1v-6c0-0.554-0.446-1-1-1h-12z"/>
  <path d="m138 0a15 15 0 0 0-15 15 15 15 0 0 0 15 15 15 15 0 0 0 15-15 15 15 0 0 0-15-15zm0 1a14 14 0 0 1 14 14 14 14 0 0 1-14 14 14 14 0 0 1-14-14 14 14 0 0 1 14-14z"/>
 </g>
</svg>
