<?xml version="1.0" encoding="UTF-8" standalone="no"?>
<svg
   width="355"
   height="310"
   version="1.0"
   id="svg1879"
   sodipodi:docname="decoration.svg"
   inkscape:version="1.2 (dc2aedaf03, 2022-05-15)"
   xmlns:inkscape="http://www.inkscape.org/namespaces/inkscape"
   xmlns:sodipodi="http://sodipodi.sourceforge.net/DTD/sodipodi-0.dtd"
   xmlns:xlink="http://www.w3.org/1999/xlink"
   xmlns="http://www.w3.org/2000/svg"
   xmlns:svg="http://www.w3.org/2000/svg">
  <sodipodi:namedview
     id="namedview1881"
     pagecolor="#ffffff"
     bordercolor="#666666"
     borderopacity="1.0"
     inkscape:showpageshadow="2"
     inkscape:pageopacity="0.0"
     inkscape:pagecheckerboard="0"
     inkscape:deskcolor="#d1d1d1"
     showgrid="false"
     inkscape:zoom="0.26915677"
     inkscape:cx="481.13225"
     inkscape:cy="371.53069"
     inkscape:window-width="1368"
     inkscape:window-height="692"
     inkscape:window-x="0"
     inkscape:window-y="0"
     inkscape:window-maximized="1"
     inkscape:current-layer="svg1879" />
  <defs
     id="defs1757">
    <linearGradient
       id="shadow_active">
      <stop
         stop-opacity=".92169"
         offset="0"
         id="stop1719" />
      <stop
         stop-opacity=".74096"
         offset=".125"
         id="stop1721" />
      <stop
         stop-opacity=".60241"
         offset=".25"
         id="stop1723" />
      <stop
         stop-opacity=".33133"
         offset=".5"
         id="stop1725" />
      <stop
         stop-opacity=".10843"
         offset=".75"
         id="stop1727" />
      <stop
         stop-opacity=".039216"
         offset=".875"
         id="stop1729" />
      <stop
         stop-opacity="0"
         offset="1"
         id="stop1731" />
    </linearGradient>
    <linearGradient
       id="linearGradient5688"
       x1="398"
       x2="398"
       y1="138.14"
       y2="221.16"
       gradientTransform="matrix(1,0,0,1.0118,0,137.24)"
       gradientUnits="userSpaceOnUse"
       xlink:href="#shadow_active" />
    <linearGradient
       id="linearGradient6612"
       x1="396"
       x2="396"
       y1="64.167"
       y2="14.583"
       gradientTransform="matrix(1,0,0,1.0286,-215,50)"
       gradientUnits="userSpaceOnUse"
       xlink:href="#shadow_active" />
    <linearGradient
       id="linearGradient5688-2"
       x1="398"
       x2="398"
       y1="138.14"
       y2="171.74"
       gradientTransform="matrix(1,0,0,1.0118,0,137.16)"
       gradientUnits="userSpaceOnUse"
       xlink:href="#shadow_inactive" />
    <linearGradient
       id="shadow_inactive">
      <stop
         offset="0"
         id="stop1737" />
      <stop
         stop-opacity=".63855"
         offset=".25"
         id="stop1739" />
      <stop
         stop-opacity=".33735"
         offset=".5"
         id="stop1741" />
      <stop
         stop-opacity=".10843"
         offset=".75"
         id="stop1743" />
      <stop
         stop-opacity=".039216"
         offset=".875"
         id="stop1745" />
      <stop
         stop-opacity="0"
         offset="1"
         id="stop1747" />
    </linearGradient>
    <linearGradient
       id="linearGradient6612-5"
       x1="396"
       x2="396"
       y1="66"
       y2="30"
       gradientTransform="translate(200,5)"
       gradientUnits="userSpaceOnUse"
       xlink:href="#shadow_inactive" />
    <linearGradient
       id="linearGradient1126"
       x1="348.49"
       x2="279.41"
       y1="99"
       y2="99"
       gradientTransform="matrix(1.0133,0,0,1,-3.265,140)"
       gradientUnits="userSpaceOnUse"
       xlink:href="#shadow_active" />
    <radialGradient
       id="radialGradient1306"
       cx="296.48"
       cy="80.417"
       r="17.5"
       gradientTransform="matrix(9.492e-7,-2.9143,4,1.1504e-6,-211.67,980.02)"
       gradientUnits="userSpaceOnUse"
       xlink:href="#shadow_active" />
    <linearGradient
       id="linearGradient1389"
       x1="348.49"
       x2="304.09"
       y1="99.015"
       y2="99.015"
       gradientTransform="matrix(1.0133,0,0,1,-3.265,140)"
       gradientUnits="userSpaceOnUse"
       xlink:href="#shadow_inactive" />
    <radialGradient
       id="radialGradient965"
       cx="48.271"
       cy="178.72"
       r="17.5"
       gradientTransform="matrix(-4,3.2964e-6,1.0209e-6,-4.8,303.08,1053.9)"
       gradientUnits="userSpaceOnUse"
       xlink:href="#shadow_active" />
    <radialGradient
       id="radialGradient967"
       cx="48.271"
       cy="181.18"
       r="17.5"
       gradientTransform="matrix(-2.5714,8.72e-7,-2.0148e-7,-1.9429,594.13,548)"
       gradientUnits="userSpaceOnUse"
       xlink:href="#shadow_inactive" />
    <radialGradient
       id="radialGradient969"
       cx="296.45"
       cy="80.417"
       r="17.5"
       gradientTransform="matrix(-3.7608e-7,-2.0571,2.5714,-5.1233e-7,263.21,725.83)"
       gradientUnits="userSpaceOnUse"
       xlink:href="#shadow_inactive" />
    <linearGradient
       inkscape:collect="always"
       xlink:href="#shadow_active"
       id="linearGradient2108"
       gradientUnits="userSpaceOnUse"
       gradientTransform="matrix(1.0133,0,0,1,-3.265,140)"
       x1="348.49"
       y1="99"
       x2="279.41"
       y2="99" />
    <linearGradient
       inkscape:collect="always"
       xlink:href="#shadow_inactive"
       id="linearGradient2110"
       gradientUnits="userSpaceOnUse"
       gradientTransform="matrix(1.0133,0,0,1,-3.265,140)"
       x1="348.49"
       y1="99.015"
       x2="304.09"
       y2="99.015" />
  </defs>
  <g
     id="decoration-inactive-center"
     transform="translate(0,-90)">
    <path
       d="m 470,200 v 86 h 145 v -86 z"
       fill="#1c1c1c"
       opacity="0.8"
       id="path1759" />
    <path
       d="m 470,200 v 86 h 145 v -86 z"
       opacity="0.35"
       id="path1761" />
  </g>
  <g
     id="decoration-inactive-topleft"
     transform="translate(140,-121.063)">
    <path
       transform="translate(-140,115.06)"
       d="m 365,50 v 66 h 76 V 98 c 0,-6.648 5.352,-12 12,-12 h 17 V 50 Z"
       fill="url(#radialGradient969)"
       opacity="0.5"
       id="path1764"
       style="fill:url(#radialGradient969)" />
    <g
       transform="translate(0,1)"
       id="g1772">
      <g
         transform="translate(-19,25)"
         id="g1770">
        <path
           transform="translate(-121,89.063)"
           d="m 453,86 c -6.648,0 -12,5.352 -12,12 v 18 h 29 V 86 Z"
           fill="#1c1c1c"
           opacity="0.8"
           id="path1766" />
        <path
           transform="translate(-121,89.063)"
           d="m 453,86 c -6.648,0 -12,5.352 -12,12 v 18 h 29 V 86 Z"
           opacity="0.35"
           id="path1768" />
      </g>
    </g>
  </g>
  <g
     id="decoration-right"
     transform="matrix(-1,0,0,1,604.88,-87)">
    <path
       d="m 244.88,197 v 86 h 76 v -86 z"
       fill="url(#linearGradient1126)"
       opacity="0.5"
       id="path1775"
       style="fill:url(#linearGradient2108)" />
    <path
       transform="translate(-255.12,76)"
       d="m 576,121 v 86 h 29 v -86 z"
       fill="#212121"
       opacity="0.8"
       id="path1777" />
    <path
       transform="translate(-255.12,76)"
       d="m 576,121 v 86 h 29 v -86 z"
       opacity="0.35"
       id="path1779" />
  </g>
  <g
     id="decoration-bottom"
     transform="translate(-215,-81)">
    <path
       d="m 325,289 v 86 h 145 v -86 z"
       fill="url(#linearGradient5688)"
       opacity="0.5"
       id="path1782"
       style="fill:url(#linearGradient5688)" />
    <path
       d="M 470,277 H 325 v 12 h 145 z"
       fill="#212121"
       opacity="0.8"
       id="path1784" />
  </g>
  <g
     id="decoration-top"
     transform="translate(-215,-96)">
    <path
       transform="translate(215,90)"
       d="M 110,50 V 86 H 255 V 50 Z"
       fill="url(#linearGradient6612)"
       opacity="0.5"
       id="path1787"
       style="fill:url(#linearGradient6612)" />
    <path
       d="m 325,176 v 30 h 145 v -30 z"
       fill="#212121"
       opacity="0.8"
       id="path1789" />
    <path
       d="m 325,176 v 30 h 145 v -30 z"
       opacity="0.35"
       id="path1793" />
    <path
       d="m 325,176 v 1 h 145 v -1 z"
       fill="#ffffff"
       opacity="0.1"
       id="path1791" />
  </g>
  <g
     id="decoration-left"
     transform="translate(-239.88,-87)">
    <path
       d="m 244.88,197 v 86 h 76 v -86 z"
       fill="url(#linearGradient1126)"
       opacity="0.5"
       id="path1796"
       style="fill:url(#linearGradient1126)" />
    <path
       transform="translate(-255.12,76)"
       d="m 576,121 v 86 h 29 v -86 z"
       fill="#212121"
       opacity="0.8"
       id="path1798" />
    <path
       transform="translate(-255.12,76)"
       d="m 576,121 v 86 h 29 v -86 z"
       opacity="0.35"
       id="path1800" />
  </g>
  <g
     id="decoration-inactive-bottom"
     transform="translate(145,-80.922)">
    <path
       d="m 325,288.92 v 86 h 145 v -86 z"
       fill="url(#linearGradient5688-2)"
       opacity="0.5"
       id="path1803"
       style="fill:url(#linearGradient5688-2)" />
    <path
       d="M 470,276.92 H 325 v 12 h 145 z"
       fill="#1c1c1c"
       opacity="0.8"
       id="path1805" />
  </g>
  <g
     id="decoration-inactive-top"
     transform="translate(145,-96)">
    <path
       transform="translate(-200,135)"
       d="M 525,5 V 41 H 670 V 5 Z"
       fill="url(#linearGradient6612-5)"
       opacity="0.5"
       id="path1808"
       style="fill:url(#linearGradient6612-5)" />
    <path
       d="m 325,176 v 30 h 145 v -30 z"
       fill="#1c1c1c"
       opacity="0.8"
       id="path1810" />
    <path
       d="m 325,176 v 30 h 145 v -30 z"
       opacity="0.35"
       id="path1812" />
  </g>
  <g
     id="decoration-inactive-left"
     transform="translate(120.12,-87.0155)">
    <path
       d="m 244.88,197.02 v 86 l 76,-0.0155 v -85.985 z"
       fill="url(#linearGradient1389)"
       opacity="0.5"
       id="path1815"
       style="fill:url(#linearGradient2110)" />
    <path
       d="m 320.88,197.02 v 86 h 29 v -86 z"
       fill="#1c1c1c"
       opacity="0.8"
       id="path1817" />
    <path
       d="m 320.88,197.02 v 86 h 29 v -86 z"
       opacity="0.35"
       id="path1819" />
  </g>
  <g
     id="decoration-bottomleft"
     transform="translate(-385,-94)">
    <path
       transform="translate(385,94)"
       d="m 81,196 c 0,6.648 5.352,12 12,12 h 17 v -12 z"
       fill="#212121"
       opacity="0.8"
       id="path1822" />
    <g
       transform="matrix(1,0,0,0.99932,165,-10.667)"
       id="g1828">
      <path
         transform="matrix(1,0,0,1.0007,220,104.74)"
         d="m 5,196 v 98 H 110 V 208 H 93 c -6.648,0 -12,-5.352 -12,-12 z"
         fill="url(#radialGradient965)"
         opacity="0.5"
         id="path1824"
         style="fill:url(#radialGradient965)" />
      <g
         transform="translate(-20,24)"
         id="g1826" />
    </g>
  </g>
  <g
     id="decoration-inactive-bottomleft"
     transform="translate(0,-90)">
    <path
       transform="translate(0,90)"
       d="m 441,196 c 0,6.648 5.352,12 12,12 h 17 v -12 z"
       fill="#1c1c1c"
       opacity="0.8"
       id="path1831" />
    <g
       transform="matrix(1,0,0,0.99932,140,-14.604)"
       id="g1837">
      <path
         transform="matrix(1,0,0,1.0007,-140,104.68)"
         d="m 365,196 v 98 h 105 v -86 h -17 c -6.648,0 -12,-5.352 -12,-12 z"
         fill="url(#radialGradient967)"
         opacity="0.5"
         id="path1833"
         style="fill:url(#radialGradient967)" />
      <g
         transform="translate(-20,24)"
         id="g1835" />
    </g>
  </g>
  <rect
     id="shadow-hint-top-margin"
     x="174"
     y="44"
     width="4"
     height="36"
     fill="#ff00ff" />
  <rect
     id="shadow-hint-bottom-margin"
     x="175"
     y="208"
     width="4"
     height="86"
     fill="#ff00ff" />
  <rect
     id="shadow-hint-right-margin"
     x="284"
     y="140"
     width="76"
     height="4"
     fill="#ff00ff" />
  <rect
     id="shadow-hint-left-margin"
     x="5"
     y="134"
     width="76"
     height="4"
     fill="#ff00ff" />
  <rect
     id="hint-top-margin"
     x="186"
     y="44"
     width="4"
     height="66"
     fill="#00ff29" />
  <rect
     id="hint-bottom-margin"
     x="187"
     y="196"
     width="4"
     height="98"
     fill="#00ff29" />
  <rect
     id="hint-right-margin"
     transform="rotate(90)"
     x="129"
     y="-360"
     width="4"
     height="105"
     fill="#00ff29" />
  <rect
     id="hint-left-margin"
     transform="rotate(90)"
     x="126"
     y="-110"
     width="4"
     height="105"
     fill="#00ff29" />
  <g
     id="decoration-topleft"
     transform="matrix(-1,0,0,1,535,-121.062)">
    <path
       transform="matrix(-1,0,0,1,535,115.06)"
       d="m 5,50 v 66 H 81 V 98 c 0,-6.648 5.352,-12 12,-12 h 17 V 50 Z"
       fill="url(#radialGradient1306)"
       opacity="0.5"
       id="path1848"
       style="fill:url(#radialGradient1306)" />
    <g
       transform="translate(250)"
       id="g1858">
      <g
         transform="matrix(-1,0,0,1,524,26)"
         id="g1856">
        <path
           transform="translate(239,89.062)"
           d="m 93,86 c -6.648,0 -12,5.352 -12,12 v 18 h 29 V 86 Z"
           fill="#212121"
           opacity="0.8"
           id="path1850" />
        <path
           transform="translate(239,89.062)"
           d="m 93,86 c -6.648,0 -12,5.352 -12,12 v 18 h 29 V 86 Z"
           opacity="0.35"
           id="path1854" />
        <path
           transform="translate(239,95.062)"
           d="m 93,80 c -6.648,0 -12,5.352 -12,12 v 0.59961 c 0,-6.4264 5.352,-11.6 12,-11.6 h 17 v -1 H 93 Z"
           fill="#ffffff"
           opacity="0.1"
           id="path1852" />
      </g>
    </g>
  </g>
  <g
     id="decoration-inactive-right"
     transform="matrix(-1,0,0,1,964.88,-87.0155)">
    <path
       d="m 244.88,197.02 v 86 l 76,-0.0155 v -85.985 z"
       fill="url(#linearGradient1389)"
       opacity="0.5"
       id="path1861"
       style="fill:url(#linearGradient1389)" />
    <path
       d="m 320.88,197.02 v 86 h 29 v -86 z"
       fill="#1c1c1c"
       opacity="0.8"
       id="path1863" />
    <path
       d="m 320.88,197.02 v 86 h 29 v -86 z"
       opacity="0.35"
       id="path1865" />
  </g>
  <use
     id="decoration-topright"
     transform="matrix(-1,0,0,1,365,0)"
     width="100%"
     height="100%"
     xlink:href="#decoration-topleft"
     x="0"
     y="0" />
  <use
     id="decoration-inactive-topright"
     transform="matrix(-1,0,0,1,1085,0)"
     width="100%"
     height="100%"
     xlink:href="#decoration-inactive-topleft"
     x="0"
     y="0" />
  <use
     id="decoration-bottomright"
     transform="matrix(-1,0,0,1,365,0)"
     width="100%"
     height="100%"
     xlink:href="#decoration-bottomleft"
     x="0"
     y="0" />
  <use
     id="decoration-inactive-bottomright"
     transform="matrix(-1,0,0,1,1085,0)"
     width="100%"
     height="100%"
     xlink:href="#decoration-inactive-bottomleft"
     x="0"
     y="0" />
  <g
     id="decoration-center"
     transform="translate(0,-90)">
    <path
       d="m 110,200 v 86 h 145 v -86 z"
       fill="#212121"
       opacity="0.8"
       id="path1872" />
    <path
       d="m 110,200 v 86 h 145 v -86 z"
       opacity="0.35"
       id="path1874" />
  </g>
  <g
     id="mask-center"
     transform="translate(420,-89.99999)">
    <path
       d="m 470,200 v 86 h 145 v -86 z"
       id="path42-3" />
  </g>
  <g
     id="mask-topleft"
     transform="translate(560,-121.05999)">
    <path
       transform="translate(-140,115.06)"
       d="m 365,50 v 66 h 76 V 98 c 0,-6.648 5.352,-12 12,-12 h 17 V 50 Z"
       id="path47-6"
       style="opacity:0" />
    <path
       d="m 313,201.05999 c -6.648,0 -12,5.352 -12,12 v 18 h 29 v -30 z"
       id="path49-7" />
  </g>
  <g
     id="mask-bottom"
     transform="translate(565,-80.921993)">
    <path
       d="m 325,288.92 v 86 h 145 v -86 z"
       id="path80-5"
       style="opacity:0" />
    <path
       d="M 470,276.92 H 325 v 12 h 145 z"
       id="path82-3" />
  </g>
  <g
     id="mask-top"
     transform="translate(565,-96)">
    <path
       transform="translate(-200,135)"
       d="M 525,5 V 41 H 670 V 5 Z"
       id="path85-5"
       style="opacity:0" />
    <path
       d="m 325,176 v 30 h 145 v -30 z"
       id="path87-6" />
  </g>
  <g
     id="mask-left"
     transform="translate(540.12,-87.01599)">
    <path
       d="m 244.88,197.02 v 86 l 76,-0.0155 v -85.985 z"
       id="path92-2"
       style="opacity:0" />
    <path
       d="m 320.88,197.02 v 86 h 29 v -86 z"
       id="path94-9" />
  </g>
  <g
     id="mask-bottomleft"
     transform="translate(420,-90)">
    <path
       transform="translate(0,90)"
       d="m 441,196 c 0,6.648 5.352,12 12,12 h 17 v -12 z"
       id="path106-1" />
    <path
       d="m 365,286 v 98 h 105 v -86 h -17 c -6.648,0 -12,-5.352 -12,-12 z"
       id="path108-7"
       style="fill:none" />
  </g>
  <g
     id="mask-right"
     transform="matrix(-1,0,0,1,1384.88,-87.01599)">
    <path
       d="m 244.88,197.02 v 86 l 76,-0.0155 v -85.985 z"
       id="path132-0"
       style="opacity:0" />
    <path
       d="m 320.88,197.02 v 86 h 29 v -86 z"
       id="path134-9" />
  </g>
  <use
     id="mask-topright"
     transform="matrix(-1,0,0,1,1925,-2.2e-5)"
     width="100%"
     height="100%"
     xlink:href="#mask-topleft"
     x="0"
     y="0" />
  <use
     id="mask-bottomright"
     transform="matrix(-1,0,0,1,1925,-1.2e-5)"
     width="100%"
     height="100%"
     xlink:href="#mask-bottomleft"
     x="0"
     y="0" />
</svg>
