<?xml version="1.0" encoding="UTF-8" standalone="no"?>
<svg
   width="32"
   height="32"
   version="1.1"
   viewBox="0 0 32 32"
   id="svg23"
   sodipodi:docname="applications.svg"
   inkscape:version="1.1.1 (3bf5ae0d25, 2021-09-20, custom)"
   xmlns:inkscape="http://www.inkscape.org/namespaces/inkscape"
   xmlns:sodipodi="http://sodipodi.sourceforge.net/DTD/sodipodi-0.dtd"
   xmlns="http://www.w3.org/2000/svg"
   xmlns:svg="http://www.w3.org/2000/svg">
  <sodipodi:namedview
     id="namedview25"
     pagecolor="#ffffff"
     bordercolor="#666666"
     borderopacity="1.0"
     inkscape:pageshadow="2"
     inkscape:pageopacity="0.0"
     inkscape:pagecheckerboard="0"
     showgrid="false"
     inkscape:zoom="6.1319416"
     inkscape:cx="5.055495"
     inkscape:cy="31.800694"
     inkscape:window-width="1440"
     inkscape:window-height="748"
     inkscape:window-x="0"
     inkscape:window-y="28"
     inkscape:window-maximized="1"
     inkscape:current-layer="svg23" />
  <defs
     id="defs5">
    <style
       id="current-color-scheme"
       type="text/css">.ColorScheme-Text { color:#333333; } .ColorScheme-Highlight { color:#5294e2; }</style>
    <style
       type="text/css"
       id="style3" />
  </defs>
  <g
     id="22-22-applications-other">
    <rect
       x="-29"
       y="6"
       width="22"
       height="22"
       rx="0"
       ry="0"
       opacity="0"
       id="rect14" />
    <g
       transform="translate(-26,10)"
       class="ColorScheme-Text"
       fill="currentColor"
       id="g20">
      <path
         d="m1 0c-0.554 0-1 0.446-1 1v5c0 0.554 0.446 1 1 1h5c0.554 0 1-0.446 1-1v-5c0-0.554-0.446-1-1-1z"
         id="path16" />
      <path
         d="m9 0c-0.554 0-1 0.446-1 1v5c0 0.554 0.446 1 1 1h5c0.554 0 1-0.446 1-1v-5c0-0.554-0.446-1-1-1zm1 2h3v3h-3zm-9 6c-0.554 0-1 0.446-1 1v5c0 0.554 0.446 1 1 1h5c0.554 0 1-0.446 1-1v-5c0-0.554-0.446-1-1-1zm8 0c-0.554 0-1 0.446-1 1v5c0 0.554 0.446 1 1 1h5c0.554 0 1-0.446 1-1v-5c0-0.554-0.446-1-1-1zm-7 2h3v3h-3zm8 0h3v3h-3z"
         opacity=".5"
         id="path18" />
    </g>
  </g>
  <g
     id="applications-other"
     transform="translate(-21.999998)">
    <rect
       x="21.999998"
       y="-1.2834001e-09"
       width="32"
       height="32"
       rx="0"
       ry="0"
       opacity="0"
       stroke-width="2"
       style="paint-order:fill markers stroke"
       id="rect8" />
    <path
       id="rect941"
       d="m 30,5 c -1.662,0 -3,1.338 -3,3 v 4 c 0,1.662 1.338,3 3,3 h 4 c 1.662,0 3,-1.338 3,-3 V 8 C 37,6.338 35.662,5 34,5 Z m 0,2 h 4 c 0.554,0 1,0.446 1,1 v 4 c 0,0.554 -0.446,1 -1,1 h -4 c -0.554,0 -1,-0.446 -1,-1 V 8 c 0,-0.554 0.446,-1 1,-1 z"
       class="ColorScheme-Text"
       fill="currentColor" />
    <path
       id="path1800"
       d="m 42,5 c -1.662,0 -3,1.338 -3,3 v 4 c 0,1.662 1.338,3 3,3 h 4 c 1.662,0 3,-1.338 3,-3 V 8 C 49,6.338 47.662,5 46,5 Z m 0,2 h 4 c 0.554,0 1,0.446 1,1 v 4 c 0,0.554 -0.446,1 -1,1 h -4 c -0.554,0 -1,-0.446 -1,-1 V 8 c 0,-0.554 0.446,-1 1,-1 z"
       class="ColorScheme-Text"
       fill="currentColor"
       style="opacity:0.45" />
    <path
       id="path1802"
       d="m 30,17 c -1.662,0 -3,1.338 -3,3 v 4 c 0,1.662 1.338,3 3,3 h 4 c 1.662,0 3,-1.338 3,-3 v -4 c 0,-1.662 -1.338,-3 -3,-3 z m 0,2 h 4 c 0.554,0 1,0.446 1,1 v 4 c 0,0.554 -0.446,1 -1,1 h -4 c -0.554,0 -1,-0.446 -1,-1 v -4 c 0,-0.554 0.446,-1 1,-1 z"
       class="ColorScheme-Text"
       fill="currentColor" />
    <path
       id="path1804"
       d="m 42,17 c -1.662,0 -3,1.338 -3,3 v 4 c 0,1.662 1.338,3 3,3 h 4 c 1.662,0 3,-1.338 3,-3 v -4 c 0,-1.662 -1.338,-3 -3,-3 z m 0,2 h 4 c 0.554,0 1,0.446 1,1 v 4 c 0,0.554 -0.446,1 -1,1 h -4 c -0.554,0 -1,-0.446 -1,-1 v -4 c 0,-0.554 0.446,-1 1,-1 z"
       class="ColorScheme-Text"
       fill="currentColor" />
  </g>
</svg>
