<?xml version="1.0" encoding="UTF-8" standalone="no"?>
<svg
   width="22"
   height="22"
   version="1.1"
   viewBox="0 0 22 22"
   id="svg20"
   sodipodi:docname="compass.svg"
   inkscape:version="1.1.1 (3bf5ae0d25, 2021-09-20, custom)"
   xmlns:inkscape="http://www.inkscape.org/namespaces/inkscape"
   xmlns:sodipodi="http://sodipodi.sourceforge.net/DTD/sodipodi-0.dtd"
   xmlns="http://www.w3.org/2000/svg"
   xmlns:svg="http://www.w3.org/2000/svg">
  <sodipodi:namedview
     id="namedview22"
     pagecolor="#ffffff"
     bordercolor="#666666"
     borderopacity="1.0"
     inkscape:pageshadow="2"
     inkscape:pageopacity="0.0"
     inkscape:pagecheckerboard="0"
     showgrid="true"
     inkscape:zoom="8.9191878"
     inkscape:cx="13.342022"
     inkscape:cy="3.4756528"
     inkscape:window-width="1440"
     inkscape:window-height="748"
     inkscape:window-x="0"
     inkscape:window-y="28"
     inkscape:window-maximized="1"
     inkscape:current-layer="22-22-compass"
     inkscape:snap-bbox="true"
     inkscape:bbox-nodes="true">
    <inkscape:grid
       type="xygrid"
       id="grid833" />
  </sodipodi:namedview>
  <defs
     id="defs3">
    <style
       id="current-color-scheme"
       type="text/css">.ColorScheme-Text { color:#333333; } .ColorScheme-Highlight { color:#5294e2; }</style>
  </defs>
  <g
     id="16-16-compass"
     transform="translate(0.126953,2.873047)">
    <rect
       x="24.873047"
       width="16"
       height="16"
       fill="none"
       id="rect5"
       y="0.12695301" />
    <path
       id="circle4"
       d="m 32.873047,0.126953 a 8,8 0 0 0 -8,8 8,8 0 0 0 8,8 8,8 0 0 0 8,-8 8,8 0 0 0 -8,-8 z m 0,2 a 5.9999809,5.9999809 0 0 1 6,6 5.9999809,5.9999809 0 0 1 -6,6 5.9999809,5.9999809 0 0 1 -6,-6 5.9999809,5.9999809 0 0 1 6,-6 z"
       class="ColorScheme-Text"
       fill="currentColor" />
    <path
       d="m 35.355469,4.392578 -4.236328,1.324219 a 1.0001,1.0001 0 0 0 -0.65625,0.65625 l -1.324219,4.236328 a 1.0001,1.0001 0 0 0 1.251953,1.251953 l 4.236328,-1.324219 a 1.0001,1.0001 0 0 0 0.65625,-0.65625 L 36.607422,5.644531 A 1.0001,1.0001 0 0 0 35.355469,4.392578 Z m -1.228516,2.480469 -0.597656,1.910156 -1.910156,0.597656 0.597656,-1.910156 z"
       id="path2"
       class="ColorScheme-Text"
       fill="currentColor"
       style="opacity:0.45" />
  </g>
  <g
     id="compass"
     transform="translate(-36,6)">
    <rect
       x="36"
       y="-38"
       width="32"
       height="32"
       opacity="0"
       stroke-width="0.91829"
       id="rect17" />
    <path
       id="path956"
       d="m 52,-34 a 12,12 0 0 0 -12,12 12,12 0 0 0 12,12 12,12 0 0 0 12,-12 12,12 0 0 0 -12,-12 z m 0,2 a 10,10 0 0 1 10,10 10,10 0 0 1 -10,10 10,10 0 0 1 -10,-10 10,10 0 0 1 10,-10 z"
       class="ColorScheme-Text"
       fill="currentColor" />
    <path
       d="m 55.873047,-27.125 -6.355469,1.988281 a 1.0001,1.0001 0 0 0 -0.654297,0.654297 L 46.875,-18.126953 a 1.0001,1.0001 0 0 0 1.251953,1.251953 l 6.355469,-1.988281 a 1.0001,1.0001 0 0 0 0.654297,-0.654297 L 57.125,-25.873047 A 1.0001,1.0001 0 0 0 55.873047,-27.125 Z m -1.226563,2.478516 -1.261718,4.03125 -4.03125,1.261718 1.261718,-4.03125 z"
       id="path958"
       class="ColorScheme-Text"
       fill="currentColor"
       style="opacity:0.45" />
  </g>
  <g
     id="22-22-compass">
    <circle
       cx="11"
       cy="11"
       r="11"
       fill="none"
       id="circle10" />
    <path
       d="M 13.482422,7.265625 9.246094,8.589844 a 1.0001,1.0001 0 0 0 -0.65625,0.65625 l -1.324219,4.236328 a 1.0001,1.0001 0 0 0 1.251953,1.251953 l 4.236328,-1.324219 a 1.0001,1.0001 0 0 0 0.65625,-0.65625 L 14.734375,8.517578 A 1.0001,1.0001 0 0 0 13.482422,7.265625 Z M 12.253906,9.746094 11.65625,11.65625 9.746094,12.253906 10.34375,10.34375 Z"
       id="path1254"
       class="ColorScheme-Text"
       fill="currentColor"
       style="opacity:0.45" />
    <path
       id="path959"
       d="M 11 2 A 9 9 0 0 0 2 11 A 9 9 0 0 0 11 20 A 9 9 0 0 0 20 11 A 9 9 0 0 0 11 2 z M 11 4 A 7 7 0 0 1 18 11 A 7 7 0 0 1 11 18 A 7 7 0 0 1 4 11 A 7 7 0 0 1 11 4 z "
       class="ColorScheme-Text"
       fill="currentColor" />
  </g>
</svg>
