<?xml version="1.0" encoding="UTF-8" standalone="no"?>
<svg
   width="22"
   height="22"
   enable-background="new"
   version="1.1"
   id="svg617"
   sodipodi:docname="go.svg"
   inkscape:version="1.2.2 (b0a8486541, 2022-12-01)"
   xmlns:inkscape="http://www.inkscape.org/namespaces/inkscape"
   xmlns:sodipodi="http://sodipodi.sourceforge.net/DTD/sodipodi-0.dtd"
   xmlns:xlink="http://www.w3.org/1999/xlink"
   xmlns="http://www.w3.org/2000/svg"
   xmlns:svg="http://www.w3.org/2000/svg">
  <sodipodi:namedview
     id="namedview619"
     pagecolor="#ffffff"
     bordercolor="#666666"
     borderopacity="1.0"
     inkscape:showpageshadow="2"
     inkscape:pageopacity="0.0"
     inkscape:pagecheckerboard="0"
     inkscape:deskcolor="#d1d1d1"
     showgrid="false"
     inkscape:zoom="7.5853273"
     inkscape:cx="49.964884"
     inkscape:cy="20.961521"
     inkscape:window-width="1920"
     inkscape:window-height="1012"
     inkscape:window-x="0"
     inkscape:window-y="32"
     inkscape:window-maximized="1"
     inkscape:current-layer="svg617" />
  <defs
     id="defs596">
    <style
       id="current-color-scheme"
       type="text/css">.ColorScheme-Text { color:#333333; } .ColorScheme-Highlight { color:#5294e2; } .ColorScheme-ButtonBackground { color:#333333; }</style>
  </defs>
  <g
     id="go-home">
    <path
       d="m0-1.5e-6h22v22h-22z"
       opacity="0"
       id="path598" />
    <path
       class="ColorScheme-Text"
       d="m10.5 4.4141c-0.25562 0-0.51116 0.0971-0.70703 0.29297l-5.6562 5.6562c-0.39174 0.39174-0.39174 1.0223 0 1.4141 0.23669 0.23669 0.55752 0.313 0.86328 0.26367v4.959h2v-6.6719l3.5-3.5 3.5 3.5v6.6719h2v-4.959c0.30576 0.04933 0.62659-0.02698 0.86328-0.26367 0.39174-0.39174 0.39174-1.0223 0-1.4141l-5.6562-5.6562c-0.19587-0.19587-0.45141-0.29297-0.70703-0.29297z"
       fill="currentColor"
       id="path600" />
    <path
       class="ColorScheme-Text"
       d="m10.5 12c-0.831 0-1.5 0.669-1.5 1.5v3.5h3v-3.5c0-0.831-0.669-1.5-1.5-1.5z"
       fill="currentColor"
       id="path602" />
  </g>
  <g
     id="go-up">
    <path
       d="m24 0v22h22v-22z"
       opacity="0"
       id="path605" />
    <path
       id="rect607"
       class="ColorScheme-Text"
       d="M 28.988616 -20.503335 C 28.92778 -20.441782 28.874421 -20.371888 28.831174 -20.296174 C 28.779086 -20.205406 28.740891 -20.105256 28.719308 -19.999245 C 28.706234 -19.934507 28.699973 -19.866313 28.699973 -19.797609 L 28.698592 -9.7972959 C 28.698592 -9.2432965 29.144485 -8.7974027 29.698485 -8.7974027 C 30.252484 -8.7974027 30.698378 -9.2432965 30.698378 -9.7972959 L 30.699759 -18.797716 L 39.700179 -18.799097 C 40.254178 -18.799097 40.700072 -19.24499 40.700072 -19.79899 C 40.700072 -20.352989 40.254178 -20.798883 39.700179 -20.798883 L 29.701247 -20.798883 C 29.700768 -20.798883 29.700345 -20.797503 29.699866 -20.797502 C 29.631162 -20.797502 29.562967 -20.791241 29.49823 -20.778167 C 29.497681 -20.778055 29.497398 -20.776899 29.496849 -20.776786 C 29.432221 -20.763628 29.369779 -20.745069 29.310405 -20.720162 C 29.309842 -20.719925 29.309586 -20.71902 29.309024 -20.718781 C 29.279657 -20.706401 29.249857 -20.693751 29.222016 -20.67873 C 29.221461 -20.678429 29.22119 -20.677651 29.220635 -20.677349 C 29.136259 -20.631418 29.060097 -20.574816 28.992759 -20.507478 C 28.991378 -20.506102 28.989989 -20.504718 28.988616 -20.503335 z "
       transform="rotate(45)"
       fill="currentColor" />
  </g>
  <use
     id="go-down"
     transform="matrix(1,0,0,-1,25,22)"
     width="100%"
     height="100%"
     xlink:href="#go-up" />
  <use
     id="go-previous"
     transform="matrix(0,1,1,0,78,-24)"
     width="100%"
     height="100%"
     xlink:href="#go-up" />
  <use
     id="go-next"
     transform="rotate(90,77.5,53.5)"
     width="100%"
     height="100%"
     xlink:href="#go-up" />
</svg>
