<svg width="22" height="22" enable-background="new" version="1.1" xmlns="http://www.w3.org/2000/svg" xmlns:xlink="http://www.w3.org/1999/xlink">
 <defs>
  <style id="current-color-scheme" type="text/css">.ColorScheme-Text { color:#333333; } .ColorScheme-Highlight { color:#5294e2; } .ColorScheme-ButtonBackground { color:#333333; }</style>
 </defs>
 <g id="go-home">
  <path d="m0-1.5e-6h22v22h-22z" opacity="0"/>
  <path class="ColorScheme-Text" d="m10.5 4.4141c-0.25562 0-0.51116 0.0971-0.70703 0.29297l-5.6562 5.6562c-0.39174 0.39174-0.39174 1.0223 0 1.4141 0.23669 0.23669 0.55752 0.313 0.86328 0.26367v4.959h2v-6.6719l3.5-3.5 3.5 3.5v6.6719h2v-4.959c0.30576 0.04933 0.62659-0.02698 0.86328-0.26367 0.39174-0.39174 0.39174-1.0223 0-1.4141l-5.6562-5.6562c-0.19587-0.19587-0.45141-0.29297-0.70703-0.29297z" fill="currentColor"/>
  <path class="ColorScheme-Text" d="m10.5 12c-0.831 0-1.5 0.669-1.5 1.5v3.5h3v-3.5c0-0.831-0.669-1.5-1.5-1.5z" fill="currentColor"/>
 </g>
 <g id="go-up">
  <path d="m24 0v22h22v-22z" opacity="0"/>
  <g transform="translate(4 -23)" fill="currentColor">
   <rect class="ColorScheme-Text" transform="rotate(45)" x="42.135" y="-1.7071" width="12" height="2" rx="1" ry="1"/>
   <rect class="ColorScheme-Text" transform="matrix(-.70711 .70711 .70711 .70711 0 0)" x="-1.7058" y="42.134" width="12" height="2" rx="1" ry="1"/>
  </g>
 </g>
 <use id="go-down" transform="matrix(1,0,0,-1,25,22)" width="100%" height="100%" xlink:href="#go-up"/>
 <use id="go-previous" transform="matrix(0,1,1,0,78,-24)" width="100%" height="100%" xlink:href="#go-up"/>
 <use id="go-next" transform="rotate(90,77.5,53.5)" width="100%" height="100%" xlink:href="#go-up"/>
</svg>
