<?xml version="1.0" encoding="UTF-8" standalone="no"?>
<svg
   width="22"
   height="22"
   enable-background="new"
   version="1.1"
   viewBox="0 0 22 22"
   id="svg1015"
   sodipodi:docname="kalarm.svg"
   inkscape:version="1.2.2 (b0a8486541, 2022-12-01)"
   xmlns:inkscape="http://www.inkscape.org/namespaces/inkscape"
   xmlns:sodipodi="http://sodipodi.sourceforge.net/DTD/sodipodi-0.dtd"
   xmlns="http://www.w3.org/2000/svg"
   xmlns:svg="http://www.w3.org/2000/svg">
  <sodipodi:namedview
     id="namedview1017"
     pagecolor="#ffffff"
     bordercolor="#666666"
     borderopacity="1.0"
     inkscape:showpageshadow="2"
     inkscape:pageopacity="0.0"
     inkscape:pagecheckerboard="0"
     inkscape:deskcolor="#d1d1d1"
     showgrid="false"
     inkscape:zoom="10.727273"
     inkscape:cx="-4.5677966"
     inkscape:cy="11"
     inkscape:window-width="1920"
     inkscape:window-height="1012"
     inkscape:window-x="0"
     inkscape:window-y="32"
     inkscape:window-maximized="1"
     inkscape:current-layer="kalarm" />
  <defs
     id="defs1004">
    <style
       id="current-color-scheme"
       type="text/css">.ColorScheme-Text { color:#333333; } .ColorScheme-Highlight { color:#5294e2; } .ColorScheme-ButtonBackground { color:#333333; }</style>
  </defs>
  <g
     id="kalarm">
    <rect
       width="22"
       height="22"
       opacity="0"
       id="rect1006" />
    <path
       d="M 7.5,2.99 A 3.5,3.5 0 0 0 4,6.49 3.5,3.5 0 0 0 4.23438,7.738 8,8 0 0 1 10.01558,4.0603 3.5,3.5 0 0 0 7.49998,2.99 Z m 7,0 a 3.5,3.5 0 0 0 -2.5156,1.0684 8,8 0 0 1 5.7852,3.6758 3.5,3.5 0 0 0 0.23047,-1.2441 3.5,3.5 0 0 0 -3.5,-3.5 z m -3.5,2 c -3.866,0 -7,3.134 -7,7 0.003,1.753 0.66381,3.4411 1.8516,4.7305 l -0.55859,0.55859 c -0.98181,0.94251 0.47155,2.3959 1.4141,1.4141 l 0.70313,-0.70312 c 1.0843,0.65158 2.3248,0.99716 3.5898,1 1.265,-0.003 2.5056,-0.34842 3.5898,-1 l 0.70313,0.70312 c 0.94251,0.98181 2.3959,-0.47155 1.4141,-1.4141 L 16.14848,16.7205 c 1.1878,-1.2894 1.8485,-2.9774 1.8516,-4.7305 0,-3.866 -3.134,-7 -7,-7 z m 0,2 c 2.7614,0 5,2.2386 5,5 0,2.7614 -2.2386,5 -5,5 -2.7614,0 -5,-2.2386 -5,-5 0,-2.7614 2.2386,-5 5,-5 z m 2.3086,2.1836 c -0.0964,0.0256 -0.18476,0.0808 -0.25,0.15625 l -2.1562,2.1562 -1.6562,-1.6562 C 9.08902,9.57287 8.67796,9.52302 8.46495,9.73615 8.25194,9.94916 8.30179,10.36022 8.55865,10.5174 l 2,2 c 0.1835,0.1737 0.504,0.1737 0.6875,0 l 2.5,-2.5 c 0.29287,-0.29845 -0.0248,-0.91114 -0.4375,-0.84375 z"
       class="ColorScheme-Text"
       fill="currentColor"
       id="path1008" />
  </g>
</svg>
