<svg width="22" height="22" enable-background="new" version="1.1" xmlns="http://www.w3.org/2000/svg" xmlns:xlink="http://www.w3.org/1999/xlink">
 <defs>
  <style id="current-color-scheme" type="text/css">.ColorScheme-Text { color:#333333; } .ColorScheme-Highlight { color:#5294e2; } .ColorScheme-ButtonBackground { color:#333333; }</style>
 </defs>
 <g id="kmail" transform="translate(-467 -135)">
  <path d="m467 135h22v22h-22z" opacity="0"/>
  <path class="ColorScheme-Text" d="m472 140c-1.108 0-2 0.892-2 2v8c0 1.108 0.892 2 2 2h12c1.108 0 2-0.892 2-2v-8c0-1.108-0.892-2-2-2h-12zm0 2h12v2 6h-12v-6-2z" fill="currentColor"/>
  <path class="ColorScheme-Text" transform="rotate(15)" d="m493.01 16.276 0.53584 1.9998 6.2116-2.64e-4 5.3795-3.1056-0.53584-1.9998-5.3795 3.1056-6.2116 2.64e-4z" fill="currentColor"/>
 </g>
 <g id="mail-unread-new">
  <path d="m30 0h22v22h-22z" opacity="0"/>
  <path class="ColorScheme-Text" d="m35 5c-1.108 0-2 0.892-2 2v8c0 1.108 0.892 2 2 2h9.7676a3 3 0 0 1-0.76758-2h-9v-6-2h12v2 3a3 3 0 0 1 2 0.76367v-5.7637c0-1.108-0.892-2-2-2h-12z" fill="currentColor"/>
  <path class="ColorScheme-Text" d="m35 8.3223 4e-6 2.0703 6 1.6074 6-1.6074-4e-6 -2.0703-6 1.6074z" fill="currentColor"/>
  <path class="ColorScheme-Highlight" d="m47 13a2 2 0 0 0-2 2 2 2 0 0 0 2 2 2 2 0 0 0 2-2 2 2 0 0 0-2-2z" fill="currentColor"/>
 </g>
 <use id="mail-mark-unread-new" transform="translate(27)" xlink:href="#mail-unread-new"/>
</svg>
