<?xml version="1.0" encoding="UTF-8" standalone="no"?>
<svg
   width="22"
   height="22"
   enable-background="new"
   version="1.1"
   id="svg672"
   sodipodi:docname="kmail.svg"
   inkscape:version="1.3 (0e150ed6c4, 2023-07-21)"
   xmlns:inkscape="http://www.inkscape.org/namespaces/inkscape"
   xmlns:sodipodi="http://sodipodi.sourceforge.net/DTD/sodipodi-0.dtd"
   xmlns="http://www.w3.org/2000/svg"
   xmlns:svg="http://www.w3.org/2000/svg">
  <sodipodi:namedview
     id="namedview674"
     pagecolor="#ffffff"
     bordercolor="#666666"
     borderopacity="1.0"
     inkscape:showpageshadow="2"
     inkscape:pageopacity="0.0"
     inkscape:pagecheckerboard="0"
     inkscape:deskcolor="#d1d1d1"
     showgrid="false"
     inkscape:zoom="7.5853273"
     inkscape:cx="33.485701"
     inkscape:cy="11.074011"
     inkscape:window-width="1920"
     inkscape:window-height="1016"
     inkscape:window-x="0"
     inkscape:window-y="32"
     inkscape:window-maximized="1"
     inkscape:current-layer="svg672" />
  <defs
     id="defs653">
    <style
       id="current-color-scheme"
       type="text/css">.ColorScheme-Text { color:#333333; } .ColorScheme-Highlight { color:#5294e2; } .ColorScheme-ButtonBackground { color:#333333; }</style>
  </defs>
  <g
     id="kmail"
     transform="translate(-467 -135)">
    <path
       d="m467 135h22v22h-22z"
       opacity="0"
       id="path655" />
    <path
       id="path657"
       class="ColorScheme-Text"
       d="M 472 140 C 470.892 140 470 140.892 470 142 L 470 150 C 470 151.108 470.892 152 472 152 L 484 152 C 485.108 152 486 151.108 486 150 L 486 142 C 486 140.892 485.108 140 484 140 L 472 140 z M 472 142 L 484 142 L 484 144 L 484 150 L 472 150 L 472 145.39258 L 477.99805 147 L 483.99805 145.39258 L 483.99805 143.32227 L 477.99805 144.92969 L 472 143.32227 L 472 142 z "
       fill="currentColor" />
  </g>
</svg>
