<svg id="svg" version="1.1" viewBox="0 0 22 22" xmlns="http://www.w3.org/2000/svg" xmlns:xlink="http://www.w3.org/1999/xlink">
 <defs>
  <style id="current-color-scheme" type="text/css">.ColorScheme-Text { color:#333333; } .ColorScheme-Highlight { color:#5294e2; } .ColorScheme-ButtonBackground { color:#333333; }</style>
 </defs>
 <g id="kpackagekit-inactive" transform="translate(-27.988 -.77569)">
  <rect x="82.3" width="22" height="22" opacity="0"/>
  <g transform="translate(-659.7 233.97)">
   <path d="m761-223h-2c0-2.7624-1.8654-5.0836-4.4062-5.7812-0.0316-9e-3 -0.0621-0.023-0.0937-0.0312-0.25518-0.0655-0.51414-0.0934-0.78125-0.125-0.23328-0.0276-0.47806-0.0625-0.71875-0.0625-0.6163 6.4e-4 -1.2289 0.0951-1.8125 0.28125v0.0312c-0.84159 0.26706-1.6136 0.69432-2.25 1.2812l1.1875 1.5938c0.502-0.51324 1.1581-0.84637 1.875-1.0312v-0.0312c0.38012-0.0893 0.78962-0.12172 1.1875-0.0937 0.1818 0.0128 0.34929 0.0286 0.53125 0.0625 1.8671 0.33781 3.2812 1.9418 3.2812 3.9062h-2l3 4 3-4zm-3.9375 4.4062-1.1875-1.5938c-0.502 0.51324-1.1581 0.84637-1.875 1.0312v0.0312c-0.38012 0.0893-0.78962 0.12172-1.1875 0.0937-0.1818-0.0128-0.34929-0.0286-0.53125-0.0625-1.8671-0.33781-3.2812-1.9418-3.2812-3.9062h2l-3-4-3 4h2c0 2.7624 1.8654 5.0836 4.4062 5.7812 0.0322 9e-3 0.0613 0.0229 0.0937 0.0312 0.25518 0.0655 0.51414 0.0934 0.78125 0.125 0.23328 0.0276 0.47806 0.0625 0.71875 0.0625 0.6163-6.4e-4 1.2289-0.0951 1.8125-0.28125v-0.0312c0.84159-0.26706 1.6136-0.69432 2.25-1.2812z" class="ColorScheme-Text" fill="currentColor"/>
   <rect transform="scale(-1)" x="-761" y="214.97" width="16" height="16" fill="none"/>
  </g>
 </g>
 <g id="kpackagekit-security" transform="translate(-82.3)">
  <rect x="82.3" width="22" height="22" opacity="0"/>
  <g transform="translate(-659.7 233.97)">
   <path d="m761-223h-2c0-2.7624-1.8654-5.0836-4.4062-5.7812-0.0316-9e-3 -0.0621-0.023-0.0937-0.0312-0.25518-0.0655-0.51414-0.0934-0.78125-0.125-0.23328-0.0276-0.47806-0.0625-0.71875-0.0625-0.6163 6.4e-4 -1.2289 0.0951-1.8125 0.28125v0.0312c-0.84159 0.26706-1.6136 0.69432-2.25 1.2812l1.1875 1.5938c0.502-0.51324 1.1581-0.84637 1.875-1.0312v-0.0312c0.38012-0.0893 0.78962-0.12172 1.1875-0.0937 0.1818 0.0128 0.34929 0.0286 0.53125 0.0625 1.8671 0.33781 3.2812 1.9418 3.2812 3.9062h-2l3 4 3-4zm-3.9375 4.4062-1.1875-1.5938c-0.502 0.51324-1.1581 0.84637-1.875 1.0312v0.0312c-0.38012 0.0893-0.78962 0.12172-1.1875 0.0937-0.1818-0.0128-0.34929-0.0286-0.53125-0.0625-1.8671-0.33781-3.2812-1.9418-3.2812-3.9062h2l-3-4-3 4h2c0 2.7624 1.8654 5.0836 4.4062 5.7812 0.0322 9e-3 0.0613 0.0229 0.0937 0.0312 0.25518 0.0655 0.51414 0.0934 0.78125 0.125 0.23328 0.0276 0.47806 0.0625 0.71875 0.0625 0.6163-6.4e-4 1.2289-0.0951 1.8125-0.28125v-0.0312c0.84159-0.26706 1.6136-0.69432 2.25-1.2812z" fill="#72d78f"/>
   <rect transform="scale(-1)" x="-761" y="214.97" width="16" height="16" fill="none"/>
  </g>
 </g>
 <g id="kpackagekit-important" transform="translate(-56.612 .29785)">
  <rect x="82.3" width="22" height="22" opacity="0"/>
  <g transform="translate(-659.7 233.97)">
   <path d="m761-223h-2c0-2.7624-1.8654-5.0836-4.4062-5.7812-0.0316-9e-3 -0.0621-0.023-0.0937-0.0312-0.25518-0.0655-0.51414-0.0934-0.78125-0.125-0.23328-0.0276-0.47806-0.0625-0.71875-0.0625-0.6163 6.4e-4 -1.2289 0.0951-1.8125 0.28125v0.0312c-0.84159 0.26706-1.6136 0.69432-2.25 1.2812l1.1875 1.5938c0.502-0.51324 1.1581-0.84637 1.875-1.0312v-0.0312c0.38012-0.0893 0.78962-0.12172 1.1875-0.0937 0.1818 0.0128 0.34929 0.0286 0.53125 0.0625 1.8671 0.33781 3.2812 1.9418 3.2812 3.9062h-2l3 4 3-4zm-3.9375 4.4062-1.1875-1.5938c-0.502 0.51324-1.1581 0.84637-1.875 1.0312v0.0312c-0.38012 0.0893-0.78962 0.12172-1.1875 0.0937-0.1818-0.0128-0.34929-0.0286-0.53125-0.0625-1.8671-0.33781-3.2812-1.9418-3.2812-3.9062h2l-3-4-3 4h2c0 2.7624 1.8654 5.0836 4.4062 5.7812 0.0322 9e-3 0.0613 0.0229 0.0937 0.0312 0.25518 0.0655 0.51414 0.0934 0.78125 0.125 0.23328 0.0276 0.47806 0.0625 0.71875 0.0625 0.6163-6.4e-4 1.2289-0.0951 1.8125-0.28125v-0.0312c0.84159-0.26706 1.6136-0.69432 2.25-1.2812z" fill="#5294e2"/>
   <rect transform="scale(-1)" x="-761" y="214.97" width="16" height="16" fill="none"/>
  </g>
 </g>
 <use id="use880" transform="translate(-30.088 39.214)" width="100%" height="100%" xlink:href="#g878"/>
 <use transform="translate(-24.481 .18978)" width="100%" height="100%" xlink:href="#use880"/>
 <use transform="translate(-30.657 39.973)" width="100%" height="100%" xlink:href="#use884"/>
 <use id="software-updates-release" transform="translate(-53.746 -.066477)" width="100%" height="100%" xlink:href="#software-updates-updates"/>
 <g id="kpackagekit-updates" transform="translate(-111.09 .56624)">
  <rect x="82.3" width="22" height="22" opacity="0"/>
  <g transform="translate(-659.7 233.97)">
   <path d="m761-223h-2c0-2.7624-1.8654-5.0836-4.4062-5.7812-0.0316-9e-3 -0.0621-0.023-0.0937-0.0312-0.25518-0.0655-0.51414-0.0934-0.78125-0.125-0.23328-0.0276-0.47806-0.0625-0.71875-0.0625-0.6163 6.4e-4 -1.2289 0.0951-1.8125 0.28125v0.0312c-0.84159 0.26706-1.6136 0.69432-2.25 1.2812l1.1875 1.5938c0.502-0.51324 1.1581-0.84637 1.875-1.0312v-0.0312c0.38012-0.0893 0.78962-0.12172 1.1875-0.0937 0.1818 0.0128 0.34929 0.0286 0.53125 0.0625 1.8671 0.33781 3.2812 1.9418 3.2812 3.9062h-2l3 4 3-4zm-3.9375 4.4062-1.1875-1.5938c-0.502 0.51324-1.1581 0.84637-1.875 1.0312v0.0312c-0.38012 0.0893-0.78962 0.12172-1.1875 0.0937-0.1818-0.0128-0.34929-0.0286-0.53125-0.0625-1.8671-0.33781-3.2812-1.9418-3.2812-3.9062h2l-3-4-3 4h2c0 2.7624 1.8654 5.0836 4.4062 5.7812 0.0322 9e-3 0.0613 0.0229 0.0937 0.0312 0.25518 0.0655 0.51414 0.0934 0.78125 0.125 0.23328 0.0276 0.47806 0.0625 0.71875 0.0625 0.6163-6.4e-4 1.2289-0.0951 1.8125-0.28125v-0.0312c0.84159-0.26706 1.6136-0.69432 2.25-1.2812z" fill="#5294e2"/>
   <rect transform="scale(-1)" x="-761" y="214.97" width="16" height="16" fill="none"/>
  </g>
 </g>
</svg>
