<?xml version="1.0" encoding="UTF-8" standalone="no"?>
<svg
   id="svg7384"
   width="22"
   height="22"
   version="1.1"
   style="enable-background:new"
   sodipodi:docname="list.svg"
   inkscape:version="1.2.2 (b0a8486541, 2022-12-01)"
   xmlns:inkscape="http://www.inkscape.org/namespaces/inkscape"
   xmlns:sodipodi="http://sodipodi.sourceforge.net/DTD/sodipodi-0.dtd"
   xmlns="http://www.w3.org/2000/svg"
   xmlns:svg="http://www.w3.org/2000/svg"
   xmlns:rdf="http://www.w3.org/1999/02/22-rdf-syntax-ns#"
   xmlns:cc="http://creativecommons.org/ns#"
   xmlns:dc="http://purl.org/dc/elements/1.1/">
  <metadata
     id="metadata27">
    <rdf:RDF>
      <cc:Work
         rdf:about="">
        <dc:format>image/svg+xml</dc:format>
        <dc:type
           rdf:resource="http://purl.org/dc/dcmitype/StillImage" />
      </cc:Work>
    </rdf:RDF>
  </metadata>
  <sodipodi:namedview
     pagecolor="#c2c2c2"
     bordercolor="#666666"
     borderopacity="1"
     objecttolerance="10"
     gridtolerance="10"
     guidetolerance="10"
     inkscape:pageopacity="0"
     inkscape:pageshadow="2"
     inkscape:window-width="1920"
     inkscape:window-height="1012"
     id="namedview25"
     showgrid="true"
     inkscape:zoom="7.4519913"
     inkscape:cx="24.087521"
     inkscape:cy="21.336579"
     inkscape:window-x="0"
     inkscape:window-y="32"
     inkscape:window-maximized="1"
     inkscape:current-layer="svg7384"
     inkscape:pagecheckerboard="0"
     inkscape:showpageshadow="2"
     inkscape:deskcolor="#c2c2c2">
    <inkscape:grid
       type="xygrid"
       id="grid1658" />
  </sodipodi:namedview>
  <defs
     id="defs7386">
    <style
       id="current-color-scheme"
       type="text/css">
   .ColorScheme-Text { color:#333333; } .ColorScheme-Highlight { color:#5294e2; } .ColorScheme-ButtonBackground { color:#333333; }
  </style>
  </defs>
  <g
     id="22-22-list-add">
    <path
       id="rect2991"
       d="m 10,3 v 7 H 3 v 2.1 h 7 V 19 h 2 v -6.9 h 7 V 10 H 12 V 3 Z"
       class="ColorScheme-Text"
       fill="currentColor" />
    <path
       id="rect3763"
       d="M 0,0 H 22 V 22 H 0 Z"
       fill="none" />
  </g>
  <g
     id="22-22-list-remove"
     transform="translate(22)">
    <path
       id="rect3783"
       d="M 0,0 H 22 V 22 H 0 Z"
       fill="none" />
    <path
       id="rect887"
       d="m 3,10 h 16 v 2 H 3 Z"
       class="ColorScheme-Text"
       fill="currentColor" />
  </g>
  <g
     id="16-16-list-add"
     transform="matrix(0.72727273,0,0,0.72727273,-16,6)">
    <path
       id="rect2991-3"
       d="M 9.625,2.75 V 9.625 H 2.75 v 2.75 h 6.875 v 6.875 h 2.75 V 12.375 H 19.25 V 9.625 H 12.375 V 2.75 Z"
       class="ColorScheme-Text"
       fill="currentColor" />
    <path
       id="rect3763-5"
       d="M 0,0 H 22 V 22 H 0 Z"
       fill="none" />
  </g>
  <g
     id="16-16-list-remove"
     transform="matrix(0.72727273,0,0,0.72727273,44,6)">
    <path
       id="rect3783-9"
       d="M 0,0 H 22 V 22 H 0 Z"
       fill="none" />
    <path
       id="rect889"
       d="m 2.75,9.625 h 16.5 v 2.75 H 2.75 Z"
       class="ColorScheme-Text"
       fill="currentColor" />
  </g>
  <g
     id="list-add">
    <path
       id="path837"
       d="M 0,-32.000001 H 32.000001 V 0 H 0 Z"
       fill="none"
       style="stroke-width:1.45455" />
    <path
       id="rect1660"
       d="m 15,-25 v 8 H 7.0000005 v 2 H 15 v 7.9999995 h 2 V -15 h 8 v -2 h -8 v -8 z"
       class="ColorScheme-Text"
       fill="currentColor" />
  </g>
  <g
     id="list-remove"
     transform="translate(-8.0000005)">
    <path
       id="path1198"
       d="M 40,-32.000001 H 72.000001 V 0 H 40 Z"
       fill="none"
       style="stroke-width:1.45455" />
    <rect
       id="rect1671"
       width="18"
       height="2"
       x="47"
       y="-17"
       class="ColorScheme-Text"
       fill="currentColor" />
  </g>
</svg>
