<?xml version="1.0" encoding="UTF-8" standalone="no"?>
<svg
   id="svg"
   width="22"
   height="22"
   version="1.1"
   sodipodi:docname="manjaro.svg"
   inkscape:version="1.2.2 (b0a8486541, 2022-12-01)"
   xmlns:inkscape="http://www.inkscape.org/namespaces/inkscape"
   xmlns:sodipodi="http://sodipodi.sourceforge.net/DTD/sodipodi-0.dtd"
   xmlns="http://www.w3.org/2000/svg"
   xmlns:svg="http://www.w3.org/2000/svg">
  <sodipodi:namedview
     id="namedview1037"
     pagecolor="#ffffff"
     bordercolor="#666666"
     borderopacity="1.0"
     inkscape:showpageshadow="2"
     inkscape:pageopacity="0.0"
     inkscape:pagecheckerboard="0"
     inkscape:deskcolor="#d1d1d1"
     showgrid="true"
     inkscape:zoom="1.8963318"
     inkscape:cx="-116.01345"
     inkscape:cy="23.730024"
     inkscape:window-width="1920"
     inkscape:window-height="1012"
     inkscape:window-x="0"
     inkscape:window-y="32"
     inkscape:window-maximized="1"
     inkscape:current-layer="svg">
    <inkscape:grid
       type="xygrid"
       id="grid1156" />
  </sodipodi:namedview>
  <defs
     id="defs1019">
    <style
       id="current-color-scheme"
       type="text/css">.ColorScheme-Text { color:#333333; } .ColorScheme-Highlight{ color:#5294e2; }</style>
  </defs>
  <g
     id="22-22-manjaro-settings-manager">
    <rect
       width="22"
       height="22"
       fill-opacity="0"
       id="rect1021" />
    <path
       id="path1023"
       class="ColorScheme-Text"
       d="M 5 3 C 3.8920011 3 3 3.8920011 3 5 L 3 17 C 3 18.107999 3.8920011 19 5 19 L 7.0332031 19 L 7 7 L 13 7 L 13 3 L 5 3 z M 15 3 L 15 19 L 17 19 C 18.107999 19 19 18.107999 19 17 L 19 5 C 19 3.8920011 18.107999 3 17 3 L 15 3 z M 9 9 L 9 19 L 13 19 L 13 9 L 9 9 z "
       fill="currentColor" />
  </g>
  <g
     id="manjaro-settings-manager"
     transform="translate(-4,-39)">
    <path
       id="path1026"
       class="ColorScheme-Text"
       d="M 7 4 C 5.3380017 4 4 5.3380017 4 7 L 4 25 C 4 26.661998 5.3380017 28 7 28 L 11 28 L 11 11 L 19 11 L 19 4 L 7 4 z M 21 4 L 21 28 L 25 28 C 26.661998 28 28 26.661998 28 25 L 28 7 C 28 5.3380017 26.661998 4 25 4 L 21 4 z M 13 13 L 13 28 L 19 28 L 19 13 L 13 13 z "
       fill="currentColor" />
    <rect
       y="4.4409e-16"
       width="32"
       height="32"
       ry=".64"
       fill-opacity="0"
       id="rect1028" />
  </g>
  <g
     id="16-16-manjaro-settings-manager"
     transform="translate(-299 -510.36)">
    <rect
       x="303"
       y="537.36"
       width="16"
       height="16"
       fill="none"
       id="rect1031" />
    <path
       id="path1033"
       class="ColorScheme-Text"
       d="M 307 539.36 C 305.892 539.36 305 540.252 305 541.36 L 305 549.36 C 305 550.468 305.892 551.36 307 551.36 L 308.02539 551.36 L 308 542.36 L 313 542.36 L 313 539.36 L 307 539.36 z M 314 539.36 L 314 551.36 L 315 551.36 C 316.108 551.36 317 550.468 317 549.36 L 317 541.36 C 317 540.252 316.108 539.36 315 539.36 L 314 539.36 z M 309 543.36 L 309 551.36 L 313 551.36 L 313 543.36 L 309 543.36 z "
       fill="currentColor" />
  </g>
</svg>
