<?xml version="1.0" encoding="UTF-8" standalone="no"?>
<svg
   id="svg"
   version="1.1"
   viewBox="0 0 22 22"
   sodipodi:docname="notification.svg"
   inkscape:version="1.3 (0e150ed6c4, 2023-07-21)"
   xmlns:inkscape="http://www.inkscape.org/namespaces/inkscape"
   xmlns:sodipodi="http://sodipodi.sourceforge.net/DTD/sodipodi-0.dtd"
   xmlns:xlink="http://www.w3.org/1999/xlink"
   xmlns="http://www.w3.org/2000/svg"
   xmlns:svg="http://www.w3.org/2000/svg">
  <sodipodi:namedview
     id="namedview18"
     pagecolor="#ffffff"
     bordercolor="#666666"
     borderopacity="1.0"
     inkscape:showpageshadow="2"
     inkscape:pageopacity="0.0"
     inkscape:pagecheckerboard="0"
     inkscape:deskcolor="#d1d1d1"
     inkscape:zoom="38.568182"
     inkscape:cx="-15.790218"
     inkscape:cy="22.570418"
     inkscape:current-layer="svg" />
  <defs
     id="defs1">
    <style
       id="current-color-scheme"
       type="text/css">.ColorScheme-Text { color:#333333; } .ColorScheme-Highlight { color:#5294e2; } .ColorScheme-ButtonBackground { color:#333333; }</style>
  </defs>
  <path
     id="expander-bottom"
     class="ColorScheme-Text"
     d="m -18,23 2,-2 2,2 z"
     fill="currentColor" />
  <path
     id="expander-top"
     class="ColorScheme-Text"
     d="m -18,17 2,2 2,-2 z"
     fill="currentColor" />
  <path
     id="expander-right"
     class="ColorScheme-Text"
     d="m -13,18 -2,2 2,2 z"
     fill="currentColor" />
  <path
     id="expander-left"
     class="ColorScheme-Text"
     d="m -19,18 2,2 -2,2 z"
     fill="currentColor" />
  <g
     id="22-22-notification-inactive">
    <rect
       class="ColorScheme-Text"
       width="22"
       height="22"
       fill-opacity="0"
       id="rect18"
       x="0"
       y="0"
       style="color:#565656" />
    <path
       class="ColorScheme-Text"
       d="m 11,3 c -4.418278,0 -8,3.581722 -8,8 0,4.418278 3.581722,8 8,8 4.418278,0 8,-3.581722 8,-8 0,-4.418278 -3.581722,-8 -8,-8 z m 0,2 c 3.313708,0 6,2.6862915 6,6 0,3.313708 -2.686292,6 -6,6 C 7.6862915,17 5,14.313708 5,11 5,7.6862915 7.6862915,5 11,5 Z"
       fill="currentColor"
       id="path20" />
    <path
       id="rect1201"
       d="m 11,6 c -0.554,0 -1,0.446 -1,1 v 4 c 0,0.554 0.446,1 1,1 0.554,0 1,-0.446 1,-1 V 7 C 12,6.446 11.554,6 11,6 Z m 0,7 c -0.552285,0 -1,0.447715 -1,1 0,0.552285 0.447715,1 1,1 0.552285,0 1,-0.447715 1,-1 0,-0.552285 -0.447715,-1 -1,-1 z"
       class="ColorScheme-Text"
       fill="currentColor" />
  </g>
  <g
     id="22-22-notification-empty">
    <rect
       x="40"
       y="-40"
       width="22"
       height="22"
       opacity="0"
       id="rect28" />
    <path
       class="ColorScheme-Text"
       d="m 51,-37 a 8,8 0 0 0 -8,8 8,8 0 0 0 8,8 8,8 0 0 0 8,-8 8,8 0 0 0 -8,-8 z m 0,2 a 6,6 0 0 1 6,6 6,6 0 0 1 -6,6 6,6 0 0 1 -6,-6 6,6 0 0 1 6,-6 z"
       fill="currentColor"
       id="path30" />
  </g>
  <g
     id="22-22-notification-progress-active">
    <rect
       x="40"
       width="22"
       height="22"
       opacity="0"
       id="rect33"
       y="0" />
    <path
       class="ColorScheme-Highlight"
       d="m 51,3 c -4.4183,0 -8,3.5817 -8,8 0,4.4183 3.5817,8 8,8 4.4183,0 8,-3.5817 8,-8 0,-4.4183 -3.5817,-8 -8,-8 z"
       fill="currentColor"
       id="path35" />
  </g>
  <g
     id="22-22-notification-progress-inactive">
    <rect
       x="40"
       y="40"
       width="22"
       height="22"
       opacity="0"
       id="rect38" />
    <path
       class="ColorScheme-Text"
       d="m 51,45 c -3.3137,0 -6,2.6863 -6,6 0,3.3137 2.6863,6 6,6 3.3137,0 6,-2.6863 6,-6 0,-3.3137 -2.6863,-6 -6,-6 z"
       fill="currentColor"
       opacity="0.3"
       id="path40" />
  </g>
  <g
     id="notification-disabled"
     style="opacity:0.35">
    <rect
       id="rect868"
       width="32"
       height="32"
       x="80"
       y="-40"
       style="fill:none" />
    <g
       id="g1548"
       class="ColorScheme-Text"
       fill="currentColor">
      <path
         id="path990"
         d="m 96,-36 a 12,12 0 0 0 -12,12 12,12 0 0 0 12,12 12,12 0 0 0 12,-12 12,12 0 0 0 -12,-12 z m 0,2 a 10,10 0 0 1 10,10 10,10 0 0 1 -10,10 10,10 0 0 1 -10,-10 10,10 0 0 1 10,-10 z" />
      <path
         id="rect1217"
         d="m 96,-30 c -0.554,0 -1,0.446 -1,1 v 6 c 0,0.554 0.446,1 1,1 0.554,0 1,-0.446 1,-1 v -6 c 0,-0.554 -0.446,-1 -1,-1 z m 0,10 a 1,1 0 0 0 -1,1 1,1 0 0 0 1,1 1,1 0 0 0 1,-1 1,1 0 0 0 -1,-1 z" />
    </g>
  </g>
  <g
     id="notification-empty"
     transform="translate(49)">
    <rect
       id="rect1574"
       width="32"
       height="32"
       x="80"
       y="-40"
       style="fill:none" />
    <g
       id="g1580"
       class="ColorScheme-Text"
       fill="currentColor"
       style="color:#565656">
      <path
         id="path1576"
         d="m 96,-36 a 12,12 0 0 0 -12,12 12,12 0 0 0 12,12 12,12 0 0 0 12,-12 12,12 0 0 0 -12,-12 z m 0,2 a 10,10 0 0 1 10,10 10,10 0 0 1 -10,10 10,10 0 0 1 -10,-10 10,10 0 0 1 10,-10 z" />
    </g>
  </g>
  <g
     id="notification-inactive"
     transform="translate(0,36)">
    <rect
       id="rect1664"
       width="32"
       height="32"
       x="80"
       y="-40"
       style="fill:none" />
    <g
       id="g1670"
       class="ColorScheme-Text"
       fill="currentColor">
      <path
         id="path1666"
         d="m 96,-36 a 12,12 0 0 0 -12,12 12,12 0 0 0 12,12 12,12 0 0 0 12,-12 12,12 0 0 0 -12,-12 z m 0,2 a 10,10 0 0 1 10,10 10,10 0 0 1 -10,10 10,10 0 0 1 -10,-10 10,10 0 0 1 10,-10 z" />
      <path
         id="path1668"
         d="m 96,-30 c -0.554,0 -1,0.446 -1,1 v 6 c 0,0.554 0.446,1 1,1 0.554,0 1,-0.446 1,-1 v -6 c 0,-0.554 -0.446,-1 -1,-1 z m 0,10 a 1,1 0 0 0 -1,1 1,1 0 0 0 1,1 1,1 0 0 0 1,-1 1,1 0 0 0 -1,-1 z" />
    </g>
  </g>
  <g
     id="notification-progress-active">
    <rect
       id="rect1692"
       width="32"
       height="32"
       x="129"
       y="-4"
       style="fill:none" />
    <path
       id="path1694"
       d="M 145,0 A 12,12 0 0 0 133,12 12,12 0 0 0 145,24 12,12 0 0 0 157,12 12,12 0 0 0 145,0 Z m 0,2 A 10,10 0 0 1 155,12 10,10 0 0 1 145,22 10,10 0 0 1 135,12 10,10 0 0 1 145,2 Z"
       class="ColorScheme-Text"
       fill="currentColor"
       style="color:#565656" />
    <path
       id="path1810"
       d="m 145,4 a 8,8 0 0 0 -8,8 8,8 0 0 0 8,8 8,8 0 0 0 8,-8 8,8 0 0 0 -8,-8 z m 0,2 a 6,6 0 0 1 6,6 6,6 0 0 1 -6,6 6,6 0 0 1 -6,-6 6,6 0 0 1 6,-6 z"
       class="ColorScheme-Highlight"
       fill="currentColor"
       style="color:#5294e2" />
  </g>
  <g
     id="notification-active">
    <rect
       id="rect5273"
       width="32"
       height="32"
       x="80"
       y="34"
       style="fill:none" />
    <g
       id="g5434"
       class="ColorScheme-Text"
       fill="currentColor">
      <path
         id="path5275"
         d="M 96,38 A 12,12 0 0 0 84,50 12,12 0 0 0 96,62 12,12 0 0 0 108,50 12,12 0 0 0 106.82227,44.820312 4,4 0 0 1 105.0957,45.845703 10,10 0 0 1 106,50 10,10 0 0 1 96,60 10,10 0 0 1 86,50 10,10 0 0 1 96,40 a 10,10 0 0 1 4.1543,0.904297 4,4 0 0 1 1.02539,-1.726563 A 12,12 0 0 0 96,38 Z" />
      <path
         id="path5277"
         d="m 96,44 c -0.554,0 -1,0.446 -1,1 v 6 c 0,0.554 0.446,1 1,1 0.554,0 1,-0.446 1,-1 v -6 c 0,-0.554 -0.446,-1 -1,-1 z m 0,10 a 1,1 0 0 0 -1,1 1,1 0 0 0 1,1 1,1 0 0 0 1,-1 1,1 0 0 0 -1,-1 z" />
    </g>
    <circle
       id="path5311"
       cx="104"
       cy="42"
       r="3"
       class="ColorScheme-Highlight"
       fill="currentColor" />
  </g>
  <g
     id="notification-progress-inactive"
     transform="translate(0,38)">
    <rect
       id="rect5450"
       width="32"
       height="32"
       x="129"
       y="-4"
       style="fill:none" />
    <path
       id="path5452"
       d="M 145,0 A 12,12 0 0 0 133,12 12,12 0 0 0 145,24 12,12 0 0 0 157,12 12,12 0 0 0 145,0 Z m 0,2 A 10,10 0 0 1 155,12 10,10 0 0 1 145,22 10,10 0 0 1 135,12 10,10 0 0 1 145,2 Z"
       class="ColorScheme-Text"
       fill="currentColor"
       style="color:#565656" />
    <path
       id="path5454"
       d="m 145,4 a 8,8 0 0 0 -8,8 8,8 0 0 0 8,8 8,8 0 0 0 8,-8 8,8 0 0 0 -8,-8 z m 0,2 a 6,6 0 0 1 6,6 6,6 0 0 1 -6,6 6,6 0 0 1 -6,-6 6,6 0 0 1 6,-6 z"
       class="ColorScheme-Text"
       fill="currentColor"
       style="color:#565656;opacity:0.45" />
  </g>
  <g
     id="22-22-notification-active"
     transform="translate(0,-40)">
    <rect
       class="ColorScheme-Text"
       width="22"
       height="22"
       fill-opacity="0"
       id="rect1605"
       x="0"
       y="76"
       style="color:#565656" />
    <path
       id="path1607"
       class="ColorScheme-Text"
       d="m 11,79 c -4.418278,0 -8,3.581722 -8,8 0,4.418278 3.581722,8 8,8 4.418278,0 8,-3.581722 8,-8 0,-1.119108 -0.231515,-2.183232 -0.646484,-3.150391 a 3,3 0 0 1 -1.722657,1.076172 C 16.869255,85.57248 17,86.270526 17,87 c 0,3.313708 -2.686292,6 -6,6 -3.3137085,0 -6,-2.686292 -6,-6 0,-3.313709 2.6862915,-6 6,-6 0.729473,0 1.42752,0.130745 2.074219,0.369141 a 3,3 0 0 1 1.076172,-1.722657 C 13.183232,79.231515 12.119108,79 11,79 Z"
       fill="currentColor" />
    <path
       id="path1609"
       d="m 11,82 c -0.554,0 -1,0.446 -1,1 v 4 c 0,0.554 0.446,1 1,1 0.554,0 1,-0.446 1,-1 v -4 c 0,-0.554 -0.446,-1 -1,-1 z m 0,7 c -0.552285,0 -1,0.447715 -1,1 0,0.552285 0.447715,1 1,1 0.552285,0 1,-0.447715 1,-1 0,-0.552285 -0.447715,-1 -1,-1 z"
       class="ColorScheme-Text"
       fill="currentColor" />
    <circle
       id="path1638"
       cx="16"
       cy="82"
       r="2"
       class="ColorScheme-Highlight"
       fill="currentColor" />
  </g>
  <g
     id="22-22-notification-disabled"
     transform="translate(0,-39)"
     style="opacity:0.35">
    <rect
       class="ColorScheme-Text"
       width="22"
       height="22"
       fill-opacity="0"
       id="rect11448"
       x="0"
       y="0"
       style="color:#565656" />
    <path
       class="ColorScheme-Text"
       d="m 11,3 c -4.418278,0 -8,3.581722 -8,8 0,4.418278 3.581722,8 8,8 4.418278,0 8,-3.581722 8,-8 0,-4.418278 -3.581722,-8 -8,-8 z m 0,2 c 3.313708,0 6,2.6862915 6,6 0,3.313708 -2.686292,6 -6,6 C 7.6862915,17 5,14.313708 5,11 5,7.6862915 7.6862915,5 11,5 Z"
       fill="currentColor"
       id="path11450" />
    <path
       id="path11452"
       d="m 11,6 c -0.554,0 -1,0.446 -1,1 v 4 c 0,0.554 0.446,1 1,1 0.554,0 1,-0.446 1,-1 V 7 C 12,6.446 11.554,6 11,6 Z m 0,7 c -0.552285,0 -1,0.447715 -1,1 0,0.552285 0.447715,1 1,1 0.552285,0 1,-0.447715 1,-1 0,-0.552285 -0.447715,-1 -1,-1 z"
       class="ColorScheme-Text"
       fill="currentColor" />
  </g>
  <g
     id="16-16-notification-inactive">
    <rect
       class="ColorScheme-Text"
       width="16"
       height="16"
       fill-opacity="0"
       id="rect11536"
       x="-52"
       y="0"
       style="color:#565656;stroke-width:0.727273" />
    <path
       id="path11540"
       d="m -44,4 c -0.554,0 -1,0.4459998 -1,0.9999996 V 8.0000005 C -45,8.5540003 -44.554,9 -44,9 c 0.554,0 1,-0.4459997 1,-0.9999995 V 4.9999996 C -43,4.4459998 -43.446,4 -44,4 Z m 0,5.9999994 c -0.552285,0 -1,0.4477146 -1,0.9999986 0,0.552285 0.447715,1 1,1 0.552285,0 1,-0.447715 1,-1 0,-0.552284 -0.447715,-0.9999986 -1,-0.9999986 z"
       class="ColorScheme-Text"
       fill="currentColor" />
    <path
       id="path11569"
       d="m -44,1 a 7,7 0 0 0 -7,7 7,7 0 0 0 7,7 7,7 0 0 0 7,-7 7,7 0 0 0 -7,-7 z m 0,2 a 5,5 0 0 1 5,5 5,5 0 0 1 -5,5 5,5 0 0 1 -5,-5 5,5 0 0 1 5,-5 z"
       class="ColorScheme-Text"
       fill="currentColor" />
  </g>
  <g
     id="16-16-notification-disabled"
     transform="translate(0,-33)"
     style="opacity:0.35">
    <rect
       class="ColorScheme-Text"
       width="16"
       height="16"
       fill-opacity="0"
       id="rect11838"
       x="-52"
       y="0"
       style="color:#565656;stroke-width:0.727273" />
    <path
       id="path11840"
       d="m -44,4 c -0.554,0 -1,0.4459998 -1,0.9999996 V 8.0000005 C -45,8.5540003 -44.554,9 -44,9 c 0.554,0 1,-0.4459997 1,-0.9999995 V 4.9999996 C -43,4.4459998 -43.446,4 -44,4 Z m 0,5.9999994 c -0.552285,0 -1,0.4477146 -1,0.9999986 0,0.552285 0.447715,1 1,1 0.552285,0 1,-0.447715 1,-1 0,-0.552284 -0.447715,-0.9999986 -1,-0.9999986 z"
       class="ColorScheme-Text"
       fill="currentColor" />
    <path
       id="path11842"
       d="m -44,1 a 7,7 0 0 0 -7,7 7,7 0 0 0 7,7 7,7 0 0 0 7,-7 7,7 0 0 0 -7,-7 z m 0,2 a 5,5 0 0 1 5,5 5,5 0 0 1 -5,5 5,5 0 0 1 -5,-5 5,5 0 0 1 5,-5 z"
       class="ColorScheme-Text"
       fill="currentColor" />
  </g>
  <g
     id="16-16-notification-active">
    <rect
       class="ColorScheme-Text"
       width="16"
       height="16"
       fill-opacity="0"
       id="rect11864"
       x="-52"
       y="36"
       style="color:#565656;stroke-width:0.727273" />
    <path
       id="path11866"
       d="m -44,40 c -0.554,0 -1,0.446 -1,1 v 3 c 0,0.554 0.446,1 1,1 0.554,0 1,-0.446 1,-1 v -3 c 0,-0.554 -0.446,-1 -1,-1 z m 0,5.999999 c -0.552285,0 -1,0.447715 -1,0.999999 0,0.552285 0.447715,1 1,1 0.552285,0 1,-0.447715 1,-1 0,-0.552284 -0.447715,-0.999999 -1,-0.999999 z"
       class="ColorScheme-Text"
       fill="currentColor" />
    <path
       id="path11868"
       class="ColorScheme-Text"
       d="m -44,37 a 7,7 0 0 0 -7,7 7,7 0 0 0 7,7 7,7 0 0 0 7,-7 7,7 0 0 0 -0.443359,-2.441406 A 3,3 0 0 1 -39,42 3,3 0 0 1 -39.431641,41.966797 5,5 0 0 1 -39,44 a 5,5 0 0 1 -5,5 5,5 0 0 1 -5,-5 5,5 0 0 1 5,-5 5,5 0 0 1 2.033203,0.431641 A 3,3 0 0 1 -42,39 3,3 0 0 1 -41.558594,37.443359 7,7 0 0 0 -44,37 Z"
       fill="currentColor" />
    <circle
       id="path11894"
       cx="-39"
       cy="39"
       r="2"
       class="ColorScheme-Highlight"
       fill="currentColor" />
  </g>
  <use
     x="0"
     y="0"
     xlink:href="#16-16-notification-disabled"
     id="16-16-notifications-disabled"
     transform="translate(-30)"
     width="100%"
     height="100%" />
  <use
     x="0"
     y="0"
     xlink:href="#16-16-notification-inactive"
     id="16-16-notifications"
     transform="translate(-30)"
     width="100%"
     height="100%" />
</svg>
