<?xml version="1.0" encoding="UTF-8" standalone="no"?>
<svg
   id="svg"
   version="1.1"
   viewBox="0 0 22 22"
   sodipodi:docname="preferences.svg"
   inkscape:version="1.2.2 (b0a8486541, 2022-12-01)"
   xmlns:inkscape="http://www.inkscape.org/namespaces/inkscape"
   xmlns:sodipodi="http://sodipodi.sourceforge.net/DTD/sodipodi-0.dtd"
   xmlns="http://www.w3.org/2000/svg"
   xmlns:svg="http://www.w3.org/2000/svg">
  <sodipodi:namedview
     id="namedview71"
     pagecolor="#ffffff"
     bordercolor="#666666"
     borderopacity="1.0"
     inkscape:showpageshadow="2"
     inkscape:pageopacity="0.0"
     inkscape:pagecheckerboard="0"
     inkscape:deskcolor="#d1d1d1"
     showgrid="false"
     inkscape:zoom="7.5853271"
     inkscape:cx="78.309082"
     inkscape:cy="26.564445"
     inkscape:window-width="3840"
     inkscape:window-height="2028"
     inkscape:window-x="0"
     inkscape:window-y="64"
     inkscape:window-maximized="1"
     inkscape:current-layer="svg" />
  <defs
     id="defs5">
    <style
       id="current-color-scheme"
       type="text/css">.ColorScheme-Text { color:#333333; } .ColorScheme-Highlight { color:#5294e2; } .ColorScheme-ButtonBackground { color:#333333; }</style>
  </defs>
  <g
     id="22-22-preferences-desktop-notification"
     transform="translate(25 -39.788)">
    <rect
       id="rect7"
       y="40"
       width="22"
       height="22"
       opacity="0" />
    <path
       id="path9"
       class="ColorScheme-Highlight"
       d="m11 41.788c-4.9706 0-9 4.0294-9 9s4.0294 9 9 9 9-4.0294 9-9-4.0294-9-9-9z"
       fill="currentColor" />
    <path
       id="path11"
       d="m10 46.788v6h2v-6zm1 7c-0.45315 0-1 0.51843-1 0.98047s0.54685 1.0195 1 1.0195 1-0.55749 1-1.0195c0-0.46204-0.54685-0.98047-1-0.98047z"
       style="fill:#ffffff" />
  </g>
  <g
     id="preferences-system-bluetooth"
     transform="translate(-57,27)">
    <rect
       id="rect25"
       x="56"
       width="22"
       height="22"
       opacity="0" />
    <path
       id="path27"
       class="ColorScheme-Text"
       d="m66.5 3c-3.047 0-5.5 2.676-5.5 6v4c0 3.324 2.453 6 5.5 6s5.5-2.676 5.5-6v-4c0-3.324-2.453-6-5.5-6zm-0.5 2h0.5c0.20775 0 0.39305 0.13292 0.46875 0.3125l2.875 2.8438 0.40625 0.375-0.4375 0.34375-2.5625 2.125 2.5625 2.125 0.4375 0.34375-0.40625 0.375-2.875 2.8438c-0.0252 0.0599-0.0798 0.11106-0.125 0.15625-0.0904 0.0904-0.20525 0.15625-0.34375 0.15625h-0.5v-4.9375l-2.1562 1.7812c-0.0905 0.0905-0.20568 0.15625-0.34375 0.15625h-0.5v-0.5c0-0.15322 0.079-0.28328 0.1875-0.375l2.5625-2.125-2.4375-2.0312c-0.0467-0.0197-0.0868-0.0615-0.125-0.0937-0.10854-0.0917-0.1875-0.22178-0.1875-0.375v-0.5h0.5c0.12292 0 0.22543 0.0514 0.3125 0.125 0.0107 9e-3 0.0213 0.0213 0.0312 0.0312l2.1562 1.7812v-4.9375zm1 1.6875v3.25l1.7812-1.4688zm0 5.375v3.25l1.7812-1.7812z"
       fill="currentColor" />
  </g>
  <g
     id="preferences-system-bluetooth-inactive"
     transform="translate(-57,77)"
     opacity=".35">
    <rect
       id="rect30"
       x="56"
       width="22"
       height="22"
       opacity="0" />
    <path
       id="path32"
       class="ColorScheme-Text"
       d="m66.5 3c-3.047 0-5.5 2.676-5.5 6v4c0 3.324 2.453 6 5.5 6s5.5-2.676 5.5-6v-4c0-3.324-2.453-6-5.5-6zm-0.5 2h0.5c0.20775 0 0.39305 0.13292 0.46875 0.3125l2.875 2.8438 0.40625 0.375-0.4375 0.34375-2.5625 2.125 2.5625 2.125 0.4375 0.34375-0.40625 0.375-2.875 2.8438c-0.0252 0.0599-0.0798 0.11106-0.125 0.15625-0.0904 0.0904-0.20525 0.15625-0.34375 0.15625h-0.5v-4.9375l-2.1562 1.7812c-0.0905 0.0905-0.20568 0.15625-0.34375 0.15625h-0.5v-0.5c0-0.15322 0.079-0.28328 0.1875-0.375l2.5625-2.125-2.4375-2.0312c-0.0467-0.0197-0.0868-0.0615-0.125-0.0937-0.10854-0.0917-0.1875-0.22178-0.1875-0.375v-0.5h0.5c0.12292 0 0.22543 0.0514 0.3125 0.125 0.0107 9e-3 0.0213 0.0213 0.0312 0.0312l2.1562 1.7812v-4.9375zm1 1.6875v3.25l1.7812-1.4688zm0 5.375v3.25l1.7812-1.7812z"
       fill="currentColor" />
  </g>
  <g
     id="preferences-system-bluetooth-activated"
     transform="translate(6 -12.062)">
    <rect
       id="rect35"
       x="-6"
       y="65"
       width="22"
       height="22"
       opacity="0" />
    <path
       id="path37"
       d="m4.5 68c-3.047 0-5.5 2.676-5.5 6v4c0 3.324 2.453 6 5.5 6s5.5-2.676 5.5-6v-4c0-1.1431-0.29618-2.2059-0.80078-3.1133a3 3 0 0 1-2.1133-2.1836c-0.77051-0.44702-1.6491-0.70312-2.5859-0.70312zm-0.5 2h0.5c0.20775 0 0.39305 0.13292 0.46875 0.3125l2.875 2.8438 0.40625 0.375-0.4375 0.34375-2.5625 2.125 2.5625 2.125 0.4375 0.34375-0.40625 0.375-2.875 2.8438c-0.0252 0.0599-0.0798 0.11106-0.125 0.15625-0.0904 0.0904-0.20525 0.15625-0.34375 0.15625h-0.5v-4.9375l-2.1562 1.7812c-0.0905 0.0905-0.20568 0.15625-0.34375 0.15625h-0.5v-0.5c0-0.15322 0.079-0.28328 0.1875-0.375l2.5625-2.125-2.4375-2.0312c-0.0467-0.0197-0.0868-0.06155-0.125-0.09375-0.10854-0.0917-0.1875-0.22178-0.1875-0.375v-0.5h0.5c0.12292 0 0.22543 0.0514 0.3125 0.125 0.0107 9e-3 0.02135 0.02135 0.03125 0.03125l2.1562 1.7812v-4.4375zm1 1.6875v3.25l1.7812-1.4688zm0 5.375v3.25l1.7812-1.7812z"
       fill="currentColor"
       class="ColorScheme-Text" />
    <circle
       id="circle39"
       cx="10"
       cy="68"
       r="2"
       fill="#5294e2" />
  </g>
  <g
     id="16-16-preferences-system-bluetooth"
     transform="translate(-.50847 -6.6741)">
    <path
       id="path42"
       class="ColorScheme-Text"
       d="m39.008 35.674c-3.047 0-5.5 2.676-5.5 6v4c0 3.324 2.453 6 5.5 6s5.5-2.676 5.5-6v-4c0-3.324-2.453-6-5.5-6zm-0.5 2h0.5c0.20775 0 0.39305 0.13292 0.46875 0.3125l2.875 2.8438 0.40625 0.375-0.4375 0.34375-2.5625 2.125 2.5625 2.125 0.4375 0.34375-0.40625 0.375-2.875 2.8438c-0.0252 0.0599-0.0798 0.11106-0.125 0.15625-0.0904 0.0904-0.20525 0.15625-0.34375 0.15625h-0.5v-4.9375l-2.1562 1.7812c-0.0905 0.0905-0.20568 0.15625-0.34375 0.15625h-0.5v-0.5c0-0.15322 0.079-0.28328 0.1875-0.375l2.5625-2.125-2.4375-2.0312c-0.0467-0.0197-0.0868-0.0615-0.125-0.0937-0.10854-0.0917-0.1875-0.22178-0.1875-0.375v-0.5h0.5c0.12292 0 0.22543 0.0514 0.3125 0.125 0.0107 9e-3 0.0213 0.0213 0.0312 0.0312l2.1562 1.7812v-4.9375zm1 1.6875v3.25l1.7812-1.4688zm0 5.375v3.25l1.7812-1.7812z"
       fill="currentColor" />
    <rect
       id="rect44"
       x="31.508"
       y="35.674"
       width="16"
       height="16"
       ry=".28212"
       opacity="0"
       stroke-width="1.4354"
       style="paint-order:stroke fill markers" />
  </g>
  <g
     id="16-16-preferences-system-bluetooth-activated">
    <path
       id="path47"
       d="m38.5 54c-3.047 0-5.5 2.676-5.5 6v4c0 3.324 2.453 6 5.5 6s5.5-2.676 5.5-6v-4c0-0.34286-0.03187-0.67706-0.08203-1.0039a3 3 0 0 1-2.918-2.9961 3 3 0 0 1 0.25-1.1953c-0.80877-0.50899-1.7455-0.80469-2.75-0.80469zm-0.5 2h0.5c0.20775 0 0.39305 0.13292 0.46875 0.3125l2.875 2.8438 0.40625 0.375-0.4375 0.34375-2.5625 2.125 2.5625 2.125 0.4375 0.34375-0.40625 0.375-2.875 2.8438c-0.0252 0.0599-0.0798 0.11106-0.125 0.15625-0.0904 0.0904-0.20525 0.15625-0.34375 0.15625h-0.5v-4.9375l-2.1562 1.7812c-0.0905 0.0905-0.20568 0.15625-0.34375 0.15625h-0.5v-0.5c0-0.15322 0.079-0.28328 0.1875-0.375l2.5625-2.125-2.4375-2.0312c-0.0467-0.0197-0.0868-0.06155-0.125-0.09375-0.10854-0.0917-0.1875-0.22178-0.1875-0.375v-0.5h0.5c0.12292 0 0.22543 0.0514 0.3125 0.125 0.0107 9e-3 0.02135 0.02135 0.03125 0.03125l2.1562 1.7812v-4.4375zm1 1.6875v3.25l1.7812-1.4688zm0 5.375v3.25l1.7812-1.7812z"
       fill="currentColor"
       class="ColorScheme-Text" />
    <rect
       id="rect49"
       x="31"
       y="54"
       width="16"
       height="16"
       ry=".28212"
       opacity="0"
       stroke-width="1.4354"
       style="paint-order:stroke fill markers" />
    <circle
       id="circle51"
       cx="44"
       cy="56"
       r="2"
       fill="#5294e2" />
  </g>
  <g
     id="16-16-preferences-system-bluetooth-inactive"
     transform="translate(-.50847 44.326)"
     opacity=".35">
    <path
       id="path54"
       class="ColorScheme-Text"
       d="m39.008 35.674c-3.047 0-5.5 2.676-5.5 6v4c0 3.324 2.453 6 5.5 6s5.5-2.676 5.5-6v-4c0-3.324-2.453-6-5.5-6zm-0.5 2h0.5c0.20775 0 0.39305 0.13292 0.46875 0.3125l2.875 2.8438 0.40625 0.375-0.4375 0.34375-2.5625 2.125 2.5625 2.125 0.4375 0.34375-0.40625 0.375-2.875 2.8438c-0.0252 0.0599-0.0798 0.11106-0.125 0.15625-0.0904 0.0904-0.20525 0.15625-0.34375 0.15625h-0.5v-4.9375l-2.1562 1.7812c-0.0905 0.0905-0.20568 0.15625-0.34375 0.15625h-0.5v-0.5c0-0.15322 0.079-0.28328 0.1875-0.375l2.5625-2.125-2.4375-2.0312c-0.0467-0.0197-0.0868-0.0615-0.125-0.0937-0.10854-0.0917-0.1875-0.22178-0.1875-0.375v-0.5h0.5c0.12292 0 0.22543 0.0514 0.3125 0.125 0.0107 9e-3 0.0213 0.0213 0.0312 0.0312l2.1562 1.7812v-4.9375zm1 1.6875v3.25l1.7812-1.4688zm0 5.375v3.25l1.7812-1.7812z"
       fill="currentColor" />
    <rect
       id="rect56"
       x="31.508"
       y="35.674"
       width="16"
       height="16"
       ry=".28212"
       opacity="0"
       stroke-width="1.4354"
       style="paint-order:stroke fill markers" />
  </g>
  <g
     id="preferences-desktop-notification"
     transform="translate(-39.993902,-2.1190075)"
     stroke-linecap="round"
     stroke-linejoin="round">
    <path
       id="path81"
       transform="translate(0,-45)"
       d="m 116,42 c -7.732,0 -14,6.268 -14,14 0,7.732 6.268,14 14,14 7.732,0 14,-6.268 14,-14 0,-7.732 -6.268,-14 -14,-14 z"
       class="ColorScheme-Highlight"
       fill="currentColor" />
    <rect
       id="rect83"
       x="100"
       y="-5"
       width="32"
       height="32"
       fill="none"
       stroke-width="1.6" />
    <path
       id="path370"
       transform="translate(0,-45)"
       d="m 115,48 h 2 v 12 h -2 z m 0,14 h 2 v 2 h -2 z"
       style="fill:#ffffff" />
  </g>
  <g
     id="16-16-preferences-desktop-notification"
     transform="translate(107.84924,-67.703717)">
    <path
       id="path86"
       class="ColorScheme-Highlight"
       d="m -70,43 c -4.4183,0 -8,3.5817 -8,8 0,4.4183 3.5817,8 8,8 4.4183,0 8,-3.5817 8,-8 0,-4.4183 -3.5817,-8 -8,-8 z"
       color="#5294e2"
       fill="currentColor" />
    <path
       id="path88"
       d="m -71,47 v 6 h 2 v -6 z m 1,7 c -0.45315,0 -1,0.51843 -1,0.98047 0,0.46204 0.54685,1.0195 1,1.0195 0.45315,0 1,-0.55749 1,-1.0195 C -69,54.51843 -69.54685,54 -70,54 Z"
       style="fill:#ffffff" />
  </g>
  <g
     transform="translate(24)"
     fill="currentColor"
     class="ColorScheme-Text"
     id="22-22-preferences-desktop-display-randr">
    <rect
       id="rect16"
       fill-opacity="0"
       height="22"
       width="22"
       x="-24"
       y="0" />
    <path
       id="path18"
       d="m -20,9 4,4 h -4 z"
       class="ColorScheme-Text" />
    <path
       id="path20"
       d="m -6,9 -4,-4 h 4 z"
       class="ColorScheme-Text" />
    <path
       id="path22"
       fill="currentColor"
       class="ColorScheme-Text"
       d="m -20,2 c -1.662,0 -3,1.338 -3,3 v 8 c 0,1.662 1.338,3 3,3 h 14 c 1.662,0 3,-1.338 3,-3 V 5 C -3,3.338 -4.338,2 -6,2 Z m 0,2 h 14 c 0.554,0 1,0.446 1,1 v 8 c 0,0.554 -0.446,1 -1,1 h -14 c -0.554,0 -1,-0.446 -1,-1 V 5 c 0,-0.554 0.446,-1 1,-1 z" />
    <path
       id="path24"
       fill="currentColor"
       class="ColorScheme-Text"
       d="m -17,18 c -1.108,0 -2,0.892 -2,2 h 12 c 0,-1.108 -0.892,-2 -2,-2 z" />
  </g>
  <g
     fill="currentColor"
     class="ColorScheme-Text"
     id="32-32-preferences-desktop-display-randr"
     transform="translate(66,-64.110944)">
    <path
       id="path31"
       fill="currentColor"
       class="ColorScheme-Text"
       d="m -72,3 c -1.662,0 -3,1.338 -3,3 v 16 c 0,1.662 1.338,3 3,3 h 24 c 1.662,0 3,-1.338 3,-3 V 6 c 0,-1.662 -1.338,-3 -3,-3 z m 0,2 h 24 c 0.554,0 1,0.446 1,1 v 16 c 0,0.554 -0.446,1 -1,1 h -24 c -0.554,0 -1,-0.446 -1,-1 V 6 c 0,-0.554 0.446,-1 1,-1 z" />
    <rect
       id="rect33"
       fill-opacity="0"
       height="32"
       width="32"
       x="-76"
       y="0" />
    <path
       id="path35"
       fill="currentColor"
       class="ColorScheme-Text"
       d="m -66,27 c -1.108,0 -2,0.892 -2,2 h 16 c 0,-1.108 -0.892,-2 -2,-2 z" />
    <path
       id="path37-3"
       fill="currentColor"
       class="ColorScheme-Text"
       d="m -71,15 6,6 h -6 z" />
    <path
       id="path39"
       fill="currentColor"
       class="ColorScheme-Text"
       d="m -49,13 -6,-6 h 6 z" />
  </g>
  <g
     fill="currentColor"
     transform="translate(24,-26)"
     class="ColorScheme-Text"
     id="preferences-desktop-display-randr">
    <rect
       id="rect69"
       fill-opacity="0"
       height="22"
       width="22"
       x="-24"
       y="0" />
    <path
       id="path71"
       d="m -20,9 4,4 h -4 z"
       fill="currentColor"
       class="ColorScheme-Text" />
    <path
       id="path73"
       d="m -6,9 -4,-4 h 4 z"
       fill="currentColor"
       class="ColorScheme-Text" />
    <path
       id="path75"
       d="m -20,2 c -1.662,0 -3,1.338 -3,3 v 8 c 0,1.662 1.338,3 3,3 h 14 c 1.662,0 3,-1.338 3,-3 V 5 C -3,3.338 -4.338,2 -6,2 Z m 0,2 h 14 c 0.554,0 1,0.446 1,1 v 8 c 0,0.554 -0.446,1 -1,1 h -14 c -0.554,0 -1,-0.446 -1,-1 V 5 c 0,-0.554 0.446,-1 1,-1 z" />
    <path
       id="path77"
       d="m -17,18 c -1.108,0 -2,0.892 -2,2 h 12 c 0,-1.108 -0.892,-2 -2,-2 z" />
  </g>
</svg>
