<?xml version="1.0" encoding="UTF-8" standalone="no"?>
<svg
   width="22"
   height="22"
   version="1.1"
   id="svg21"
   sodipodi:docname="redshift.svg"
   inkscape:version="1.2.1 (9c6d41e410, 2022-07-14, custom)"
   xmlns:inkscape="http://www.inkscape.org/namespaces/inkscape"
   xmlns:sodipodi="http://sodipodi.sourceforge.net/DTD/sodipodi-0.dtd"
   xmlns:xlink="http://www.w3.org/1999/xlink"
   xmlns="http://www.w3.org/2000/svg"
   xmlns:svg="http://www.w3.org/2000/svg">
  <sodipodi:namedview
     id="namedview23"
     pagecolor="#ffffff"
     bordercolor="#000000"
     borderopacity="0.25"
     inkscape:showpageshadow="2"
     inkscape:pageopacity="0.0"
     inkscape:pagecheckerboard="0"
     inkscape:deskcolor="#d1d1d1"
     showgrid="false"
     inkscape:zoom="3.6875"
     inkscape:cx="3.7966102"
     inkscape:cy="5.4237288"
     inkscape:window-width="1368"
     inkscape:window-height="710"
     inkscape:window-x="0"
     inkscape:window-y="32"
     inkscape:window-maximized="1"
     inkscape:current-layer="svg21" />
  <defs
     id="defs3">
    <style
       id="current-color-scheme"
       type="text/css">.ColorScheme-Text { color:#333333; } .ColorScheme-Highlight { color:#4285f4; } .ColorScheme-NeutralText { color:#ff9800; } .ColorScheme-PositiveText { color:#4caf50; } .ColorScheme-NegativeText { color:#f44336; }</style>
  </defs>
  <g
     id="22-22-redshift-status-on"
     transform="translate(3,3)">
    <rect
       x="-3"
       y="-3"
       width="22"
       height="22"
       rx="0"
       ry="0"
       fill="none"
       id="rect5" />
    <path
       class="ColorScheme-Text"
       d="M 8,0 C 5.16,0 2.86,2.31 2.86,5.16 c 0,1.68 0.79,3.16 2.04,4.1 0.57,0.43 1.05,0.99 1.05,1.76 L 6,12 h 4 l 0.06,-0.98 C 10.1,10.25 10.53,9.69 11.1,9.26 12.35,8.32 13.14,6.84 13.14,5.16 13.14,2.31 10.84,0 8,0 Z m 0,2.06 c 1.7,0 3.09,1.39 3.09,3.1 0,0.97 -0.45,1.87 -1.23,2.45 C 8.7,8.49 8.26,9.47 8.1,10.29 H 7.9 C 7.74,9.47 7.3,8.49 6.14,7.61 5.36,7.03 4.91,6.13 4.91,5.16 4.91,3.45 6.3,2.06 8,2.06 Z"
       fill="currentColor"
       id="path7" />
    <path
       class="ColorScheme-Text"
       d="m 6,13 v 1 h 4 v -1 z m 1,2 v 1 h 2 v -1 z"
       fill="currentColor"
       id="path9" />
  </g>
  <g
     id="redshift-status-on">
    <rect
       x="23"
       y="-5"
       width="32"
       height="32"
       rx="0"
       ry="0"
       fill="none"
       id="rect12" />
    <path
       class="ColorScheme-Text"
       d="m 39,-1 c -3.8958,0 -7,3.3843 -7,7.4492 0,2.3928 1.0557,4.5368 2.7539,5.9043 0.33769,0.2728 0.67659,0.55117 0.89453,0.80859 0.2182,0.25773 0.29297,0.44197 0.29297,0.61328 v 0.02344 l 0.10547,2.2012 h 5.8984 l 0.12305,-2.1719 v -0.0039 c 0.01982,-0.40853 0.52573,-0.94242 1.1797,-1.4707 h -0.002 c 1.6982,-1.3675 2.754,-3.5116 2.754,-5.9043 0,-4.0649 -3.1042,-7.4492 -7,-7.4492 z m 0,2 c 2.7345,0 5,2.3891 5,5.4492 0,1.8072 -0.78773,3.3652 -2.0078,4.3477 h -0.002 c -0.67541,0.54561 -1.8401,1.4111 -1.918,2.9219 v 0.0039 l -0.01753,0.27735 h -2.1016 l -0.01172,-0.27344 v 0.04883 c 0,-0.79119 -0.37197,-1.439 -0.76758,-1.9062 -0.39561,-0.46727 -0.83679,-0.80789 -1.1641,-1.0723 h -0.002 c -1.22,-0.9825 -2.0078,-2.5404 -2.0078,-4.3477 0,-3.0601 2.2655,-5.4492 5,-5.4492 z"
       fill="currentColor"
       id="path14" />
    <path
       class="ColorScheme-Text"
       d="m 36,18 v 1 c 0,0.554 0.446,1 1,1 h 4 c 0.554,0 1,-0.446 1,-1 v -1 h -5 z m 1,4 v 1.0098 C 37,23.55784 37.446,24 38,24 h 2 c 0.554,0 1,-0.44216 1,-0.99023 v -1.0098 h -3 z"
       fill="currentColor"
       id="path16" />
  </g>
  <use
     id="22-22-redshift-status-off"
     transform="translate(-3,27)"
     width="100%"
     height="100%"
     opacity="0.35"
     xlink:href="#22-22-redshift-status-on" />
  <use
     id="redshift-status-off"
     transform="translate(33.055)"
     width="100%"
     height="100%"
     opacity="0.35"
     xlink:href="#redshift-status-on" />
</svg>
