<?xml version="1.0" encoding="UTF-8" standalone="no"?>
<svg
   width="22"
   height="22"
   version="1.1"
   id="svg21"
   sodipodi:docname="redshift.svg"
   inkscape:version="1.2.2 (b0a8486541, 2022-12-01)"
   xmlns:inkscape="http://www.inkscape.org/namespaces/inkscape"
   xmlns:sodipodi="http://sodipodi.sourceforge.net/DTD/sodipodi-0.dtd"
   xmlns:xlink="http://www.w3.org/1999/xlink"
   xmlns="http://www.w3.org/2000/svg"
   xmlns:svg="http://www.w3.org/2000/svg">
  <sodipodi:namedview
     id="namedview23"
     pagecolor="#ffffff"
     bordercolor="#000000"
     borderopacity="0.25"
     inkscape:showpageshadow="2"
     inkscape:pageopacity="0.0"
     inkscape:pagecheckerboard="0"
     inkscape:deskcolor="#d1d1d1"
     showgrid="true"
     inkscape:zoom="10.43"
     inkscape:cx="51.198466"
     inkscape:cy="11.840844"
     inkscape:window-width="3840"
     inkscape:window-height="2028"
     inkscape:window-x="0"
     inkscape:window-y="64"
     inkscape:window-maximized="1"
     inkscape:current-layer="svg21">
    <inkscape:grid
       type="xygrid"
       id="grid496" />
  </sodipodi:namedview>
  <defs
     id="defs3">
    <style
       id="current-color-scheme"
       type="text/css">.ColorScheme-Text { color:#333333; } .ColorScheme-Highlight { color:#4285f4; } .ColorScheme-NeutralText { color:#ff9800; } .ColorScheme-PositiveText { color:#4caf50; } .ColorScheme-NegativeText { color:#f44336; }</style>
  </defs>
  <g
     id="22-22-redshift-status-on"
     transform="translate(3,3)">
    <rect
       x="-3"
       y="-3"
       width="22"
       height="22"
       rx="0"
       ry="0"
       fill="none"
       id="rect5" />
    <path
       class="ColorScheme-Text"
       d="M 8,0 C 5.16,0 2.86,2.31 2.86,5.16 c 0,1.68 0.79,3.16 2.04,4.1 0.57,0.43 1.05,0.99 1.05,1.76 L 6,12 h 4 l 0.06,-0.98 C 10.1,10.25 10.53,9.69 11.1,9.26 12.35,8.32 13.14,6.84 13.14,5.16 13.14,2.31 10.84,0 8,0 Z m 0,2.06 c 1.7,0 3.09,1.39 3.09,3.1 0,0.97 -0.45,1.87 -1.23,2.45 C 8.7,8.49 8.26,9.47 8.1,10.29 H 7.9 C 7.74,9.47 7.3,8.49 6.14,7.61 5.36,7.03 4.91,6.13 4.91,5.16 4.91,3.45 6.3,2.06 8,2.06 Z"
       fill="currentColor"
       id="path7" />
    <path
       class="ColorScheme-Text"
       d="m 6,13 v 1 h 4 v -1 z m 1,2 v 1 h 2 v -1 z"
       fill="currentColor"
       id="path9" />
  </g>
  <g
     id="redshift-status-on">
    <rect
       x="23"
       y="-5"
       width="32"
       height="32"
       rx="0"
       ry="0"
       fill="none"
       id="rect12" />
    <path
       id="path14"
       class="ColorScheme-Text"
       d="M 39 -1 C 34.547681 -1 31 2.3843308 31 6.4492188 C 31 8.8420116 32.205695 10.986019 34.146484 12.353516 C 34.532414 12.626313 34.920848 12.904692 35.169922 13.162109 C 35.419293 13.419839 35.503906 13.604081 35.503906 13.775391 L 35.503906 13.798828 L 36 16 L 38 16 L 38 8.4140625 L 35.292969 5.7070312 L 36.707031 4.2929688 L 39 6.5859375 L 41.292969 4.2929688 L 42.707031 5.7070312 L 40 8.4140625 L 40 16 L 42 16 L 42.505859 13.828125 L 42.505859 13.824219 C 42.528499 13.41593 43.106762 12.881489 43.853516 12.353516 L 43.855469 12.353516 C 45.795472 10.985972 47 8.8413835 47 6.4492188 C 47 2.3843308 43.452319 -1 39 -1 z "
       fill="currentColor" />
    <path
       class="ColorScheme-Text"
       d="m 36,17 v 2 c 0,0.554 0.446,1 1,1 h 4 c 0.554,0 1,-0.446 1,-1 v -2 h -5 z m 1,4.00003 V 23.0098 C 37,23.55784 37.446,24 38,24 h 2 c 0.554,0 1,-0.44216 1,-0.99023 V 21 h -3 z"
       fill="currentColor"
       id="path16" />
  </g>
  <use
     id="22-22-redshift-status-off"
     transform="translate(-3,27)"
     width="100%"
     height="100%"
     opacity="0.35"
     xlink:href="#22-22-redshift-status-on" />
  <use
     id="redshift-status-off"
     transform="translate(33.055)"
     width="100%"
     height="100%"
     opacity="0.35"
     xlink:href="#redshift-status-on" />
</svg>
