<svg width="22" height="22" version="1.1" xmlns="http://www.w3.org/2000/svg">
 <defs>
  <style id="current-color-scheme" type="text/css">.ColorScheme-Text { color:#333333; } .ColorScheme-Highlight { color:#5294e2; } .ColorScheme-ButtonBackground { color:#333333; }</style>
 </defs>
 <g id="22-22-start-here-kde" transform="translate(-29,-1)" class="ColorScheme-Text" fill="currentColor">
  <circle cx="40" cy="12" r="11" opacity=".15" style="paint-order:normal"/>
  <g transform="translate(28,-276)">
   <path transform="translate(0,276)" d="m12 6a6 6 0 0 0-6 6 6 6 0 0 0 6 6 6 6 0 0 0 6-6 6 6 0 0 0-6-6zm0 2a4 4 0 0 1 4 4 4 4 0 0 1-4 4 4 4 0 0 1-4-4 4 4 0 0 1 4-4z" class="ColorScheme-Text" fill="currentColor" opacity=".85" style="paint-order:fill markers stroke"/>
  </g>
 </g>
 <g id="start-here-kde" transform="translate(-3.8457 -1.675)">
  <rect x="-35.154" y="-3.325" width="32" height="32" color="#bebebe" fill="none"/>
  <g transform="translate(-59.154 .67501)" class="ColorScheme-Text" fill="currentColor">
   <circle cx="40" cy="12" r="13" opacity=".15" style="paint-order:normal"/>
   <g transform="translate(28,-276)">
    <path transform="translate(0,276)" d="m12 6a6 6 0 0 0-6 6 6 6 0 0 0 6 6 6 6 0 0 0 6-6 6 6 0 0 0-6-6zm0 2a4 4 0 0 1 4 4 4 4 0 0 1-4 4 4 4 0 0 1-4-4 4 4 0 0 1 4-4z" class="ColorScheme-Text" fill="currentColor" opacity=".85" style="paint-order:fill markers stroke"/>
   </g>
  </g>
 </g>
</svg>
