<?xml version="1.0" encoding="UTF-8" standalone="no"?>
<svg
   width="32"
   height="32"
   version="1.1"
   viewBox="0 0 32 32"
   id="svg99"
   sodipodi:docname="system.svg"
   inkscape:version="1.1.1 (3bf5ae0d25, 2021-09-20, custom)"
   xmlns:inkscape="http://www.inkscape.org/namespaces/inkscape"
   xmlns:sodipodi="http://sodipodi.sourceforge.net/DTD/sodipodi-0.dtd"
   xmlns="http://www.w3.org/2000/svg"
   xmlns:svg="http://www.w3.org/2000/svg">
  <sodipodi:namedview
     id="namedview101"
     pagecolor="#ffffff"
     bordercolor="#666666"
     borderopacity="1.0"
     inkscape:pageshadow="2"
     inkscape:pageopacity="0.0"
     inkscape:pagecheckerboard="0"
     showgrid="true"
     inkscape:zoom="3.0659708"
     inkscape:cx="24.462073"
     inkscape:cy="50.228789"
     inkscape:window-width="1440"
     inkscape:window-height="748"
     inkscape:window-x="0"
     inkscape:window-y="28"
     inkscape:window-maximized="1"
     inkscape:current-layer="svg99"
     inkscape:snap-bbox="true"
     inkscape:snap-bbox-edge-midpoints="true"
     inkscape:snap-nodes="false">
    <inkscape:grid
       type="xygrid"
       id="grid906" />
  </sodipodi:namedview>
  <defs
     id="defs7">
    <style
       id="current-color-scheme"
       type="text/css">.ColorScheme-Text { color:#333333; } .ColorScheme-Highlight { color:#5294e2; } .ColorScheme-ButtonBackground { color:#dedede; }</style>
    <style
       type="text/css"
       id="style3" />
    <style
       type="text/css"
       id="style5" />
  </defs>
  <g
     id="22-22-system-save-session"
     transform="translate(99,60)">
    <path
       id="path37"
       class="ColorScheme-Text"
       d="m 2.999995,13.003509 v 15.9999 H 19 v -12.69915 h -0.007 l 0.007,-0.015 -3.29297,-3.29295 -0.008,0.015 v -0.015 H 2.99981 Z M 4,14.005359 h 3 v 5.0001 h 8 v -5.0001 h 0.29298 L 18,16.712409 v 11.29305 h -2 v -7.00005 H 5.999995 v 7.00005 H 4 Z m 4.000005,0 h 3.90039 v 4.00005 H 8.000005 Z M 7,22.005459 h 8 v 6 H 7 Z"
       fill="currentColor" />
    <path
       id="path39"
       d="M 0,10 V 32 H 22 V 10 Z"
       fill="none" />
  </g>
  <g
     id="system-save-session"
     transform="translate(43,64)">
    <path
       id="path42"
       class="ColorScheme-Text"
       d="M 26,4 V 28 H 50 V 10 L 44,4 H 32 Z m 1,1 h 5 v 8 H 43 V 5 h 0.585938 L 49,10.414062 V 27 H 45 V 19 H 31 v 8 h -4 z m 6,0 h 6 v 7 h -6 z m -1,15 h 12 v 7 H 32 Z"
       fill="currentColor" />
    <path
       id="path44"
       d="M 22,0 V 32 H 54 V 0 Z"
       fill="none" />
  </g>
  <g
     id="22-22-system-users"
     transform="translate(99,-4)">
    <path
       id="path87"
       class="ColorScheme-Text"
       d="m 13.999995,12.999864 c -1.661999,0 -3,1.338 -3,3 0,1.662 1.338001,3 3,3 1.661999,0 3,-1.338 3,-3 0,-1.662 -1.338001,-3 -3,-3 z m -6,3 c -1.661999,0 -3,1.338 -3,3 0,1.662 1.338001,3 3,3 1.661999,0 3,-1.338 3,-3 0,-1.662 -1.338001,-3 -3,-3 z m 6,4 c -0.646349,0 -1.255999,0.134093 -1.818359,0.361328 l 0.455078,0.914063 c 0.427816,-0.1605 0.877758,-0.275391 1.363281,-0.275391 2.216023,0 4,1.783975 4,4 h -3.5 l 0.5,1 h 4 v -1 c 0,-2.77002 -2.229982,-5 -5,-5 z m -6,3 c -2.770018,0 -5,2.22998 -5,5 v 1 h 10 v -1 c 0,-2.77002 -2.229982,-5 -5,-5 z m 0,1 c 2.216008,0 4,1.783975 4,4 h -8 c 0,-2.216025 1.783977,-4 4,-4 z"
       fill="currentColor" />
    <path
       id="path89"
       d="M 0,10 V 32 H 22 V 10 Z"
       fill="none" />
  </g>
  <g
     id="system-users"
     transform="translate(43)">
    <path
       id="path92"
       class="ColorScheme-Text"
       d="M 42.5,4 A 4.5,4.5 0 0 0 38,8.5 4.5,4.5 0 0 0 42.5,13 4.5,4.5 0 0 0 47,8.5 4.5,4.5 0 0 0 42.5,4 Z m 0,1 A 3.5,3.5 0 0 1 46,8.5 3.5,3.5 0 0 1 42.5,12 3.5,3.5 0 0 1 39,8.5 3.5,3.5 0 0 1 42.5,5 Z m -9,4 C 31.014719,9 29,11.014719 29,13.5 29,15.985281 31.014719,18 33.5,18 35.985281,18 38,15.985281 38,13.5 38,11.014719 35.985281,9 33.5,9 Z m 0,1 A 3.5,3.5 0 0 1 37,13.5 3.5,3.5 0 0 1 33.5,17 3.5,3.5 0 0 1 30,13.5 3.5,3.5 0 0 1 33.5,10 Z m 9,4 c -0.88285,0.003 -1.758266,0.172285 -2.585938,0.5 -0.06618,0.423679 -0.174132,0.839768 -0.322265,1.242188 C 40.494507,15.254879 41.490227,15.000767 42.5,15 c 3.589851,0 6.5,3.134007 6.5,7 h -8.341797 c 0.170323,0.323289 0.325499,0.657112 0.464844,1 H 50 v -1 c 0,-4.418278 -3.357864,-8 -7.5,-8 z m -9,5 C 29.357864,19 26,22.581722 26,27 v 1 h 15 v -1 c 0,-4.418278 -3.357864,-8 -7.5,-8 z m 0,1 c 3.589851,0 6.5,3.134007 6.5,7 H 27 c 0,-3.865993 2.910149,-7 6.5,-7 z"
       fill="currentColor" />
    <path
       id="path94"
       d="M 22,0 V 32 H 54 V 0 Z"
       fill="none" />
  </g>
  <g
     id="system-user-list"
     transform="translate(43,32)">
    <path
       id="path110"
       class="ColorScheme-Text"
       d="m 45,9 c -0.58947,0 -1.13295,0.174573 -1.59375,0.46875 0.04318,0.464252 0.0075,0.922667 -0.008,1.335882 C 43.775357,10.29878 44.369053,10.00054 45,10 c 1.104569,0 2,0.895431 2,2 0,1.104569 -0.895431,2 -2,2 -1.040548,-5.56e-4 -1.906833,-0.798896 -1.99219,-1.835938 -0.184344,0.419479 -0.464656,0.770321 -0.6956,1.09959 -10e-4,0.0013 -0.003,0.0026 -0.004,0.0039 C 42.78421,14.287279 43.79697,15 45,15 c 1.66119,0 2.99805,-1.338 2.99805,-3 0,-1.662 -1.33686,-3 -2.99805,-3 z m -6.99999,9 C 42.43204,18 46,21.56798 46,26 H 30 c 0,-4.43202 3.56798,-8 8.00001,-8 z m 10e-6,-1 C 33.01445,17 29,20.716633 29,25.333333 V 27 H 47 V 25.333333 C 47,20.716633 42.98557,17 38.00002,17 Z m 6.97654,-1 c -1.26188,4.88e-4 -2.39619,0.47884 -3.27539,1.240234 0.380034,0.156147 0.766084,0.335754 1.142399,0.50783 0.005,0.0025 0.009,0.0052 0.0137,0.0078 C 43.47258,17.305934 44.19048,17 44.97461,17 c 2.22686,5e-5 4.02344,2.337992 4.02344,4 h -2.72852 c 0.196162,0.339095 0.301576,0.64811 0.449,1 H 50 v -1 c 0,-2.769366 -2.2402,-4.998947 -5.02148,-5 z M 38,5.9999995 c 2.20915,0 4,1.7908576 4,4.0000005 0,2.209141 -1.79085,4 -4,4 -2.20915,0 -4,-1.790859 -4,-4 0,-2.2091429 1.79085,-4.0000005 4,-4.0000005 z m 0,-1 c -2.76144,0 -5,2.2385703 -5,5.0000005 0,2.76143 2.23856,5 5,5 2.350785,0 4.322665,-1.622301 4.857137,-3.808418 C 42.950498,10.809711 43,10.410637 43,10 43,7.2385698 40.76142,4.9999995 38,4.9999995 Z M 31.02344,16 c 1.26188,4.88e-4 2.39619,0.47884 3.27539,1.240234 -0.404465,0.162919 -0.805479,0.355411 -1.156104,0.515606 C 32.52742,17.305934 31.80952,17 31.02539,17 c -2.22686,5e-5 -4.02344,2.337992 -4.02344,4 h 2.72852 c -0.186972,0.33326 -0.318326,0.689701 -0.449,1 H 26 v -1 c 0,-2.769366 2.2402,-4.998947 5.02148,-5 z M 30.99805,9 c 0.58947,0 1.13295,0.174573 1.59375,0.46875 -0.04841,0.460072 -0.0093,0.927542 0.008,1.33588 C 32.222693,10.29878 31.628997,10.00054 30.99805,10 c -1.104569,0 -2,0.895431 -2,2 0,1.104569 0.895431,2 2,2 1.040548,-5.56e-4 1.906833,-0.798896 1.99219,-1.835938 0.188312,0.402683 0.471649,0.770111 0.6956,1.09959 10e-4,0.0013 0.003,0.0026 0.004,0.0039 C 33.21384,14.287279 32.20108,15 30.99805,15 29.33686,15 28,13.662 28,12 28,10.338 29.33686,9.000001 30.99805,9 Z"
       fill="currentColor" />
    <path
       id="path84-3"
       d="M 22,0 V 32 H 54 V 0 Z"
       fill="none" />
  </g>
  <g
     id="system-user-prompt"
     transform="translate(43,96)">
    <path
       id="path44-5"
       d="M 22,0 V 32 H 54 V 0 Z"
       fill="none" />
    <path
       id="path889"
       class="ColorScheme-Text"
       d="m 37,10.75 v 1.5 h 5 v -1.5 z m -4,0 v 1.5 h 3 v -1.5 z m -6,0 v 1.5 h 5 v -1.5 z M 26,9 h 24 v 5 H 26 Z M 25,8 v 7 H 51 V 8 Z m 1,10 h 24 v 5 H 26 Z m -1,-1 v 7 h 26 v -7 z m 3.5,2 C 27.671573,19 27,19.671573 27,20.5 27,21.328427 27.671573,22 28.5,22 29.328427,22 30,21.328427 30,20.5 30,19.671573 29.328427,19 28.5,19 Z m 4,0 C 31.671573,19 31,19.671573 31,20.5 31,21.328427 31.671573,22 32.5,22 33.328427,22 34,21.328427 34,20.5 34,19.671573 33.328427,19 32.5,19 Z m 4,0 C 35.671573,19 35,19.671573 35,20.5 35,21.328427 35.671573,22 36.5,22 37.328427,22 38,21.328427 38,20.5 38,19.671573 37.328427,19 36.5,19 Z m 4,0 C 39.671573,19 39,19.671573 39,20.5 39,21.328427 39.671573,22 40.5,22 41.328427,22 42,21.328427 42,20.5 42,19.671573 41.328427,19 40.5,19 Z"
       fill="currentColor" />
  </g>
  <g
     id="22-22-system-user-prompt"
     transform="matrix(0.6875,0,0,0.6875,83.875,102)"
     stroke-width="1.45455">
    <path
       id="path909-5"
       class="ColorScheme-Text"
       d="m 35.818183,21.09091 a 0.72727275,0.72727275 0 0 1 -0.727272,0.727273 0.72727275,0.72727275 0 0 1 -0.727273,-0.727273 0.72727275,0.72727275 0 0 1 0.727273,-0.727273 0.72727275,0.72727275 0 0 1 0.727272,0.727273 z m -2.181818,0 a 0.72727275,0.72727275 0 0 1 -0.727273,0.727273 0.72727275,0.72727275 0 0 1 -0.727272,-0.727273 0.72727275,0.72727275 0 0 1 0.727272,-0.727273 0.72727275,0.72727275 0 0 1 0.727273,0.727273 z m -2.181818,0 a 0.72727275,0.72727275 0 0 1 -0.727273,0.727273 0.72727275,0.72727275 0 0 1 -0.727273,-0.727273 0.72727275,0.72727275 0 0 1 0.727273,-0.727273 0.72727275,0.72727275 0 0 1 0.727273,0.727273 z m -2.181818,0 a 0.72727275,0.72727275 0 0 1 -0.727273,0.727273 0.72727275,0.72727275 0 0 1 -0.727273,-0.727273 0.72727275,0.72727275 0 0 1 0.727273,-0.727273 0.72727275,0.72727275 0 0 1 0.727273,0.727273 z m 5.81818,-10.909091 H 38 v 1.454545 h -2.909091 z m -2.909091,0 h 1.454545 v 1.454545 h -1.454545 z m -4.363635,0 h 2.909091 v 1.454545 h -2.909091 z m -2.909091,7.272727 v 7.272728 h 26.181819 v -7.272728 z m 1.454546,1.454546 h 23.272728 v 4.363636 H 26.363638 Z M 24.909097,7.2727345 V 14.545462 H 51.090916 V 7.2727345 Z M 26.363643,8.72728 h 23.272728 v 4.363637 H 26.363643 Z"
       fill="currentColor" />
    <path
       id="path44-5-7"
       d="M 22,0 V 32 H 54 V 0 Z"
       fill="none" />
  </g>
  <g
     id="22-22-system-user-list"
     transform="matrix(0.6875,0,0,0.6875,83.875,38)"
     stroke-width="1.45455">
    <path
       id="path340-1-2"
       class="ColorScheme-Text"
       d="m 44.552119,10.181819 c -0.374531,0 -0.720437,0.103636 -1.028408,0.269887 1.89e-4,0.0019 -0.09527,0.05843 -0.09498,0.06047 0.114764,1.452661 -0.249454,2.376872 -0.665091,3.098603 0.396059,0.563505 1.048422,0.934682 1.788481,0.934682 1.025803,0 1.886094,-0.707989 2.119316,-1.661932 0.04073,-0.166636 0.06255,-0.340697 0.06255,-0.519887 -1.4e-5,-1.204987 -0.976843,-2.181818 -2.181818,-2.181818 z m -13.097528,0 c 0.374531,0 0.720436,0.103636 1.028407,0.269887 -1.89e-4,0.0019 0.09527,0.05843 0.09498,0.06047 -0.114764,1.452661 0.249455,2.376872 0.665091,3.098603 -0.396058,0.563505 -1.048422,0.934682 -1.78848,0.934682 -1.025804,0 -1.886095,-0.707989 -2.119317,-1.661932 -0.04073,-0.166636 -0.06254,-0.340697 -0.06254,-0.519887 1.4e-5,-1.204987 0.976844,-2.181818 2.181818,-2.181818 z m -4.4e-5,5.818168 c 1.226473,0 2.302211,0.565518 2.960233,1.477273 -0.369265,0.195739 -0.745004,0.436224 -1.070982,0.630662 -0.358356,-0.422659 -1.025004,-0.65339 -1.889251,-0.65339 -1.309454,0 -2.18182,0.960799 -2.18182,2.909104 h 1.818182 l -0.727273,1.454546 h -2.545454 l 1e-6,-2.21024 c 10e-7,-2.093049 1.622008,-3.607955 3.636364,-3.607955 z m 13.09091,1.4e-5 c -1.226473,0 -2.302211,0.565519 -2.960233,1.477273 0.369265,0.19574 0.745004,0.436224 1.070982,0.630662 0.358356,-0.422659 1.025003,-0.653389 1.889251,-0.653389 1.309454,0 2.181816,0.993887 2.181816,2.909089 h -1.818182 l 0.727273,1.454546 h 2.545454 l 2e-6,-2.210225 c 2e-6,-2.093049 -1.622007,-3.607956 -3.636363,-3.607956 z M 38,18.909091 c 2.909091,0 5.818182,1.454545 5.818182,5.818182 H 32.181818 c 0,-4.363637 2.909091,-5.818182 5.818182,-5.818182 z m 0,-1.454546 c -4.230226,0 -7.261221,2.974329 -7.269818,7.272728 l -0.0029,1.454545 h 14.545454 l -0.0029,-1.454545 C 45.261176,20.405961 42.230211,17.454545 38,17.454545 Z m 7.5e-5,-11.6363628 c -2.81168,0 -5.090953,2.2792686 -5.090953,5.0909048 0,2.811643 2.279273,5.090914 5.090953,5.090914 2.393556,0 4.401294,-1.651796 4.945498,-3.877663 0.09498,-0.388814 0.145469,-0.795143 0.145469,-1.213251 0,-2.8116362 -2.279316,-5.0909048 -5.090967,-5.0909048 z"
       fill="currentColor" />
    <path
       id="path84-3-7"
       d="M 22,0 V 32 H 54 V 0 Z"
       fill="none" />
  </g>
  <g
     id="system-log-out"
     transform="translate(42.00008,-16.999924)">
    <rect
       id="rect5640"
       width="32"
       height="32"
       x="112.99992"
       y="10.00008"
       style="opacity:0.00100002;fill:currentColor;fill-opacity:1;stroke:none;stroke-width:2.90909;stroke-linecap:round;stroke-linejoin:round;stroke-miterlimit:4;stroke-dasharray:none;stroke-opacity:1"
       transform="rotate(90)" />
    <path
       d="m -18.199305,135.13469 a 1,1 0 0 0 -0.36914,-0.66993 1,1 0 0 0 -1.40625,0.15625 c -1.707649,2.13529 -4.291271,3.37792 -7.025391,3.37891 -4.982403,0 -9,-4.0176 -9,-9 0,-4.9824 4.017597,-9 9,-9 2.730942,0.007 5.308986,1.25345 7.011719,3.38867 a 1,1 0 0 0 1.40625,0.15821 1,1 0 0 0 0.158203,-1.4043 c -2.080594,-2.60907 -5.235198,-4.13409 -8.572266,-4.14258 a 1.0001,1.0001 0 0 0 -0.0039,0 c -6.063282,0 -11,4.93672 -11,11 0,6.06328 4.936718,11 11,11 a 1.0001,1.0001 0 0 0 0.002,0 c 3.340092,-0.001 6.499843,-1.5204 8.585938,-4.12891 a 1,1 0 0 0 0.21289,-0.73632 z"
       id="path5644"
       class="ColorScheme-Text"
       fill="currentColor" />
    <path
       id="path914"
       d="m -15.929768,125.08398 a 1,1 0 0 0 -0.707031,0.29493 1,1 0 0 0 0.0039,1.41406 L -15.420002,128 h -9.580078 a 1,1 0 0 0 -1,1 1,1 0 0 0 1,1 h 9.580078 l -1.21289,1.20703 a 1,1 0 0 0 -0.0039,1.41406 1,1 0 0 0 1.414063,0.004 l 2.927734,-2.91602 a 1.0001,1.0001 0 0 0 0.103516,-0.12109 1.0001,1.0001 0 0 0 0.140625,-0.27344 1.0001,1.0001 0 0 0 0.002,-0.006 1,1 0 0 0 0.002,-0.008 1.0001,1.0001 0 0 0 0.04677,-0.30054 1,1 0 0 0 -0.0039,-0.0879 1.0001,1.0001 0 0 0 -0.002,-0.008 1,1 0 0 0 -0.0059,-0.0469 1.0001,1.0001 0 0 0 -0.0098,-0.0547 1,1 0 0 0 -0.0098,-0.0469 1,1 0 0 0 -0.0039,-0.0156 1.0001,1.0001 0 0 0 -0.02149,-0.0703 1.0001,1.0001 0 0 0 -0.04297,-0.10351 1.0001,1.0001 0 0 0 -0.04492,-0.084 1.0001,1.0001 0 0 0 -0.0078,-0.0137 1,1 0 0 0 -0.01367,-0.0195 1.0001,1.0001 0 0 0 -0.04101,-0.0566 1.0001,1.0001 0 0 0 -0.01172,-0.0156 1,1 0 0 0 -0.01758,-0.0215 1.0001,1.0001 0 0 0 -0.05664,-0.0625 1,1 0 0 0 -0.002,-0.002 l -2.927734,-2.91407 a 1,1 0 0 0 -0.707032,-0.29297 z"
       class="ColorScheme-Text"
       fill="currentColor"
       style="opacity:0.45" />
  </g>
  <g
     id="system-reboot"
     transform="translate(41,-11.999947)">
    <rect
       id="rect4546"
       width="32"
       height="32"
       x="-41"
       y="44"
       rx="0"
       ry="0"
       style="fill:none" />
    <path
       d="m -23.328125,49.134766 c -2.258042,-0.345302 -4.624247,0.01054 -6.75,1.11914 a 1,1 0 0 0 -0.423828,1.34961 1,1 0 0 0 1.349609,0.423828 c 3.48508,-1.817501 7.734887,-1.166563 10.517578,1.609375 2.779307,2.782285 3.431854,7.03434 1.613282,10.521484 a 1,1 0 0 0 0.423828,1.349609 1,1 0 0 0 1.349609,-0.423828 c 2.219018,-4.255006 1.419881,-9.469194 -1.972656,-12.863281 a 1.0001,1.0001 0 0 0 -0.002,0 c -1.697314,-1.693195 -3.847427,-2.740635 -6.105469,-3.085937 z m -10.830078,5.294921 a 1,1 0 0 0 -0.585938,0.492188 c -2.217198,4.251505 -1.421589,9.458912 1.964844,12.853516 a 1.0001,1.0001 0 0 0 0.002,0.002 c 3.394629,3.386391 8.603963,4.183996 12.855469,1.966797 a 1,1 0 0 0 0.423828,-1.34961 1,1 0 0 0 -1.349609,-0.423828 c -3.484252,1.817069 -7.732898,1.166848 -10.515625,-1.607422 l -0.002,-0.002 c -2.774287,-2.78269 -3.422539,-7.031372 -1.605469,-10.515625 a 1,1 0 0 0 -0.425781,-1.349609 1,1 0 0 0 -0.761719,-0.06641 z"
       id="path2104"
       class="ColorScheme-Text"
       fill="currentColor" />
    <path
       id="rect2921"
       d="m -33.865234,54.375 c -0.255619,0 -0.511163,0.0971 -0.707032,0.292969 -0.391737,0.391737 -0.391737,1.022325 0,1.414062 l 3.208985,3.208985 c 0.391737,0.391737 1.022325,0.391737 1.414062,0 0.391737,-0.391738 0.391737,-1.022326 0,-1.414063 l -3.208984,-3.208984 C -33.354072,54.4721 -33.609615,54.375 -33.865234,54.375 Z m 14.521484,6.037109 c -0.255619,0 -0.511163,0.0971 -0.707031,0.292969 -0.391737,0.391737 -0.391737,1.024279 0,1.416016 l 3.208984,3.208984 c 0.391737,0.391737 1.024279,0.391737 1.416016,0 0.391737,-0.391737 0.391737,-1.022325 0,-1.414062 l -3.210938,-3.210938 c -0.195868,-0.195868 -0.451412,-0.292969 -0.707031,-0.292969 z"
       fill="currentColor"
       class="ColorScheme-Text"
       style="opacity:0.45" />
  </g>
  <g
     id="system-shutdown"
     transform="translate(42,-7)">
    <rect
       id="rect930"
       width="32"
       height="32"
       x="-42"
       y="7.0000801"
       style="opacity:0.00100002;fill:currentColor;fill-opacity:1;stroke:none;stroke-width:2.90909;stroke-linecap:round;stroke-linejoin:round;stroke-miterlimit:4;stroke-dasharray:none;stroke-opacity:1" />
    <rect
       id="rect1633"
       width="2"
       height="11"
       x="-27"
       y="11"
       rx="1"
       ry="1"
       class="ColorScheme-Text"
       fill="currentColor"
       style="opacity:0.45" />
    <path
       d="m -19.865233,14.199225 a 1,1 0 0 0 -0.669922,0.36914 1,1 0 0 0 0.15625,1.40625 c 2.135285,1.707649 3.377916,4.291271 3.378906,7.025391 0,4.982403 -4.017597,9 -9,9 -4.982403,0 -9,-4.017597 -9,-9 0.0075,-2.730942 1.253446,-5.308986 3.388672,-7.011719 a 1,1 0 0 0 0.158203,-1.40625 1,1 0 0 0 -1.404297,-0.158203 c -2.609064,2.080594 -4.134088,5.235198 -4.142578,8.572266 a 1.0001,1.0001 0 0 0 0,0.0039 c 0,6.063282 4.936718,11 11,11 6.063282,0 11,-4.936718 11,-11 a 1.0001,1.0001 0 0 0 0,-0.002 c -0.0012,-3.340092 -1.520403,-6.499843 -4.128906,-8.585938 a 1,1 0 0 0 -0.736328,-0.21289 z"
       id="path3147"
       class="ColorScheme-Text"
       fill="currentColor" />
  </g>
  <g
     id="system-suspend-hibernate"
     transform="translate(40,-10.999969)">
    <rect
       id="rect5108"
       width="32"
       height="32"
       x="-40"
       y="75"
       rx="0"
       ry="0"
       style="fill:none" />
    <path
       id="path4821"
       d="m -24,80 a 11,11 0 0 0 -11,11 11,11 0 0 0 11,11 11,11 0 0 0 11,-11 11,11 0 0 0 -11,-11 z m 0,2 a 9,9 0 0 1 9,9 9,9 0 0 1 -9,9 9,9 0 0 1 -9,-9 9,9 0 0 1 9,-9 z"
       class="ColorScheme-Text"
       fill="currentColor" />
    <rect
       id="rect4968"
       width="12"
       height="2"
       x="-30"
       y="90"
       rx="1"
       ry="1"
       class="ColorScheme-Text"
       fill="currentColor"
       style="opacity:0.45" />
  </g>
  <g
     id="system-lock-screen"
     transform="translate(-32,-112)">
    <g
       id="g7697"
       transform="translate(1)">
      <path
         id="rect6448"
         d="m -25,149 c -3.324,0 -6,2.676 -6,6 v 3 h 2 v -3 c 0,-2.216 1.784,-4 4,-4 2.216,0 4,1.784 4,4 v 3 h 2 v -3 c 0,-3.324 -2.676,-6 -6,-6 z m 0,13 c -0.554,0 -1,0.446 -1,1 v 4 c 0,0.554 0.446,1 1,1 0.554,0 1,-0.446 1,-1 v -4 c 0,-0.554 -0.446,-1 -1,-1 z"
         class="ColorScheme-Text"
         fill="currentColor"
         style="opacity:0.45" />
      <path
         id="rect6102"
         d="m -30,157 c -2.77,0 -5,2.23 -5,5 v 6 c 0,2.77 2.23,5 5,5 h 10 c 2.77,0 5,-2.23 5,-5 v -6 c 0,-2.77 -2.23,-5 -5,-5 z m 0,2 h 10 c 1.662,0 3,1.338 3,3 v 6 c 0,1.662 -1.338,3 -3,3 h -10 c -1.662,0 -3,-1.338 -3,-3 v -6 c 0,-1.662 1.338,-3 3,-3 z"
         class="ColorScheme-Text"
         fill="currentColor" />
    </g>
    <rect
       id="rect7495"
       width="32"
       height="32"
       x="-40"
       y="145"
       rx="0"
       ry="0"
       style="fill:none" />
  </g>
  <g
     id="system-suspend"
     transform="translate(-72.00001,-144)">
    <g
       id="g8323"
       transform="translate(1,3)">
      <path
         d="m 15,150 a 1,1 0 0 0 -1,1 1,1 0 0 0 1,1 h 7.585937 l -8.292968,8.29297 A 1.0001,1.0001 0 0 0 15,162 h 10 a 1,1 0 0 0 1,-1 1,1 0 0 0 -1,-1 h -7.585938 l 8.292969,-8.29297 A 1.0001,1.0001 0 0 0 25,150 Z"
         id="path7738"
         class="ColorScheme-Text"
         fill="currentColor" />
      <path
         d="m 5,158 a 1,1 0 0 0 -1,1 1,1 0 0 0 1,1 h 3.5859375 l -4.2929688,4.29297 A 1.0001,1.0001 0 0 0 5,166 h 6 a 1,1 0 0 0 1,-1 1,1 0 0 0 -1,-1 H 7.4140625 l 4.2929685,-4.29297 A 1.0001,1.0001 0 0 0 11,158 Z"
         id="path7892"
         class="ColorScheme-Text"
         fill="currentColor"
         style="opacity:0.45" />
    </g>
    <rect
       id="rect8195"
       width="32"
       height="32"
       x="0"
       y="145"
       rx="0.91428572"
       ry="0.91428572"
       style="fill:none;stroke-width:0.914286" />
  </g>
  <g
     id="system-switch-user"
     transform="translate(-127,-85.048412)">
    <rect
       id="rect9268"
       width="32"
       height="32"
       x="55"
       y="150"
       rx="0"
       ry="0"
       style="fill:none" />
    <g
       id="g9470"
       transform="translate(-3,-1.0004175)">
      <path
         id="rect8810"
         d="m 64,162 c -0.554,0 -1,0.446 -1,1 0,0.554 0.446,1 1,1 h 20 c 0.554,0 1,-0.446 1,-1 0,-0.554 -0.446,-1 -1,-1 z m 0,8 c -0.554,0 -1,0.446 -1,1 0,0.554 0.446,1 1,1 h 20 c 0.554,0 1,-0.446 1,-1 0,-0.554 -0.446,-1 -1,-1 z"
         class="ColorScheme-Text"
         fill="currentColor" />
      <path
         id="rect8814"
         d="m 79.048828,157.04883 c -0.255619,0 -0.511163,0.0971 -0.707031,0.29297 -0.391737,0.39173 -0.391737,1.02232 0,1.41406 l 4.949219,4.95117 c 0.391737,0.39174 1.024278,0.39174 1.416015,0 0.391737,-0.39174 0.391737,-1.02428 0,-1.41601 l -4.951172,-4.94922 c -0.195868,-0.19587 -0.451412,-0.29297 -0.707031,-0.29297 z M 64,170 c -0.255619,0 -0.511163,0.0971 -0.707031,0.29297 -0.391737,0.39174 -0.391737,1.02428 0,1.41601 l 4.951172,4.94922 c 0.391737,0.39174 1.022325,0.39174 1.414062,0 0.391737,-0.39173 0.391737,-1.02232 0,-1.41406 l -4.949219,-4.95117 C 64.513116,170.0971 64.255619,170 64,170 Z"
         class="ColorScheme-Text"
         style="opacity:0.45"
         fill="currentColor" />
    </g>
  </g>
  <g
     id="22-22-system-switch-user">
    <rect
       style="opacity:1;fill:none;fill-opacity:1;stroke:none;stroke-width:1.62963;stroke-linecap:round;stroke-linejoin:round;stroke-miterlimit:4;stroke-dasharray:none;stroke-opacity:1;paint-order:stroke fill markers"
       id="rect17281"
       width="22"
       height="22"
       x="-32"
       y="70"
       rx="0"
       ry="0" />
    <path
       id="rect8371"
       d="m -28,77 c -0.554,0 -1,0.446 -1,1 0,0.554 0.446,1 1,1 h 14 c 0.554,0 1,-0.446 1,-1 0,-0.554 -0.446,-1 -1,-1 z m 0,6 c -0.554,0 -1,0.446 -1,1 0,0.554 0.446,1 1,1 h 14 c 0.554,0 1,-0.446 1,-1 0,-0.554 -0.446,-1 -1,-1 z"
       class="ColorScheme-Text"
       fill="currentColor" />
    <path
       id="rect8598"
       d="m -18.244141,72.755859 c -0.255619,0 -0.511162,0.0971 -0.707031,0.292969 -0.391737,0.391737 -0.391737,1.022325 0,1.414063 l 4.242188,4.24414 c 0.391737,0.391737 1.024278,0.391737 1.416015,0 0.391737,-0.391737 0.391737,-1.024278 0,-1.416015 l -4.24414,-4.242188 c -0.195869,-0.195868 -0.451413,-0.292969 -0.707032,-0.292969 z M -28,83 c -0.255619,0 -0.511163,0.0971 -0.707031,0.292969 -0.391737,0.391737 -0.391737,1.024278 0,1.416015 l 4.24414,4.242188 c 0.391738,0.391737 1.022326,0.391737 1.414063,0 0.391737,-0.391737 0.391737,-1.022325 0,-1.414063 l -4.242188,-4.24414 C -27.486884,83.0971 -27.744381,83 -28,83 Z"
       class="ColorScheme-Text"
       style="opacity:0.45"
       fill="currentColor" />
  </g>
  <g
     id="22-22-system-lock-screen">
    <rect
       style="opacity:1;fill:none;fill-opacity:1;stroke:none;stroke-width:1.62963;stroke-linecap:round;stroke-linejoin:round;stroke-miterlimit:4;stroke-dasharray:none;stroke-opacity:1;paint-order:stroke fill markers"
       id="rect17279"
       width="22"
       height="22"
       x="-32"
       y="39"
       rx="0"
       ry="0" />
    <path
       id="rect11213"
       d="m -21,41 c -2.77,0 -5,2.23 -5,5 v 1 h 2 v -1 c 0,-1.662 1.338,-3 3,-3 1.662,0 3,1.338 3,3 v 1 h 2 v -1 c 0,-2.77 -2.23,-5 -5,-5 z m 0,9 c -0.554,0 -1,0.446 -1,1 v 3 c 0,0.554 0.446,1 1,1 0.554,0 1,-0.446 1,-1 v -3 c 0,-0.554 -0.446,-1 -1,-1 z"
       class="ColorScheme-Text"
       style="opacity:0.45"
       fill="currentColor" />
    <path
       id="rect11552"
       d="m -25,46 c -2.216,0 -4,1.784 -4,4 v 5 c 0,2.216 1.784,4 4,4 h 8 c 2.216,0 4,-1.784 4,-4 v -5 c 0,-2.216 -1.784,-4 -4,-4 z m 0,2 h 8 c 1.108,0 2,0.892 2,2 v 5 c 0,1.108 -0.892,2 -2,2 h -8 c -1.108,0 -2,-0.892 -2,-2 v -5 c 0,-1.108 0.892,-2 2,-2 z"
       fill="currentColor"
       class="ColorScheme-Text" />
  </g>
  <g
     id="22-22-system-reboot"
     transform="translate(0.0108,2.0000534)">
    <rect
       style="opacity:1;fill:none;fill-opacity:1;stroke:none;stroke-width:1.62963;stroke-linecap:round;stroke-linejoin:round;stroke-miterlimit:4;stroke-dasharray:none;stroke-opacity:1;paint-order:stroke fill markers"
       id="rect17285"
       width="22"
       height="22"
       x="32"
       y="35"
       rx="0"
       ry="0" />
    <path
       id="rect12955"
       d="m 36.115234,40.949219 c -0.255619,0 -0.511162,0.09905 -0.707031,0.294922 -0.391737,0.391737 -0.391737,1.022325 0,1.414062 l 2.628906,2.628906 c 0.391738,0.391738 1.022326,0.391738 1.414063,0 0.391737,-0.391737 0.391737,-1.022325 0,-1.414062 l -2.628906,-2.628906 c -0.195869,-0.195869 -0.451413,-0.294922 -0.707032,-0.294922 z m 11.115235,5.458984 c -0.255619,0 -0.511163,0.09905 -0.707031,0.294922 -0.391738,0.391737 -0.391738,1.022325 0,1.414063 l 2.628906,2.628906 c 0.391737,0.391737 1.022325,0.391737 1.414062,0 0.391737,-0.391737 0.391737,-1.022326 0,-1.414063 L 47.9375,46.703125 c -0.195869,-0.195869 -0.451412,-0.294922 -0.707031,-0.294922 z"
       class="ColorScheme-Text"
       style="opacity:0.45"
       fill="currentColor" />
    <path
       d="m 36.614903,52.363269 c -2.89224,-2.902023 -3.460285,-7.403882 -1.378858,-10.932377 a 1.0014044,1.0008708 0 0 1 1.371943,-0.353863 1.0014044,1.0008708 0 0 1 0.35405,1.371213 c -1.623039,2.751424 -1.18412,6.237533 1.070447,8.500965 2.263877,2.261638 5.757849,2.704336 8.515179,1.079554 a 1.0014044,1.0008708 0 0 1 1.371943,0.35386 1.0014044,1.0008708 0 0 1 -0.35405,1.371214 c -3.535288,2.083199 -8.04666,1.510557 -10.949271,-1.389184 a 1.0015046,1.000971 0 0 1 -0.0014,-0.0014 z m 1.453541,-12.745917 a 1.0014044,1.0008708 0 0 1 0.354049,-1.371212 c 3.530377,-2.080316 8.034676,-1.512636 10.938208,1.378124 a 1.0015046,1.000971 0 0 1 0.0028,0.0028 c 2.89224,2.902024 3.460284,7.403883 1.378858,10.932379 a 1.0014044,1.0008708 0 0 1 -1.371944,0.353862 1.0014044,1.0008708 0 0 1 -0.354049,-1.371214 C 50.639067,46.791239 50.200649,43.305978 47.9473,41.042509 45.682727,38.787918 42.193883,38.34874 39.440421,39.97125 a 1.0014044,1.0008708 0 0 1 -1.371943,-0.353862 z"
       id="path14017"
       class="ColorScheme-Text"
       fill="currentColor"
       style="stroke-width:1.00113" />
  </g>
  <g
     id="22-22-system-suspend-hibernate"
     transform="translate(0.0108,1.0000305)">
    <rect
       style="opacity:1;fill:none;fill-opacity:1;stroke:none;stroke-width:1.62963;stroke-linecap:round;stroke-linejoin:round;stroke-miterlimit:4;stroke-dasharray:none;stroke-opacity:1;paint-order:stroke fill markers"
       id="rect17287"
       width="22"
       height="22"
       x="32"
       y="68"
       rx="0"
       ry="0" />
    <path
       id="path14813"
       d="m 43,70 a 9,9 0 0 0 -9,9 9,9 0 0 0 9,9 9,9 0 0 0 9,-9 9,9 0 0 0 -9,-9 z m 0,2 a 6.9999985,6.9999985 0 0 1 7,7 6.9999985,6.9999985 0 0 1 -7,7 6.9999985,6.9999985 0 0 1 -7,-7 6.9999985,6.9999985 0 0 1 7,-7 z"
       class="ColorScheme-Text"
       fill="currentColor" />
    <rect
       id="rect14964"
       width="8"
       height="2"
       x="39"
       y="78"
       rx="1"
       ry="1"
       class="ColorScheme-Text"
       style="opacity:0.45"
       fill="currentColor" />
  </g>
  <g
     id="22-22-system-shutdown"
     transform="translate(0.0108,8.0108643e-5)">
    <rect
       style="opacity:1;fill:none;fill-opacity:1;stroke:none;stroke-width:1.62963;stroke-linecap:round;stroke-linejoin:round;stroke-miterlimit:4;stroke-dasharray:none;stroke-opacity:1;paint-order:stroke fill markers"
       id="rect17283"
       width="22"
       height="22"
       x="32"
       y="5"
       rx="0"
       ry="0" />
    <path
       d="M 38.597656,8.4746094 A 1,1 0 0 0 37.849609,8.6386719 C 35.444615,10.316929 34.007166,13.065386 34,15.998047 A 1.0001,1.0001 0 0 0 34,16 c 0,4.958713 4.041287,9 9,9 4.958713,0 9,-4.041287 9,-9 -8.64e-4,-2.935698 -1.434373,-5.690181 -3.839844,-7.3730469 A 1,1 0 0 0 46.765625,8.875 1,1 0 0 0 47.013672,10.267578 C 48.886111,11.577536 49.999328,13.714827 50,16 c 0,3.877834 -3.122166,7 -7,7 -3.877834,0 -7,-3.122166 -7,-7 0.0062,-2.282066 1.122612,-4.41471 2.994141,-5.720703 A 1,1 0 0 0 39.242187,8.8867188 1,1 0 0 0 38.597656,8.4746094 Z"
       id="path15086"
       class="ColorScheme-Text"
       fill="currentColor" />
    <rect
       id="rect15726"
       width="2"
       height="9"
       x="42"
       y="6"
       rx="1"
       ry="1"
       class="ColorScheme-Text"
       style="opacity:0.45"
       fill="currentColor" />
  </g>
  <g
     id="22-22-system-log-out">
    <rect
       style="opacity:1;fill:none;fill-opacity:1;stroke:none;stroke-width:1.62963;stroke-linecap:round;stroke-linejoin:round;stroke-miterlimit:4;stroke-dasharray:none;stroke-opacity:1;paint-order:stroke fill markers"
       id="rect17289"
       width="22"
       height="22"
       x="32"
       y="101"
       rx="0"
       ry="0" />
    <path
       id="path15985"
       d="m 50.091916,108.08398 c -0.265483,5.6e-4 -0.519847,0.10667 -0.707031,0.29493 -0.389347,0.39158 -0.387601,1.02463 0.0039,1.41406 L 50.601682,111 H 44 c -0.552285,0 -1,0.44772 -1,1 0,0.55228 0.447715,1 1,1 h 6.601682 l -1.21289,1.20703 c -0.391501,0.38943 -0.393247,1.02248 -0.0039,1.41406 0.389402,0.39153 1.022452,0.39332 1.414063,0.004 l 2.927734,-2.91602 c 0.03767,-0.0375 0.07229,-0.078 0.103516,-0.12109 0.06069,-0.0833 0.108126,-0.17559 0.140625,-0.27344 6.73e-4,-0.002 0.0013,-0.004 0.002,-0.006 6.78e-4,-0.003 0.0013,-0.005 0.002,-0.008 0.03082,-0.0972 0.04659,-0.19856 0.04677,-0.30054 -10e-6,-0.0293 -0.0013,-0.0587 -0.0039,-0.0879 -6.56e-4,-0.003 -0.0013,-0.005 -0.002,-0.008 -0.0016,-0.0157 -0.0036,-0.0313 -0.0059,-0.0469 -0.0028,-0.0183 -0.006,-0.0366 -0.0098,-0.0547 -0.0029,-0.0157 -0.0062,-0.0313 -0.0098,-0.0469 -0.0013,-0.005 -0.0026,-0.0104 -0.0039,-0.0156 -0.0063,-0.0237 -0.01347,-0.0471 -0.02149,-0.0703 -0.01238,-0.0353 -0.02672,-0.0698 -0.04297,-0.10351 -0.01363,-0.0287 -0.02862,-0.0567 -0.04492,-0.084 -0.0026,-0.005 -0.0052,-0.009 -0.0078,-0.0137 -0.0045,-0.007 -0.009,-0.0131 -0.01367,-0.0195 -0.01301,-0.0193 -0.02669,-0.0382 -0.04101,-0.0566 -0.0039,-0.005 -0.0078,-0.0104 -0.01172,-0.0156 -0.0058,-0.007 -0.01162,-0.0144 -0.01758,-0.0215 -0.01799,-0.0216 -0.03689,-0.0425 -0.05664,-0.0625 -6.66e-4,-6.7e-4 -0.0013,-10e-4 -0.002,-0.002 l -2.927734,-2.91407 c -0.187505,-0.18755 -0.44183,-0.29293 -0.707032,-0.29297 z"
       class="ColorScheme-Text"
       fill="currentColor"
       style="opacity:0.45" />
    <path
       d="m 42,103 c -4.958713,0 -9,4.04129 -9,9 0,4.95871 4.041287,9 9,9 2.178984,-9.9e-4 4.284272,-0.7933 5.923828,-2.22852 a 1,1 0 0 0 0.09375,-1.41015 1,1 0 0 0 -1.410156,-0.0937 C 45.331881,118.38414 43.695202,118.99923 42,119 c -3.877834,0 -7,-3.12216 -7,-7 0,-3.87784 3.122166,-7 7,-7 1.695202,7.7e-4 3.331881,0.61586 4.607422,1.73242 a 1,1 0 0 0 1.410156,-0.0937 1,1 0 0 0 -0.09375,-1.41015 C 46.284272,103.7933 44.178984,103.00099 42,103 Z"
       id="path16116"
       class="ColorScheme-Text"
       fill="currentColor" />
  </g>
  <g
     id="22-22-system-suspend">
    <rect
       style="opacity:1;fill:none;fill-opacity:1;stroke:none;stroke-width:1.62963;stroke-linecap:round;stroke-linejoin:round;stroke-miterlimit:4;stroke-dasharray:none;stroke-opacity:1;paint-order:stroke fill markers"
       id="rect17036"
       width="22"
       height="22"
       x="-32"
       y="7"
       rx="0"
       ry="0" />
    <path
       d="m -21,11 a 1,1 0 0 0 -1,1 1,1 0 0 0 1,1 h 5.585937 l -6.292968,6.292969 A 1.0001,1.0001 0 0 0 -21,21 h 8 a 1,1 0 0 0 1,-1 1,1 0 0 0 -1,-1 h -5.585937 l 6.292968,-6.292969 A 1.0001,1.0001 0 0 0 -13,11 Z"
       id="path16822"
       class="ColorScheme-Text"
       fill="currentColor" />
    <path
       d="m -29,18 a 1,1 0 0 0 -1,1 1,1 0 0 0 1,1 h 2.585938 l -3.292969,3.292969 A 1.0001,1.0001 0 0 0 -29,25 h 5 a 1,1 0 0 0 1,-1 1,1 0 0 0 -1,-1 h -2.585937 l 3.292968,-3.292969 A 1.0001,1.0001 0 0 0 -24,18 Z"
       id="path16824"
       class="ColorScheme-Text"
       style="opacity:0.45"
       fill="currentColor" />
  </g>
</svg>
