<?xml version="1.0" encoding="UTF-8" standalone="no"?>
<svg
   version="1.1"
   viewBox="0 0 22 22"
   id="svg28"
   sodipodi:docname="system-run.svg"
   inkscape:version="1.1.1 (3bf5ae0d25, 2021-09-20, custom)"
   xmlns:inkscape="http://www.inkscape.org/namespaces/inkscape"
   xmlns:sodipodi="http://sodipodi.sourceforge.net/DTD/sodipodi-0.dtd"
   xmlns="http://www.w3.org/2000/svg"
   xmlns:svg="http://www.w3.org/2000/svg">
  <sodipodi:namedview
     id="namedview30"
     pagecolor="#ffffff"
     bordercolor="#666666"
     borderopacity="1.0"
     inkscape:pageshadow="2"
     inkscape:pageopacity="0.0"
     inkscape:pagecheckerboard="0"
     showgrid="true"
     inkscape:snap-bbox="true"
     inkscape:bbox-nodes="true"
     inkscape:zoom="4.4595939"
     inkscape:cx="-8.2967196"
     inkscape:cy="10.539076"
     inkscape:window-width="1440"
     inkscape:window-height="748"
     inkscape:window-x="0"
     inkscape:window-y="28"
     inkscape:window-maximized="1"
     inkscape:current-layer="svg28"
     inkscape:snap-nodes="false">
    <inkscape:grid
       type="xygrid"
       id="grid847" />
  </sodipodi:namedview>
  <defs
     id="defs3">
    <style
       id="current-color-scheme"
       type="text/css">.ColorScheme-Text { color:#333333; } .ColorScheme-Highlight { color:#5294e2; } .ColorScheme-ButtonBackground { color:#333333; }</style>
  </defs>
  <g
     id="22-22-system-run"
     transform="matrix(1,0,0,1.000013,0,0.00305085)">
    <rect
       x="-0.0025018062"
       y="-0.0030508079"
       width="21.999714"
       height="21.999714"
       opacity="0"
       id="rect885"
       style="stroke-width:3.7795" />
    <path
       id="path887"
       d="m 10.828125,2.0136719 a 1.0001,1.0001 0 0 0 -0.324219,0.1171875 l -6.9999998,4 A 1.0001,1.0001 0 0 0 3,7 v 8 a 1.0001,1.0001 0 0 0 0.5039062,0.869141 l 6.9999998,4 a 1.0001,1.0001 0 0 0 0.992188,0 l 7,-4 A 1.0001,1.0001 0 0 0 19,15 V 7 A 1.0001,1.0001 0 0 0 18.496094,6.1308594 l -7,-4 A 1.0001,1.0001 0 0 0 10.828125,2.0136719 Z M 11,4.1523438 17,7.5800781 V 14.419922 L 11,17.847656 5,14.419922 V 7.5800781 Z M 11,9 a 2,2 0 0 0 -2,2 2,2 0 0 0 2,2 2,2 0 0 0 2,-2 2,2 0 0 0 -2,-2 z"
       class="ColorScheme-Text"
       fill="currentColor" />
  </g>
  <g
     id="16-16-system-run"
     transform="translate(26.2203,-0.13599968)">
    <rect
       x="2.7797"
       y="-19.864"
       width="16"
       height="16"
       fill="none"
       id="rect891" />
    <g
       transform="matrix(3.31,0,0,3.31,-13.742,4.7358)"
       id="g897"
       class="ColorScheme-Text"
       fill="currentColor">
      <path
         d="m 5.8081,-6.4096 a 2.1166,2.1166 0 0 0 -0.39715,0.68876 0.79374,0.79374 45 0 1 0.40997,0.69356 0.79374,0.79374 45 0 1 -0.41065,0.69536 2.1166,2.1166 0 0 0 0.16487,0.36308 2.1166,2.1166 0 0 0 0.23245,0.32406 0.79374,0.79374 45 0 1 0.80707,-0.0077 0.79374,0.79374 45 0 1 0.39643,0.70317 2.1166,2.1166 0 0 0 0.79518,-0.00143 0.79374,0.79374 45 0 1 0.39569,-0.70163 0.79374,0.79374 45 0 1 0.80637,0.00763 2.1166,2.1166 0 0 0 0.39715,-0.68876 0.79374,0.79374 45 0 1 -0.40997,-0.69356 0.79374,0.79374 45 0 1 0.36507,-0.66785 0.79374,0.79374 45 0 1 0.045837,-0.027061 2.1166,2.1166 0 0 0 -0.16513,-0.36353 2.1166,2.1166 0 0 0 -0.23296,-0.32496 0.79374,0.79374 45 0 1 -0.80655,0.00859 0.79374,0.79374 45 0 1 -0.39643,-0.70317 2.1166,2.1166 0 0 0 -0.79518,0.00143 0.79374,0.79374 45 0 1 -0.39569,0.70163 0.79374,0.79374 45 0 1 -0.80637,-0.00763 z m 1.071,0.46589 a 1.0583,1.0583 0 0 1 1.4457,0.38737 1.0583,1.0583 0 0 1 -0.38737,1.4457 1.0583,1.0583 0 0 1 -1.4457,-0.38737 1.0583,1.0583 0 0 1 0.38737,-1.4457 z"
         id="path893" />
      <circle
         cx="7.4082999"
         cy="-5.0271001"
         r="0.52916002"
         id="circle895" />
    </g>
  </g>
  <g
     id="system-run"
     transform="translate(-37.201,0.04890013)">
    <rect
       x="-39.799"
       y="-4.0489001"
       width="32"
       height="32"
       fill="none"
       id="rect875" />
    <g
       transform="matrix(5.6742,0,0,5.6742,-65.835,40.476)"
       id="g881"
       class="ColorScheme-Text"
       fill="currentColor">
      <path
         d="m 5.8081,-6.4096 a 2.1166,2.1166 0 0 0 -0.39715,0.68876 0.79374,0.79374 45 0 1 0.40997,0.69356 0.79374,0.79374 45 0 1 -0.41065,0.69536 2.1166,2.1166 0 0 0 0.16487,0.36308 2.1166,2.1166 0 0 0 0.23245,0.32406 0.79374,0.79374 45 0 1 0.80707,-0.0077 0.79374,0.79374 45 0 1 0.39643,0.70317 2.1166,2.1166 0 0 0 0.79518,-0.00143 0.79374,0.79374 45 0 1 0.39569,-0.70163 0.79374,0.79374 45 0 1 0.80637,0.00763 2.1166,2.1166 0 0 0 0.39715,-0.68876 0.79374,0.79374 45 0 1 -0.40997,-0.69356 0.79374,0.79374 45 0 1 0.36507,-0.66785 0.79374,0.79374 45 0 1 0.045837,-0.027061 2.1166,2.1166 0 0 0 -0.16513,-0.36353 2.1166,2.1166 0 0 0 -0.23296,-0.32496 0.79374,0.79374 45 0 1 -0.80655,0.00859 0.79374,0.79374 45 0 1 -0.39643,-0.70317 2.1166,2.1166 0 0 0 -0.79518,0.00143 0.79374,0.79374 45 0 1 -0.39569,0.70163 0.79374,0.79374 45 0 1 -0.80637,-0.00763 z m 1.071,0.46589 a 1.0583,1.0583 0 0 1 1.4457,0.38737 1.0583,1.0583 0 0 1 -0.38737,1.4457 1.0583,1.0583 0 0 1 -1.4457,-0.38737 1.0583,1.0583 0 0 1 0.38737,-1.4457 z"
         id="path877" />
      <circle
         cx="7.4082999"
         cy="-5.0271001"
         r="0.52916002"
         id="circle879" />
    </g>
  </g>
</svg>
