<svg width="22" height="22" version="1.1" viewBox="0 0 22 22" xmlns="http://www.w3.org/2000/svg">
 <defs>
  <style id="current-color-scheme" type="text/css">.ColorScheme-Text { color:#333333; } .ColorScheme-Highlight { color:#5294e2; } .ColorScheme-ButtonBackground { color:#333333; }</style>
 </defs>
 <g id="update-none">
  <rect x="-.00091978" y="-.0035561" width="22" height="22" fill="#000000" opacity=".001"/>
  <g class="success" transform="translate(-702 234)" enable-background="new">
   <path class="success" transform="translate(241 -497)" d="m471.88 267c-1.3453 0.0265-2.6952 0.44583-3.8828 1.2774-3.1668 2.2174-3.9323 6.5597-1.7148 9.7266 2.2174 3.1668 6.5578 3.9323 9.7246 1.7148 2.2774-1.5946 3.312-4.2822 2.8906-6.8535-0.0982-0.6008-0.285-1.16-0.52734-1.7012l-6.3516 7.2578-0.6875 0.8125-0.78124-0.75-3-3c-0.37639-0.37633-0.37636-1.0611 0-1.4375 0.37636-0.37635 1.0612-0.37638 1.4375 0l2.25 2.25 6.0234-6.8926c-1.0768-1.2413-2.5092-2.0303-4.043-2.3008-0.44106-0.0778-0.88946-0.11236-1.3379-0.10352z" color="#000000" enable-background="accumulate" fill="#4caf50"/>
   <rect x="705" y="-231" width="16" height="16" rx=".14409" ry=".15129" color="#bebebe" enable-background="new" fill="none"/>
  </g>
 </g>
 <g id="update-low">
  <rect x="24" y="-.0022146" width="22" height="22" fill="#000000" opacity=".001"/>
  <g transform="translate(-338 294)" enable-background="new">
   <path transform="translate(281 -643)" d="m92 352.72c-0.73799 0.72824-1.4448 1.5567-2.1914 2.2812h-2.8086v2.8086c-0.72465 0.74666-1.5529 1.4534-2.2812 2.1914 0.72849 0.73824 1.5565 1.4735 2.2812 2.2227v2.7773h2.8066c0.74736 0.72494 1.4547 1.5523 2.1934 2.2812 0.73886-0.7291 1.4748-1.5562 2.2246-2.2812h2.7754v-2.7773c0.72478-0.74913 1.5527-1.4844 2.2812-2.2227-0.72829-0.73805-1.5566-1.4447-2.2812-2.1914v-2.8086h-2.7773c-0.74913-0.72478-1.4845-1.5527-2.2227-2.2812zm0 3.4336 2.5625 3.8438h-1.5625v4.0039h-2v-4.0039h-1.5625c1.1661-1.7024 2.2452-3.3558 2.5625-3.8438z" fill="#8eb9ec"/>
   <rect x="365" y="-291" width="16" height="16" color="#bebebe" fill="none"/>
  </g>
 </g>
 <g id="update-medium" transform="translate(0 28.717)">
  <rect x="24" y="-.0022146" width="22" height="22" fill="#000000" opacity=".001"/>
  <g transform="translate(-338 294)" enable-background="new">
   <path transform="translate(281 -643)" d="m92 352.72c-0.73799 0.72824-1.4448 1.5567-2.1914 2.2812h-2.8086v2.8086c-0.72465 0.74666-1.5529 1.4534-2.2812 2.1914 0.72849 0.73824 1.5565 1.4735 2.2812 2.2227v2.7773h2.8066c0.74736 0.72494 1.4547 1.5523 2.1934 2.2812 0.73886-0.7291 1.4748-1.5562 2.2246-2.2812h2.7754v-2.7773c0.72478-0.74913 1.5527-1.4844 2.2812-2.2227-0.72829-0.73805-1.5566-1.4447-2.2812-2.1914v-2.8086h-2.7773c-0.74913-0.72478-1.4845-1.5527-2.2227-2.2812zm0 3.4336 2.5625 3.8438h-1.5625v4.0039h-2v-4.0039h-1.5625c1.1661-1.7024 2.2452-3.3558 2.5625-3.8438z" fill="#5294e2"/>
   <rect x="365" y="-291" width="16" height="16" color="#bebebe" fill="none"/>
  </g>
 </g>
 <g id="update-high" transform="translate(0 56.361)">
  <rect x="24" y="-.0022146" width="22" height="22" fill="#000000" opacity=".001"/>
  <g transform="translate(-338 294)" enable-background="new">
   <path transform="translate(281 -643)" d="m92 352.72c-0.73799 0.72824-1.4448 1.5567-2.1914 2.2812h-2.8086v2.8086c-0.72465 0.74666-1.5529 1.4534-2.2812 2.1914 0.72849 0.73824 1.5565 1.4735 2.2812 2.2227v2.7773h2.8066c0.74736 0.72494 1.4547 1.5523 2.1934 2.2812 0.73886-0.7291 1.4748-1.5562 2.2246-2.2812h2.7754v-2.7773c0.72478-0.74913 1.5527-1.4844 2.2812-2.2227-0.72829-0.73805-1.5566-1.4447-2.2812-2.1914v-2.8086h-2.7773c-0.74913-0.72478-1.4845-1.5527-2.2227-2.2812zm0 3.4336 2.5625 3.8438h-1.5625v4.0039h-2v-4.0039h-1.5625c1.1661-1.7024 2.2452-3.3558 2.5625-3.8438z" fill="#226fcb"/>
   <rect x="365" y="-291" width="16" height="16" color="#bebebe" fill="none"/>
  </g>
 </g>
</svg>
