<svg width="32" height="32" version="1.1" xmlns="http://www.w3.org/2000/svg">
 <defs>
  <style id="current-color-scheme" type="text/css">.ColorScheme-Text { color:#333333; } .ColorScheme-Highlight { color:#5294e2; } .ColorScheme-ButtonBackground { color:#dedede; }</style>
  <style type="text/css"/>
 </defs>
 <g id="view-refresh" transform="matrix(0 -1 -1 0 -218.84 494.56)" class="ColorScheme-Text" fill="currentColor">
  <rect transform="scale(-1)" x="-481" y="258.97" width="16" height="16" fill="none"/>
  <path transform="matrix(0 -1 -1 0 1079 -14.938)" d="m252.06 598.02-3.5625 2.9824 3.5606 3.0176v-2c2.2091 0 4 1.7909 4 4s-1.7909 4-4 4-4-1.7909-4-4c0-6e-3 -4e-3 -0.0113-4e-3 -0.0176h-1.9922c-1.1e-4 6e-3 -4e-3 0.0113-4e-3 0.0176 0 0.0333 4e-3 0.0665 8e-3 0.0996 0.0538 3.2672 2.7141 5.9004 5.9941 5.9004 3.3137 0 6-2.6863 6-6s-2.6863-6-6-6v-2z"/>
 </g>
 <g id="view-history" class="ColorScheme-Text" fill="currentColor">
  <rect width="32" height="32" rx="0" ry="0" opacity="0"/>
  <path d="m16 7c1.3321 0.00317 2.647 0.30202 3.8496 0.875l-2e-3 0.00391c0.16902 0.084984 0.2756 0.25808 0.27539 0.44727 0 0.27614-0.22386 0.5-0.5 0.5-0.04897-4.53e-5 -0.09767-0.00728-0.14453-0.021484h-2e-3c-0.0046-0.00189-0.0091-0.00384-0.01367-0.00586-0.030392-0.01017-0.059825-0.023251-0.087799-0.039066-1.0561-0.49638-2.2081-0.7557-3.375-0.75977-4.4183 0-8 3.5817-8 8s3.5817 8 8 8 8-3.5817 8-8c-0.0019-1.2722-0.30725-2.5257-0.89062-3.6562-0.04038-0.07297-0.06187-0.15488-0.0625-0.23828 0-0.27614 0.22386-0.5 0.5-0.5 0.2113 1.01e-4 0.39972 0.13301 0.4707 0.33203 0.64173 1.2583 0.97828 2.65 0.98242 4.0625 0 4.9706-4.0294 9-9 9s-9-4.0294-9-9 4.0294-9 9-9zm-0.5 3c0.277 0 0.5 0.223 0.5 0.5v4.793l3.3887 3.3887c0.19587 0.19587 0.19587 0.51116 0 0.70703-0.19587 0.19587-0.51116 0.19587-0.70703 0l-3.5352-3.5352c-0.047012-0.047013-0.084075-0.10324-0.10938-0.16602-0.024483-0.06017-0.037109-0.1236-0.037109-0.1875v-5c0-0.277 0.223-0.5 0.5-0.5z"/>
  <path d="m16 1c-8.2843 0-15 6.7157-15 15 0 8.2843 6.7157 15 15 15 8.2843 0 15-6.7157 15-15 0-8.2843-6.7157-15-15-15zm0 1a14 14 0 0 1 14 14 14 14 0 0 1-14 14 14 14 0 0 1-14-14 14 14 0 0 1 14-14z"/>
 </g>
</svg>
