<svg version="1.1" viewBox="0 0 22 22" xmlns="http://www.w3.org/2000/svg">
 <g id="window-list">
  <path d="m30 33h32v32h-32z" opacity="0"/>
  <path class="ColorScheme-Text" d="m36 37c-1.108 0-2 0.892-2 2v6c0 1.108 0.892 2 2 2h6c1.108 0 2-0.892 2-2v-6c0-1.108-0.892-2-2-2h-6zm14 0c-1.108 0-2 0.892-2 2v6c0 1.108 0.892 2 2 2h6c1.108 0 2-0.892 2-2v-6c0-1.108-0.892-2-2-2h-6zm-14 2h6v6h-6v-6zm14 0h6v6h-6v-6zm-14 12c-1.108 0-2 0.892-2 2v6c0 1.108 0.892 2 2 2h6c1.108 0 2-0.892 2-2v-6c0-1.108-0.892-2-2-2h-6zm14 0c-1.108 0-2 0.892-2 2v6c0 1.108 0.892 2 2 2h6c1.108 0 2-0.892 2-2v-6c0-1.108-0.892-2-2-2h-6zm-14 2h6v6h-6v-6zm14 0h6v6h-6v-6z" fill="currentColor"/>
 </g>
 <defs>
  <style id="current-color-scheme" type="text/css">.ColorScheme-Text { color:#333333; } .ColorScheme-Highlight { color:#5294e2; } .ColorScheme-ButtonBackground { color:#333333; }</style>
 </defs>
 <g id="8-8-window-pin" transform="translate(31,-30)">
  <rect class="ColorScheme-Text" x="-46" y="44" width="8" height="8" fill-opacity="0"/>
  <path class="ColorScheme-Text" d="m-41 44c-0.38925 0.38925-0.46835 1.0843-0.01563 1.8438l-2.125 1.4219c-0.2642-0.1066-0.5478-0.18609-0.82812-0.1875-0.36438-0.00185-0.71874 0.10938-1.0312 0.42188l1.5 1.5-2 2-0.5 1 1-0.5 2-2 1.5 1.5c0.55348-0.55348 0.48237-1.2539 0.23438-1.8594l1.4219-2.125c0.75941 0.45273 1.4545 0.37363 1.8438-0.015625z" fill="currentColor"/>
 </g>
 <g id="8-8-window-unpin" transform="translate(31,-30)">
  <path class="ColorScheme-Highlight" d="m-61 44c-0.38925 0.38925-0.46835 1.0843-0.01563 1.8438l-2.125 1.4219c-0.2642-0.1066-0.5478-0.18609-0.82812-0.1875-0.36438-0.00185-0.71874 0.10938-1.0312 0.42188l1.5 1.5-2 2-0.5 1 1-0.5 2-2 1.5 1.5c0.55348-0.55348 0.48237-1.2539 0.23438-1.8594l1.4219-2.125c0.75941 0.45273 1.4545 0.37363 1.8438-0.015625z" fill="currentColor"/>
  <rect class="ColorScheme-Text" x="-66" y="44" width="8" height="8" fill-opacity="0"/>
 </g>
 <g id="window-close">
  <rect class="ColorScheme-Text" width="22" height="22" fill-opacity="0"/>
  <g transform="translate(-262 -178)">
   <path class="ColorScheme-Text" d="m270 185a1 1 0 0 0-1 1 1 1 0 0 0 0.29297 0.70703l2.293 2.293-2.293 2.293a1 1 0 0 0-0.29297 0.70703 1 1 0 0 0 1 1 1 1 0 0 0 0.70703-0.29297l2.293-2.293 2.2832 2.2832a1 1 0 0 0 0.7168 0.30273 1 1 0 0 0 1-1 1 1 0 0 0-0.29297-0.70703l-2.293-2.293 2.2832-2.2832a1 1 0 0 0 0.30273-0.7168 1 1 0 0 0-1-1 1 1 0 0 0-0.70703 0.29297l-2.293 2.293-2.2832-2.2832a1 1 0 0 0-0.01-0.01 1 1 0 0 0-0.707-0.29273z" fill="currentColor"/>
   <rect x="265" y="181" width="16" height="16" fill="none"/>
  </g>
 </g>
 <g id="16-16-window-close" transform="translate(-235.8 -177.81)" enable-background="new">
  <path class="ColorScheme-Text" d="m270 185a1 1 0 0 0-1 1 1 1 0 0 0 0.29297 0.70703l2.293 2.293-2.293 2.293a1 1 0 0 0-0.29297 0.70703 1 1 0 0 0 1 1 1 1 0 0 0 0.70703-0.29297l2.293-2.293 2.2832 2.2832a1 1 0 0 0 0.7168 0.30273 1 1 0 0 0 1-1 1 1 0 0 0-0.29297-0.70703l-2.293-2.293 2.2832-2.2832a1 1 0 0 0 0.30273-0.7168 1 1 0 0 0-1-1 1 1 0 0 0-0.70703 0.29297l-2.293 2.293-2.2832-2.2832a1 1 0 0 0-0.01-0.01 1 1 0 0 0-0.707-0.29273z" fill="currentColor"/>
  <rect x="265" y="181" width="16" height="16" fill="none"/>
 </g>
 <g id="16-16-window-pin">
  <rect x="-17" y="27" width="16" height="16" rx="0" ry="0" fill="none" stroke-width="1.1429"/>
  <path class="ColorScheme-Text" d="m-7.5 29c-0.58388 0.58388-0.70253 1.6265-0.023445 2.7656l-3.1875 2.1328c-0.3963-0.1599-0.8217-0.27914-1.2422-0.28125-0.54656-0.002775-1.0781 0.16406-1.5469 0.63281l2.25 2.25-3 3-0.75 1.5 1.5-0.75 3-3 2.25 2.25c0.83022-0.83022 0.72356-1.8808 0.35156-2.7891l2.1328-3.1875c1.1391 0.67909 2.1817 0.56044 2.7656-0.023437z" fill="currentColor"/>
 </g>
 <g id="16-16-window-unpin">
  <rect x="-39" y="27" width="16" height="16" rx="0" ry="0" fill="none" stroke-width="1.1429"/>
  <path class="ColorScheme-Highlight" d="m-29.5 29c-0.58388 0.58388-0.70253 1.6265-0.02344 2.7656l-3.1875 2.1328c-0.3963-0.1599-0.8217-0.27914-1.2422-0.28125-0.54657-0.0028-1.0781 0.16406-1.5469 0.63281l2.25 2.25-3 3-0.75 1.5 1.5-0.75 3-3 2.25 2.25c0.83022-0.83022 0.72356-1.8808 0.35156-2.7891l2.1328-3.1875c1.1391 0.67909 2.1817 0.56044 2.7656-0.02344z" fill="currentColor" stroke-width="1.5"/>
 </g>
 <g id="window-pin" transform="translate(0 -3.0547)">
  <rect x="-10" y="50.289" width="22" height="22" rx="0" ry="0" fill="none" stroke-width="1.5714"/>
  <path class="ColorScheme-Text" d="m2.5 55.289c-0.58388 0.58388-0.70253 1.6265-0.023445 2.7656l-3.1875 2.1328c-0.3963-0.15991-0.8217-0.27914-1.2422-0.28125-0.54656-0.002801-1.0781 0.16406-1.5469 0.63281l2.25 2.25-3 3-0.75 1.5 1.5-0.75 3-3 2.25 2.25c0.83022-0.83022 0.72356-1.8808 0.35156-2.7891l2.1328-3.1875c1.1391 0.67909 2.1817 0.56044 2.7656-0.023441z" fill="currentColor" stroke-width="1.5"/>
 </g>
 <g id="window-unpin" transform="translate(0 -3.0547)">
  <rect x="-39" y="50.289" width="22" height="22" rx="0" ry="0" fill="none" stroke-width="1.5714"/>
  <path class="ColorScheme-Highlight" d="m-26.5 55.289c-0.58388 0.58388-0.70253 1.6265-0.02344 2.7656l-3.1875 2.1328c-0.3963-0.15991-0.8217-0.27914-1.2422-0.28125-0.54657-0.0028-1.0781 0.16406-1.5469 0.63281l2.25 2.25-3 3-0.75 1.5 1.5-0.75 3-3 2.25 2.25c0.83022-0.83022 0.72356-1.8808 0.35156-2.7891l2.1328-3.1875c1.1391 0.67909 2.1817 0.56044 2.7656-0.02344z" fill="currentColor" stroke-width="1.5"/>
 </g>
</svg>
