<svg width="32" height="32" version="1.1" viewBox="0 0 32 32" xmlns="http://www.w3.org/2000/svg">
 <defs>
  <style id="current-color-scheme" type="text/css">.ColorScheme-Text { color:#333333; } .ColorScheme-Highlight { color:#5294e2; }</style>
  <style type="text/css"/>
 </defs>
 <g id="applications-other">
  <rect x="-2.7563e-7" y="-1.2834e-9" width="32" height="32" rx="0" ry="0" opacity="0"/>
  <path class="ColorScheme-Text" d="m11 7c2.1973-1e-7 4 1.8027 4 4v2.4414c0 0.845-0.71359 1.5586-1.5586 1.5586h-2.4414c-2.1973 0-4-1.8027-4-4-1e-7 -2.1973 1.8027-4 4-4zm10 0c2.1973-1e-7 4 1.8027 4 4s-1.8027 4-4 4h-2.4414c-0.845 0-1.5586-0.71359-1.5586-1.5586v-2.4414c0-2.1973 1.8027-4 4-4zm-10 1c-1.6569 0-3 1.3431-3 3s1.3431 3 3 3h2.4414c0.30986 0 0.55859-0.24873 0.55859-0.55859v-2.4414c0-1.6569-1.3431-3-3-3zm10 0c-1.6569 0-3 1.3431-3 3v2.4414c0 0.30986 0.24873 0.55859 0.55859 0.55859h2.4414c1.6569 0 3-1.3431 3-3s-1.3431-3-3-3zm-10 9h2.4414c0.845 0 1.5586 0.71359 1.5586 1.5586v2.4414c0 2.1973-1.8027 4-4 4s-4-1.8027-4-4c-1e-7 -2.1973 1.8027-4 4-4zm7.5586 0h2.4414c2.1973 0 4 1.8027 4 4s-1.8027 4-4 4-4-1.8027-4-4v-2.4414c0-0.845 0.71359-1.5586 1.5586-1.5586zm-7.5586 1c-1.6569 0-3 1.3431-3 3s1.3431 3 3 3 3-1.3431 3-3v-2.4414c0-0.30986-0.24873-0.55859-0.55859-0.55859zm7.5586 0c-0.30986 0-0.55859 0.24873-0.55859 0.55859v2.4414c0 1.6569 1.3431 3 3 3s3-1.3431 3-3-1.3431-3-3-3z" fill="currentColor"/>
  <path class="ColorScheme-Text" d="m16 1a15 15 0 0 0-15 15 15 15 0 0 0 15 15 15 15 0 0 0 15-15 15 15 0 0 0-15-15zm0 1a14 14 0 0 1 14 14 14 14 0 0 1-14 14 14 14 0 0 1-14-14 14 14 0 0 1 14-14z" fill="currentColor"/>
 </g>
 <g id="22-22-applications-other">
  <rect x="-29" y="6" width="22" height="22" rx="0" ry="0" opacity="0"/>
  <g transform="translate(-26,10)" class="ColorScheme-Text" fill="currentColor">
   <path d="m1 0c-0.554 0-1 0.446-1 1v5c0 0.554 0.446 1 1 1h5c0.554 0 1-0.446 1-1v-5c0-0.554-0.446-1-1-1z" style="paint-order:stroke fill markers"/>
   <path d="m9 0c-0.554 0-1 0.446-1 1v5c0 0.554 0.446 1 1 1h5c0.554 0 1-0.446 1-1v-5c0-0.554-0.446-1-1-1zm1 2h3v3h-3zm-9 6c-0.554 0-1 0.446-1 1v5c0 0.554 0.446 1 1 1h5c0.554 0 1-0.446 1-1v-5c0-0.554-0.446-1-1-1zm8 0c-0.554 0-1 0.446-1 1v5c0 0.554 0.446 1 1 1h5c0.554 0 1-0.446 1-1v-5c0-0.554-0.446-1-1-1zm-7 2h3v3h-3zm8 0h3v3h-3z" opacity=".5"/>
  </g>
 </g>
</svg>
