<?xml version="1.0" encoding="UTF-8"?>
<svg width="32" height="32" version="1.1" xmlns="http://www.w3.org/2000/svg" xmlns:cc="http://creativecommons.org/ns#" xmlns:dc="http://purl.org/dc/elements/1.1/" xmlns:rdf="http://www.w3.org/1999/02/22-rdf-syntax-ns#">
 <metadata>
  <rdf:RDF>
   <cc:Work rdf:about="">
    <dc:format>image/svg+xml</dc:format>
    <dc:type rdf:resource="http://purl.org/dc/dcmitype/StillImage"/>
    <dc:title/>
   </cc:Work>
  </rdf:RDF>
 </metadata>
 <defs>
  <style id="current-color-scheme" type="text/css">.ColorScheme-Text { color:#333333; } .ColorScheme-Highlight { color:#5294e2; }</style>
  <style type="text/css"/>
 </defs>
 <g id="bookmarks">
  <rect x="4.2725e-7" y="1.5507e-8" width="32" height="32" rx="0" ry="0" opacity="0"/>
  <path class="ColorScheme-Text" d="m16.027 7.125c2e-3 -5.7e-6 0.0039-5.7e-6 0.0059 0 0.03335 0.00159 0.06659 0.00485 0.09961 0.00977 0.63757 0.090209 1.2008 0.46569 1.5293 1.0195l-0.02344-0.039062 2.2441 3.418 3.4336 0.92383c0.02838 0.0079 0.05641 0.017 0.08398 0.02734 0.61231 0.22403 1.2188 0.60583 1.4277 1.3223 0.0028 0.0097 0.0054 0.01949 0.0078 0.0293 0.1955 0.75542-0.0085 1.5625-0.53906 2.1348l0.06836-0.08203-2.4277 3.252 0.20508 3.6309c0.0022 0.03185 0.0028 0.06379 2e-3 0.0957-0.02902 0.72541-0.24922 1.3379-0.69922 1.7129-0.45 0.37505-0.99836 0.37305-1.0996 0.37305-0.0091 1.24e-4 -0.01823 1.24e-4 -0.02734 0-0.27176-0.0073-0.53931-0.05583-0.79688-0.14258-0.01048-0.0037-0.0209-0.0076-0.03125-0.01172l-3.7285-1.3926-3.25 1.3262c-0.02311 0.0093-0.04657 0.01781-0.07031 0.02539-0.46431 0.15022-0.84926 0.21719-1.2266 0.18945s-0.7796-0.17224-1.0527-0.5c-0.03651-0.044-0.06918-0.09104-0.09766-0.14062-0.28962-0.50113-0.3875-1.0836-0.30273-1.6523l0.11328-4.1328-2.2559-2.8203c-0.00196-0.0019-0.00391-0.0039-0.00586-0.0059-0.42578-0.54141-0.60136-1.2398-0.48047-1.918 0.018611-0.10167 0.052871-0.19984 0.10156-0.29102 0.30908-0.58626 0.87558-0.99639 1.5293-1.1055l-0.13086 0.03125 3.8047-1.1719 1.8945-3.0566-0.0332 0.060547c0.30908-0.58627 0.87559-0.99638 1.5293-1.1055 0.06578-0.011192 0.13252-0.015772 0.19922-0.013672zm-0.03516 1c-0.34652 0.057823-0.64476 0.27322-0.80859 0.58398l-2.0938 3.375-4.1621 1.2832c-0.34651 0.05782-0.64671 0.27322-0.81055 0.58398-0.070937 0.39792 0.031399 0.80727 0.28125 1.125l2.4863 3.1055-0.12305 4.5c-0.08811 0.38282-0.02858 0.78488 0.16797 1.125 0.11249 0.13499 0.44012 0.24749 1.2051 0l3.6113-1.4746 4.0938 1.5312c0.16332 0.05501 0.33358 0.08519 0.50586 0.08984 0.20249 0 0.75383-7e-5 0.79883-1.125l-0.22461-3.9824 0.12305-0.17969 2.5215-3.375c0.29971-0.32327 0.41318-0.77636 0.30274-1.2031-0.07875-0.26999-0.34932-0.49531-0.81055-0.66406l-3.8008-1.0234-2.4531-3.7363c-0.1741-0.29353-0.47263-0.49125-0.81055-0.53906z" fill="currentColor"/>
  <path class="ColorScheme-Text" d="m16 1a15 15 0 0 0-15 15 15 15 0 0 0 15 15 15 15 0 0 0 15-15 15 15 0 0 0-15-15zm0 1a14 14 0 0 1 14 14 14 14 0 0 1-14 14 14 14 0 0 1-14-14 14 14 0 0 1 14-14z" fill="currentColor"/>
 </g>
 <g id="22-22-bookmarks">
  <rect x="-38.021" y="3.5239" width="22" height="22" opacity="0" stroke-width="1.6305"/>
  <circle cx="-27.021" cy="14.524" r="10" fill="#f55" stroke-linecap="round" stroke-linejoin="round" stroke-width="1.5188"/>
  <path class="ColorScheme-Text" d="m-27.029 8.36c-0.26296 0.043838-0.48927 0.20714-0.6136 0.44274l-1.5889 2.5587-3.1584 0.97285c-0.26295 0.04384-0.49075 0.20714-0.61508 0.44274-0.05383 0.30168 0.02383 0.61203 0.21342 0.85291l1.8867 2.3544-0.09338 3.4117c-0.06686 0.29023-0.02169 0.59505 0.12746 0.85291 0.08536 0.10234 0.33398 0.18763 0.91448 0l2.7404-1.118 3.1066 1.1609c0.12394 0.0417 0.25314 0.06459 0.38387 0.06812 0.15366 0 0.57204-5.3e-5 0.60619-0.85291l-0.17044-3.0192 0.09338-0.13623 1.9134-2.5587c0.22743-0.24509 0.31354-0.58859 0.22973-0.91212-0.05976-0.20469-0.26508-0.37552-0.61508-0.50345l-2.8842-0.77589-1.8615-2.8327c-0.13212-0.22255-0.35865-0.37245-0.61508-0.40869z" fill="#fff" stroke-width=".7585"/>
 </g>
 <g id="16-16-bookmarks" transform="matrix(.72727 0 0 .72727 -9.348 38.437)">
  <rect x="-38.021" y="3.5239" width="22" height="22" opacity="0" stroke-width="1.6305"/>
  <circle cx="-27.021" cy="14.524" r="11" fill="#f55" stroke-linecap="round" stroke-linejoin="round" stroke-width="1.6707"/>
  <path class="ColorScheme-Text" d="m-27.032 5.8006c-0.36156 0.060277-0.67275 0.28482-0.84369 0.60877l-2.1847 3.5183-4.3428 1.3377c-0.36155 0.06028-0.67478 0.28482-0.84574 0.60877-0.07402 0.41481 0.03277 0.84154 0.29346 1.1728l2.5942 3.2373-0.1284 4.691c-0.09193 0.39907-0.02982 0.8182 0.17526 1.1728 0.11737 0.14072 0.45923 0.258 1.2574 0l3.7681-1.5372 4.2715 1.5962c0.17041 0.05734 0.34806 0.08881 0.52782 0.09367 0.21128 0 0.78656-7.3e-5 0.83351-1.1728l-0.23436-4.1514 0.1284-0.18732 2.631-3.5183c0.31272-0.33699 0.43112-0.80932 0.31588-1.2542-0.08217-0.28145-0.36448-0.51634-0.84574-0.69225l-3.9658-1.0668-2.5596-3.8949c-0.18166-0.306-0.49315-0.51211-0.84574-0.56195z" fill="#fff" stroke-width="1.0429"/>
 </g>
</svg>
