<svg width="32" height="32" version="1.1" xmlns="http://www.w3.org/2000/svg">
 <defs>
  <style id="current-color-scheme" type="text/css">.ColorScheme-Text { color:#333333; } .ColorScheme-Highlight { color:#5294e2; }</style>
  <style type="text/css"/>
 </defs>
 <g id="bookmarks">
  <rect x="4.2725e-7" y="1.5507e-8" width="32" height="32" rx="0" ry="0" opacity="0"/>
  <path class="ColorScheme-Text" fill="currentColor" d="m16.027 7.125c2e-3 -5.7e-6 0.0039-5.7e-6 0.0059 0 0.03335 0.00159 0.06659 0.00485 0.09961 0.00977 0.63757 0.090209 1.2008 0.46569 1.5293 1.0195l-0.02344-0.039062 2.2441 3.418 3.4336 0.92383c0.02838 0.0079 0.05641 0.017 0.08398 0.02734 0.61231 0.22403 1.2188 0.60583 1.4277 1.3223 0.0028 0.0097 0.0054 0.01949 0.0078 0.0293 0.1955 0.75542-0.0085 1.5625-0.53906 2.1348l0.06836-0.08203-2.4277 3.252 0.20508 3.6309c0.0022 0.03185 0.0028 0.06379 2e-3 0.0957-0.02902 0.72541-0.24922 1.3379-0.69922 1.7129-0.45 0.37505-0.99836 0.37305-1.0996 0.37305-0.0091 1.24e-4 -0.01823 1.24e-4 -0.02734 0-0.27176-0.0073-0.53931-0.05583-0.79688-0.14258-0.01048-0.0037-0.0209-0.0076-0.03125-0.01172l-3.7285-1.3926-3.25 1.3262c-0.02311 0.0093-0.04657 0.01781-0.07031 0.02539-0.46431 0.15022-0.84926 0.21719-1.2266 0.18945s-0.7796-0.17224-1.0527-0.5c-0.03651-0.044-0.06918-0.09104-0.09766-0.14062-0.28962-0.50113-0.3875-1.0836-0.30273-1.6523l0.11328-4.1328-2.2559-2.8203c-0.00196-0.0019-0.00391-0.0039-0.00586-0.0059-0.42578-0.54141-0.60136-1.2398-0.48047-1.918 0.018611-0.10167 0.052871-0.19984 0.10156-0.29102 0.30908-0.58626 0.87558-0.99639 1.5293-1.1055l-0.13086 0.03125 3.8047-1.1719 1.8945-3.0566-0.0332 0.060547c0.30908-0.58627 0.87559-0.99638 1.5293-1.1055 0.06578-0.011192 0.13252-0.015772 0.19922-0.013672zm-0.03516 1c-0.34652 0.057823-0.64476 0.27322-0.80859 0.58398l-2.0938 3.375-4.1621 1.2832c-0.34651 0.05782-0.64671 0.27322-0.81055 0.58398-0.070937 0.39792 0.031399 0.80727 0.28125 1.125l2.4863 3.1055-0.12305 4.5c-0.08811 0.38282-0.02858 0.78488 0.16797 1.125 0.11249 0.13499 0.44012 0.24749 1.2051 0l3.6113-1.4746 4.0938 1.5312c0.16332 0.05501 0.33358 0.08519 0.50586 0.08984 0.20249 0 0.75383-7e-5 0.79883-1.125l-0.22461-3.9824 0.12305-0.17969 2.5215-3.375c0.29971-0.32327 0.41318-0.77636 0.30274-1.2031-0.07875-0.26999-0.34932-0.49531-0.81055-0.66406l-3.8008-1.0234-2.4531-3.7363c-0.1741-0.29353-0.47263-0.49125-0.81055-0.53906z"/>
  <path d="m16 1a15 15 0 0 0-15 15 15 15 0 0 0 15 15 15 15 0 0 0 15-15 15 15 0 0 0-15-15zm0 1a14 14 0 0 1 14 14 14 14 0 0 1-14 14 14 14 0 0 1-14-14 14 14 0 0 1 14-14z" class="ColorScheme-Text" fill="currentColor"/>
 </g>
</svg>
