<?xml version="1.0" encoding="UTF-8"?>
<svg id="svg" version="1.1" viewBox="0 0 22 22" xmlns="http://www.w3.org/2000/svg" xmlns:cc="http://creativecommons.org/ns#" xmlns:dc="http://purl.org/dc/elements/1.1/" xmlns:rdf="http://www.w3.org/1999/02/22-rdf-syntax-ns#">
 <metadata>
  <rdf:RDF>
   <cc:Work rdf:about="">
    <dc:format>image/svg+xml</dc:format>
    <dc:type rdf:resource="http://purl.org/dc/dcmitype/StillImage"/>
    <dc:title/>
   </cc:Work>
  </rdf:RDF>
 </metadata>
 <defs>
  <style id="current-color-scheme" type="text/css">.ColorScheme-Text { color:#333333; } .ColorScheme-Highlight { color:#5294e2; } .ColorScheme-ButtonBackground { color:#333333; }</style>
 </defs>
 <rect width="22" height="22" rx="0" ry="0" fill="#eff0f1" fill-opacity=".0039216" opacity=".01"/>
 <g id="input-mouse-battery" transform="translate(28)">
  <rect width="22" height="22" opacity="0"/>
  <path class="ColorScheme-Text" d="m10 3c-2.8108 0.25154-5 2.6018-5 5.4844v0.5h5v-5.9844zm1 0v5.9844h5v-0.5c0-2.8825-2.1892-5.2328-5-5.4844zm-6 6.9863v3.5059c0 3.0515 2.453 5.5078 5.5 5.5078 3.047 0 5.5-2.4563 5.5-5.5078v-3.5059h-5-1-5zm6 1.0137v3h2l-3 4v-3h-2l3-4z" enable-background="new" fill="currentColor"/>
 </g>
 <g id="22-22-input-keyboard-battery">
  <rect width="22" height="22" opacity="0"/>
  <path class="ColorScheme-Text" d="m5 5c-1.108 0-2 0.892-2 2v8c0 1.108 0.892 2 2 2h12c1.108 0 2-0.892 2-2v-8c0-1.108-0.892-2-2-2h-12zm-1 2h2v2h-2v-2zm3 0h2v2h-2v-2zm3 0h2v2h-2v-2zm3 0h2v2h-2v-2zm3 0h2v2h-2v3h2l-3 4v-3h-2l3-4v-2zm-12 3h2v2h-2v-2zm3 0h2v2h-2v-2zm3 0h2v2h-2v-2zm-5 3h7v2h-7v-2z" fill="currentColor"/>
 </g>
 <g id="22-22-input-keyboard-brightness" transform="translate(-28)">
  <rect width="22" height="22" opacity="0"/>
  <path class="ColorScheme-Text" d="m5 5c-1.108 0-2 0.892-2 2v8c0 1.108 0.892 2 2 2h12c1.108 0 2-0.892 2-2v-8c0-1.108-0.892-2-2-2zm-1 2h2v2h-2zm3 0h2v2h-2zm3 0h2v2h-2zm3 0h2v2h-2zm3 0h2v2h-2zm-12 3h2v2h-2zm3 0h2v2h-2zm3 0h2v2h-2zm5.5 0c1.3807 0 2.5 1.1193 2.5 2.5s-1.1193 2.5-2.5 2.5-2.5-1.1193-2.5-2.5 1.1193-2.5 2.5-2.5zm-0.5 1v3c0.82843 0 2 0 2-1.5s-1.1716-1.5-2-1.5zm-10 2h7v2h-7z" fill="currentColor"/>
 </g>
 <g id="input-keyboard-brightness">
  <rect x="-28" y="-39" width="32" height="32" opacity="0"/>
  <path class="ColorScheme-Text" d="m-12.5-35v1.041a3 3 0 0 0-1.2344 0.51758l-0.74023-0.74024-0.70703 0.70703 0.73828 0.73828a3 3 0 0 0-0.50977 1.2363h-1.0469v1h1.041a3 3 0 0 0 0.51758 1.2344l-0.74024 0.74023 0.70703 0.70703 0.73828-0.73828a3 3 0 0 0 1.2363 0.50977v1.0469h-8.5c-1.662 0-3 1.1887-3 2.666v10.668c0 1.4773 1.338 2.666 3 2.666h18c1.662 0 3-1.1887 3-2.666v-10.668c0-1.4773-1.338-2.666-3-2.666h-8.5v-1.041a3 3 0 0 0 1.2344-0.51758l0.74023 0.74024 0.70703-0.70703-0.73828-0.73828a3 3 0 0 0 0.50977-1.2363h1.0469v-1h-1.041a3 3 0 0 0-0.51758-1.2344l0.74023-0.74023-0.70703-0.70703-0.73828 0.73828a3 3 0 0 0-1.2363-0.50977v-1.0469h-1zm-9.5 11h2v2h-2v-2zm3 0h2v2h-2v-2zm3 0h2v2h-2v-2zm3 0h2v2h-2v-2zm3 0h2v2h-2v-2zm3 0h2v2h-2v-2zm3 0h2v2h-2v-2zm-18 3h2v2h-2v-2zm3 0h2v2h-2v-2zm3 0h2v2h-2v-2zm3 0h2v2h-2v-2zm3 0h2v2h-2v-2zm3 0h2v2h-2v-2zm3 0h2v2h-2v-2zm-18 3h2v2h-2v-2zm4 0h12v2h-12v-2zm14 0h2v2h-2v-2z" fill="currentColor"/>
 </g>
 <g id="input-keyboard-battery">
  <rect x="7" y="-39" width="32" height="32" opacity="0"/>
  <path class="ColorScheme-Text" d="m24-35-4 5h2v3l4-5h-2v-3zm-2 8h-8c-1.662 0-3 1.1887-3 2.666v10.668c0 1.4773 1.338 2.666 3 2.666h18c1.662 0 3-1.1887 3-2.666v-10.668c0-1.4773-1.338-2.666-3-2.666h-10zm-9 3h2v2h-2v-2zm3 0h2v2h-2v-2zm3 0h2v2h-2v-2zm3 0h2v2h-2v-2zm3 0h2v2h-2v-2zm3 0h2v2h-2v-2zm3 0h2v2h-2v-2zm-18 3h2v2h-2v-2zm3 0h2v2h-2v-2zm3 0h2v2h-2v-2zm3 0h2v2h-2v-2zm3 0h2v2h-2v-2zm3 0h2v2h-2v-2zm3 0h2v2h-2v-2zm-18 3h2v2h-2v-2zm4 0h12v2h-12v-2zm14 0h2v2h-2v-2z" fill="currentColor"/>
 </g>
 <g id="input-caps-on" transform="translate(-4.4746 24.144)">
  <rect width="22" height="22" opacity=".001"/>
  <g transform="matrix(.99992 0 0 1 .00056617 1.4288e-8)">
   <path class="ColorScheme-Text" d="m3.0004 16.203v0.547c0 1.212 1.0381 2.25 2.25 2.25h11.5c1.212 0 2.25-1.038 2.25-2.25v-0.547c-0.532 0.485-1.225 0.797-2 0.797h-12c-0.7746 0-1.4684-0.312-2-0.797zm8.0792-9.9061-1.0796 3.9921h2.1796zm-1.1808-1.2969h2.3146l2.91 9h-1.91l-0.609-2h-3.0767l-0.6171 2h-1.9102zm-3.8984-2c-1.0193-1.709e-4 -1.8757 0.76621-1.9883 1.7793l-1 8.9997c-0.13161 1.185 0.79606 2.2212 1.9883 2.221h12c1.1921 1.4e-5 2.1196-1.0362 1.988-2.221l-1-8.9997c-0.11256-1.013-0.96879-1.7793-1.988-1.7793z" fill="currentColor"/>
  </g>
 </g>
 <g id="22-22-input-keyboard" transform="matrix(3.7795 0 0 3.7795 -147.11 -144.19)">
  <rect x="31.485" y="53.848" width="5.8208" height="5.8208" opacity="0" stroke-width=".1791"/>
  <path transform="scale(.26458)" d="m123 207.52c-1.108 0-2 0.892-2 2v10c0 1.108 0.892 2 2 2h14c1.108 0 2-0.892 2-2v-10c0-1.108-0.892-2-2-2zm1 2c0.554 0 1 0.446 1 1s-0.446 1-1 1-1-0.446-1-1 0.446-1 1-1zm3 0c0.554 0 1 0.446 1 1s-0.446 1-1 1-1-0.446-1-1 0.446-1 1-1zm3 0c0.554 0 1 0.446 1 1s-0.446 1-1 1-1-0.446-1-1 0.446-1 1-1zm3 0c0.554 0 1 0.446 1 1s-0.446 1-1 1-1-0.446-1-1 0.446-1 1-1zm3 0c0.554 0 1 0.446 1 1s-0.446 1-1 1-1-0.446-1-1 0.446-1 1-1zm-12 3c0.554 0 1 0.446 1 1s-0.446 1-1 1-1-0.446-1-1 0.446-1 1-1zm3 0c0.554 0 1 0.446 1 1s-0.446 1-1 1-1-0.446-1-1 0.446-1 1-1zm3 0c0.554 0 1 0.446 1 1s-0.446 1-1 1-1-0.446-1-1 0.446-1 1-1zm3 0c0.554 0 1 0.446 1 1s-0.446 1-1 1-1-0.446-1-1 0.446-1 1-1zm3 0c0.554 0 1 0.446 1 1s-0.446 1-1 1-1-0.446-1-1 0.446-1 1-1zm-10 4h8c0.554 0 1 0.446 1 1s-0.446 1-1 1h-8c-0.554 0-1-0.446-1-1s0.446-1 1-1z" fill="#333"/>
 </g>
 <g id="input-keyboard" transform="translate(-28.114 59.328)" stroke-linecap="round" stroke-linejoin="round">
  <rect x="30" y="-5" width="32" height="32" fill="none" stroke-width="1.8286"/>
  <path d="m34 3c-1.108 0-2 0.892-2 2v12c0 1.108 0.892 2 2 2h24c1.108 0 2-0.892 2-2v-12c0-1.108-0.892-2-2-2zm1.4785 3h1.043c0.2649 0 0.47852 0.21361 0.47852 0.47852v1.043c0 0.2649-0.21361 0.47852-0.47852 0.47852h-1.043c-0.2649 0-0.47852-0.21361-0.47852-0.47852v-1.043c0-0.2649 0.21361-0.47852 0.47852-0.47852zm4 0h1.043c0.2649 0 0.47852 0.21361 0.47852 0.47852v1.043c0 0.2649-0.21361 0.47852-0.47852 0.47852h-1.043c-0.2649 0-0.47852-0.21361-0.47852-0.47852v-1.043c0-0.2649 0.21361-0.47852 0.47852-0.47852zm4 0h1.043c0.2649 0 0.47852 0.21361 0.47852 0.47852v1.043c0 0.2649-0.21361 0.47852-0.47852 0.47852h-1.043c-0.2649 0-0.47852-0.21361-0.47852-0.47852v-1.043c0-0.2649 0.21361-0.47852 0.47852-0.47852zm4 0h1.043c0.2649 0 0.47852 0.21361 0.47852 0.47852v1.043c0 0.2649-0.21361 0.47852-0.47852 0.47852h-1.043c-0.2649 0-0.47852-0.21361-0.47852-0.47852v-1.043c0-0.2649 0.21361-0.47852 0.47852-0.47852zm4 0h1.043c0.2649 0 0.47852 0.21361 0.47852 0.47852v1.043c0 0.2649-0.21361 0.47852-0.47852 0.47852h-1.043c-0.2649 0-0.47852-0.21361-0.47852-0.47852v-1.043c0-0.2649 0.21361-0.47852 0.47852-0.47852zm4 0h1.043c0.2649 0 0.47852 0.21361 0.47852 0.47852v1.043c0 0.2649-0.21361 0.47852-0.47852 0.47852h-1.043c-0.2649 0-0.47852-0.21361-0.47852-0.47852v-1.043c0-0.2649 0.21361-0.47852 0.47852-0.47852zm-20 4h1.043c0.2649 0 0.47852 0.21361 0.47852 0.47852v1.043c0 0.2649-0.21361 0.47852-0.47852 0.47852h-1.043c-0.2649 0-0.47852-0.21361-0.47852-0.47852v-1.043c0-0.2649 0.21361-0.47852 0.47852-0.47852zm4 0h1.043c0.2649 0 0.47852 0.21361 0.47852 0.47852v1.043c0 0.2649-0.21361 0.47852-0.47852 0.47852h-1.043c-0.2649 0-0.47852-0.21361-0.47852-0.47852v-1.043c0-0.2649 0.21361-0.47852 0.47852-0.47852zm4 0h1.043c0.2649 0 0.47852 0.21361 0.47852 0.47852v1.043c0 0.2649-0.21361 0.47852-0.47852 0.47852h-1.043c-0.2649 0-0.47852-0.21361-0.47852-0.47852v-1.043c0-0.2649 0.21361-0.47852 0.47852-0.47852zm4 0h1.043c0.2649 0 0.47852 0.21361 0.47852 0.47852v1.043c0 0.2649-0.21361 0.47852-0.47852 0.47852h-1.043c-0.2649 0-0.47852-0.21361-0.47852-0.47852v-1.043c0-0.2649 0.21361-0.47852 0.47852-0.47852zm4 0h1.043c0.2649 0 0.47852 0.21361 0.47852 0.47852v1.043c0 0.2649-0.21361 0.47852-0.47852 0.47852h-1.043c-0.2649 0-0.47852-0.21361-0.47852-0.47852v-1.043c0-0.2649 0.21361-0.47852 0.47852-0.47852zm4 0h1.043c0.2649 0 0.47852 0.21361 0.47852 0.47852v1.043c0 0.2649-0.21361 0.47852-0.47852 0.47852h-1.043c-0.2649 0-0.47852-0.21361-0.47852-0.47852v-1.043c0-0.2649 0.21361-0.47852 0.47852-0.47852zm-17.861 4h16.766c0.34208 0 0.61719 0.27511 0.61719 0.61719v0.76562c0 0.34208-0.27511 0.61719-0.61719 0.61719h-16.766c-0.34208 0-0.61719-0.27511-0.61719-0.61719v-0.76562c0-0.34208 0.27511-0.61719 0.61719-0.61719z" fill="#333" stroke-width="2.1112"/>
 </g>
</svg>
