<?xml version="1.0" encoding="UTF-8"?>
<svg version="1.1" viewBox="0 0 22 22" xmlns="http://www.w3.org/2000/svg" xmlns:cc="http://creativecommons.org/ns#" xmlns:dc="http://purl.org/dc/elements/1.1/" xmlns:rdf="http://www.w3.org/1999/02/22-rdf-syntax-ns#">
 <metadata>
  <rdf:RDF>
   <cc:Work rdf:about="">
    <dc:format>image/svg+xml</dc:format>
    <dc:type rdf:resource="http://purl.org/dc/dcmitype/StillImage"/>
    <dc:title/>
   </cc:Work>
  </rdf:RDF>
 </metadata>
 <defs>
  <style id="current-color-scheme" type="text/css">.ColorScheme-Text {
        color:#333333;
      }</style>
 </defs>
 <g id="22-22-kup">
  <path d="m6 2c-1.108 0-2 0.892-2 2v14c0 1.108 0.892 2 2 2h10c1.108 0 2-0.892 2-2v-14c0-1.108-0.892-2-2-2h-10zm0 2h1v2h-1v-2zm2 0h1v2h-1v-2zm2 0h1v2h-1v-2zm2 0h1v2h-1v-2zm2 1h1v1h-1v-1zm-3 2a5 5 0 0 1 5 5 5 5 0 0 1-5 5 5 5 0 0 1-5-5 5 5 0 0 1 5-5zm-0.5 1c-0.277 0-0.5 0.223-0.5 0.5v4c0 0.277 0.223 0.5 0.5 0.5h3c0.277 0 0.5-0.223 0.5-0.5s-0.223-0.5-0.5-0.5h-2.5v-3.5c0-0.277-0.223-0.5-0.5-0.5zm5.5 9a1 1 0 0 1 1 1 1 1 0 0 1-1 1 1 1 0 0 1-1-1 1 1 0 0 1 1-1z" fill="#333"/>
  <path d="m0 0h22v22h-22z" opacity="0"/>
 </g>
 <g id="kup">
  <path d="m30-2h32v32h-32z" opacity="0" stroke-width="1.4546"/>
  <path d="m38 0c-1.662 0-3 1.338-3 3v22c0 1.662 1.338 3 3 3h16c1.662 0 3-1.338 3-3v-22c0-1.662-1.338-3-3-3zm0 3h1v3h-1zm2 0h1v3h-1zm2 0h1v3h-1zm2 0h1v3h-1zm2 0h1v3h-1zm3 1h1v2h-1zm-3 5a8 8 0 0 1 8 8 8 8 0 0 1-8 8 8 8 0 0 1-8-8 8 8 0 0 1 8-8zm8 15a1 1 0 0 1 1 1 1 1 0 0 1-1 1 1 1 0 0 1-1-1 1 1 0 0 1 1-1z" fill="#333" stroke-linecap="square" stroke-linejoin="round" stroke-width="2"/>
  <path d="m45 12c-0.554 0-1 0.446-1 1v5c0 0.554 0.446 1 1 1h4c0.554 0 1-0.446 1-1s-0.446-1-1-1h-3v-4c0-0.554-0.446-1-1-1z" fill="#333" stroke-linecap="square" stroke-linejoin="round" stroke-width="2"/>
 </g>
</svg>
