<?xml version="1.0" encoding="UTF-8" standalone="no"?>
<svg
   width="173"
   height="56"
   version="1.1"
   viewBox="0 0 173 56"
   id="svg87"
   sodipodi:docname="tooltip.svg"
   inkscape:version="1.1 (c4e8f9ed74, 2021-05-24)"
   xmlns:inkscape="http://www.inkscape.org/namespaces/inkscape"
   xmlns:sodipodi="http://sodipodi.sourceforge.net/DTD/sodipodi-0.dtd"
   xmlns:xlink="http://www.w3.org/1999/xlink"
   xmlns="http://www.w3.org/2000/svg"
   xmlns:svg="http://www.w3.org/2000/svg">
  <sodipodi:namedview
     id="namedview89"
     pagecolor="#ffffff"
     bordercolor="#666666"
     borderopacity="1.0"
     inkscape:pageshadow="2"
     inkscape:pageopacity="0.0"
     inkscape:pagecheckerboard="0"
     showgrid="true"
     inkscape:zoom="22.235034"
     inkscape:cx="142.18553"
     inkscape:cy="37.17107"
     inkscape:window-width="1920"
     inkscape:window-height="1004"
     inkscape:window-x="0"
     inkscape:window-y="0"
     inkscape:window-maximized="1"
     inkscape:current-layer="svg87">
    <inkscape:grid
       type="xygrid"
       id="grid935" />
  </sodipodi:namedview>
  <style
     id="current-color-scheme"
     type="text/css">.ColorScheme-Text {
        color:#31363b;
        stop-color:#31363b;
      }
      .ColorScheme-Background {
        color:#eff0f1;
        stop-color:#eff0f1;
      }
      .ColorScheme-Highlight {
        color:#3281ea;
        stop-color:#3281ea;
      }
      .ColorScheme-ViewText {
        color:#31363b;
        stop-color:#31363b;
      }
      .ColorScheme-ViewBackground {
        color:#fcfcfc;
        stop-color:#fcfcfc;
      }
      .ColorScheme-ViewHover {
        color:#93cee9;
        stop-color:#93cee9;
      }
      .ColorScheme-ViewFocus{
        color:#3281ea;
        stop-color:#3281ea;
      }
      .ColorScheme-ButtonText {
        color:#31363b;
        stop-color:#31363b;
      }
      .ColorScheme-ButtonBackground {
        color:#eff0f1;
        stop-color:#eff0f1;
      }
      .ColorScheme-ButtonHover {
        color:#93cee9;
        stop-color:#93cee9;
      }
      .ColorScheme-ButtonFocus{
        color:#3281ea;
        stop-color:#3281ea;
      }</style>
  <defs
     id="defs16">
    <style
       type="text/css"
       id="style3">.ColorScheme-Text {
        color:#31363b;
      }
      .ColorScheme-Background {
        color:#eff0f1;
      }
      .ColorScheme-Highlight {
        color:#3281ea;
      }
      .ColorScheme-ViewText {
        color:#31363b;
      }
      .ColorScheme-ViewBackground {
        color:#fcfcfc;
      }
      .ColorScheme-ViewHover {
        color:#93cee9;
      }
      .ColorScheme-ViewFocus{
        color:#3281ea;
      }
      .ColorScheme-ButtonText {
        color:#31363b;
      }
      .ColorScheme-ButtonBackground {
        color:#eff0f1;
      }
      .ColorScheme-ButtonHover {
        color:#93cee9;
      }
      .ColorScheme-ButtonFocus{
        color:#3281ea;
      }</style>
    <radialGradient
       id="radialGradient994"
       cx="78.509"
       cy="10"
       r="6"
       gradientTransform="matrix(1.1637e-7 -2.6667 2.6667 1.1637e-7 11.333 221.36)"
       gradientUnits="userSpaceOnUse"
       xlink:href="#linearGradient919" />
    <linearGradient
       id="linearGradient919">
      <stop
         stop-color="#000000"
         stop-opacity=".66663"
         offset="0"
         id="stop6" />
      <stop
         stop-color="#000000"
         stop-opacity=".15"
         offset=".5625"
         id="stop8" />
      <stop
         stop-color="#000000"
         stop-opacity="0"
         offset="1"
         id="stop10" />
    </linearGradient>
    <linearGradient
       id="linearGradient927"
       x1="-10"
       x2="-26"
       y1="946.86"
       y2="946.86"
       gradientTransform="matrix(1 0 0 .85714 0 135.77)"
       gradientUnits="userSpaceOnUse"
       xlink:href="#linearGradient919" />
    <linearGradient
       id="linearGradient942"
       x1="-10"
       x2="-26"
       y1="946.86"
       y2="946.86"
       gradientTransform="matrix(0 1 -.85714 0 804.6 954.36)"
       gradientUnits="userSpaceOnUse"
       xlink:href="#linearGradient919" />
    <linearGradient
       id="linearGradient4948"
       x1="-16"
       x2="-8"
       y1="932.36"
       y2="932.36"
       gradientUnits="userSpaceOnUse"
       xlink:href="#linearGradient919" />
  </defs>
  <g
     id="shadow-topleft"
     transform="translate(48 -932.36)"
     fill-rule="evenodd"
     opacity=".35">
    <path
       transform="translate(-48 932.36)"
       d="m20-6v18h12c0-3.324 2.676-6 6-6v-12z"
       fill="url(#radialGradient994)"
       opacity=".9"
       id="path18" />
    <path
       d="m-28 944.36v6l12 1e-5 -9e-6 -6z"
       fill="url(#linearGradient927)"
       opacity=".9"
       id="path20" />
    <path
       d="m-4 926.36h-6l-1e-5 12 6-1e-5z"
       fill="url(#linearGradient942)"
       opacity=".9"
       id="path22" />
  </g>
  <g
     id="shadow-left"
     transform="matrix(2 0 0 .625 6 -554.73)"
     opacity=".35">
    <rect
       transform="scale(-1,1)"
       x="-19"
       y="916.36"
       width="6"
       height="32"
       fill="none"
       opacity="1"
       id="rect25" />
    <rect
       transform="scale(-1,1)"
       x="-13"
       y="916.36"
       width="6"
       height="32"
       fill="url(#linearGradient4948)"
       opacity=".9"
       id="rect27" />
    <rect
       transform="scale(-1,1)"
       x="-14"
       y="916.36"
       width="1"
       height="32"
       fill="none"
       opacity="1"
       id="rect29" />
  </g>
  <use
     transform="rotate(90,54,28)"
     width="100%"
     height="100%"
     xlink:href="#shadow-topleft"
     id="use32" />
  <use
     id="shadow-top"
     transform="rotate(90 54 28)"
     width="100%"
     height="100%"
     xlink:href="#shadow-left" />
  <use
     id="shadow-right"
     transform="matrix(-1,0,0,1,108,2.71e-5)"
     width="100%"
     height="100%"
     xlink:href="#shadow-left" />
  <use
     id="shadow-bottomleft"
     transform="rotate(-90,54,28)"
     width="100%"
     height="100%"
     xlink:href="#shadow-topleft" />
  <use
     id="shadow-bottomright"
     transform="rotate(180 54 28)"
     width="100%"
     height="100%"
     xlink:href="#shadow-topleft" />
  <use
     id="shadow-bottom"
     transform="rotate(-90 54 28)"
     width="100%"
     height="100%"
     xlink:href="#shadow-left" />
  <rect
     id="hint-tile-center"
     y="-1.4648e-5"
     width="5"
     height="5"
     fill="#ff6600" />
  <g
     id="top"
     transform="matrix(0.625,0,0,2,32.125,-1814.72)">
    <rect
       class="ColorScheme-Background"
       transform="matrix(0,-1,-1,0,0,0)"
       x="-916.35999"
       y="-51"
       width="6"
       height="32"
       id="rect40"
       style="opacity:0.65;fill:#000000" />
  </g>
  <g
     id="topleft"
     transform="translate(19 -904.36)">
    <path
       transform="translate(-19 904.36)"
       d="m38 6c-3.324 0-6 2.676-6 6v6h12v-12h-6z"
       id="path43"
       style="fill:#000000;opacity:0.65" />
  </g>
  <g
     id="bottom"
     transform="matrix(0.625,0,0,2,32.125,-1858.72)">
    <rect
       class="ColorScheme-Background"
       transform="rotate(90)"
       x="948.35999"
       y="-51"
       width="6"
       height="32"
       id="rect46"
       style="opacity:0.65;fill:#000000" />
  </g>
  <g
     id="left"
     transform="matrix(2 0 0 .625 6 -554.73)">
    <rect
       class="ColorScheme-Background"
       transform="scale(-1,1)"
       x="-19"
       y="916.36"
       width="6"
       height="32"
       id="rect49"
       style="fill:#000000;opacity:0.65" />
  </g>
  <g
     id="right"
     transform="matrix(2 0 0 .625 -38 -554.73)">
    <rect
       class="ColorScheme-Background"
       x="51"
       y="916.36"
       width="6"
       height="32"
       id="rect52"
       style="fill:#000000;opacity:0.65" />
  </g>
  <rect
     id="center"
     class="ColorScheme-Background"
     x="44"
     y="18"
     width="20"
     height="20"
     style="fill:#000000;opacity:0.65" />
  <rect
     id="hint-top-margin"
     x="52"
     y="6"
     width="4"
     height="6"
     fill="#ff00ff" />
  <rect
     id="hint-bottom-margin"
     x="52"
     y="44"
     width="4"
     height="6"
     fill="#ff00ff" />
  <rect
     id="hint-right-margin"
     transform="rotate(90)"
     x="26"
     y="-76"
     width="4"
     height="6"
     fill="#ff00ff" />
  <rect
     id="hint-left-margin"
     transform="rotate(90)"
     x="26"
     y="-38"
     width="4"
     height="6"
     fill="#ff00ff" />
  <rect
     id="shadow-hint-top-margin"
     x="52"
     y="-6"
     width="4"
     height="12"
     fill="#ff6600" />
  <rect
     id="shadow-hint-bottom-margin"
     x="52"
     y="50"
     width="4"
     height="12"
     fill="#ff6600" />
  <rect
     id="shadow-hint-right-margin"
     transform="rotate(90)"
     x="26"
     y="-88"
     width="4"
     height="12"
     fill="#ff6600" />
  <rect
     id="shadow-hint-left-margin"
     transform="rotate(90)"
     x="26"
     y="-32"
     width="4"
     height="12"
     fill="#ff6600" />
  <g
     id="mask-top"
     transform="matrix(0.625,0,0,1,117.125,-904.35999)">
    <rect
       transform="matrix(0,-1,-1,0,0,0)"
       x="-922.35999"
       y="-51"
       width="12"
       height="32"
       fill="#000000"
       opacity="0.97"
       id="rect64" />
  </g>
  <g
     id="mask-topleft"
     transform="matrix(1.2,0,0,1.2,101.40058,-1086.4374)">
    <path
       transform="matrix(0.90909,0,0,0.90909,-93.364,904.91)"
       d="m 124,6 c -3.878,0 -7,3.122 -7,7 v 4 h 11 V 6 Z"
       fill="#000000"
       opacity="0.97"
       stroke-width="2.2"
       id="path67" />
  </g>
  <g
     id="mask-bottom"
     transform="matrix(0.625,0,0,1.2,117.125,-1095.232)">
    <rect
       transform="rotate(90)"
       x="944.35999"
       y="-51"
       width="10"
       height="32"
       fill="#000000"
       opacity="0.97"
       id="rect70" />
  </g>
  <g
     id="mask-left"
     transform="translate(104 -904.36)">
    <rect
       transform="scale(-1,1)"
       x="-25"
       y="922.36"
       width="12"
       height="20"
       fill="#000000"
       opacity=".97"
       id="rect73" />
  </g>
  <g
     id="mask-right"
     transform="matrix(1.2,0,0,0.625,92.6,-554.72499)">
    <rect
       x="47"
       y="916.35999"
       width="10"
       height="32"
       fill="#000000"
       opacity="0.97"
       id="rect76" />
  </g>
  <rect
     id="mask-center"
     x="129"
     y="18"
     width="20"
     height="20"
     fill="#000000"
     opacity=".97" />
  <rect
     id="shadow-center"
     class="ColorScheme-Background"
     x="45"
     y="68.866"
     width="20"
     height="20"
     color="#eff0f1"
     opacity="0"
     stroke-width=".625" />
  <use
     id="topright"
     transform="matrix(-1,0,0,1,108,0)"
     width="100%"
     height="100%"
     xlink:href="#topleft" />
  <use
     id="bottomleft"
     transform="matrix(1 0 0 -1 9.2939e-7 56)"
     width="100%"
     height="100%"
     xlink:href="#topleft" />
  <use
     id="bottomright"
     transform="rotate(180 54 28)"
     width="100%"
     height="100%"
     xlink:href="#topleft" />
  <use
     id="mask-topright"
     transform="matrix(-1,0,0,1,278.00058,0.0384744)"
     width="100%"
     height="100%"
     xlink:href="#mask-topleft"
     x="0"
     y="0" />
  <use
     id="mask-bottomleft"
     transform="matrix(1,0,0,-1,-4e-6,56.000036)"
     width="100%"
     height="100%"
     xlink:href="#mask-topleft"
     x="0"
     y="0" />
  <use
     id="mask-bottomright"
     transform="rotate(180,139,28.000018)"
     width="100%"
     height="100%"
     xlink:href="#mask-topleft"
     x="0"
     y="0" />
  <rect
     style="fill:#00ffff;fill-opacity:1;stroke:none;stroke-width:0.182575"
     id="hint-top-inset"
     width="4"
     height="0.2"
     x="57"
     y="6" />
  <rect
     y="49.799988"
     x="57"
     height="0.2"
     width="3.9999998"
     id="hint-bottom-inset"
     style="fill:#00ffff;fill-opacity:1;stroke:none;stroke-width:0.182574" />
  <rect
     y="-75.999992"
     x="31"
     height="0.2"
     width="4"
     id="hint-right-inset"
     style="fill:#00ffff;fill-opacity:1;stroke:none;stroke-width:0.182573"
     transform="rotate(90)" />
  <rect
     style="fill:#00ffff;fill-opacity:1;stroke:none;stroke-width:0.182574"
     id="hint-left-inset"
     width="3.9999998"
     height="0.2"
     x="31"
     y="-32.199993"
     transform="rotate(90)" />
  <rect
     y="-6"
     x="57"
     height="12"
     width="3.9999998"
     id="shadow-hint-top-inset"
     style="fill:#00ff00;fill-opacity:1;stroke:none;stroke-width:1.41422" />
  <rect
     style="fill:#00ff00;fill-opacity:1;stroke:none;stroke-width:1.41421"
     id="shadow-hint-bottom-inset"
     width="3.9999998"
     height="11.999977"
     x="57"
     y="50" />
  <rect
     transform="rotate(90)"
     style="fill:#00ff00;fill-opacity:1;stroke:none;stroke-width:1.41422"
     id="shadow-hint-right-inset"
     width="3.9999769"
     height="12"
     x="31"
     y="-87.999992" />
  <rect
     transform="rotate(90)"
     y="-31.999992"
     x="31"
     height="12"
     width="4.0000229"
     id="shadow-hint-left-inset"
     style="fill:#00ff00;fill-opacity:1;stroke:none;stroke-width:1.41421" />
</svg>
