<svg width="128" height="128" version="1" xmlns="http://www.w3.org/2000/svg">
 <g id="normal" transform="matrix(1.6 0 0 1.6 78.344 3.056)">
  <rect x="-42.09" y="-1.91" width="20" height="20" opacity=".001"/>
  <circle transform="matrix(1.0156 0 0 1.0156 .40985 -.035)" cx="-32" cy="8" r="8" opacity=".1"/>
  <path transform="matrix(.625 0 0 .625 -48.965 -1.91)" d="m27 3a13 13 0 0 0-13 13 13 13 0 0 0 0.021484 0.58008 13 13 0 0 1 12.979-12.58 13 13 0 0 1 12.979 12.42 13 13 0 0 0 0.021484-0.41992 13 13 0 0 0-13-13z" fill="#fff" opacity=".05"/>
 </g>
 <g id="22-22-normal" transform="matrix(1.1 0 0 1.1 103.3 13.101)">
  <rect x="-42.09" y="-1.91" width="20" height="20" opacity=".001"/>
  <path transform="matrix(1.0227 0 0 1.0227 .63712 -.091818)" d="m-24 8a8 8 0 0 1-8 8 8 8 0 0 1-8-8 8 8 0 0 1 8-8 8 8 0 0 1 8 8z" opacity=".1"/>
  <path transform="matrix(.90909 0 0 .90909 -93.908 -11.91)" d="m68 13a9 9 0 0 0-9 9 9 9 0 0 0 0.009766 0.28711 9 9 0 0 1 8.9902-8.7871 9 9 0 0 1 8.9902 8.7129 9 9 0 0 0 0.009766-0.21289 9 9 0 0 0-9-9z" fill="#fff" opacity=".05"/>
 </g>
 <g id="pressed" transform="matrix(1.6 0 0 1.6 156.34 16.056)">
  <rect x="-42.09" y="-1.91" width="20" height="20" opacity=".001"/>
  <circle transform="matrix(1.0156 0 0 1.0156 .40985 -.035)" cx="-32" cy="8" r="8" fill="#3281ea"/>
 </g>
 <g id="22-22-pressed" transform="matrix(1.1 0 0 1.1 141.3 56.101)">
  <rect x="-42.09" y="-1.91" width="20" height="20" opacity=".001"/>
  <path transform="matrix(1.0227 0 0 1.0227 .63712 -.091818)" d="m-24 8a8 8 0 0 1-8 8 8 8 0 0 1-8-8 8 8 0 0 1 8-8 8 8 0 0 1 8 8z" fill="#3281ea"/>
 </g>
 <g id="hover">
  <rect x="11" y="34" width="32" height="32" opacity=".001"/>
  <path d="M 27,37 A 13,13 0 0 0 14,50 13,13 0 0 0 14.021484,50.580078 13,13 0 0 1 27,38 13,13 0 0 1 39.978516,50.419922 13,13 0 0 0 40,50 13,13 0 0 0 27,37 Z" fill="#fff" opacity=".001"/>
  <circle cx="27" cy="50" r="13" opacity=".15"/>
  <path d="m27 37a13 13 0 0 0-13 13 13 13 0 0 0 0.021484 0.58008 13 13 0 0 1 12.979-12.58 13 13 0 0 1 12.979 12.42 13 13 0 0 0 0.021484-0.41992 13 13 0 0 0-13-13z" fill="#fff" opacity=".05"/>
 </g>
 <g id="focus">
  <rect x="11" y="71" width="32" height="32" opacity=".001"/>
  <path d="M 27,74 A 13,13 0 0 0 14,87 13,13 0 0 0 14.021484,87.580078 13,13 0 0 1 27,75 13,13 0 0 1 39.978516,87.419922 13,13 0 0 0 40,87 13,13 0 0 0 27,74 Z" fill="#fff" opacity=".001"/>
  <circle cx="27" cy="87" r="13" opacity=".15"/>
  <path d="m27 74a13 13 0 0 0-13 13 13 13 0 0 0 0.021484 0.58008 13 13 0 0 1 12.979-12.58 13 13 0 0 1 12.979 12.42 13 13 0 0 0 0.021484-0.41992 13 13 0 0 0-13-13z" fill="#fff" opacity=".05"/>
 </g>
 <g id="22-22-hover">
  <rect x="57" y="45" width="22" height="22" opacity=".001"/>
  <path d="m68 47a9 9 0 0 0-9 9 9 9 0 0 0 0.0098 0.28711 9 9 0 0 1 8.9902-8.7871 9 9 0 0 1 8.9902 8.7129 9 9 0 0 0 0.009766-0.21289 9 9 0 0 0-9-9z" fill="#fff" opacity=".001"/>
  <circle cx="68" cy="56" r="9" opacity=".15"/>
  <path d="m68 47a9 9 0 0 0-9 9 9 9 0 0 0 0.009766 0.28711 9 9 0 0 1 8.9902-8.7871 9 9 0 0 1 8.9902 8.7129 9 9 0 0 0 0.009766-0.21289 9 9 0 0 0-9-9z" fill="#fff" opacity=".05"/>
 </g>
 <g id="22-22-focus">
  <rect x="57" y="82" width="22" height="22" opacity=".001"/>
  <path d="m68 84a9 9 0 0 0-9 9 9 9 0 0 0 0.0098 0.28711 9 9 0 0 1 8.9902-8.7871 9 9 0 0 1 8.9902 8.7129 9 9 0 0 0 0.009766-0.21289 9 9 0 0 0-9-9z" fill="#fff" opacity=".001"/>
  <circle cx="68" cy="93" r="9" opacity=".15"/>
  <path d="m68 84a9 9 0 0 0-9 9 9 9 0 0 0 0.009766 0.28711 9 9 0 0 1 8.9902-8.7871 9 9 0 0 1 8.9902 8.7129 9 9 0 0 0 0.009766-0.21289 9 9 0 0 0-9-9z" fill="#fff" opacity=".05"/>
 </g>
</svg>
