<svg width="514" height="514" version="1" xmlns="http://www.w3.org/2000/svg">
 <g id="black-notes" transform="translate(-1703,-29)">
  <rect x="1703" y="29" width="514" height="514" opacity=".001"/>
  <path d="m1748.2 35c-21.727 0-39.219 17.492-39.219 39.219v423.56c0 21.727 17.492 39.219 39.219 39.219h423.56c21.727 0 39.219-17.492 39.219-39.219v-423.56c0-21.727-17.492-39.219-39.219-39.219h-407.88z" opacity=".02"/>
  <path d="m1747.4 34c-21.814 0-39.375 17.561-39.375 39.375v425.25c0 21.814 17.561 39.375 39.375 39.375h425.25c21.814 0 39.375-17.561 39.375-39.375v-425.25c0-21.814-17.561-39.375-39.375-39.375h-409.5z" opacity=".02"/>
  <path d="m1746.5 33c-21.9 0-39.531 17.631-39.531 39.531v426.94c0 21.9 17.631 39.531 39.531 39.531h426.94c21.9 0 39.531-17.631 39.531-39.531v-426.94c0-21.9-17.631-39.531-39.531-39.531h-411.12z" opacity=".02"/>
  <path d="m1745.7 32c-21.987 0-39.688 17.701-39.688 39.687v428.62c0 21.987 17.701 39.688 39.688 39.688h428.62c21.987 0 39.688-17.701 39.688-39.688v-428.62c0-21.987-17.701-39.687-39.688-39.687h-412.75z" opacity=".02"/>
  <path d="m1744.8 31c-22.074 0-39.844 17.77-39.844 39.844v430.31c0 22.073 17.77 39.844 39.844 39.844h430.31c22.074 0 39.844-17.77 39.844-39.844v-430.31c0-22.073-17.77-39.844-39.844-39.844h-414.38z" opacity=".02"/>
  <path d="m1744 30c-22.16 0-40 17.84-40 40v432c0 22.16 17.84 40 40 40h432c22.16 0 40-17.84 40-40v-432c0-22.16-17.84-40-40-40h-416z" opacity=".02"/>
  <path d="m1749.1 30c-21.641 0-39.062 17.422-39.062 39.062v421.87c0 21.641 17.422 39.062 39.062 39.062h421.88c21.641 0 39.062-17.422 39.062-39.062v-421.87c0-21.641-17.422-39.062-39.062-39.062h-406.25z" fill="#f2f2f2"/>
 </g>
 <g id="white-notes" transform="translate(-1189,-29)">
  <rect x="1703" y="29" width="514" height="514" opacity=".001"/>
  <path d="m1748.2 35c-21.727 0-39.219 17.492-39.219 39.219v423.56c0 21.727 17.492 39.219 39.219 39.219h423.56c21.727 0 39.219-17.492 39.219-39.219v-423.56c0-21.727-17.492-39.219-39.219-39.219h-407.88z" opacity=".02"/>
  <path d="m1747.4 34c-21.814 0-39.375 17.561-39.375 39.375v425.25c0 21.814 17.561 39.375 39.375 39.375h425.25c21.814 0 39.375-17.561 39.375-39.375v-425.25c0-21.814-17.561-39.375-39.375-39.375h-409.5z" opacity=".02"/>
  <path d="m1746.5 33c-21.9 0-39.531 17.631-39.531 39.531v426.94c0 21.9 17.631 39.531 39.531 39.531h426.94c21.9 0 39.531-17.631 39.531-39.531v-426.94c0-21.9-17.631-39.531-39.531-39.531h-411.12z" opacity=".02"/>
  <path d="m1745.7 32c-21.987 0-39.688 17.701-39.688 39.687v428.62c0 21.987 17.701 39.688 39.688 39.688h428.62c21.987 0 39.688-17.701 39.688-39.688v-428.62c0-21.987-17.701-39.687-39.688-39.687h-412.75z" opacity=".02"/>
  <path d="m1744.8 31c-22.074 0-39.844 17.77-39.844 39.844v430.31c0 22.073 17.77 39.844 39.844 39.844h430.31c22.074 0 39.844-17.77 39.844-39.844v-430.31c0-22.073-17.77-39.844-39.844-39.844h-414.38z" opacity=".02"/>
  <path d="m1744 30c-22.16 0-40 17.84-40 40v432c0 22.16 17.84 40 40 40h432c22.16 0 40-17.84 40-40v-432c0-22.16-17.84-40-40-40h-416z" opacity=".02"/>
  <path d="m1749.1 30c-21.641 0-39.062 17.422-39.062 39.062v421.87c0 21.641 17.422 39.062 39.062 39.062h421.88c21.641 0 39.062-17.422 39.062-39.062v-421.87c0-21.641-17.422-39.062-39.062-39.062h-406.25z" fill="#ccc"/>
 </g>
 <g id="yellow-notes" transform="translate(-675 -29)">
  <rect x="1703" y="29" width="514" height="514" opacity=".001"/>
  <path d="m1748.2 35c-21.727 0-39.219 17.492-39.219 39.219v423.56c0 21.727 17.492 39.219 39.219 39.219h423.56c21.727 0 39.219-17.492 39.219-39.219v-423.56c0-21.727-17.492-39.219-39.219-39.219h-407.88z" opacity=".02"/>
  <path d="m1747.4 34c-21.814 0-39.375 17.561-39.375 39.375v425.25c0 21.814 17.561 39.375 39.375 39.375h425.25c21.814 0 39.375-17.561 39.375-39.375v-425.25c0-21.814-17.561-39.375-39.375-39.375h-409.5z" opacity=".02"/>
  <path d="m1746.5 33c-21.9 0-39.531 17.631-39.531 39.531v426.94c0 21.9 17.631 39.531 39.531 39.531h426.94c21.9 0 39.531-17.631 39.531-39.531v-426.94c0-21.9-17.631-39.531-39.531-39.531h-411.12z" opacity=".02"/>
  <path d="m1745.7 32c-21.987 0-39.688 17.701-39.688 39.687v428.62c0 21.987 17.701 39.688 39.688 39.688h428.62c21.987 0 39.688-17.701 39.688-39.688v-428.62c0-21.987-17.701-39.687-39.688-39.687h-412.75z" opacity=".02"/>
  <path d="m1744.8 31c-22.074 0-39.844 17.77-39.844 39.844v430.31c0 22.073 17.77 39.844 39.844 39.844h430.31c22.074 0 39.844-17.77 39.844-39.844v-430.31c0-22.073-17.77-39.844-39.844-39.844h-414.38z" opacity=".02"/>
  <path d="m1744 30c-22.16 0-40 17.84-40 40v432c0 22.16 17.84 40 40 40h432c22.16 0 40-17.84 40-40v-432c0-22.16-17.84-40-40-40h-416z" opacity=".02"/>
  <path d="m1749.1 30c-21.641 0-39.062 17.422-39.062 39.062v421.87c0 21.641 17.422 39.062 39.062 39.062h421.88c21.641 0 39.062-17.422 39.062-39.062v-421.87c0-21.641-17.422-39.062-39.062-39.062h-406.25z" fill="#ffca28"/>
 </g>
 <g id="red-notes" transform="translate(-161 -29)">
  <rect x="1703" y="29" width="514" height="514" opacity=".001"/>
  <path d="m1748.2 35c-21.727 0-39.219 17.492-39.219 39.219v423.56c0 21.727 17.492 39.219 39.219 39.219h423.56c21.727 0 39.219-17.492 39.219-39.219v-423.56c0-21.727-17.492-39.219-39.219-39.219h-407.88z" opacity=".02"/>
  <path d="m1747.4 34c-21.814 0-39.375 17.561-39.375 39.375v425.25c0 21.814 17.561 39.375 39.375 39.375h425.25c21.814 0 39.375-17.561 39.375-39.375v-425.25c0-21.814-17.561-39.375-39.375-39.375h-409.5z" opacity=".02"/>
  <path d="m1746.5 33c-21.9 0-39.531 17.631-39.531 39.531v426.94c0 21.9 17.631 39.531 39.531 39.531h426.94c21.9 0 39.531-17.631 39.531-39.531v-426.94c0-21.9-17.631-39.531-39.531-39.531h-411.12z" opacity=".02"/>
  <path d="m1745.7 32c-21.987 0-39.688 17.701-39.688 39.687v428.62c0 21.987 17.701 39.688 39.688 39.688h428.62c21.987 0 39.688-17.701 39.688-39.688v-428.62c0-21.987-17.701-39.687-39.688-39.687h-412.75z" opacity=".02"/>
  <path d="m1744.8 31c-22.074 0-39.844 17.77-39.844 39.844v430.31c0 22.073 17.77 39.844 39.844 39.844h430.31c22.074 0 39.844-17.77 39.844-39.844v-430.31c0-22.073-17.77-39.844-39.844-39.844h-414.38z" opacity=".02"/>
  <path d="m1744 30c-22.16 0-40 17.84-40 40v432c0 22.16 17.84 40 40 40h432c22.16 0 40-17.84 40-40v-432c0-22.16-17.84-40-40-40h-416z" opacity=".02"/>
  <path d="m1749.1 30c-21.641 0-39.062 17.422-39.062 39.062v421.87c0 21.641 17.422 39.062 39.062 39.062h421.88c21.641 0 39.062-17.422 39.062-39.062v-421.87c0-21.641-17.422-39.062-39.062-39.062h-406.25z" fill="#ef5350"/>
 </g>
 <g id="orange-notes" transform="translate(353 -29)">
  <rect x="1703" y="29" width="514" height="514" opacity=".001"/>
  <path d="m1748.2 35c-21.727 0-39.219 17.492-39.219 39.219v423.56c0 21.727 17.492 39.219 39.219 39.219h423.56c21.727 0 39.219-17.492 39.219-39.219v-423.56c0-21.727-17.492-39.219-39.219-39.219h-407.88z" opacity=".02"/>
  <path d="m1747.4 34c-21.814 0-39.375 17.561-39.375 39.375v425.25c0 21.814 17.561 39.375 39.375 39.375h425.25c21.814 0 39.375-17.561 39.375-39.375v-425.25c0-21.814-17.561-39.375-39.375-39.375h-409.5z" opacity=".02"/>
  <path d="m1746.5 33c-21.9 0-39.531 17.631-39.531 39.531v426.94c0 21.9 17.631 39.531 39.531 39.531h426.94c21.9 0 39.531-17.631 39.531-39.531v-426.94c0-21.9-17.631-39.531-39.531-39.531h-411.12z" opacity=".02"/>
  <path d="m1745.7 32c-21.987 0-39.688 17.701-39.688 39.687v428.62c0 21.987 17.701 39.688 39.688 39.688h428.62c21.987 0 39.688-17.701 39.688-39.688v-428.62c0-21.987-17.701-39.687-39.688-39.687h-412.75z" opacity=".02"/>
  <path d="m1744.8 31c-22.074 0-39.844 17.77-39.844 39.844v430.31c0 22.073 17.77 39.844 39.844 39.844h430.31c22.074 0 39.844-17.77 39.844-39.844v-430.31c0-22.073-17.77-39.844-39.844-39.844h-414.38z" opacity=".02"/>
  <path d="m1744 30c-22.16 0-40 17.84-40 40v432c0 22.16 17.84 40 40 40h432c22.16 0 40-17.84 40-40v-432c0-22.16-17.84-40-40-40h-416z" opacity=".02"/>
  <path d="m1749.1 30c-21.641 0-39.062 17.422-39.062 39.062v421.87c0 21.641 17.422 39.062 39.062 39.062h421.88c21.641 0 39.062-17.422 39.062-39.062v-421.87c0-21.641-17.422-39.062-39.062-39.062h-406.25z" fill="#ff9800"/>
 </g>
 <g id="green-notes" transform="translate(867 -29)">
  <rect x="1703" y="29" width="514" height="514" opacity=".001"/>
  <path d="m1748.2 35c-21.727 0-39.219 17.492-39.219 39.219v423.56c0 21.727 17.492 39.219 39.219 39.219h423.56c21.727 0 39.219-17.492 39.219-39.219v-423.56c0-21.727-17.492-39.219-39.219-39.219h-407.88z" opacity=".02"/>
  <path d="m1747.4 34c-21.814 0-39.375 17.561-39.375 39.375v425.25c0 21.814 17.561 39.375 39.375 39.375h425.25c21.814 0 39.375-17.561 39.375-39.375v-425.25c0-21.814-17.561-39.375-39.375-39.375h-409.5z" opacity=".02"/>
  <path d="m1746.5 33c-21.9 0-39.531 17.631-39.531 39.531v426.94c0 21.9 17.631 39.531 39.531 39.531h426.94c21.9 0 39.531-17.631 39.531-39.531v-426.94c0-21.9-17.631-39.531-39.531-39.531h-411.12z" opacity=".02"/>
  <path d="m1745.7 32c-21.987 0-39.688 17.701-39.688 39.687v428.62c0 21.987 17.701 39.688 39.688 39.688h428.62c21.987 0 39.688-17.701 39.688-39.688v-428.62c0-21.987-17.701-39.687-39.688-39.687h-412.75z" opacity=".02"/>
  <path d="m1744.8 31c-22.074 0-39.844 17.77-39.844 39.844v430.31c0 22.073 17.77 39.844 39.844 39.844h430.31c22.074 0 39.844-17.77 39.844-39.844v-430.31c0-22.073-17.77-39.844-39.844-39.844h-414.38z" opacity=".02"/>
  <path d="m1744 30c-22.16 0-40 17.84-40 40v432c0 22.16 17.84 40 40 40h432c22.16 0 40-17.84 40-40v-432c0-22.16-17.84-40-40-40h-416z" opacity=".02"/>
  <path d="m1749.1 30c-21.641 0-39.062 17.422-39.062 39.062v421.87c0 21.641 17.422 39.062 39.062 39.062h421.88c21.641 0 39.062-17.422 39.062-39.062v-421.87c0-21.641-17.422-39.062-39.062-39.062h-406.25z" fill="#4caf50"/>
 </g>
 <g id="blue-notes" transform="translate(1381 -29)">
  <rect x="1703" y="29" width="514" height="514" opacity=".001"/>
  <path d="m1748.2 35c-21.727 0-39.219 17.492-39.219 39.219v423.56c0 21.727 17.492 39.219 39.219 39.219h423.56c21.727 0 39.219-17.492 39.219-39.219v-423.56c0-21.727-17.492-39.219-39.219-39.219h-407.88z" opacity=".02"/>
  <path d="m1747.4 34c-21.814 0-39.375 17.561-39.375 39.375v425.25c0 21.814 17.561 39.375 39.375 39.375h425.25c21.814 0 39.375-17.561 39.375-39.375v-425.25c0-21.814-17.561-39.375-39.375-39.375h-409.5z" opacity=".02"/>
  <path d="m1746.5 33c-21.9 0-39.531 17.631-39.531 39.531v426.94c0 21.9 17.631 39.531 39.531 39.531h426.94c21.9 0 39.531-17.631 39.531-39.531v-426.94c0-21.9-17.631-39.531-39.531-39.531h-411.12z" opacity=".02"/>
  <path d="m1745.7 32c-21.987 0-39.688 17.701-39.688 39.687v428.62c0 21.987 17.701 39.688 39.688 39.688h428.62c21.987 0 39.688-17.701 39.688-39.688v-428.62c0-21.987-17.701-39.687-39.688-39.687h-412.75z" opacity=".02"/>
  <path d="m1744.8 31c-22.074 0-39.844 17.77-39.844 39.844v430.31c0 22.073 17.77 39.844 39.844 39.844h430.31c22.074 0 39.844-17.77 39.844-39.844v-430.31c0-22.073-17.77-39.844-39.844-39.844h-414.38z" opacity=".02"/>
  <path d="m1744 30c-22.16 0-40 17.84-40 40v432c0 22.16 17.84 40 40 40h432c22.16 0 40-17.84 40-40v-432c0-22.16-17.84-40-40-40h-416z" opacity=".02"/>
  <path d="m1749.1 30c-21.641 0-39.062 17.422-39.062 39.062v421.87c0 21.641 17.422 39.062 39.062 39.062h421.88c21.641 0 39.062-17.422 39.062-39.062v-421.87c0-21.641-17.422-39.062-39.062-39.062h-406.25z" fill="#4285f4"/>
 </g>
 <g id="pink-notes" transform="translate(1895 -29)">
  <rect x="1703" y="29" width="514" height="514" opacity=".001"/>
  <path d="m1748.2 35c-21.727 0-39.219 17.492-39.219 39.219v423.56c0 21.727 17.492 39.219 39.219 39.219h423.56c21.727 0 39.219-17.492 39.219-39.219v-423.56c0-21.727-17.492-39.219-39.219-39.219h-407.88z" opacity=".02"/>
  <path d="m1747.4 34c-21.814 0-39.375 17.561-39.375 39.375v425.25c0 21.814 17.561 39.375 39.375 39.375h425.25c21.814 0 39.375-17.561 39.375-39.375v-425.25c0-21.814-17.561-39.375-39.375-39.375h-409.5z" opacity=".02"/>
  <path d="m1746.5 33c-21.9 0-39.531 17.631-39.531 39.531v426.94c0 21.9 17.631 39.531 39.531 39.531h426.94c21.9 0 39.531-17.631 39.531-39.531v-426.94c0-21.9-17.631-39.531-39.531-39.531h-411.12z" opacity=".02"/>
  <path d="m1745.7 32c-21.987 0-39.688 17.701-39.688 39.687v428.62c0 21.987 17.701 39.688 39.688 39.688h428.62c21.987 0 39.688-17.701 39.688-39.688v-428.62c0-21.987-17.701-39.687-39.688-39.687h-412.75z" opacity=".02"/>
  <path d="m1744.8 31c-22.074 0-39.844 17.77-39.844 39.844v430.31c0 22.073 17.77 39.844 39.844 39.844h430.31c22.074 0 39.844-17.77 39.844-39.844v-430.31c0-22.073-17.77-39.844-39.844-39.844h-414.38z" opacity=".02"/>
  <path d="m1744 30c-22.16 0-40 17.84-40 40v432c0 22.16 17.84 40 40 40h432c22.16 0 40-17.84 40-40v-432c0-22.16-17.84-40-40-40h-416z" opacity=".02"/>
  <path d="m1749.1 30c-21.641 0-39.062 17.422-39.062 39.062v421.87c0 21.641 17.422 39.062 39.062 39.062h421.88c21.641 0 39.062-17.422 39.062-39.062v-421.87c0-21.641-17.422-39.062-39.062-39.062h-406.25z" fill="#ec407a"/>
 </g>
</svg>
