<svg width="144" height="126" version="1.0" viewBox="0 0 144 126" xmlns="http://www.w3.org/2000/svg">
 <defs id="null">
  <style id="current-color-scheme" type="text/css">.ColorScheme-Text {
        
      }
      .ColorScheme-Background {
        color:#eff0f1;
      }
      .ColorScheme-ButtonFocus {
        color:#3281ea;
      }
      .ColorScheme-ViewText {
        
      }
      .ColorScheme-ViewBackground {
        color:#fcfcfc;
      }
      .ColorScheme-ViewHover {
        color:#93cee9;
      }
      .ColorScheme-ViewFocus{
        color:#3281ea;
      }
      .ColorScheme-ButtonText {
        
      }
      .ColorScheme-ButtonBackground {
        color:#eff0f1;
      }
      .ColorScheme-ButtonHover {
        color:#93cee9;
      }
      .ColorScheme-ButtonFocus{
        color:#3281ea;
      }
      .ColorScheme-Text {
        
      }
      .ColorScheme-NeutralText {
        color:#f67400;
      }
      .ColorScheme-PositiveText {
        color:#27ae60;
      }</style>
 </defs>
 <g id="group-expander-bottom" transform="matrix(1.2222 0 0 1.2222 -187.92 -36.85)">
  <path d="m211.5 89a4.5 4.5 0 0 0-4.5 4.5 4.5 4.5 0 0 0 4.5 4.5 4.5 4.5 0 0 0 4.5-4.5 4.5 4.5 0 0 0-4.5-4.5z" fill="#2ecc71"/>
  <path d="m211.08 91.455 9.7e-4 1.6306-1.6347 0.01145 7e-3 0.8079 1.6392 0.0091-6e-3 1.6343 0.8077-5e-3 7e-3 -1.6316 1.6395-2.7e-5v-0.81469h-1.6461l0.0204-1.6421z" fill="#fff"/>
 </g>
 <g id="group-expander-left" transform="matrix(1.2222 0 0 1.2222 -165.92 -36.85)">
  <path d="m211.5 89a4.5 4.5 0 0 0-4.5 4.5 4.5 4.5 0 0 0 4.5 4.5 4.5 4.5 0 0 0 4.5-4.5 4.5 4.5 0 0 0-4.5-4.5z" fill="#2ecc71"/>
  <path d="m211.08 91.455 9.7e-4 1.6306-1.6347 0.01145 7e-3 0.8079 1.6392 0.0091-6e-3 1.6343 0.8077-5e-3 7e-3 -1.6316 1.6395-2.7e-5v-0.81469h-1.6461l0.0204-1.6421z" fill="#fff"/>
 </g>
 <g id="group-expander-top" transform="matrix(1.2222 0 0 1.2222 -187.92 -18.85)">
  <path d="m211.5 89a4.5 4.5 0 0 0-4.5 4.5 4.5 4.5 0 0 0 4.5 4.5 4.5 4.5 0 0 0 4.5-4.5 4.5 4.5 0 0 0-4.5-4.5z" fill="#2ecc71"/>
  <path d="m211.08 91.455 9.7e-4 1.6306-1.6347 0.01145 7e-3 0.8079 1.6392 0.0091-6e-3 1.6343 0.8077-5e-3 7e-3 -1.6316 1.6395-2.7e-5v-0.81469h-1.6461l0.0204-1.6421z" fill="#fff"/>
 </g>
 <g id="group-expander-right" transform="matrix(1.2222 0 0 1.2222 -165.92 -18.85)">
  <path d="m211.5 89a4.5 4.5 0 0 0-4.5 4.5 4.5 4.5 0 0 0 4.5 4.5 4.5 4.5 0 0 0 4.5-4.5 4.5 4.5 0 0 0-4.5-4.5z" fill="#2ecc71"/>
  <path d="m211.08 91.455 9.7e-4 1.6306-1.6347 0.01145 7e-3 0.8079 1.6392 0.0091-6e-3 1.6343 0.8077-5e-3 7e-3 -1.6316 1.6395-2.7e-5v-0.81469h-1.6461l0.0204-1.6421z" fill="#fff"/>
 </g>
 <g id="focus-topleft" transform="matrix(.66667 0 0 .66667 28.362 24.64)" stroke-linecap="square">
  <rect x="-24" y="-13" width="6" height="6" rx="0" ry="0" fill="none" stroke-width="2.2554"/>
  <path d="m-15-13c-3.324 0-6 2.676-6 6h6z" opacity=".25" stroke-width="7.894"/>
 </g>
 <g id="focus-top" transform="matrix(1 0 0 .66667 36.362 24.64)">
  <rect x="-17" y="-13" width="24" height="6" rx="0" ry="0" opacity=".25" stroke-linecap="square" stroke-width="2.9394"/>
 </g>
 <g id="focus-center" transform="translate(36.362 33.973)">
  <rect x="-17" y="-13" width="24" height="6" rx="0" ry="0" opacity=".25" stroke-linecap="square" stroke-width="2.9394"/>
 </g>
 <g id="focus-left" transform="matrix(.16667 0 0 1 15.196 33.973)" stroke-linecap="square">
  <rect x="-17" y="-13" width="36" height="6" rx="0" ry="0" fill="none" opacity=".2" stroke-width="3.6"/>
  <rect x="-5" y="-13" width="24" height="6" rx="0" ry="0" opacity=".25" stroke-width="2.9394"/>
 </g>
 <g id="focus-right" transform="matrix(.16667 0 0 1 47.196 33.973)" stroke-linecap="square">
  <rect x="-17" y="-13" width="24" height="6" rx="0" ry="0" opacity=".25" stroke-width="2.9394"/>
  <rect x="-17" y="-13" width="36" height="6" rx="0" ry="0" fill="none" opacity=".2" stroke-width="3.6"/>
 </g>
 <g id="focus-bottom" transform="matrix(1 0 0 .66667 36.362 36.64)">
  <rect x="-17" y="-13" width="24" height="6" rx="0" ry="0" opacity=".25" stroke-linecap="square" stroke-width="2.9394"/>
 </g>
 <g id="focus-bottomleft" transform="matrix(.66667 0 0 -.66667 28.362 23.307)" stroke-linecap="square">
  <rect x="-24" y="-13" width="6" height="6" rx="0" ry="0" fill="none" stroke-width="2.2554"/>
  <path d="m-15-13c-3.324 0-6 2.676-6 6h6z" opacity=".25" stroke-width="7.894"/>
 </g>
 <g id="focus-topright" transform="matrix(-.66667 0 0 .66667 34.362 24.64)" stroke-linecap="square">
  <rect x="-24" y="-13" width="6" height="6" rx="0" ry="0" fill="none" stroke-width="2.2554"/>
  <path d="m-15-13c-3.324 0-6 2.676-6 6h6z" opacity=".25" stroke-width="7.894"/>
 </g>
 <g id="focus-bottomright" transform="matrix(-.66667 0 0 -.66667 34.362 23.307)" stroke-linecap="square">
  <rect x="-24" y="-13" width="6" height="6" rx="0" ry="0" fill="none" stroke-width="2.2554"/>
  <path d="m-15-13c-3.324 0-6 2.676-6 6h6z" opacity=".25" stroke-width="7.894"/>
 </g>
 <g id="normal-topleft" transform="matrix(.66667 0 0 .66667 28.362 49.64)" stroke-linecap="square">
  <rect x="-24" y="-13" width="6" height="6" rx="0" ry="0" fill="none" stroke-width="2.2554"/>
  <path d="m-15-13c-3.324 0-6 2.676-6 6h6z" opacity=".1" stroke-width="7.894"/>
 </g>
 <g id="normal-top" transform="matrix(1 0 0 .66667 36.362 49.64)">
  <rect x="-17" y="-13" width="24" height="6" rx="0" ry="0" opacity=".1" stroke-linecap="square" stroke-width="2.9394"/>
 </g>
 <g id="normal-center" transform="translate(36.362 58.973)">
  <rect x="-17" y="-13" width="24" height="6" rx="0" ry="0" opacity=".1" stroke-linecap="square" stroke-width="2.9394"/>
 </g>
 <g id="normal-left" transform="matrix(.16667 0 0 1 15.196 58.973)" stroke-linecap="square">
  <rect x="-17" y="-13" width="36" height="6" rx="0" ry="0" fill="none" opacity=".1" stroke-width="3.6"/>
  <rect x="-5" y="-13" width="24" height="6" rx="0" ry="0" opacity=".1" stroke-width="2.9394"/>
 </g>
 <g id="normal-right" transform="matrix(.16667 0 0 1 47.196 58.973)" stroke-linecap="square">
  <rect x="-17" y="-13" width="24" height="6" rx="0" ry="0" opacity=".1" stroke-width="2.9394"/>
  <rect x="-17" y="-13" width="36" height="6" rx="0" ry="0" fill="none" opacity=".1" stroke-width="3.6"/>
 </g>
 <g id="normal-bottom" transform="matrix(1 0 0 .66667 36.362 61.64)">
  <rect x="-17" y="-13" width="24" height="6" rx="0" ry="0" opacity=".1" stroke-linecap="square" stroke-width="2.9394"/>
 </g>
 <g id="normal-bottomleft" transform="matrix(.66667 0 0 -.66667 28.362 48.307)" stroke-linecap="square">
  <rect x="-24" y="-13" width="6" height="6" rx="0" ry="0" fill="none" stroke-width="2.2554"/>
  <path d="m-15-13c-3.324 0-6 2.676-6 6h6z" opacity=".1" stroke-width="7.894"/>
 </g>
 <g id="normal-topright" transform="matrix(-.66667 0 0 .66667 34.362 49.64)" stroke-linecap="square">
  <rect x="-24" y="-13" width="6" height="6" rx="0" ry="0" fill="none" stroke-width="2.2554"/>
  <path d="m-15-13c-3.324 0-6 2.676-6 6h6z" opacity=".1" stroke-width="7.894"/>
 </g>
 <g id="normal-bottomright" transform="matrix(-.66667 0 0 -.66667 34.362 48.307)" stroke-linecap="square">
  <rect x="-24" y="-13" width="6" height="6" rx="0" ry="0" fill="none" stroke-width="2.2554"/>
  <path d="m-15-13c-3.324 0-6 2.676-6 6h6z" opacity=".1" stroke-width="7.894"/>
 </g>
 <g id="hover-topleft" transform="matrix(.66667 0 0 .66667 28.362 73.64)" stroke-linecap="square">
  <rect x="-24" y="-13" width="6" height="6" rx="0" ry="0" fill="none" stroke-width="2.2554"/>
  <path d="m-15-13c-3.324 0-6 2.676-6 6h6z" opacity=".25" stroke-width="7.894"/>
 </g>
 <g id="hover-top" transform="matrix(1 0 0 .66667 36.362 73.64)">
  <rect x="-17" y="-13" width="24" height="6" rx="0" ry="0" opacity=".25" stroke-linecap="square" stroke-width="2.9394"/>
 </g>
 <g id="hover-center" transform="translate(36.362 82.973)">
  <rect x="-17" y="-13" width="24" height="6" rx="0" ry="0" opacity=".25" stroke-linecap="square" stroke-width="2.9394"/>
 </g>
 <g id="hover-left" transform="matrix(.16667 0 0 1 15.196 82.973)" stroke-linecap="square">
  <rect x="-17" y="-13" width="36" height="6" rx="0" ry="0" fill="none" opacity=".15" stroke-width="3.6"/>
  <rect x="-5" y="-13" width="24" height="6" rx="0" ry="0" opacity=".25" stroke-width="2.9394"/>
 </g>
 <g id="hover-right" transform="matrix(.16667 0 0 1 47.196 82.973)" stroke-linecap="square">
  <rect x="-17" y="-13" width="24" height="6" rx="0" ry="0" opacity=".25" stroke-width="2.9394"/>
  <rect x="-17" y="-13" width="36" height="6" rx="0" ry="0" fill="none" opacity=".25" stroke-width="3.6"/>
 </g>
 <g id="hover-bottom" transform="matrix(1 0 0 .66667 36.362 85.64)">
  <rect x="-17" y="-13" width="24" height="6" rx="0" ry="0" opacity=".25" stroke-linecap="square" stroke-width="2.9394"/>
 </g>
 <g id="hover-bottomleft" transform="matrix(.66667 0 0 -.66667 28.362 72.307)" stroke-linecap="square">
  <rect x="-24" y="-13" width="6" height="6" rx="0" ry="0" fill="none" stroke-width="2.2554"/>
  <path d="m-15-13c-3.324 0-6 2.676-6 6h6z" opacity=".25" stroke-width="7.894"/>
 </g>
 <g id="hover-topright" transform="matrix(-.66667 0 0 .66667 34.362 73.64)" stroke-linecap="square">
  <rect x="-24" y="-13" width="6" height="6" rx="0" ry="0" fill="none" stroke-width="2.2554"/>
  <path d="m-15-13c-3.324 0-6 2.676-6 6h6z" opacity=".25" stroke-width="7.894"/>
 </g>
 <g id="hover-bottomright" transform="matrix(-.66667 0 0 -.66667 34.362 72.307)" stroke-linecap="square">
  <rect x="-24" y="-13" width="6" height="6" rx="0" ry="0" fill="none" stroke-width="2.2554"/>
  <path d="m-15-13c-3.324 0-6 2.676-6 6h6z" opacity=".25" stroke-width="7.894"/>
 </g>
 <g id="minimized-topleft" transform="matrix(.66667 0 0 .66667 28.362 97.64)" opacity="0" stroke-linecap="square">
  <rect x="-24" y="-13" width="6" height="6" rx="0" ry="0" fill="none" stroke-width="2.2554"/>
  <path d="m-15-13c-3.324 0-6 2.676-6 6h6z" fill="#fff" opacity=".25" stroke-width="7.894"/>
 </g>
 <g id="minimized-top" transform="matrix(1 0 0 .66667 36.362 97.64)" opacity="0">
  <rect x="-17" y="-13" width="24" height="6" rx="0" ry="0" fill="#fff" opacity=".25" stroke-linecap="square" stroke-width="2.9394"/>
 </g>
 <g id="minimized-center" transform="translate(36.362 106.97)" opacity="0">
  <rect x="-17" y="-13" width="24" height="6" rx="0" ry="0" fill="#fff" opacity=".25" stroke-linecap="square" stroke-width="2.9394"/>
 </g>
 <g id="minimized-left" transform="matrix(.16667 0 0 1 15.196 106.97)" opacity="0" stroke-linecap="square">
  <rect x="-17" y="-13" width="36" height="6" rx="0" ry="0" fill="none" opacity=".15" stroke-width="3.6"/>
  <rect x="-5" y="-13" width="24" height="6" rx="0" ry="0" fill="#fff" opacity=".25" stroke-width="2.9394"/>
 </g>
 <g id="minimized-right" transform="matrix(.16667 0 0 1 47.196 106.97)" opacity="0" stroke-linecap="square">
  <rect x="-17" y="-13" width="24" height="6" rx="0" ry="0" fill="#fff" opacity=".25" stroke-width="2.9394"/>
  <rect x="-17" y="-13" width="36" height="6" rx="0" ry="0" fill="none" opacity=".25" stroke-width="3.6"/>
 </g>
 <g id="minimized-bottom" transform="matrix(1 0 0 .66667 36.362 109.64)" opacity="0">
  <rect x="-17" y="-13" width="24" height="6" rx="0" ry="0" fill="#fff" opacity=".25" stroke-linecap="square" stroke-width="2.9394"/>
 </g>
 <g id="minimized-bottomleft" transform="matrix(.66667 0 0 -.66667 28.362 96.307)" opacity="0" stroke-linecap="square">
  <rect x="-24" y="-13" width="6" height="6" rx="0" ry="0" fill="none" stroke-width="2.2554"/>
  <path d="m-15-13c-3.324 0-6 2.676-6 6h6z" fill="#fff" opacity=".25" stroke-width="7.894"/>
 </g>
 <g id="minimized-topright" transform="matrix(-.66667 0 0 .66667 34.362 97.64)" opacity="0" stroke-linecap="square">
  <rect x="-24" y="-13" width="6" height="6" rx="0" ry="0" fill="none" stroke-width="2.2554"/>
  <path d="m-15-13c-3.324 0-6 2.676-6 6h6z" fill="#fff" opacity=".25" stroke-width="7.894"/>
 </g>
 <g id="minimized-bottomright" transform="matrix(-.66667 0 0 -.66667 34.362 96.307)" opacity="0" stroke-linecap="square">
  <rect x="-24" y="-13" width="6" height="6" rx="0" ry="0" fill="none" stroke-width="2.2554"/>
  <path d="m-15-13c-3.324 0-6 2.676-6 6h6z" fill="#fff" opacity=".25" stroke-width="7.894"/>
 </g>
 <g id="progress-topleft" transform="matrix(.66667 0 0 .66667 78.212 47.125)" stroke-linecap="square">
  <rect x="-24" y="-13" width="6" height="6" rx="0" ry="0" fill="none" stroke-width="2.2554"/>
  <path d="m-15-13c-3.324 0-6 2.676-6 6h6z" fill="#26ad5f" opacity=".45" stroke-width="7.894"/>
 </g>
 <g id="progress-top" transform="matrix(1 0 0 .66667 86.212 47.125)">
  <rect x="-17" y="-13" width="24" height="6" rx="0" ry="0" fill="#26ad5f" opacity=".45" stroke-linecap="square" stroke-width="2.9394"/>
 </g>
 <g id="progress-center" transform="translate(86.212 56.459)">
  <rect x="-17" y="-13" width="24" height="6" rx="0" ry="0" fill="#26ad5f" opacity=".45" stroke-linecap="square" stroke-width="2.9394"/>
 </g>
 <g id="progress-left" transform="matrix(.16667 0 0 1 65.045 56.459)" stroke-linecap="square">
  <rect x="-17" y="-13" width="36" height="6" rx="0" ry="0" fill="none" opacity=".15" stroke-width="3.6"/>
  <rect x="-5" y="-13" width="24" height="6" rx="0" ry="0" fill="#26ad5f" opacity=".45" stroke-width="2.9394"/>
 </g>
 <g id="progress-right" transform="matrix(.16667 0 0 1 97.045 56.459)" stroke-linecap="square">
  <rect x="-17" y="-13" width="24" height="6" rx="0" ry="0" fill="#26ad5f" opacity=".45" stroke-width="2.9394"/>
  <rect x="-17" y="-13" width="36" height="6" rx="0" ry="0" fill="none" opacity=".25" stroke-width="3.6"/>
 </g>
 <g id="progress-bottom" transform="matrix(1 0 0 .66667 86.212 59.125)">
  <rect x="-17" y="-13" width="24" height="6" rx="0" ry="0" fill="#26ad5f" opacity=".45" stroke-linecap="square" stroke-width="2.9394"/>
 </g>
 <g id="progress-bottomleft" transform="matrix(.66667 0 0 -.66667 78.212 45.792)" stroke-linecap="square">
  <rect x="-24" y="-13" width="6" height="6" rx="0" ry="0" fill="none" stroke-width="2.2554"/>
  <path d="m-15-13c-3.324 0-6 2.676-6 6h6z" fill="#26ad5f" opacity=".45" stroke-width="7.894"/>
 </g>
 <g id="progress-topright" transform="matrix(-.66667 0 0 .66667 84.212 47.125)" stroke-linecap="square">
  <rect x="-24" y="-13" width="6" height="6" rx="0" ry="0" fill="none" stroke-width="2.2554"/>
  <path d="m-15-13c-3.324 0-6 2.676-6 6h6z" fill="#26ad5f" opacity=".45" stroke-width="7.894"/>
 </g>
 <g id="progress-bottomright" transform="matrix(-.66667 0 0 -.66667 84.212 45.792)" stroke-linecap="square">
  <rect x="-24" y="-13" width="6" height="6" rx="0" ry="0" fill="none" stroke-width="2.2554"/>
  <path d="m-15-13c-3.324 0-6 2.676-6 6h6z" fill="#26ad5f" opacity=".45" stroke-width="7.894"/>
 </g>
 <g id="attention-topleft" transform="matrix(.66667 0 0 .66667 78.212 26.125)" stroke-linecap="square">
  <rect x="-24" y="-13" width="6" height="6" rx="0" ry="0" fill="none" stroke-width="2.2554"/>
  <path d="m-15-13c-3.324 0-6 2.676-6 6h6z" fill="#ffb54d" opacity=".45" stroke-width="7.894"/>
 </g>
 <g id="attention-top" transform="matrix(1 0 0 .66667 86.212 26.125)">
  <rect x="-17" y="-13" width="24" height="6" rx="0" ry="0" fill="#ffb54d" opacity=".45" stroke-linecap="square" stroke-width="2.9394"/>
 </g>
 <g id="attention-center" transform="translate(86.212 35.459)">
  <rect x="-17" y="-13" width="24" height="6" rx="0" ry="0" fill="#ffb54d" opacity=".45" stroke-linecap="square" stroke-width="2.9394"/>
 </g>
 <g id="attention-left" transform="matrix(.16667 0 0 1 65.045 35.459)" stroke-linecap="square">
  <rect x="-17" y="-13" width="36" height="6" rx="0" ry="0" fill="none" opacity=".15" stroke-width="3.6"/>
  <rect x="-5" y="-13" width="24" height="6" rx="0" ry="0" fill="#ffb54d" opacity=".45" stroke-width="2.9394"/>
 </g>
 <g id="attention-right" transform="matrix(.16667 0 0 1 97.045 35.459)" stroke-linecap="square">
  <rect x="-17" y="-13" width="24" height="6" rx="0" ry="0" fill="#ffb54d" opacity=".45" stroke-width="2.9394"/>
  <rect x="-17" y="-13" width="36" height="6" rx="0" ry="0" fill="none" opacity=".25" stroke-width="3.6"/>
 </g>
 <g id="attention-bottom" transform="matrix(1 0 0 .66667 86.212 38.125)">
  <rect x="-17" y="-13" width="24" height="6" rx="0" ry="0" fill="#ffb54d" opacity=".45" stroke-linecap="square" stroke-width="2.9394"/>
 </g>
 <g id="attention-bottomleft" transform="matrix(.66667 0 0 -.66667 78.212 24.792)" stroke-linecap="square">
  <rect x="-24" y="-13" width="6" height="6" rx="0" ry="0" fill="none" stroke-width="2.2554"/>
  <path d="m-15-13c-3.324 0-6 2.676-6 6h6z" fill="#ffb54d" opacity=".45" stroke-width="7.894"/>
 </g>
 <g id="attention-topright" transform="matrix(-.66667 0 0 .66667 84.212 26.125)" stroke-linecap="square">
  <rect x="-24" y="-13" width="6" height="6" rx="0" ry="0" fill="none" stroke-width="2.2554"/>
  <path d="m-15-13c-3.324 0-6 2.676-6 6h6z" fill="#ffb54d" opacity=".45" stroke-width="7.894"/>
 </g>
 <g id="attention-bottomright" transform="matrix(-.66667 0 0 -.66667 84.212 24.792)" stroke-linecap="square">
  <rect x="-24" y="-13" width="6" height="6" rx="0" ry="0" fill="none" stroke-width="2.2554"/>
  <path d="m-15-13c-3.324 0-6 2.676-6 6h6z" fill="#ffb54d" opacity=".45" stroke-width="7.894"/>
 </g>
</svg>
