<svg width="257" height="161" version="1.0" xmlns="http://www.w3.org/2000/svg">
 <defs>
  <style id="current-color-scheme" type="text/css">.ColorScheme-Text {
        color:#7B7C7E;
      }
      .ColorScheme-Background{
        color:#EFF0F1;
      }
      .ColorScheme-Highlight{
        color:#3DAEE6;
      }
      .ColorScheme-ViewText {
        color:#7B7C7E;
      }
      .ColorScheme-ViewBackground{
        color:#FCFCFC;
      }
      .ColorScheme-ViewHover {
        color:#3DAEE6;
      }
      .ColorScheme-ViewFocus{
        color:#1E92FF;
      }
      .ColorScheme-ButtonText {
        color:#7B7C7E;
      }
      .ColorScheme-ButtonBackground{
        color:#EFF0F1;
      }
      .ColorScheme-ButtonHover {
        color:#3DAEE6;
      }
      .ColorScheme-ButtonFocus{
        color:#1E92FF;
      }</style>
 </defs>
 <rect id="hint-tile-center" x="49.93" y="-90.32" width="40" height="40" fill="#008000" opacity=".875"/>
 <path id="selected-center" class="ColorScheme-Highlight" d="m22 21v32h48v-32z" color="#3daee6" opacity=".25" stroke-width=".8165"/>
 <g id="selected-left" transform="matrix(1.5 0 0 2 -264.21 -1638.7)">
  <path class="ColorScheme-Highlight" d="m186.14 829.86v16h4v-16z" color="#3daee6" opacity=".25"/>
 </g>
 <g id="selected-topleft" transform="matrix(1.5 0 0 1.5 -264.21 -1224.8)">
  <path transform="matrix(.33333 0 0 .33333 170.47 818.86)" d="m59 21c-6.648 0-12 5.352-12 12h12z" color="#3daee6" opacity=".25" stroke-width="3"/>
 </g>
 <g id="selected-top" transform="matrix(.36641 0 0 1.5 -47.67 -1224.8)">
  <path class="ColorScheme-Highlight" d="m190.14 825.86v4h131v-4z" color="#3daee6" opacity=".25"/>
 </g>
 <g id="selected-topright" transform="matrix(2.25 0 0 2.25 -654.57 -1844.2)">
  <path d="m322.47 825.86v2.6667h2.6667c0-1.4773-1.1893-2.6667-2.6667-2.6667z" color="#3daee6" opacity=".25" stroke-width=".66667"/>
 </g>
 <g id="selected-right" transform="matrix(1.5 0 0 2 -410.71 -1638.7)">
  <path class="ColorScheme-Highlight" d="m325.14 829.86v16h-4v-16z" color="#3daee6" opacity=".25"/>
 </g>
 <g id="selected-bottomright" transform="matrix(-1.5 0 0 -1.5 356.21 1298.8)">
  <path transform="matrix(-.33333 0 0 -.33333 215.81 846.86)" d="m77 51v12c6.648 0 12-5.352 12-12z" color="#3daee6" opacity=".25" stroke-width="3"/>
 </g>
 <g id="selected-bottom" transform="matrix(-.36641 0 0 -1.5 139.67 1298.8)">
  <path class="ColorScheme-Highlight" d="m190.14 825.86v4h131v-4z" color="#3daee6" opacity=".25"/>
 </g>
 <g id="selected-bottomleft" transform="matrix(-1.5 0 0 -1.5 502.71 1298.8)">
  <path transform="matrix(-.33333 0 0 -.33333 340.81 846.86)" d="m47 51c0 6.648 5.352 12 12 12v-12z" color="#3daee6" opacity=".25" stroke-width="3"/>
 </g>
 <path id="hover-center" class="ColorScheme-Highlight" d="m21 100v32h48v-32z" color="#3daee6" opacity=".15" stroke-width=".8165"/>
 <g id="hover-left" transform="matrix(1.5 0 0 2 -265.21 -1559.7)">
  <path class="ColorScheme-Highlight" d="m186.14 829.86v16h4v-16z" color="#3daee6" opacity=".15"/>
 </g>
 <g id="hover-topleft" transform="matrix(1.5 0 0 1.5 -265.21 -1145.8)">
  <path transform="matrix(.33333 0 0 .33333 170.47 818.86)" d="m59 21c-6.648 0-12 5.352-12 12h12z" color="#3daee6" opacity=".15" stroke-width="3"/>
 </g>
 <g id="hover-top" transform="matrix(.36641 0 0 1.5 -48.67 -1145.8)">
  <path class="ColorScheme-Highlight" d="m190.14 825.86v4h131v-4z" color="#3daee6" opacity=".15"/>
 </g>
 <g id="hover-topright" transform="matrix(2.25 0 0 2.25 -655.57 -1765.2)">
  <path d="m322.47 825.86v2.6667h2.6667c0-1.4773-1.1893-2.6667-2.6667-2.6667z" color="#3daee6" opacity=".15" stroke-width=".66667"/>
 </g>
 <g id="hover-right" transform="matrix(1.5 0 0 2 -411.71 -1559.7)">
  <path class="ColorScheme-Highlight" d="m325.14 829.86v16h-4v-16z" color="#3daee6" opacity=".15"/>
 </g>
 <g id="hover-bottomright" transform="matrix(-1.5 0 0 -1.5 355.21 1377.8)">
  <path transform="matrix(-.33333 0 0 -.33333 215.81 846.86)" d="m77 51v12c6.648 0 12-5.352 12-12z" color="#3daee6" opacity=".15" stroke-width="3"/>
 </g>
 <g id="hover-bottom" transform="matrix(-.36641 0 0 -1.5 138.67 1377.8)">
  <path class="ColorScheme-Highlight" d="m190.14 825.86v4h131v-4z" color="#3daee6" opacity=".15"/>
 </g>
 <g id="hover-bottomleft" transform="matrix(-1.5 0 0 -1.5 501.71 1377.8)">
  <path transform="matrix(-.33333 0 0 -.33333 340.81 846.86)" d="m47 51c0 6.648 5.352 12 12 12v-12z" color="#3daee6" opacity=".15" stroke-width="3"/>
 </g>
 <path id="selected+hover-center" class="ColorScheme-Highlight" d="m111 100v32h48v-32z" color="#3daee6" opacity=".25" stroke-width=".8165"/>
 <g id="selected+hover-left" transform="matrix(1.5 0 0 2 -175.21 -1559.7)">
  <path class="ColorScheme-Highlight" d="m186.14 829.86v16h4v-16z" color="#3daee6" opacity=".25"/>
 </g>
 <g id="selected+hover-topleft" transform="matrix(1.5 0 0 1.5 -175.21 -1145.8)">
  <path transform="matrix(.33333 0 0 .33333 170.47 818.86)" d="m59 21c-6.648 0-12 5.352-12 12h12z" color="#3daee6" opacity=".25" stroke-width="3"/>
 </g>
 <g id="selected+hover-top" transform="matrix(.36641 0 0 1.5 41.33 -1145.8)">
  <path class="ColorScheme-Highlight" d="m190.14 825.86v4h131v-4z" color="#3daee6" opacity=".25"/>
 </g>
 <g id="selected+hover-topright" transform="matrix(2.25 0 0 2.25 -565.57 -1765.2)">
  <path d="m322.47 825.86v2.6667h2.6667c0-1.4773-1.1893-2.6667-2.6667-2.6667z" color="#3daee6" opacity=".25" stroke-width=".66667"/>
 </g>
 <g id="selected+hover-right" transform="matrix(1.5 0 0 2 -321.71 -1559.7)">
  <path class="ColorScheme-Highlight" d="m325.14 829.86v16h-4v-16z" color="#3daee6" opacity=".25"/>
 </g>
 <g id="selected+hover-bottomright" transform="matrix(-1.5 0 0 -1.5 445.21 1377.8)">
  <path transform="matrix(-.33333 0 0 -.33333 215.81 846.86)" d="m77 51v12c6.648 0 12-5.352 12-12z" color="#3daee6" opacity=".25" stroke-width="3"/>
 </g>
 <g id="selected+hover-bottom" transform="matrix(-.36641 0 0 -1.5 228.67 1377.8)">
  <path class="ColorScheme-Highlight" d="m190.14 825.86v4h131v-4z" color="#3daee6" opacity=".25"/>
 </g>
 <g id="selected+hover-bottomleft" transform="matrix(-1.5 0 0 -1.5 591.71 1377.8)">
  <path transform="matrix(-.33333 0 0 -.33333 340.81 846.86)" d="m47 51c0 6.648 5.352 12 12 12v-12z" color="#3daee6" opacity=".25" stroke-width="3"/>
 </g>
 <path id="normal-center" class="ColorScheme-Highlight" d="m108.86 22.572v32h48v-32z" color="#3daee6" opacity="0" stroke-width=".8165"/>
 <g id="normal-left" transform="matrix(1.5 0 0 2 -177.35 -1637.1)" opacity="0">
  <path class="ColorScheme-Highlight" d="m186.14 829.86v16h4v-16z" color="#3daee6" opacity=".25"/>
 </g>
 <g id="normal-topleft" transform="matrix(1.5 0 0 1.5 -177.35 -1223.2)" opacity="0">
  <path transform="matrix(.33333 0 0 .33333 170.47 818.86)" d="m59 21c-6.648 0-12 5.352-12 12h12z" color="#3daee6" opacity=".25" stroke-width="3"/>
 </g>
 <g id="normal-top" transform="matrix(.36641 0 0 1.5 39.188 -1223.2)" opacity="0">
  <path class="ColorScheme-Highlight" d="m190.14 825.86v4h131v-4z" color="#3daee6" opacity=".25"/>
 </g>
 <g id="normal-topright" transform="matrix(2.25 0 0 2.25 -567.71 -1842.6)" opacity="0">
  <path d="m322.47 825.86v2.6667h2.6667c0-1.4773-1.1893-2.6667-2.6667-2.6667z" color="#3daee6" opacity=".25" stroke-width=".66667"/>
 </g>
 <g id="normal-right" transform="matrix(1.5 0 0 2 -323.85 -1637.1)" opacity="0">
  <path class="ColorScheme-Highlight" d="m325.14 829.86v16h-4v-16z" color="#3daee6" opacity=".25"/>
 </g>
 <g id="normal-bottomright" transform="matrix(-1.5 0 0 -1.5 443.07 1300.4)" opacity="0">
  <path transform="matrix(-.33333 0 0 -.33333 215.81 846.86)" d="m77 51v12c6.648 0 12-5.352 12-12z" color="#3daee6" opacity=".25" stroke-width="3"/>
 </g>
 <g id="normal-bottom" transform="matrix(-.36641 0 0 -1.5 226.53 1300.4)" opacity="0">
  <path class="ColorScheme-Highlight" d="m190.14 825.86v4h131v-4z" color="#3daee6" opacity=".25"/>
 </g>
 <g id="normal-bottomleft" transform="matrix(-1.5 0 0 -1.5 589.57 1300.4)" opacity="0">
  <path transform="matrix(-.33333 0 0 -.33333 340.81 846.86)" d="m47 51c0 6.648 5.352 12 12 12v-12z" color="#3daee6" opacity=".25" stroke-width="3"/>
 </g>
</svg>
