<svg width="32" height="32" version="1.1" viewBox="0 0 32 32" xmlns="http://www.w3.org/2000/svg">
 <defs>
  <style id="current-color-scheme" type="text/css">.ColorScheme-Text {
        color:#4d4d4d;
      }</style>
 </defs>
 <g id="system-suspend-hibernate" transform="translate(40,-75)">
  <rect x="-40" y="75" width="32" height="32" rx="0" ry="0" fill="none"/>
  <path class="ColorScheme-Text" d="m-24 80a11 11 0 0 0-11 11 11 11 0 0 0 11 11 11 11 0 0 0 11-11 11 11 0 0 0-11-11zm0 2a9 9 0 0 1 9 9 9 9 0 0 1-9 9 9 9 0 0 1-9-9 9 9 0 0 1 9-9z" fill="#ffffff"/>
  <rect class="ColorScheme-Text" x="-30" y="90" width="12" height="2" rx="1" ry="1" fill="#ffffff" opacity=".45"/>
 </g>
</svg>
