<svg width="32" height="32" version="1.1" xmlns="http://www.w3.org/2000/svg">
 <defs>
  <style id="current-color-scheme" type="text/css">.ColorScheme-Text {
        color:#31363b;
      }
      .ColorScheme-Background{
        color:#eff0f1;
      }
      .ColorScheme-ViewText {
        color:#31363b;
      }
      .ColorScheme-ViewBackground{
        color:#fcfcfc;
      }
      .ColorScheme-ViewHover {
        color:#3daee9;
      }
      .ColorScheme-ViewFocus{
        color:#3daee9;
      }
      .ColorScheme-ButtonText {
        color:#31363b;
      }
      .ColorScheme-ButtonBackground{
        color:#eff0f1;
      }
      .ColorScheme-ButtonHover {
        color:#3daee9;
      }
      .ColorScheme-ButtonFocus{
        color:#3daee9;
      }</style>
 </defs>
 <g id="system-switch-user" transform="translate(-55,-150)">
  <rect x="55" y="150" width="32" height="32" rx="0" ry="0" fill="none"/>
  <g transform="translate(-3 -1.0004)" fill="#ffffff">
   <path class="ColorScheme-Text" d="m64 162c-0.554 0-1 0.446-1 1s0.446 1 1 1h20c0.554 0 1-0.446 1-1s-0.446-1-1-1zm0 8c-0.554 0-1 0.446-1 1s0.446 1 1 1h20c0.554 0 1-0.446 1-1s-0.446-1-1-1z"/>
   <path class="ColorScheme-Text" d="m79.049 157.05c-0.25562 0-0.51116 0.0971-0.70703 0.29297-0.39174 0.39173-0.39174 1.0223 0 1.4141l4.9492 4.9512c0.39174 0.39174 1.0243 0.39174 1.416 0s0.39174-1.0243 0-1.416l-4.9512-4.9492c-0.19587-0.19587-0.45141-0.29297-0.70703-0.29297zm-15.049 12.951c-0.25562 0-0.51116 0.0971-0.70703 0.29297-0.39174 0.39174-0.39174 1.0243 0 1.416l4.9512 4.9492c0.39174 0.39174 1.0223 0.39174 1.4141 0 0.39174-0.39173 0.39174-1.0223 0-1.4141l-4.9492-4.9512c-0.19587-0.19587-0.45336-0.29297-0.70898-0.29297z" opacity=".45"/>
  </g>
 </g>
</svg>
