<svg width="200" height="200" version="1.0" xmlns="http://www.w3.org/2000/svg">
 <defs>
  <radialGradient id="radialGradient4671" cx="1255.9" cy="382.73" r="96.606" gradientTransform="matrix(1.0765 0 0 1.0765 -1252 -310.02)" gradientUnits="userSpaceOnUse">
   <stop stop-color="#232629" offset="0"/>
   <stop stop-color="#232629" stop-opacity=".52349" offset=".9"/>
   <stop stop-color="#232629" stop-opacity=".10738" offset=".96"/>
   <stop stop-color="#232629" stop-opacity="0" offset="1"/>
  </radialGradient>
 </defs>
 <g id="ClockFace">
  <circle cx="100" cy="102" r="104" fill="url(#radialGradient4671)"/>
  <circle cx="100" cy="100" r="98" fill="#1a1a1a" opacity=".8"/>
  <path d="m100 10c-0.554 0-1 0.446-1 1v14c0 0.554 0.446 1 1 1s1-0.446 1-1v-14c0-0.554-0.446-1-1-1zm-89 89c-0.554 0-1 0.446-1 1s0.446 1 1 1h14c0.554 0 1-0.446 1-1s-0.446-1-1-1h-14zm164 0c-0.554 0-1 0.446-1 1s0.446 1 1 1h14c0.554 0 1-0.446 1-1s-0.446-1-1-1h-14zm-75 75c-0.554 0-1 0.446-1 1v14c0 0.554 0.446 1 1 1s1-0.446 1-1v-14c0-0.554-0.446-1-1-1z" fill="#fff" opacity=".95" stroke-linecap="square" stroke-width="2.6252"/>
  <path d="m55.377 21.93c-0.12891 0.016152-0.25701 0.059656-0.37695 0.12891-0.47978 0.277-0.64223 0.88546-0.36523 1.3652l5 8.6602c0.277 0.47978 0.88546 0.64224 1.3652 0.36524s0.64223-0.88546 0.36523-1.3652l-5-8.6602c-0.20775-0.35983-0.60154-0.5426-0.98828-0.49414zm89.246 0c-0.38674-0.048457-0.78053 0.13431-0.98828 0.49414l-5 8.6602c-0.277 0.47978-0.11455 1.0882 0.36523 1.3652s1.0882 0.11454 1.3652-0.36524l5-8.6602c0.277-0.47978 0.11455-1.0882-0.36523-1.3652-0.11994-0.06925-0.24804-0.11275-0.37695-0.12891zm-121.58 32.578c-0.38674-0.048456-0.78053 0.13235-0.98828 0.49219-0.277 0.47978-0.11454 1.0882 0.36523 1.3652l8.6602 5c0.47978 0.277 1.0882 0.11454 1.3652-0.36523s0.11454-1.0882-0.36524-1.3652l-8.6602-5c-0.11994-0.06925-0.24804-0.1108-0.37695-0.12695zm153.91 0c-0.12891 0.016153-0.257 0.057704-0.37695 0.12695l-8.6602 5c-0.47978 0.277-0.64224 0.88546-0.36524 1.3652s0.88546 0.64223 1.3652 0.36523l8.6602-5c0.47978-0.277 0.64224-0.88546 0.36524-1.3652-0.20775-0.35983-0.60154-0.54064-0.98829-0.49219zm-145.49 84c-0.12891 0.01615-0.25701 0.05771-0.37695 0.12696l-8.6602 5c-0.47978 0.277-0.64223 0.88545-0.36523 1.3652s0.88546 0.64223 1.3652 0.36523l8.6602-5c0.47978-0.277 0.64224-0.88545 0.36524-1.3652-0.20775-0.35983-0.60154-0.54064-0.98828-0.49219zm137.08 0c-0.38674-0.04845-0.78053 0.13236-0.98828 0.49219-0.277 0.47978-0.11454 1.0882 0.36524 1.3652l8.6602 5c0.47978 0.277 1.0882 0.11455 1.3652-0.36523s0.11454-1.0882-0.36524-1.3652l-8.6602-5c-0.11995-0.06925-0.24804-0.11081-0.37696-0.12696zm-107.92 28.914c-0.38674-0.04846-0.78053 0.1343-0.98828 0.49414l-5 8.6602c-0.277 0.47978-0.11454 1.0882 0.36523 1.3652s1.0882 0.11454 1.3652-0.36524l5-8.6602c0.277-0.47978 0.11454-1.0882-0.36523-1.3652-0.11994-0.06925-0.24804-0.11275-0.37695-0.1289zm78.754 0c-0.12891 0.01615-0.25701 0.05965-0.37695 0.1289-0.47978 0.277-0.64223 0.88546-0.36523 1.3652l5 8.6602c0.277 0.47978 0.88545 0.64224 1.3652 0.36524s0.64223-0.88546 0.36523-1.3652l-5-8.6602c-0.20775-0.35984-0.60154-0.5426-0.98828-0.49414z" fill="#fff" opacity=".5" stroke-linecap="square" stroke-width="2.2735"/>
  <path d="m109.39 10.49c-0.27549-0.028893-0.52189 0.16982-0.55078 0.44531l-0.73047 6.9629c-0.02889 0.27549 0.16983 0.51993 0.44531 0.54883 0.27549 0.028893 0.52189-0.16982 0.55079-0.44531l0.72851-6.9609c0.02889-0.27549-0.16787-0.52189-0.44336-0.55078zm-18.967 0.021485c-0.27543 0.029481-0.47479 0.27535-0.44531 0.55078l0.74609 6.959c0.029481 0.27543 0.27536 0.47284 0.55078 0.44336 0.27543-0.029481 0.47284-0.2734 0.44336-0.54883l-0.74414-6.9609c-0.029481-0.27543-0.27535-0.47284-0.55078-0.44336zm28.16 1.4668c-0.19142 0.036564-0.35118 0.18354-0.39453 0.38672l-1.4609 6.8457c-0.0578 0.2709 0.11387 0.53595 0.38477 0.59375s0.53399-0.11386 0.59179-0.38477l1.4609-6.8457c0.0578-0.2709-0.11386-0.53595-0.38476-0.59375-0.06773-0.01445-0.13346-0.014142-0.19727-0.001953zm-37.23 0.013672c-0.063816-0.01214-0.1315-0.010597-0.19922 0.003906-0.27086 0.058009-0.44278 0.32289-0.38477 0.59375l1.4668 6.8438c0.058009 0.27086 0.32289 0.44278 0.59375 0.38476 0.27086-0.058009 0.44082-0.32289 0.38281-0.59375l-1.4648-6.8457c-0.043507-0.20314-0.20308-0.3503-0.39453-0.38672zm46.201 2.3691c-0.19417 0.016645-0.36953 0.14808-0.43359 0.3457l-2.1582 6.6582c-0.08541 0.2635 0.05876 0.54545 0.32226 0.63086 0.26351 0.085408 0.5435-0.058762 0.62891-0.32227l2.1602-6.6582c0.0854-0.2635-0.05877-0.54545-0.32227-0.63086-0.06588-0.021352-0.13254-0.028986-0.19727-0.023438zm-55.172 0.021484c-0.064727-0.005498-0.13141 0.002035-0.19726 0.023438-0.26344 0.085611-0.40592 0.36742-0.32031 0.63086l2.1641 6.6562c0.085611 0.26344 0.36547 0.40592 0.62891 0.32031s0.40788-0.36547 0.32227-0.62891l-2.1641-6.6582c-0.064208-0.19758-0.23941-0.32725-0.43359-0.34375zm63.941 3.3145c-0.19485-0.003671-0.38056 0.10895-0.46485 0.29883l-2.8418 6.3965c-0.11238 0.25318 0.00269 0.54777 0.25586 0.66016 0.25318 0.11239 0.54582-7.31e-4 0.65821-0.25391l2.8418-6.3984c0.11239-0.25318-0.00268-0.54777-0.25586-0.66016-0.06329-0.028097-0.1284-0.041745-0.19335-0.042968zm-72.82 0.078125c-0.064946 0.001362-0.13013 0.014736-0.19336 0.042968-0.25294 0.11293-0.36684 0.40918-0.25391 0.66211l2.8535 6.3906c0.11293 0.25293 0.40918 0.36684 0.66211 0.25391 0.25294-0.11293 0.36488-0.40918 0.25195-0.66211l-2.8535-6.3906c-0.084697-0.1897-0.27196-0.30096-0.4668-0.29688zm89.012 9.3125c-0.12623 0.020018-0.24478 0.089107-0.32617 0.20117l-4.1133 5.6641c-0.16277 0.22413-0.1128 0.53449 0.11133 0.69727s0.53644 0.11475 0.69922-0.10938l4.1133-5.6641c0.16277-0.22413 0.1128-0.53645-0.11133-0.69922-0.11207-0.081386-0.24682-0.10986-0.37305-0.089843zm-105.16 0.095703c-0.12627-0.019791-0.25918 0.008255-0.37109 0.089844-0.22384 0.16318-0.27255 0.47538-0.10938 0.69922l4.123 5.6562c0.16318 0.22384 0.47538 0.27255 0.69922 0.10938 0.22384-0.16318 0.27255-0.47538 0.10938-0.69922l-4.123-5.6562c-0.081589-0.11192-0.20186-0.17943-0.32812-0.19922zm112.56 5.8535c-0.12764 0.006587-0.25294 0.061211-0.3457 0.16406l-4.6875 5.1992c-0.18551 0.2057-0.16859 0.51956 0.03711 0.70508 0.2057 0.18551 0.51956 0.17055 0.70508-0.035157l4.6894-5.1992c0.18551-0.2057 0.16859-0.51956-0.03711-0.70508-0.10285-0.092757-0.23369-0.13549-0.36133-0.12891zm-119.86 0.025391c-0.12764-0.006531-0.25852 0.036104-0.36133 0.12891-0.20562 0.1856-0.22076 0.50141-0.035156 0.70703l4.6895 5.1953c0.1856 0.20562 0.50141 0.22271 0.70703 0.037109 0.20562-0.1856 0.22076-0.50141 0.035156-0.70703l-4.6895-5.1953c-0.092802-0.10281-0.21806-0.15948-0.3457-0.16602zm126.44 6.5039c-0.12764-0.0066-0.25846 0.036161-0.36132 0.12891l-5.1992 4.6875c-0.20573 0.18549-0.22065 0.50131-0.03516 0.70703s0.49936 0.22065 0.70508 0.035156l5.1992-4.6875c0.20572-0.18549 0.2226-0.49936 0.03711-0.70508-0.09275-0.10286-0.21807-0.15942-0.34571-0.16602zm-133.02 0.029297c-0.12764 0.006657-0.253 0.063114-0.3457 0.16602-0.1854 0.2058-0.16869 0.51968 0.03711 0.70508l5.1992 4.6855c0.2058 0.1854 0.52163 0.1687 0.70703-0.03711 0.1854-0.2058 0.1687-0.51968-0.03711-0.70508l-5.2012-4.6855c-0.1029-0.0927-0.23174-0.13556-0.35938-0.12891zm138.95 7.2266c-0.12626-0.01986-0.26109 0.008316-0.37305 0.089843l-5.6582 4.1211c-0.22393 0.16306-0.27243 0.47334-0.10938 0.69727 0.16306 0.22392 0.47334 0.27438 0.69727 0.11133l5.6582-4.1211c0.22393-0.16306 0.27438-0.47529 0.11133-0.69922-0.08153-0.11196-0.19992-0.17936-0.32617-0.19922zm-144.96 0.13086c-0.12622 0.020087-0.24485 0.08711-0.32617 0.19922-0.16265 0.22422-0.11289 0.53657 0.11133 0.69922l5.666 4.1094c0.22422 0.16265 0.53657 0.11484 0.69922-0.10938s0.11289-0.53657-0.11133-0.69922l-5.666-4.1094c-0.11211-0.081326-0.24682-0.10993-0.37305-0.089844zm154.27 16.123c-0.06495 0.00131-0.1301 0.01674-0.19336 0.044922l-6.3945 2.8477c-0.25302 0.11273-0.36663 0.40713-0.25391 0.66016 0.11273 0.25302 0.40714 0.36663 0.66016 0.25391l6.3945-2.8496c0.25303-0.11273 0.36663-0.40713 0.25391-0.66016-0.08455-0.18977-0.27196-0.3008-0.4668-0.29688zm-163.85 0.81641c-0.19487-0.00199-0.38024 0.11018-0.46289 0.30078-0.1102 0.25414 0.00563 0.548 0.25976 0.6582l6.4219 2.7852c0.25414 0.1102 0.548-0.005631 0.6582-0.25977 0.1102-0.25414-0.005631-0.548-0.25976-0.6582l-6.4238-2.7852c-0.063534-0.027551-0.1284-0.040353-0.19336-0.041016zm167.29 8.0156c-0.06472-0.00555-0.13139 0.002088-0.19726 0.023438l-6.6602 2.1582c-0.2635 0.0854-0.40571 0.3654-0.32031 0.62891s0.3654 0.40766 0.62891 0.32227l6.6602-2.1582c0.26351-0.085399 0.40571-0.36735 0.32031-0.63086-0.06405-0.19763-0.23747-0.3271-0.43164-0.34375zm-170.61 0.73242c-0.19402 0.018319-0.36734 0.15144-0.42969 0.34961-0.083133 0.26423 0.063894 0.54382 0.32812 0.62695l6.6758 2.0996c0.26423 0.083132 0.54382-0.061941 0.62695-0.32617 0.083132-0.26423-0.061941-0.54382-0.32617-0.62695l-6.6777-2.1016c-0.066058-0.020783-0.13259-0.02759-0.19727-0.021484zm173.05 8.1953c-0.06381-0.012191-0.13149-0.012495-0.19922 0.001953l-6.8457 1.4609c-0.27091 0.057792-0.44256 0.32285-0.38477 0.59375s0.32285 0.44256 0.59375 0.38477l6.8457-1.4609c0.2709-0.057792 0.44255-0.32285 0.38476-0.59375-0.04334-0.20318-0.20311-0.35015-0.39453-0.38672zm-175.41 0.75391c-0.1911 0.038214-0.34903 0.18708-0.39062 0.39062-0.055463 0.27139 0.11923 0.53438 0.39062 0.58984l6.8574 1.4004c0.27139 0.055462 0.53438-0.11728 0.58984-0.38867s-0.11728-0.53438-0.38867-0.58984l-6.8594-1.4023c-0.067847-0.013866-0.13552-0.012738-0.19922 0zm176.73 8.459-6.9609 0.73828c-0.27545 0.029261-0.47457 0.27533-0.44531 0.55078s0.27533 0.47457 0.55078 0.44531l6.9609-0.74023c0.27545-0.029261 0.47262-0.27533 0.44336-0.55078s-0.27337-0.47262-0.54882-0.44336zm-177.99 0.88672c-0.27573-0.026517-0.5184 0.17349-0.54492 0.44922-0.026516 0.27573 0.17349 0.5184 0.44922 0.54492l6.9668 0.66992c0.27573 0.026517 0.52036-0.17349 0.54688-0.44922 0.026517-0.27573-0.17544-0.51841-0.45117-0.54492l-6.9668-0.66992zm171.21 16.465c-0.27573-0.02652-0.52036 0.17349-0.54687 0.44922-0.02652 0.27573 0.17544 0.5184 0.45117 0.54492l6.9668 0.66992c0.27572 0.02652 0.5184-0.17349 0.54492-0.44922 0.02651-0.27572-0.17349-0.5184-0.44922-0.54492l-6.9668-0.66992zm-164.26 0.81641-6.9609 0.74023c-0.27545 0.02926-0.47262 0.27533-0.44336 0.55078 0.029261 0.27545 0.27338 0.47262 0.54883 0.44336l6.9609-0.73828c0.27545-0.02926 0.47457-0.27533 0.44531-0.55078s-0.27533-0.47457-0.55078-0.44531zm162.82 7.8105c-0.1911 0.03822-0.34903 0.18709-0.39063 0.39063-0.05546 0.27139 0.11728 0.53438 0.38868 0.58984l6.8594 1.4024c0.27139 0.05546 0.53438-0.11924 0.58984-0.39063 0.05547-0.27139-0.11923-0.53438-0.39062-0.58984l-6.8574-1.4004c-0.06785-0.01387-0.13552-0.01469-0.19922-0.00196zm-161.32 0.69336c-0.063807-0.01219-0.13149-0.01249-0.19922 0.00196l-6.8457 1.4609c-0.2709 0.0578-0.44256 0.32285-0.38476 0.59375 0.057792 0.27091 0.32285 0.44256 0.59375 0.38477l6.8457-1.4609c0.2709-0.05779 0.44256-0.32284 0.38477-0.59375-0.043345-0.20318-0.20311-0.35015-0.39453-0.38672zm159.24 7.541c-0.19402 0.01832-0.36539 0.14948-0.42774 0.34766-0.08313 0.26423 0.06194 0.54382 0.32618 0.62695l6.6777 2.1016c0.26423 0.08313 0.54382-0.06389 0.62695-0.32812 0.08313-0.26424-0.06389-0.54383-0.32812-0.62696l-6.6758-2.0996c-0.06606-0.02078-0.13455-0.02759-0.19922-0.02148zm-157.09 0.67383c-0.064723-0.00555-0.13139 0.00208-0.19727 0.02343l-6.6602 2.1582c-0.26351 0.0854-0.40571 0.36735-0.32031 0.63086 0.085399 0.2635 0.3654 0.40571 0.62891 0.32031l6.6602-2.1582c0.26351-0.0854 0.40571-0.3654 0.32031-0.62891-0.06405-0.19763-0.23747-0.32905-0.43164-0.3457zm154.13 7.3867c-0.19487-0.00199-0.38219 0.11018-0.46484 0.30078-0.1102 0.25413 0.00563 0.548 0.25976 0.6582l6.4238 2.7852c0.25414 0.1102 0.54605-0.00563 0.65625-0.25977 0.1102-0.25413-0.00563-0.548-0.25976-0.6582l-6.4219-2.7852c-0.06353-0.02755-0.1284-0.04035-0.19336-0.04101zm-151.06 0.75195c-0.064947 0.00131-0.1301 0.01479-0.19336 0.04297l-6.3945 2.8496c-0.25302 0.11272-0.36663 0.40713-0.25391 0.66015 0.11273 0.25303 0.40713 0.36468 0.66016 0.25196l6.3945-2.8477c0.25302-0.11273 0.36663-0.40713 0.25391-0.66016-0.084545-0.18976-0.27195-0.3008-0.4668-0.29687zm142.07 14.875c-0.12622 0.02009-0.24484 0.08711-0.32617 0.19922-0.16265 0.22422-0.11289 0.53657 0.11133 0.69922l5.666 4.1094c0.22422 0.16265 0.53657 0.11484 0.69922-0.10937 0.16265-0.22422 0.11289-0.53657-0.11133-0.69922l-5.666-4.1094c-0.11211-0.08132-0.24683-0.10993-0.37305-0.08984zm-133.32 0.11914c-0.12626-0.01986-0.25913 0.00832-0.37109 0.08984l-5.6582 4.1211c-0.22392 0.16305-0.27438 0.47529-0.11133 0.69922 0.16305 0.22392 0.47529 0.27243 0.69922 0.10937l5.6582-4.1211c0.22392-0.16306 0.27243-0.47334 0.10938-0.69727-0.081528-0.11196-0.19992-0.18131-0.32617-0.20117zm127.88 6.6504c-0.12763 0.00666-0.253 0.06311-0.3457 0.16602-0.1854 0.2058-0.1687 0.51967 0.03711 0.70507l5.2012 4.6856c0.2058 0.1854 0.51968 0.1687 0.70508-0.03711 0.1854-0.2058 0.16869-0.51968-0.03711-0.70508l-5.1992-4.6855c-0.1029-0.0927-0.23369-0.13557-0.36133-0.12891zm-122.52 0.02734c-0.12764-0.0066-0.25651 0.03616-0.35938 0.12891l-5.1992 4.6875c-0.20572 0.18549-0.2226 0.49936-0.037109 0.70508s0.50131 0.2226 0.70703 0.03711l5.1992-4.6875c0.20572-0.18549 0.22065-0.50131 0.035156-0.70703-0.092745-0.10287-0.21806-0.15747-0.3457-0.16407zm116.55 5.9961c-0.12765-0.00653-0.25852 0.03415-0.36133 0.12695-0.20562 0.1856-0.22076 0.50141-0.03516 0.70703l4.6895 5.1953c0.1856 0.20563 0.50141 0.22272 0.70703 0.03711 0.20562-0.1856 0.22076-0.50141 0.03515-0.70703l-4.6894-5.1953c-0.0928-0.10281-0.21806-0.15753-0.3457-0.16406zm-110.58 0.02343c-0.12764 0.00659-0.25295 0.06122-0.3457 0.16407l-4.6895 5.1992c-0.18551 0.2057-0.16859 0.51956 0.037109 0.70507 0.2057 0.18552 0.52152 0.17055 0.70703-0.03515l4.6875-5.1992c0.18551-0.2057 0.16859-0.51957-0.03711-0.70508-0.10285-0.09276-0.23174-0.13549-0.35938-0.12891zm103.96 5.4063c-0.12626-0.0198-0.26112 0.00825-0.37304 0.08984-0.22384 0.16318-0.27255 0.47538-0.10938 0.69922l4.123 5.6562c0.16318 0.22383 0.47538 0.27255 0.69922 0.10937 0.22383-0.16317 0.27255-0.47538 0.10937-0.69922l-4.123-5.6562c-0.08159-0.11191-0.19991-0.17942-0.32618-0.19921zm-97.236 0.08789c-0.12623 0.02001-0.24478 0.08715-0.32617 0.19921l-4.1133 5.6641c-0.16277 0.22413-0.1128 0.53644 0.11133 0.69922 0.22413 0.16277 0.53645 0.1128 0.69922-0.11133l4.1133-5.6641c0.16277-0.22413 0.1128-0.5345-0.11133-0.69727-0.11206-0.08139-0.24682-0.10986-0.37305-0.08984zm82.184 8.5723c-0.06495 0.00136-0.13208 0.01474-0.19531 0.04297-0.25294 0.11293-0.36489 0.40917-0.25196 0.66211l2.8535 6.3906c0.11293 0.25294 0.40722 0.36684 0.66016 0.25391 0.25293-0.11293 0.36683-0.40917 0.2539-0.66211l-2.8535-6.3906c-0.0847-0.1897-0.27196-0.30096-0.4668-0.29688zm-67.09 0.07227c-0.19485-0.00367-0.38055 0.10699-0.46484 0.29687l-2.8418 6.3984c-0.11239 0.25317 0.002684 0.54777 0.25586 0.66016s0.54581-0.00269 0.6582-0.25586l2.8418-6.3965c0.11239-0.25317-0.002684-0.54776-0.25586-0.66015-0.063294-0.0281-0.12841-0.04175-0.19336-0.04297zm59.006 3.0586c-0.06473-0.0055-0.13141 0.00204-0.19727 0.02344-0.26344 0.08561-0.40788 0.36547-0.32227 0.6289l2.1641 6.6582c0.08561 0.26344 0.36742 0.40592 0.63086 0.32031 0.26343-0.08561 0.40592-0.36742 0.32031-0.63086l-2.1641-6.6562c-0.06421-0.19758-0.23746-0.32725-0.43164-0.34375zm-51.021 0.01953c-0.19417 0.01665-0.36758 0.14612-0.43164 0.34375l-2.1602 6.6582c-0.085407 0.2635 0.058762 0.54545 0.32227 0.63085 0.2635 0.08541 0.54545-0.05876 0.63086-0.32226l2.1582-6.6582c0.085408-0.26351-0.058761-0.54546-0.32226-0.63086-0.065876-0.02136-0.13254-0.02704-0.19727-0.02149zm42.852 2.1973c-0.06381-0.01214-0.1315-0.01255-0.19921 0.00195-0.27086 0.05801-0.44083 0.32289-0.38282 0.59375l1.4648 6.8457c0.05801 0.27086 0.32289 0.44083 0.59375 0.38282 0.27085-0.05801 0.44277-0.3229 0.38476-0.59375l-1.4668-6.8438c-0.0435-0.20315-0.20308-0.35031-0.39453-0.38672zm-34.68 0.01367c-0.19142 0.03656-0.35118 0.18354-0.39453 0.38672l-1.4609 6.8457c-0.057801 0.2709 0.11386 0.53595 0.38476 0.59375s0.534-0.11386 0.5918-0.38476l1.4609-6.8457c0.0578-0.2709-0.11386-0.53595-0.38477-0.59375-0.067726-0.01445-0.13346-0.01414-0.19727-0.00195zm26.035 1.3418c-0.27542 0.02948-0.47284 0.2734-0.44336 0.54882l0.74414 6.9609c0.02948 0.27543 0.27536 0.47284 0.55078 0.44336 0.27543-0.02948 0.4748-0.27535 0.44532-0.55078l-0.7461-6.959c-0.02948-0.27543-0.27535-0.47284-0.55078-0.44336zm-17.279 0.01757c-0.27549-0.02889-0.52189 0.16983-0.55078 0.44532l-0.72852 6.9609c-0.028893 0.27549 0.16982 0.52189 0.44531 0.55079 0.27549 0.02889 0.51994-0.16983 0.54883-0.44532l0.73047-6.9629c0.028893-0.27549-0.16982-0.51993-0.44531-0.54883z" fill="#fff" opacity=".2" stroke-linecap="square" stroke-width="1.3126"/>
 </g>
 <g id="HourHand" transform="translate(47)" stroke-linecap="square">
  <rect x="70" y="91" width="18" height="64" rx="0" ry="0" fill="none" stroke-width="2.9248"/>
  <path d="m79 100c1.108 0 3.0222 0.89222 3 2l-1 50c-0.0222 1.1078-0.892 2-2 2s-1.9778-0.89222-2-2l-1-50c-0.02216-1.1078 1.892-2 3-2z" fill="#f9f9f9" stroke-width="2.2678"/>
  <circle cx="79" cy="100" r="6" fill="#242424" stroke-width="3.6"/>
  <circle cx="79" cy="100" r="4" fill="#33a0ff" stroke-width="2.4"/>
  <circle cx="79" cy="100" r="2" fill="#242424" stroke-width="1.2"/>
 </g>
 <g id="SecondHand" stroke-linecap="square">
  <rect x="96" y="96" width="8" height="81" rx="0" ry="0" fill="none" stroke-width="3.6"/>
  <circle cx="100" cy="100" r="4" fill="#33a0ff" stroke-width="1.6"/>
  <path d="m100 100c0.554 0 2.0079 0.44606 2 1l-1 70c-8e-3 0.55394-0.446 1-1 1s-0.99209-0.44606-1-1l-1-70c-0.0079-0.55394 1.446-1 2-1z" fill="#33a0ff" stroke-width="3.2696"/>
  <circle cx="100" cy="100" r="2" fill="#242424" stroke-width=".8"/>
 </g>
 <g id="MinuteHand" transform="translate(-85)" stroke-linecap="square">
  <rect x="149" y="94" width="12" height="85" rx="0" ry="0" fill="none" stroke-width="2.7521"/>
  <path d="m155 100c1.1079 0 3.0161 0.89206 2.9998 1.9999l-0.99975 68c-0.01629 1.1078-0.89194 1.9999-1.9999 1.9999s-1.9836-0.89206-1.9999-1.9999l-1.0001-68c-0.01629-1.1078 1.8919-1.9999 2.9998-1.9999z" fill="#f9f9f9" stroke-width="2.2676"/>
  <circle cx="155" cy="100" r="6" fill="#242424" stroke-width="3.6"/>
  <circle cx="155" cy="100" r="4" fill="#33a0ff" stroke-width="2.4"/>
  <circle cx="155" cy="100" r="2" fill="#242424" stroke-width="1.2"/>
 </g>
</svg>
