<svg width="124" height="52" version="1.1" viewBox="0 0 32.808 13.758" xmlns="http://www.w3.org/2000/svg">
 <defs>
  <style id="current-color-scheme" type="text/css">.ColorScheme-Text {
        color:#dedede;
      }</style>
 </defs>
 <g id="menu" transform="translate(.52916 -249.38)">
  <rect x="-.52917" y="249.37" width="4.2333" height="4.2333" fill="none"/>
  <rect x="-1.0174e-6" y="249.9" width="3.175" height="3.175" fill="none"/>
  <path class="ColorScheme-Text" d="m4.5328e-8 250.17v0.52917h3.175v-0.52917zm0 1.0583v0.52917h3.175v-0.52917zm0 1.0583v0.52916h3.175v-0.52916z" fill="currentColor"/>
 </g>
 <g id="collapse" transform="translate(.52876 -249.38)">
  <rect x="23.283" y="254.14" width="4.2333" height="4.2333" fill="none"/>
  <rect x="23.813" y="254.67" width="3.175" height="3.175" fill="none"/>
  <path class="ColorScheme-Text" d="m24.606 254.67 0.79375 0.79375 0.79375-0.79375zm-1.0583 1.3229v0.52917h3.7042v-0.52917zm1.8521 1.0583-0.79375 0.79375h1.5875z" fill="currentColor"/>
 </g>
 <g id="return-to-source" transform="translate(.52793 -249.38)">
  <rect x="18.521" y="254.14" width="4.2333" height="4.2333" fill="none"/>
  <path class="ColorScheme-Text" transform="matrix(.26458 0 0 .26458 -.52917 249.37)" d="m74 19c-0.554 0-1 0.44599-1 1v12c0 0.55401 0.446 1 1 1h12c0.554 0 1-0.44599 1-1v-12c0-0.55401-0.446-1-1-1zm4 2h4l-2 2zm-3 4h10v2h-10zm5 4 2 2h-4z" fill="currentColor"/>
 </g>
 <g id="restore" transform="translate(.52859 -249.38)">
  <rect x="28.046" y="254.14" width="4.2333" height="4.2333" fill="none"/>
  <rect x="28.575" y="254.67" width="3.175" height="3.175" fill="none"/>
  <path class="ColorScheme-Text" d="m29.369 255.46 0.79376-0.79375 0.79374 0.79375zm-1.0583 0.52917v0.52917h3.7042v-0.52917zm1.8521 1.8521-0.79376-0.79375h1.5875z" fill="currentColor"/>
 </g>
 <g id="configure" transform="matrix(.26458 0 0 .26458 -123.54 -26.655)" enable-background="new">
  <path class="ColorScheme-Text" d="m491.19 101.72-0.1543 1.8438a5.5 5.5 0 0 0-1.6074 0.92969l-1.6758-0.78906-1.75 3.0312 1.5215 1.0566a5.5 5.5 0 0 0-0.084 0.92773 5.5 5.5 0 0 0 0.0801 0.93164l-1.5176 1.0527 1.75 3.0312 1.6719-0.7871a5.5 5.5 0 0 0 1.6113 0.92382l0.1543 1.8477h3.5l0.1543-1.8438a5.5 5.5 0 0 0 1.6074-0.92969l1.6758 0.78906 1.75-3.0312-1.5215-1.0566a5.5 5.5 0 0 0 0.084-0.92773 5.5 5.5 0 0 0-0.0801-0.93164l1.5176-1.0527-1.75-3.0312-1.6719 0.7871a5.5 5.5 0 0 0-1.6113-0.92382l-0.1543-1.8477zm1.75 5a2 2 0 0 1 2 2 2 2 0 0 1-2 2 2 2 0 0 1-2-2 2 2 0 0 1 2-2z" enable-background="new" fill="currentColor"/>
  <rect x="484.94" y="100.72" width="16" height="16" enable-background="accumulate" fill="none"/>
 </g>
 <g id="rotate" transform="matrix(.26458 0 0 .26458 -102.92 10.317)" enable-background="new">
  <path class="ColorScheme-Text" transform="translate(241,-473)" d="m192 435c-3.866 0-7 3.134-7 7s3.134 7 7 7c3.1748 0 5.8615-2.1032 6.7188-5h-2.1562c-0.77427 1.7595-2.5168 3-4.5625 3-2.7614 0-5-2.2386-5-5s2.2386-5 5-5c2.0457 0 3.7882 1.2405 4.5625 3h2.1562c-0.85721-2.8968-3.5439-5-6.7188-5z" fill="currentColor"/>
  <rect transform="scale(-1)" x="-441" y="23.016" width="16" height="16" fill="none"/>
  <path class="ColorScheme-Text" transform="translate(241,-473)" d="m193 441 6-6v6z" fill="currentColor"/>
 </g>
 <g id="move" transform="matrix(.26458 0 0 .26458 -50.536 5.2903)" enable-background="new">
  <path class="ColorScheme-Text" d="m253-4.5-3-3.5h2v-2h2v2h2z" fill="currentColor"/>
  <rect transform="matrix(0,1,1,0,0,0)" x="-20.019" y="245" width="16" height="16" enable-background="new" fill="none"/>
  <g class="ColorScheme-Text" fill="currentColor">
   <path d="m253-19.5-3 3.5h2v2h2v-2h2z"/>
   <path d="m260.5-12-3.5-3v2h-2v2h2l-4e-5 2z"/>
   <path d="m245.5-12 3.5-3v2h2v2h-2l-4e-5 2z"/>
  </g>
 </g>
 <g id="size-vertical" transform="matrix(.26458 0 0 .26458 -50.007 -208.23)" enable-background="new">
  <path class="ColorScheme-Text" transform="translate(17,313)" d="m252 474-3 5h2v6h-2l3 5 3-5h-2v-6h2z" fill="currentColor"/>
  <rect transform="scale(-1)" x="-277" y="-803" width="16" height="16" fill="none"/>
 </g>
 <g id="size-horizontal" transform="matrix(.26458 0 0 .26458 -39.953 -208.23)" enable-background="new">
  <path class="ColorScheme-Text" fill="currentColor" transform="translate(17,313)" d="m229 479-5 3 5 3v-2h6v2l5-3-5-3v2h-6z"/>
  <rect transform="scale(-1)" x="-257" y="-803" width="16" height="16" fill="none"/>
 </g>
 <g id="size-diagonal-tr2bl" transform="matrix(.26458 0 0 .26458 -77.522 -7.6737)" enable-background="new">
  <path class="ColorScheme-Text" d="m403 31.003c-1 0-1 1-1 1v4h2v-3h3v-2zm8 0v2h3v3h2v-4c0-1-1-1-1-1zm-9 7v4c0 1 1 1 1 1h4v-2h-3v-3zm12 0v3h-3v2h4s1 0 1-1v-4z" fill="currentColor"/>
  <rect x="401" y="29" width="15.982" height="16" rx="0" ry="0" fill="none"/>
 </g>
 <g id="size-diagonal-tl2br" transform="matrix(.26458 0 0 .26458 -106.1 -2.9113)" enable-background="new">
  <path class="ColorScheme-Text" d="m403 31.003c-1 0-1 1-1 1v4h2v-3h3v-2zm8 0v2h3v3h2v-4c0-1-1-1-1-1zm-9 7v4c0 1 1 1 1 1h4v-2h-3v-3zm12 0v3h-3v2h4s1 0 1-1v-4z" fill="currentColor"/>
  <rect x="401" y="29" width="15.982" height="16" rx="0" ry="0" fill="none"/>
 </g>
 <g id="maximize" transform="matrix(.26458 0 0 .26458 -101.33 -2.9113)" enable-background="new">
  <path class="ColorScheme-Text" d="m403 31.003c-1 0-1 1-1 1v4h2v-3h3v-2zm8 0v2h3v3h2v-4c0-1-1-1-1-1zm-9 7v4c0 1 1 1 1 1h4v-2h-3v-3zm12 0v3h-3v2h4s1 0 1-1v-4z" fill="currentColor"/>
  <rect x="401" y="29" width="15.982" height="16" rx="0" ry="0" fill="none"/>
 </g>
 <g id="unmaximize" transform="matrix(.26458 0 0 .26458 -96.571 -2.9113)" enable-background="new">
  <path class="ColorScheme-Text" d="m412 38.003s-1 0-1 1v4h2v-3h3v-2zm-10 0v2h3v3h2v-4s0-1-1-1zm9-7v4s0 1 1 1h4v-2h-3v-3zm-6 0v3h-3v2h4c1 0 1-1 1-1v-4z" fill="currentColor"/>
  <rect x="401" y="29" width="15.982" height="16" rx="0" ry="0" fill="none"/>
 </g>
 <g id="status" transform="matrix(-.26458 0 0 .26458 88.633 36.255)" enable-background="new">
  <rect transform="scale(1,-1)" x="265" y="103.03" width="16" height="16" enable-background="accumulate" opacity="0" stroke-width="3"/>
  <path class="ColorScheme-Text" transform="matrix(-1,0,0,1,425,-717)" d="m146 600c-0.554 0-1 0.446-1 1v10c0 0.554 0.446 1 1 1h12c0.554 0 1-0.446 1-1v-10c0-0.554-0.446-1-1-1zm1 8h10v2h-10z" fill="currentColor"/>
 </g>
 <g id="delete" transform="matrix(.26458 0 0 .26458 -111.92 -57.943)" enable-background="new">
  <rect x="441" y="255.01" width="16" height="16" enable-background="new" fill="none"/>
  <path class="ColorScheme-Text" transform="translate(14,174)" d="m429 86v9c5e-5 0.52358 0.47642 0.99995 1 1h9c0.52358-5e-5 0.99995-0.47642 1-1v-9z" enable-background="accumulate" fill="currentColor"/>
  <path class="ColorScheme-Text" d="m442 258v1l13-3e-3 -2e-4 -0.99664c0-1-0.9998-1.0034-0.9998-1.0034h-3s0-1-1-1h-3c-1 0-1 1-1 1h-3s-1.0002 3e-3 -1.0002 1.0034z" enable-background="accumulate" fill="currentColor"/>
 </g>
 <g id="add" transform="matrix(.26458 0 0 .26458 -6.6169 -214.57)" enable-background="new">
  <rect x="61" y="847" width="16" height="16" fill="none"/>
  <path class="ColorScheme-Text" d="m68 850v4h-4v2h4v4h2v-4h4v-2h-4v-4z" fill="currentColor"/>
 </g>
 <g id="remove" transform="matrix(.26458 0 0 .26458 8.9939 -63.496)" enable-background="new">
  <rect x="20" y="276" width="16" height="16" fill="none"/>
  <rect class="ColorScheme-Text" x="23" y="283" width="9.9996" height="2.0002" fill="currentColor"/>
 </g>
 <g id="filter" transform="translate(.5287 -249.37)">
  <rect x="18.52" y="258.9" width="4.233" height="4.233" fill="none"/>
  <rect x="19.05" y="259.43" width="3.175" height="3.175" fill="none"/>
  <path class="ColorScheme-Text" transform="matrix(.26458 0 0 .26458 -.60971 244.14)" d="m76.305 57.787-1 1v1l3 5.2598v2.7422l3 1.9961v2e-3h1v-4.7402l3-5.2598v-1l-1-1h-8zm1 2h3l-1 1v1z" fill="currentColor"/>
 </g>
 <g id="help" transform="translate(.52648 -249.37)">
  <rect x="-.53" y="258.9" width="4.233" height="4.233" opacity="0"/>
  <g transform="matrix(.26458 0 0 .26458 -118 149.89)">
   <path class="ColorScheme-Text" d="m453 427h-2v-2h2zm2.07-7.75-0.9 0.92c-0.72 0.73-1.17 1.33-1.17 2.83h-2v-0.5c0-1.1 0.45-2.1 1.17-2.83l1.24-1.26c0.37-0.36 0.59-0.86 0.59-1.41 0-1.1-0.9-2-2-2s-2 0.9-2 2h-2c0-2.21 1.79-4 4-4s4 1.79 4 4c0 0.88-0.36 1.68-0.93 2.25z" fill="currentColor"/>
  </g>
 </g>
 <g id="close" transform="matrix(.26458 0 0 .26458 -10.584 -5.2861)">
  <rect x="130" y="55.99" width="16" height="16" opacity="0"/>
  <g transform="matrix(1.4994,0,0,1.5,36.042,-724.98)" enable-background="new">
   <g transform="translate(19,-242)">
    <path class="ColorScheme-Text" d="m45 764h1c0.01037-1.2e-4 0.02079-4.6e-4 0.03125 0 0.25495 0.0112 0.50987 0.12858 0.6875 0.3125l2.2812 2.2812 2.3125-2.2812c0.26562-0.2305 0.44667-0.3055 0.6875-0.3125h1v1c0 0.28647-0.03434 0.55065-0.25 0.75l-2.2812 2.2812 2.25 2.25c0.18819 0.18817 0.28124 0.45345 0.28125 0.71875v1h-1c-0.2653-1e-5 -0.53059-0.0931-0.71875-0.28125l-2.2812-2.2812-2.2812 2.2812c-0.18816 0.18819-0.45346 0.28125-0.71875 0.28125h-1v-1c-3e-6 -0.26529 0.09306-0.53058 0.28125-0.71875l2.2812-2.25-2.2812-2.2812c-0.21074-0.19463-0.30316-0.46925-0.28125-0.75z" fill="currentColor"/>
   </g>
  </g>
 </g>
 <g id="showbackground" transform="translate(.26465 .0028966)">
  <path class="ColorScheme-Text" transform="matrix(.26458 0 0 .26458 0 -9.6774e-5)" d="m111 37c-1.662 0-3 1.338-3 3v8c0 1.662 1.338 3 3 3h8c1.662 0 3-1.338 3-3v-8c0-1.662-1.338-3-3-3zm0 2h8c0.554 0 1 0.446 1 1v8c0 0.554-0.446 1-1 1h-8c-0.554 0-1-0.446-1-1v-8c0-0.554 0.446-1 1-1z" fill="currentColor"/>
  <rect x="28.31" y="9.5248" width="4.2333" height="4.2333" fill="none"/>
  <path class="ColorScheme-Text" d="m30.409 10.845c0.16004 0 0.27844 0.04109 0.3552 0.12314 0.07675 0.08206 0.11513 0.21287 0.11513 0.39233v1.0745h-0.15678l-0.04165-0.24688h-0.0098c-0.05716 0.08401-0.11758 0.14605-0.18127 0.18614-0.06369 0.04011-0.15024 0.06012-0.25966 0.06012-0.11922 0-0.21802-0.03622-0.2964-0.10882-0.07839-0.0745-0.1132-0.18996-0.1132-0.34651 0-0.15273 0.04706-0.30942 0.14994-0.39151 0.10288-0.08401 0.26129-0.12776 0.47523-0.13539l0.22292-0.0087v-0.05449c0-0.12792-0.02368-0.2167-0.07104-0.26634-0.04736-0.04963-0.11432-0.0745-0.20087-0.0745-0.06859 0-0.13391 0.01243-0.19597 0.03719-0.06206 0.02292-0.12003 0.04963-0.17392 0.08023l-0.06614-0.18901c0.05716-0.03622 0.12493-0.06682 0.20332-0.09169 0.07839-0.02671 0.16004-0.04011 0.24496-0.04011zm0.25721 0.79597-0.19352 0.0087c-0.16331 0.0076-0.27681 0.03611-0.3405 0.08963-0.06206 0.05352-0.09309 0.14542-0.09309 0.24276 0 0.08596 0.02205 0.14892 0.06614 0.18901 0.04573 0.04011 0.1037 0.06011 0.17392 0.06011 0.10942 0 0.20087-0.03536 0.27436-0.10596 0.07512-0.07255 0.11268-0.18328 0.11268-0.33219z" fill="currentColor"/>
 </g>
</svg>
