<?xml version="1.0" encoding="UTF-8"?>
<svg width="48" height="98" version="1.0" xmlns="http://www.w3.org/2000/svg" xmlns:cc="http://creativecommons.org/ns#" xmlns:dc="http://purl.org/dc/elements/1.1/" xmlns:rdf="http://www.w3.org/1999/02/22-rdf-syntax-ns#">
 <metadata>
  <rdf:RDF>
   <cc:Work rdf:about="">
    <dc:format>image/svg+xml</dc:format>
    <dc:type rdf:resource="http://purl.org/dc/dcmitype/StillImage"/>
    <dc:title/>
   </cc:Work>
  </rdf:RDF>
 </metadata>
 <defs>
  <style id="current-color-scheme" type="text/css">.ColorScheme-Text {
        color:#31363b;
        stop-color:#31363b;
      }
      .ColorScheme-Background {
        color:#eff0f1;
        stop-color:#eff0f1;
      }
      .ColorScheme-Highlight {
        color:#3daee9;
        stop-color:#3daee9;
      }
      .ColorScheme-ViewText {
        color:#31363b;
        stop-color:#31363b;
      }
      .ColorScheme-ViewBackground {
        color:#fcfcfc;
        stop-color:#fcfcfc;
      }
      .ColorScheme-ViewHover {
        color:#93cee9;
        stop-color:#93cee9;
      }
      .ColorScheme-ViewFocus{
        color:#3daee9;
        stop-color:#3daee9;
      }
      .ColorScheme-ButtonText {
        color:#31363b;
        stop-color:#31363b;
      }
      .ColorScheme-ButtonBackground {
        color:#eff0f1;
        stop-color:#eff0f1;
      }
      .ColorScheme-ButtonHover {
        color:#93cee9;
        stop-color:#93cee9;
      }
      .ColorScheme-ButtonFocus{
        color:#3daee9;
        stop-color:#3daee9;
      }</style>
 </defs>
 <rect id="slider-center" class="ColorScheme-Text" x="24" y="20" width="1" height="10" color="#31363b" fill="#fff" fill-rule="evenodd" opacity=".15"/>
 <g id="slider-right" transform="matrix(.75 0 0 1 19.25 13)">
  <path class="ColorScheme-Text" d="m9 7v10h4v-10z" color="#31363b" fill="#fff" fill-rule="evenodd" opacity=".15"/>
  <rect transform="matrix(1.3333,0,0,1,-25.667,-13)" x="29" y="20" width="1" height="10" fill="#e4e6e8" opacity=".01"/>
 </g>
 <g id="slider-topright" transform="matrix(.75 0 0 .75 19.25 13.75)">
  <rect transform="matrix(1.3333,0,0,1.3333,-25.667,-18.333)" x="26" y="15" width="4" height="4" fill="#e4e6e8" opacity=".01"/>
  <path class="ColorScheme-Text" d="m9 3v4h4c0-2.216-1.784-4-4-4z" color="#31363b" fill="#fff" fill-rule="evenodd" opacity=".15"/>
 </g>
 <g id="slider-bottomright" transform="matrix(.75 0 0 .75 19.25 18.25)">
  <rect transform="matrix(1.3333,0,0,1.3333,-25.667,-24.333)" x="26" y="31" width="4" height="4" fill="#e4e6e8" opacity=".01"/>
  <path class="ColorScheme-Text" d="m9 21v-4h4c0 2.216-1.784 4-4 4z" color="#31363b" fill="#fff" fill-rule="evenodd" opacity=".15"/>
 </g>
 <g id="slider-left" transform="matrix(-.75 0 0 1 29.75 13)">
  <path class="ColorScheme-Text" d="m9 7v10h4v-10z" color="#31363b" fill="#fff" fill-rule="evenodd" opacity=".15"/>
  <rect transform="matrix(-1.3333,0,0,1,39.667,-13)" x="19" y="20" width="1" height="10" fill="#e4e6e8" opacity=".01"/>
 </g>
 <g id="slider-topleft" transform="matrix(-.75 0 0 .75 29.75 13.75)">
  <rect transform="matrix(-1.3333,0,0,1.3333,39.667,-18.333)" x="19" y="15" width="4" height="4" fill="#e4e6e8" opacity=".01"/>
  <path class="ColorScheme-Text" d="m9 3v4h4c0-2.216-1.784-4-4-4z" color="#31363b" fill="#fff" fill-rule="evenodd" opacity=".15"/>
 </g>
 <g id="slider-bottomleft" transform="matrix(-.75 0 0 .75 29.75 18.25)">
  <rect transform="matrix(-1.3333,0,0,1.3333,39.667,-24.333)" x="19" y="31" width="4" height="4" fill="#e4e6e8" opacity=".01"/>
  <path class="ColorScheme-Text" d="m9 21v-4h4c0 2.216-1.784 4-4 4z" color="#31363b" fill="#fff" fill-rule="evenodd" opacity=".15"/>
 </g>
 <g id="slider-top" transform="matrix(0 -.75 -.1 0 25.7 25.75)">
  <rect transform="matrix(0,-10,-1.3333,0,34.333,257)" x="24" y="15" width="1" height="4" fill="#e4e6e8" opacity=".01"/>
  <path class="ColorScheme-Text" d="m9 7v10h4v-10z" color="#31363b" fill="#fff" fill-rule="evenodd" opacity=".15"/>
 </g>
 <g id="slider-bottom" transform="matrix(0 .75 -.1 0 25.7 24.25)">
  <rect transform="matrix(0,-10,1.3333,0,-32.333,257)" x="24" y="31" width="1" height="4" fill="#e4e6e8" opacity=".01"/>
  <path class="ColorScheme-Text" d="m9 7v10h4v-10z" color="#31363b" fill="#fff" fill-rule="evenodd" opacity=".15"/>
 </g>
 <rect id="hint-scrollbar-size" x="4" y="25" width="8" height="8" rx="0" ry="8" fill="#4e9a06"/>
 <rect id="hint-tile-center" x="4.1975" y="12.744" width="8" height="8" rx="0" ry="8" fill="#4e9a06" stroke-width="3.8932"/>
 <g id="background-vertical-right" transform="matrix(.75 0 0 1 33.25 13)">
  <path class="ColorScheme-Text" d="m9 7v10h4v-10z" color="#31363b" fill="#fff" fill-rule="evenodd" opacity=".08"/>
  <rect transform="matrix(1.3333,0,0,1,-44.333,-13)" x="43" y="20" width="1" height="10" fill="#e4e6e8" opacity=".01"/>
 </g>
 <g id="background-vertical-topright" transform="matrix(.75 0 0 .75 33.25 13.75)">
  <rect transform="matrix(1.3333,0,0,1.3333,-44.333,-18.333)" x="40" y="15" width="4" height="4" fill="#e4e6e8" opacity=".01"/>
  <path class="ColorScheme-Text" d="m9 3v4h4c0-2.216-1.784-4-4-4z" color="#31363b" fill="#fff" fill-rule="evenodd" opacity=".08"/>
 </g>
 <g id="background-vertical-bottomright" transform="matrix(.75 0 0 .75 33.25 18.25)">
  <rect transform="matrix(1.3333,0,0,1.3333,-44.333,-24.333)" x="40" y="31" width="4" height="4" fill="#e4e6e8" opacity=".01"/>
  <path class="ColorScheme-Text" d="m9 21v-4h4c0 2.216-1.784 4-4 4z" color="#31363b" fill="#fff" fill-rule="evenodd" opacity=".08"/>
 </g>
 <g id="background-vertical-left" transform="matrix(-.75 0 0 1 43.75 13)">
  <path class="ColorScheme-Text" d="m9 7v10h4v-10z" color="#31363b" fill="#fff" fill-rule="evenodd" opacity=".08"/>
  <rect transform="matrix(-1.3333,0,0,1,58.333,-13)" x="33" y="20" width="1" height="10" fill="#e4e6e8" opacity=".01"/>
 </g>
 <g id="background-vertical-topleft" transform="matrix(-.75 0 0 .75 43.75 13.75)">
  <rect transform="matrix(-1.3333,0,0,1.3333,58.333,-18.333)" x="33" y="15" width="4" height="4" fill="#e4e6e8" opacity=".01"/>
  <path class="ColorScheme-Text" d="m9 3v4h4c0-2.216-1.784-4-4-4z" color="#31363b" fill="#fff" fill-rule="evenodd" opacity=".08"/>
 </g>
 <g id="background-vertical-bottomleft" transform="matrix(-.75 0 0 .75 43.75 18.25)">
  <rect transform="matrix(-1.3333,0,0,1.3333,58.333,-24.333)" x="33" y="31" width="4" height="4" fill="#e4e6e8" opacity=".01"/>
  <path class="ColorScheme-Text" d="m9 21v-4h4c0 2.216-1.784 4-4 4z" color="#31363b" fill="#fff" fill-rule="evenodd" opacity=".08"/>
 </g>
 <g id="background-vertical-top" transform="matrix(0 -.75 -.1 0 39.7 25.75)">
  <rect transform="matrix(0,-10,-1.3333,0,34.333,397)" x="38" y="15" width="1" height="4" fill="#e4e6e8" opacity=".01"/>
  <path class="ColorScheme-Text" d="m9 7v10h4v-10z" color="#31363b" fill="#fff" fill-rule="evenodd" opacity=".08"/>
 </g>
 <g id="background-vertical-bottom" transform="matrix(0 .75 -.1 0 39.7 24.25)">
  <rect transform="matrix(0,-10,1.3333,0,-32.333,397)" x="38" y="31" width="1" height="4" fill="#e4e6e8" opacity=".01"/>
  <path class="ColorScheme-Text" d="m9 7v10h4v-10z" color="#31363b" fill="#fff" fill-rule="evenodd" opacity=".08"/>
 </g>
 <rect id="sunken-slider-center" class="ColorScheme-ButtonHover" x="24" y="64" width="1" height="10" color="#93cee9" fill="#fff" fill-rule="evenodd" opacity=".65"/>
 <g id="sunken-slider-right" transform="matrix(.75 0 0 1 19.25 57)">
  <path class="ColorScheme-ButtonHover" d="m9 7v10h4v-10z" fill="#fff" fill-rule="evenodd" opacity=".65"/>
  <rect transform="matrix(1.3333,0,0,1,-25.667,-57)" x="29" y="64" width="1" height="10" fill="#e4e6e8" opacity=".01"/>
 </g>
 <g id="sunken-slider-topright" transform="matrix(.75 0 0 .75 19.25 57.75)">
  <rect transform="matrix(1.3333,0,0,1.3333,-25.667,-77)" x="26" y="59" width="4" height="4" fill="#e4e6e8" opacity=".01"/>
  <path class="ColorScheme-ButtonHover" d="m9 3v4h4c0-2.216-1.784-4-4-4z" color="#93cee9" fill="#fff" fill-rule="evenodd" opacity=".65"/>
 </g>
 <g id="sunken-slider-bottomright" transform="matrix(.75 0 0 .75 19.25 62.25)">
  <rect transform="matrix(1.3333,0,0,1.3333,-25.667,-83)" x="26" y="75" width="4" height="4" fill="#e4e6e8" opacity=".01"/>
  <path class="ColorScheme-ButtonHover" d="m9 21v-4h4c0 2.216-1.784 4-4 4z" color="#93cee9" fill="#fff" fill-rule="evenodd" opacity=".65"/>
 </g>
 <g id="sunken-slider-left" transform="matrix(-.75 0 0 1 29.75 57)">
  <path class="ColorScheme-ButtonHover" d="m9 7v10h4v-10z" color="#93cee9" fill="#fff" fill-rule="evenodd" opacity=".65"/>
  <rect transform="matrix(-1.3333,0,0,1,39.667,-57)" x="19" y="64" width="1" height="10" fill="#e4e6e8" opacity=".01"/>
 </g>
 <g id="sunken-slider-topleft" transform="matrix(-.75 0 0 .75 29.75 57.75)">
  <rect transform="matrix(-1.3333,0,0,1.3333,39.667,-77)" x="19" y="59" width="4" height="4" fill="#e4e6e8" opacity=".01"/>
  <path class="ColorScheme-ButtonHover" d="m9 3v4h4c0-2.216-1.784-4-4-4z" color="#93cee9" fill="#fff" fill-rule="evenodd" opacity=".65"/>
 </g>
 <g id="sunken-slider-bottomleft" transform="matrix(-.75 0 0 .75 29.75 62.25)">
  <rect transform="matrix(-1.3333,0,0,1.3333,39.667,-83)" x="19" y="75" width="4" height="4" fill="#e4e6e8" opacity=".01"/>
  <path class="ColorScheme-ButtonHover" d="m9 21v-4h4c0 2.216-1.784 4-4 4z" color="#93cee9" fill="#fff" fill-rule="evenodd" opacity=".65"/>
 </g>
 <g id="sunken-slider-top" transform="matrix(0 -.75 -.1 0 25.7 69.75)">
  <rect transform="matrix(0,-10,-1.3333,0,93,257)" x="24" y="59" width="1" height="4" fill="#e4e6e8" opacity=".01"/>
  <path class="ColorScheme-ButtonHover" d="m9 7v10h4v-10z" color="#93cee9" fill="#fff" fill-rule="evenodd" opacity=".65"/>
 </g>
 <g id="sunken-slider-bottom" transform="matrix(0 .75 -.1 0 25.7 68.25)">
  <rect transform="matrix(0,-10,1.3333,0,-91,257)" x="24" y="75" width="1" height="4" fill="#e4e6e8" opacity=".01"/>
  <path class="ColorScheme-ButtonHover" d="m9 7v10h4v-10z" color="#93cee9" fill="#fff" fill-rule="evenodd" opacity=".65"/>
 </g>
 <rect id="mouseover-slider-center" class="ColorScheme-ButtonHover" x="24" y="42" width="1" height="10" color="#93cee9" fill="#fff" fill-rule="evenodd" opacity=".35"/>
 <g id="mouseover-slider-right" transform="matrix(.75 0 0 1 19.25 35)">
  <path class="ColorScheme-ButtonHover" d="m9 7v10h4v-10z" color="#93cee9" fill="#fff" fill-rule="evenodd" opacity=".35"/>
  <rect transform="matrix(1.3333,0,0,1,-25.667,-57)" x="29" y="64" width="1" height="10" fill="#e4e6e8" opacity=".01"/>
 </g>
 <g id="mouseover-slider-topright" transform="matrix(.75 0 0 .75 19.25 35.75)">
  <rect transform="matrix(1.3333,0,0,1.3333,-25.667,-77)" x="26" y="59" width="4" height="4" fill="#e4e6e8" opacity=".01"/>
  <path class="ColorScheme-ButtonHover" d="m9 3v4h4c0-2.216-1.784-4-4-4z" color="#93cee9" fill="#fff" fill-rule="evenodd" opacity=".35"/>
 </g>
 <g id="mouseover-slider-bottomright" transform="matrix(.75 0 0 .75 19.25 40.25)">
  <rect transform="matrix(1.3333,0,0,1.3333,-25.667,-83)" x="26" y="75" width="4" height="4" fill="#e4e6e8" opacity=".01"/>
  <path class="ColorScheme-ButtonHover" d="m9 21v-4h4c0 2.216-1.784 4-4 4z" color="#93cee9" fill="#fff" fill-rule="evenodd" opacity=".35"/>
 </g>
 <g id="mouseover-slider-left" transform="matrix(-.75 0 0 1 29.75 35)">
  <path class="ColorScheme-ButtonHover" d="m9 7v10h4v-10z" color="#93cee9" fill="#fff" fill-rule="evenodd" opacity=".35"/>
  <rect transform="matrix(-1.3333,0,0,1,39.667,-57)" x="19" y="64" width="1" height="10" fill="#e4e6e8" opacity=".01"/>
 </g>
 <g id="mouseover-slider-topleft" transform="matrix(-.75 0 0 .75 29.75 35.75)">
  <rect transform="matrix(-1.3333,0,0,1.3333,39.667,-77)" x="19" y="59" width="4" height="4" fill="#e4e6e8" opacity=".01"/>
  <path class="ColorScheme-ButtonHover" d="m9 3v4h4c0-2.216-1.784-4-4-4z" color="#93cee9" fill="#fff" fill-rule="evenodd" opacity=".35"/>
 </g>
 <g id="mouseover-slider-bottomleft" transform="matrix(-.75 0 0 .75 29.75 40.25)">
  <rect transform="matrix(-1.3333,0,0,1.3333,39.667,-83)" x="19" y="75" width="4" height="4" fill="#e4e6e8" opacity=".01"/>
  <path class="ColorScheme-ButtonHover" d="m9 21v-4h4c0 2.216-1.784 4-4 4z" color="#93cee9" fill="#fff" fill-rule="evenodd" opacity=".35"/>
 </g>
 <g id="mouseover-slider-top" transform="matrix(0 -.75 -.1 0 25.7 47.75)">
  <rect transform="matrix(0,-10,-1.3333,0,93,257)" x="24" y="59" width="1" height="4" fill="#e4e6e8" opacity=".01"/>
  <path class="ColorScheme-ButtonHover" d="m9 7v10h4v-10z" color="#93cee9" fill="#fff" fill-rule="evenodd" opacity=".35"/>
 </g>
 <g id="mouseover-slider-bottom" transform="matrix(0 .75 -.1 0 25.7 46.25)">
  <rect transform="matrix(0,-10,1.3333,0,-91,257)" x="24" y="75" width="1" height="4" fill="#e4e6e8" opacity=".01"/>
  <path class="ColorScheme-ButtonHover" d="m9 7v10h4v-10z" color="#93cee9" fill="#fff" fill-rule="evenodd" opacity=".35"/>
 </g>
 <g id="background-vertical-center" fill-rule="evenodd">
  <rect class="ColorScheme-Text" x="38" y="20" width="1" height="10" color="#31363b" fill="#fff" opacity=".08"/>
 </g>
 <g id="background-horizontal-right" transform="matrix(.75 0 0 1 33.25 35)">
  <path class="ColorScheme-Text" d="m9 7v10h4v-10z" color="#31363b" fill="#fff" fill-rule="evenodd" opacity=".25"/>
  <rect transform="matrix(1.3333,0,0,1,-44.333,-13)" x="43" y="20" width="1" height="10" fill="#e4e6e8" opacity=".01"/>
 </g>
 <g id="background-horizontal-topright" transform="matrix(.75 0 0 .75 33.25 35.75)">
  <rect transform="matrix(1.3333,0,0,1.3333,-44.333,-18.333)" x="40" y="15" width="4" height="4" fill="#e4e6e8" opacity=".01"/>
  <path class="ColorScheme-Text" d="m9 3v4h4c0-2.216-1.784-4-4-4z" color="#31363b" fill="#fff" fill-rule="evenodd" opacity=".25"/>
 </g>
 <g id="background-horizontal-bottomright" transform="matrix(.75 0 0 .75 33.25 40.25)">
  <rect transform="matrix(1.3333,0,0,1.3333,-44.333,-24.333)" x="40" y="31" width="4" height="4" fill="#e4e6e8" opacity=".01"/>
  <path class="ColorScheme-Text" d="m9 21v-4h4c0 2.216-1.784 4-4 4z" color="#31363b" fill="#fff" fill-rule="evenodd" opacity=".25"/>
 </g>
 <g id="background-horizontal-left" transform="matrix(-.75 0 0 1 43.75 35)">
  <path class="ColorScheme-Text" d="m9 7v10h4v-10z" color="#31363b" fill="#fff" fill-rule="evenodd" opacity=".25"/>
  <rect transform="matrix(-1.3333,0,0,1,58.333,-13)" x="33" y="20" width="1" height="10" fill="#e4e6e8" opacity=".01"/>
 </g>
 <g id="background-horizontal-topleft" transform="matrix(-.75 0 0 .75 43.75 35.75)">
  <rect transform="matrix(-1.3333,0,0,1.3333,58.333,-18.333)" x="33" y="15" width="4" height="4" fill="#e4e6e8" opacity=".01"/>
  <path class="ColorScheme-Text" d="m9 3v4h4c0-2.216-1.784-4-4-4z" color="#31363b" fill="#fff" fill-rule="evenodd" opacity=".25"/>
 </g>
 <g id="background-horizontal-bottomleft" transform="matrix(-.75 0 0 .75 43.75 40.25)">
  <rect transform="matrix(-1.3333,0,0,1.3333,58.333,-24.333)" x="33" y="31" width="4" height="4" fill="#e4e6e8" opacity=".01"/>
  <path class="ColorScheme-Text" d="m9 21v-4h4c0 2.216-1.784 4-4 4z" color="#31363b" fill="#fff" fill-rule="evenodd" opacity=".25"/>
 </g>
 <g id="background-horizontal-top" transform="matrix(0 -.75 -.1 0 39.7 47.75)">
  <rect transform="matrix(0,-10,-1.3333,0,34.333,397)" x="38" y="15" width="1" height="4" fill="#e4e6e8" opacity=".01"/>
  <path class="ColorScheme-Text" d="m9 7v10h4v-10z" color="#31363b" fill="#fff" fill-rule="evenodd" opacity=".25"/>
 </g>
 <g id="background-horizontal-bottom" transform="matrix(0 .75 -.1 0 39.7 46.25)">
  <rect transform="matrix(0,-10,1.3333,0,-32.333,397)" x="38" y="31" width="1" height="4" fill="#e4e6e8" opacity=".01"/>
  <path class="ColorScheme-Text" d="m9 7v10h4v-10z" color="#31363b" fill="#fff" fill-rule="evenodd" opacity=".25"/>
 </g>
 <g id="background-horizontal-center" transform="translate(9.35e-7,22)" fill-rule="evenodd">
  <rect class="ColorScheme-Text" x="38" y="20" width="1" height="10" color="#31363b" fill="#fff" opacity=".25"/>
 </g>
</svg>
